<?xml version="1.0" encoding="UTF-8" standalone="no"?>
<!-- Created with Inkscape (http://www.inkscape.org/) -->

<svg
   xmlns:ns0="http://www.iki.fi/pav/software/textext/"
   xmlns:dc="http://purl.org/dc/elements/1.1/"
   xmlns:cc="http://creativecommons.org/ns#"
   xmlns:rdf="http://www.w3.org/1999/02/22-rdf-syntax-ns#"
   xmlns:svg="http://www.w3.org/2000/svg"
   xmlns="http://www.w3.org/2000/svg"
   xmlns:sodipodi="http://sodipodi.sourceforge.net/DTD/sodipodi-0.dtd"
   xmlns:inkscape="http://www.inkscape.org/namespaces/inkscape"
   width="744.09448819"
   height="1052.3622047"
   id="svg4035"
   version="1.1"
   inkscape:version="0.48.4 r9939"
   sodipodi:docname="2DextremesIdea.svg">
  <sodipodi:namedview
     id="base"
     pagecolor="#ffffff"
     bordercolor="#666666"
     borderopacity="1.0"
     inkscape:pageopacity="0.0"
     inkscape:pageshadow="2"
     inkscape:zoom="0.175"
     inkscape:cx="-772.51002"
     inkscape:cy="939.45207"
     inkscape:document-units="px"
     inkscape:current-layer="layer1"
     showgrid="true"
     inkscape:window-width="1366"
     inkscape:window-height="744"
     inkscape:window-x="0"
     inkscape:window-y="24"
     inkscape:window-maximized="1">
    <inkscape:grid
       type="xygrid"
       id="grid4062" />
  </sodipodi:namedview>
  <defs
     id="defs4037" />
  <metadata
     id="metadata4040">
    <rdf:RDF>
      <cc:Work
         rdf:about="">
        <dc:format>image/svg+xml</dc:format>
        <dc:type
           rdf:resource="http://purl.org/dc/dcmitype/StillImage" />
        <dc:title />
      </cc:Work>
    </rdf:RDF>
  </metadata>
  <g
     inkscape:label="Layer 1"
     inkscape:groupmode="layer"
     id="layer1">
    <path
       style="fill:none;stroke:#000000;stroke-width:1px;stroke-linecap:butt;stroke-linejoin:miter;stroke-opacity:1"
       d="m 40,172.36218 0,720 680,0"
       id="path4064"
       inkscape:connector-curvature="0"
       sodipodi:nodetypes="ccc" />
    <path
       style="fill:none;stroke:#000000;stroke-width:1px;stroke-linecap:butt;stroke-linejoin:miter;stroke-opacity:1"
       d="m 40,572.36218 380,0 0,320"
       id="path4066"
       inkscape:connector-curvature="0" />
    <path
       style="fill:none;stroke:#000000;stroke-width:1px;stroke-linecap:butt;stroke-linejoin:miter;stroke-opacity:1"
       d="m 720,812.36218 -680,80 120,-720 -120,0"
       id="path4074"
       inkscape:connector-curvature="0"
       sodipodi:nodetypes="ccc" />
    <g
       ns0:preamble=""
       ns0:text="both $X_1$ and $X_2$ large\n"
       word-spacing="normal"
       letter-spacing="normal"
       font-size-adjust="none"
       font-stretch="normal"
       font-weight="normal"
       font-variant="normal"
       font-style="normal"
       stroke-miterlimit="10.433"
       xml:space="preserve"
       transform="matrix(4.9872062,0,0,-4.9872062,-878.58789,3965.5793)"
       id="content"
       style="font-style:normal;font-variant:normal;font-weight:normal;font-stretch:normal;letter-spacing:normal;word-spacing:normal;text-anchor:start;fill:none;stroke:#000000;stroke-linecap:butt;stroke-linejoin:miter;stroke-miterlimit:10.43299961;stroke-opacity:1;stroke-dasharray:none;stroke-dashoffset:0"><path
         id="path4293"
         d="m 225.14,710.87 v 3.15 l -1.43,-0.11 v -0.31 c 0.7,0 0.78,-0.07 0.78,-0.55 v -5.93 h 0.25 c 0,0.02 0.08,0.15 0.35,0.62 0.15,-0.23 0.57,-0.72 1.31,-0.72 l -0.04,0.21 c -0.45,0 -0.81,0.24 -1.05,0.61 -0.14,0.21 -0.14,0.24 -0.14,0.42 h 0 v 2.04 c 0,0.19 0,0.2 0.11,0.36 0.39,0.56 0.94,0.64 1.18,0.64 0.44,0 0.8,-0.26 1.04,-0.64 0.26,-0.41 0.29,-0.97 0.29,-1.38 0,-0.37 -0.02,-0.96 -0.31,-1.41 -0.21,-0.31 -0.59,-0.64 -1.12,-0.64 l 0.04,-0.21 c 1.18,0 2.22,0.97 2.22,2.25 0,1.26 -0.98,2.25 -2.11,2.25 -0.78,0 -1.21,-0.47 -1.37,-0.65 z"
         inkscape:connector-curvature="0"
         style="fill:#000000;stroke-width:0" /><path
         id="path4295"
         d="m 233.93,709.25 0,0.12 -0.01,0.12 -0.01,0.11 -0.02,0.12 -0.03,0.11 -0.03,0.11 -0.03,0.11 -0.04,0.1 -0.05,0.1 -0.05,0.1 -0.05,0.1 -0.06,0.09 -0.06,0.1 -0.06,0.08 -0.07,0.09 -0.08,0.08 -0.07,0.08 -0.08,0.07 -0.09,0.07 -0.08,0.06 -0.09,0.07 -0.09,0.05 -0.1,0.05 -0.1,0.05 -0.1,0.04 -0.1,0.04 -0.1,0.03 -0.11,0.03 -0.1,0.02 -0.11,0.01 -0.11,0.01 -0.12,0.01 -0.01,-0.22 c 0.44,0 0.87,-0.22 1.13,-0.65 0.26,-0.43 0.26,-1 0.26,-1.38 0,-0.36 0,-0.89 -0.22,-1.33 -0.22,-0.45 -0.66,-0.74 -1.16,-0.74 h 0 c -0.42,0 -0.86,0.21 -1.13,0.67 -0.25,0.44 -0.25,1.04 -0.25,1.4 0,0.39 0,0.92 0.24,1.36 0.27,0.46 0.74,0.67 1.13,0.67 l 0.01,0.22 c -1.24,0 -2.21,-1.09 -2.21,-2.33 0,-1.28 1.04,-2.23 2.2,-2.23 1.21,0 2.21,0.97 2.21,2.23 z"
         inkscape:connector-curvature="0"
         style="fill:#000000;stroke-width:0" /><path
         id="path4297"
         d="m 235.95,711.1 h 1.42 v 0.31 h -1.42 v 1.82 h -0.25 c -0.01,-0.81 -0.31,-1.87 -1.28,-1.91 v -0.22 h 0.84 v -2.74 c 0,-1.22 0.93,-1.34 1.29,-1.34 0.7,0 0.98,0.7 0.98,1.34 v 0.56 h -0.25 v -0.54 c 0,-0.74 -0.3,-1.12 -0.66,-1.12 -0.67,0 -0.67,0.91 -0.67,1.08 z"
         inkscape:connector-curvature="0"
         style="fill:#000000;stroke-width:0" /><path
         id="path4299"
         d="m 239.2,707.88 0,-0.02 0,-0.02 -0.01,-0.04 0,-0.03 0,-0.04 0,-0.03 -0.01,-0.03 0,-0.02 -0.01,-0.03 -0.01,-0.02 -0.01,-0.02 -0.01,-0.02 -0.01,-0.02 -0.02,-0.01 -0.01,-0.02 -0.02,-0.01 -0.02,-0.01 -0.02,-0.01 -0.03,-0.01 -0.02,-0.01 -0.03,0 -0.03,-0.01 -0.03,0 -0.04,-0.01 -0.02,0 -0.02,0 -0.02,0 -0.02,0 -0.02,0 -0.02,0 -0.02,0 -0.03,-0.01 -0.02,0 -0.03,0 -0.02,0 -0.03,0 -0.02,0 -0.03,0 -0.03,0 -0.03,0 -0.03,0 -0.03,0 v -0.31 c 0.35,0.02 0.86,0.04 1.12,0.04 0.26,0 0.78,-0.02 1.12,-0.04 v 0.31 c -0.67,0 -0.78,0 -0.78,0.45 v 1.83 c 0,1.03 0.71,1.59 1.35,1.59 0.62,0 0.73,-0.54 0.73,-1.1 v -2.32 c 0,-0.45 -0.11,-0.45 -0.77,-0.45 v -0.31 c 0.34,0.02 0.85,0.04 1.12,0.04 0.26,0 0.78,-0.02 1.12,-0.04 v 0.31 c -0.52,0 -0.77,0 -0.78,0.3 v 1.9 c 0,0.85 0,1.16 -0.31,1.52 -0.14,0.17 -0.47,0.37 -1.04,0.37 -0.84,0 -1.28,-0.6 -1.45,-0.98 v 3.48 l -1.43,-0.11 v -0.31 c 0.7,0 0.78,-0.07 0.78,-0.55 z"
         inkscape:connector-curvature="0"
         style="fill:#000000;stroke-width:0" /><path
         id="path4301"
         d="m 251.78,711.21 -0.83,1.97 c -0.04,0.08 -0.05,0.12 -0.05,0.13 0,0.06 0.16,0.25 0.58,0.29 0.1,0.01 0.2,0.02 0.2,0.19 0,0.12 -0.12,0.12 -0.15,0.12 -0.41,0 -0.83,-0.03 -1.25,-0.03 -0.25,0 -0.87,0.03 -1.12,0.03 -0.06,0 -0.17,0 -0.17,-0.2 0,-0.11 0.09,-0.11 0.22,-0.11 0.6,0 0.66,-0.1 0.75,-0.32 l 1.17,-2.77 -2.1,-2.25 -0.13,-0.11 c -0.48,-0.53 -0.95,-0.69 -1.46,-0.72 -0.13,-0.01 -0.22,-0.01 -0.22,-0.2 0,-0.01 0,-0.11 0.13,-0.11 0.3,0 0.63,0.04 0.94,0.04 0.37,0 0.75,-0.04 1.11,-0.04 0.06,0 0.18,0 0.18,0.2 0,0.1 -0.1,0.11 -0.12,0.11 -0.09,0.01 -0.4,0.03 -0.4,0.31 0,0.16 0.15,0.32 0.27,0.45 l 1.02,1.07 0.89,0.97 1.01,-2.37 c 0.04,-0.11 0.05,-0.12 0.05,-0.14 0,-0.08 -0.19,-0.25 -0.58,-0.29 -0.11,-0.01 -0.2,-0.02 -0.2,-0.19 0,-0.12 0.11,-0.12 0.15,-0.12 0.28,0 0.98,0.04 1.26,0.04 0.24,0 0.85,-0.04 1.1,-0.04 0.07,0 0.19,0 0.19,0.19 0,0.12 -0.1,0.12 -0.18,0.12 -0.67,0.01 -0.69,0.04 -0.86,0.44 -0.39,0.92 -1.05,2.47 -1.28,3.07 0.68,0.7 1.72,1.88 2.04,2.15 0.29,0.24 0.67,0.48 1.26,0.51 0.13,0.01 0.22,0.01 0.22,0.2 0,0.01 0,0.11 -0.13,0.11 -0.3,0 -0.62,-0.03 -0.93,-0.03 -0.37,0 -0.75,0.03 -1.11,0.03 -0.06,0 -0.19,0 -0.19,-0.2 0,-0.07 0.05,-0.1 0.12,-0.11 0.09,-0.01 0.4,-0.03 0.4,-0.31 0,-0.13 -0.11,-0.26 -0.19,-0.35 z"
         inkscape:connector-curvature="0"
         style="fill:#000000;stroke-width:0" /><path
         id="path4303"
         d="m 257.54,710.05 0,0.01 0,0.01 0,0.01 0,0.01 0,0 0,0.01 0,0.01 0,0.01 0,0 0,0.01 0,0.01 0,0 0,0.01 0,0 0,0.01 0,0 0,0.01 -0.01,0 0,0.01 0,0.01 0,0.01 -0.01,0 0,0.01 0,0.01 -0.01,0 0,0.01 -0.01,0 -0.01,0 -0.01,0.01 0,0 -0.01,0 -0.01,0 -0.01,0 0,0 -0.01,0 0,0.01 -0.01,0 -0.01,0 0,0 -0.01,0 0,0 -0.01,0 -0.01,0 -0.01,0 0,0 -0.01,0 -0.01,0 -0.01,0 -0.01,0 -0.01,0 c -0.44,-0.44 -1.08,-0.45 -1.36,-0.45 v -0.25 c 0.17,0 0.63,0 1.01,0.2 v -3.55 c 0,-0.23 0,-0.32 -0.7,-0.32 h -0.26 v -0.25 c 0.12,0.01 0.98,0.03 1.24,0.03 0.21,0 1.09,-0.02 1.24,-0.03 v 0.25 h -0.26 c -0.7,0 -0.7,0.09 -0.7,0.32 z"
         inkscape:connector-curvature="0"
         style="fill:#000000;stroke-width:0" /><path
         id="path4305"
         d="m 266.31,707.88 0.01,-0.04 0,-0.03 0.01,-0.04 0.01,-0.04 0.01,-0.04 0.01,-0.03 0.01,-0.04 0.01,-0.03 0.02,-0.04 0.02,-0.03 0.01,-0.04 0.02,-0.03 0.02,-0.03 0.02,-0.04 0.03,-0.03 0.02,-0.03 0.02,-0.02 0.03,-0.03 0.03,-0.03 0.03,-0.02 0.03,-0.02 0.03,-0.03 0.03,-0.02 0.04,-0.01 0.03,-0.02 0.04,-0.01 0.03,-0.02 0.04,-0.01 0.04,0 0.04,-0.01 0.04,0 0.05,0 c 0.21,0 0.81,0.13 0.81,0.94 v 0.56 h -0.25 v -0.56 c 0,-0.58 -0.24,-0.64 -0.35,-0.64 -0.33,0 -0.37,0.45 -0.37,0.5 v 1.99 c 0,0.41 0,0.8 -0.36,1.17 -0.39,0.39 -0.89,0.55 -1.36,0.55 -0.82,0 -1.51,-0.47 -1.51,-1.13 0,-0.29 0.2,-0.46 0.46,-0.46 0.28,0 0.46,0.19 0.46,0.45 0,0.12 -0.05,0.45 -0.51,0.46 0.27,0.35 0.76,0.46 1.08,0.46 0.48,0 1.05,-0.39 1.05,-1.27 v -0.37 -0.21 -0.99 c 0,-0.95 -0.71,-1.29 -1.16,-1.29 -0.49,0 -0.9,0.35 -0.9,0.85 0,0.54 0.42,1.37 2.06,1.43 h 0 v 0.21 c -0.51,-0.03 -1.2,-0.06 -1.83,-0.36 -0.74,-0.34 -0.99,-0.85 -0.99,-1.29 0,-0.81 0.96,-1.05 1.59,-1.05 0.66,0 1.11,0.39 1.3,0.86 z"
         inkscape:connector-curvature="0"
         style="fill:#000000;stroke-width:0" /><path
         id="path4307"
         d="m 269.08,710.54 v -2.66 c 0,-0.45 -0.12,-0.45 -0.78,-0.45 v -0.31 c 0.35,0.02 0.85,0.04 1.12,0.04 0.26,0 0.78,-0.02 1.12,-0.04 v 0.31 c -0.67,0 -0.78,0 -0.78,0.45 v 1.83 c 0,1.03 0.71,1.59 1.34,1.59 0.63,0 0.74,-0.54 0.74,-1.1 v -2.32 c 0,-0.45 -0.11,-0.45 -0.77,-0.45 v -0.31 c 0.34,0.02 0.85,0.04 1.12,0.04 0.26,0 0.77,-0.02 1.11,-0.04 v 0.31 c -0.51,0 -0.76,0 -0.77,0.3 v 1.9 c 0,0.85 0,1.16 -0.31,1.52 -0.14,0.17 -0.47,0.37 -1.05,0.37 -0.72,0 -1.19,-0.43 -1.47,-1.05 v 1.05 l -1.4,-0.11 v -0.31 c 0.69,0 0.78,-0.07 0.78,-0.56 z"
         inkscape:connector-curvature="0"
         style="fill:#000000;stroke-width:0" /><path
         id="path4309"
         d="m 277.3,707.67 v -0.65 l 1.46,0.1 v 0.31 c -0.7,0 -0.78,0.07 -0.78,0.56 v 6.03 l -1.43,-0.11 v -0.31 c 0.7,0 0.78,-0.07 0.78,-0.55 v -2.15 c -0.29,0.36 -0.72,0.62 -1.26,0.62 l 0.04,-0.22 c 0.35,0 0.77,-0.15 1.08,-0.6 0.11,-0.17 0.11,-0.19 0.11,-0.37 h 0 v -2.03 c 0,-0.18 0,-0.2 -0.11,-0.37 -0.3,-0.48 -0.75,-0.7 -1.18,-0.7 -0.44,0 -0.8,0.26 -1.04,0.64 -0.26,0.41 -0.29,0.97 -0.29,1.38 0,0.37 0.02,0.96 0.31,1.41 0.21,0.31 0.59,0.64 1.12,0.64 l -0.04,0.22 c -1.17,0 -2.22,-0.98 -2.22,-2.26 0,-1.26 0.98,-2.24 2.11,-2.24 0.64,0 1.09,0.33 1.34,0.65 z"
         inkscape:connector-curvature="0"
         style="fill:#000000;stroke-width:0" /><path
         id="path4311"
         d="m 287.2,711.21 -0.84,1.97 c -0.03,0.08 -0.05,0.12 -0.05,0.13 0,0.06 0.17,0.25 0.59,0.29 0.1,0.01 0.2,0.02 0.2,0.19 0,0.12 -0.12,0.12 -0.15,0.12 -0.41,0 -0.84,-0.03 -1.26,-0.03 -0.24,0 -0.86,0.03 -1.11,0.03 -0.06,0 -0.18,0 -0.18,-0.2 0,-0.11 0.1,-0.11 0.23,-0.11 0.6,0 0.66,-0.1 0.75,-0.32 l 1.17,-2.77 -2.1,-2.25 -0.13,-0.11 c -0.49,-0.53 -0.95,-0.69 -1.46,-0.72 -0.13,-0.01 -0.22,-0.01 -0.22,-0.2 0,-0.01 0,-0.11 0.13,-0.11 0.3,0 0.63,0.04 0.93,0.04 0.37,0 0.76,-0.04 1.12,-0.04 0.06,0 0.18,0 0.18,0.2 0,0.1 -0.1,0.11 -0.12,0.11 -0.09,0.01 -0.4,0.03 -0.4,0.31 0,0.16 0.15,0.32 0.27,0.45 l 1.01,1.07 0.9,0.97 1,-2.37 c 0.04,-0.11 0.05,-0.12 0.05,-0.14 0,-0.08 -0.19,-0.25 -0.57,-0.29 -0.11,-0.01 -0.2,-0.02 -0.2,-0.19 0,-0.12 0.11,-0.12 0.15,-0.12 0.28,0 0.97,0.04 1.25,0.04 0.25,0 0.86,-0.04 1.11,-0.04 0.07,0 0.18,0 0.18,0.19 0,0.12 -0.1,0.12 -0.18,0.12 -0.66,0.01 -0.68,0.04 -0.85,0.44 -0.39,0.92 -1.05,2.47 -1.28,3.07 0.67,0.7 1.72,1.88 2.04,2.15 0.28,0.24 0.66,0.48 1.26,0.51 0.13,0.01 0.22,0.01 0.22,0.2 0,0.01 0,0.11 -0.13,0.11 -0.3,0 -0.63,-0.03 -0.94,-0.03 -0.37,0 -0.74,0.03 -1.1,0.03 -0.06,0 -0.19,0 -0.19,-0.2 0,-0.07 0.05,-0.1 0.12,-0.11 0.09,-0.01 0.4,-0.03 0.4,-0.31 0,-0.13 -0.11,-0.26 -0.19,-0.35 z"
         inkscape:connector-curvature="0"
         style="fill:#000000;stroke-width:0" /><path
         id="path4313"
         d="m 294.14,706.9 h -0.24 c -0.02,-0.16 -0.08,-0.57 -0.18,-0.64 -0.05,-0.04 -0.59,-0.04 -0.68,-0.04 h -1.29 c 0.73,0.65 0.98,0.84 1.4,1.17 0.51,0.41 0.99,0.84 0.99,1.5 0,0.84 -0.74,1.36 -1.63,1.36 -0.86,0 -1.45,-0.61 -1.45,-1.25 0,-0.35 0.3,-0.39 0.37,-0.39 0.17,0 0.37,0.12 0.37,0.37 0,0.13 -0.05,0.37 -0.41,0.37 0.22,0.49 0.69,0.65 1.02,0.65 0.69,0 1.06,-0.54 1.06,-1.11 0,-0.6 -0.43,-1.08 -0.66,-1.33 l -1.68,-1.66 c -0.07,-0.06 -0.07,-0.07 -0.07,-0.27 h 2.87 z"
         inkscape:connector-curvature="0"
         style="fill:#000000;stroke-width:0" /><path
         id="path4315"
         d="m 300.18,714.02 -1.44,-0.11 v -0.31 c 0.7,0 0.78,-0.07 0.78,-0.55 v -5.17 c 0,-0.45 -0.11,-0.45 -0.78,-0.45 v -0.31 c 0.33,0.02 0.86,0.04 1.11,0.04 0.25,0 0.73,-0.02 1.1,-0.04 v 0.31 c -0.66,0 -0.77,0 -0.77,0.45 z"
         inkscape:connector-curvature="0"
         style="fill:#000000;stroke-width:0" /><path
         id="path4317"
         d="m 304.5,707.88 0,-0.04 0.01,-0.03 0,-0.04 0.01,-0.04 0.01,-0.04 0.01,-0.03 0.01,-0.04 0.02,-0.03 0.01,-0.04 0.02,-0.03 0.02,-0.04 0.02,-0.03 0.02,-0.03 0.02,-0.04 0.02,-0.03 0.02,-0.03 0.03,-0.02 0.02,-0.03 0.03,-0.03 0.03,-0.02 0.03,-0.02 0.03,-0.03 0.04,-0.02 0.03,-0.01 0.03,-0.02 0.04,-0.01 0.04,-0.02 0.04,-0.01 0.04,0 0.04,-0.01 0.04,0 0.04,0 c 0.21,0 0.82,0.13 0.82,0.94 v 0.56 h -0.25 v -0.56 c 0,-0.58 -0.25,-0.64 -0.36,-0.64 -0.33,0 -0.37,0.45 -0.37,0.5 v 1.99 c 0,0.41 0,0.8 -0.36,1.17 -0.38,0.39 -0.88,0.55 -1.36,0.55 -0.81,0 -1.5,-0.47 -1.5,-1.13 0,-0.29 0.2,-0.46 0.46,-0.46 0.27,0 0.45,0.19 0.45,0.45 0,0.12 -0.04,0.45 -0.5,0.46 0.27,0.35 0.75,0.46 1.07,0.46 0.49,0 1.06,-0.39 1.06,-1.27 v -0.37 -0.21 -0.99 c 0,-0.95 -0.72,-1.29 -1.17,-1.29 -0.49,0 -0.89,0.35 -0.89,0.85 0,0.54 0.41,1.37 2.06,1.43 h 0 v 0.21 c -0.51,-0.03 -1.21,-0.06 -1.83,-0.36 -0.75,-0.34 -1,-0.85 -1,-1.29 0,-0.81 0.97,-1.05 1.59,-1.05 0.66,0 1.12,0.39 1.31,0.86 z"
         inkscape:connector-curvature="0"
         style="fill:#000000;stroke-width:0" /><path
         id="path4319"
         d="m 307.83,710.42 v 1.1 l -1.39,-0.11 v -0.31 c 0.7,0 0.78,-0.07 0.78,-0.56 v -2.66 c 0,-0.45 -0.11,-0.45 -0.78,-0.45 v -0.31 c 0.39,0.02 0.86,0.04 1.14,0.04 0.4,0 0.86,0 1.26,-0.04 v 0.31 h -0.21 c -0.74,0 -0.75,0.11 -0.75,0.47 v 1.53 c 0,0.98 0.41,1.87 1.17,1.87 0.07,0 0.09,0 0.11,-0.01 -0.03,-0.01 -0.23,-0.13 -0.23,-0.39 0,-0.28 0.21,-0.43 0.43,-0.43 0.18,0 0.43,0.12 0.43,0.44 0,0.32 -0.31,0.61 -0.74,0.61 -0.73,0 -1.09,-0.67 -1.22,-1.1 z"
         inkscape:connector-curvature="0"
         style="fill:#000000;stroke-width:0" /><path
         id="path4321"
         d="m 311.12,708.45 0,0 0,0.01 0,0 0,0.01 0,0.01 0,0.01 0,0.01 0,0.01 0,0.01 0.01,0.01 0,0.02 0,0.01 0,0.01 0.01,0.02 0,0.01 0,0.02 0.01,0.02 0,0.01 0.01,0.02 0,0.02 0.01,0.02 0.01,0.01 0,0.02 0.01,0.02 0.01,0.02 0.01,0.02 0.01,0.02 0.01,0.02 0.02,0.02 0.01,0.02 0.01,0.01 0.02,0.02 c 0.39,-0.27 0.8,-0.31 0.98,-0.31 v 0.23 c -0.86,0 -0.86,1 -0.86,1.22 0,0.27 0.01,0.59 0.16,0.84 0.08,0.12 0.31,0.4 0.7,0.4 0.87,0 0.87,-1 0.87,-1.22 0,-0.27 -0.01,-0.59 -0.16,-0.84 -0.08,-0.12 -0.31,-0.4 -0.71,-0.4 h 0 v -0.23 c 0.93,0 1.62,0.69 1.62,1.45 0,0.37 -0.16,0.74 -0.41,0.97 0.36,0.34 0.72,0.39 0.89,0.39 0.02,0 0.07,0 0.1,-0.01 -0.11,-0.04 -0.15,-0.15 -0.15,-0.27 0,-0.17 0.12,-0.29 0.28,-0.29 0.1,0 0.29,0.07 0.29,0.3 0,0.17 -0.12,0.48 -0.51,0.48 -0.2,0 -0.63,-0.05 -1.05,-0.46 -0.42,0.33 -0.84,0.36 -1.06,0.36 -0.92,0 -1.61,-0.69 -1.61,-1.45 0,-0.44 0.22,-0.82 0.47,-1.03 -0.13,-0.15 -0.31,-0.47 -0.31,-0.82 0,-0.31 0.13,-0.69 0.44,-0.89 -0.6,-0.17 -0.91,-0.59 -0.91,-0.99 0,-0.72 0.98,-1.26 2.19,-1.26 l 0.01,0.23 c -1,0 -1.69,0.5 -1.69,1.03 0,0.46 0.38,0.82 0.82,0.85 h 0.59 c 0.85,0 1.96,0 1.96,-0.85 0,-0.54 -0.7,-1.03 -1.68,-1.03 h 0 l -0.01,-0.23 c 1.18,0 2.21,0.51 2.21,1.28 0,0.35 -0.14,0.85 -0.64,1.13 -0.53,0.28 -1.11,0.28 -1.72,0.28 -0.24,0 -0.67,0 -0.74,0.01 -0.32,0.04 -0.53,0.35 -0.53,0.67 z"
         inkscape:connector-curvature="0"
         style="fill:#000000;stroke-width:0" /><path
         id="path4323"
         d="m 316.15,709.42 0.01,0.21 c 0.06,1.48 0.9,1.73 1.24,1.73 1.02,0 1.12,-1.34 1.12,-1.73 h -2.36 l -0.01,-0.21 h 2.78 c 0.22,0 0.25,0 0.25,0.21 0,0.98 -0.54,1.95 -1.78,1.95 -1.16,0 -2.07,-1.03 -2.07,-2.27 0,-1.33 1.04,-2.29 2.19,-2.29 1.21,0 1.66,1.1 1.66,1.29 0,0.1 -0.08,0.12 -0.13,0.12 -0.09,0 -0.11,-0.06 -0.13,-0.14 -0.35,-1.03 -1.25,-1.03 -1.34,-1.03 -0.5,0 -0.9,0.3 -1.13,0.67 -0.3,0.48 -0.3,1.13 -0.3,1.49 z"
         inkscape:connector-curvature="0"
         style="fill:#000000;stroke-width:0" /></g>    <g
       id="g4441"
       transform="matrix(4.9872062,0,0,-4.9872062,-567.15932,4401.2936)"
       xml:space="preserve"
       stroke-miterlimit="10.433"
       font-style="normal"
       font-variant="normal"
       font-weight="normal"
       font-stretch="normal"
       font-size-adjust="none"
       letter-spacing="normal"
       word-spacing="normal"
       ns0:text="$X_1$ large\n"
       ns0:preamble=""
       style="font-style:normal;font-variant:normal;font-weight:normal;font-stretch:normal;letter-spacing:normal;word-spacing:normal;text-anchor:start;fill:none;stroke:#000000;stroke-linecap:butt;stroke-linejoin:miter;stroke-miterlimit:10.43299961;stroke-opacity:1;stroke-dasharray:none;stroke-dashoffset:0"><path
         style="fill:#000000;stroke-width:0"
         inkscape:connector-curvature="0"
         d="m 228.26,711.21 -0.84,1.97 c -0.03,0.08 -0.05,0.12 -0.05,0.13 0,0.06 0.17,0.25 0.59,0.29 0.1,0.01 0.2,0.02 0.2,0.19 0,0.12 -0.12,0.12 -0.15,0.12 -0.41,0 -0.84,-0.03 -1.25,-0.03 -0.25,0 -0.87,0.03 -1.12,0.03 -0.06,0 -0.18,0 -0.18,-0.2 0,-0.11 0.1,-0.11 0.23,-0.11 0.6,0 0.66,-0.1 0.75,-0.32 l 1.17,-2.77 -2.1,-2.25 -0.13,-0.11 c -0.48,-0.53 -0.95,-0.69 -1.46,-0.72 -0.13,-0.01 -0.22,-0.01 -0.22,-0.2 0,-0.01 0,-0.11 0.13,-0.11 0.3,0 0.63,0.04 0.93,0.04 0.37,0 0.76,-0.04 1.12,-0.04 0.06,0 0.18,0 0.18,0.2 0,0.1 -0.1,0.11 -0.12,0.11 -0.09,0.01 -0.4,0.03 -0.4,0.31 0,0.16 0.15,0.32 0.27,0.45 l 1.01,1.07 0.9,0.97 1.01,-2.37 c 0.03,-0.11 0.04,-0.12 0.04,-0.14 0,-0.08 -0.18,-0.25 -0.57,-0.29 -0.11,-0.01 -0.2,-0.02 -0.2,-0.19 0,-0.12 0.11,-0.12 0.15,-0.12 0.28,0 0.97,0.04 1.25,0.04 0.25,0 0.86,-0.04 1.11,-0.04 0.07,0 0.19,0 0.19,0.19 0,0.12 -0.1,0.12 -0.18,0.12 -0.67,0.01 -0.69,0.04 -0.86,0.44 -0.39,0.92 -1.05,2.47 -1.28,3.07 0.67,0.7 1.72,1.88 2.04,2.15 0.29,0.24 0.66,0.48 1.26,0.51 0.13,0.01 0.22,0.01 0.22,0.2 0,0.01 0,0.11 -0.13,0.11 -0.3,0 -0.63,-0.03 -0.94,-0.03 -0.36,0 -0.74,0.03 -1.1,0.03 -0.06,0 -0.19,0 -0.19,-0.2 0,-0.07 0.05,-0.1 0.12,-0.11 0.09,-0.01 0.4,-0.03 0.4,-0.31 0,-0.13 -0.11,-0.26 -0.19,-0.35 z"
         id="path4443" /><path
         style="fill:#000000;stroke-width:0"
         inkscape:connector-curvature="0"
         d="m 234.02,710.05 0,0.01 0,0.01 0,0.01 0,0.01 0,0 0,0.01 0,0.01 0,0.01 0,0 0,0.01 0,0.01 0,0 0,0.01 0,0 -0.01,0.01 0,0 0,0.01 0,0 0,0.01 0,0.01 -0.01,0.01 0,0 0,0.01 -0.01,0.01 0,0 -0.01,0.01 0,0 -0.01,0 -0.01,0.01 -0.01,0 -0.01,0 0,0 -0.01,0 -0.01,0 0,0 -0.01,0.01 0,0 -0.01,0 0,0 -0.01,0 -0.01,0 -0.01,0 0,0 -0.01,0 -0.01,0 -0.01,0 0,0 -0.01,0 -0.01,0 -0.01,0 c -0.44,-0.44 -1.08,-0.45 -1.36,-0.45 v -0.25 c 0.16,0 0.62,0 1.01,0.2 v -3.55 c 0,-0.23 0,-0.32 -0.7,-0.32 h -0.27 v -0.25 c 0.13,0.01 0.99,0.03 1.24,0.03 0.22,0 1.1,-0.02 1.25,-0.03 v 0.25 h -0.26 c -0.7,0 -0.7,0.09 -0.7,0.32 z"
         id="path4445" /><path
         style="fill:#000000;stroke-width:0"
         inkscape:connector-curvature="0"
         d="m 241.24,714.02 -1.44,-0.11 v -0.31 c 0.7,0 0.78,-0.07 0.78,-0.55 v -5.17 c 0,-0.45 -0.11,-0.45 -0.78,-0.45 v -0.31 c 0.33,0.02 0.86,0.04 1.11,0.04 0.25,0 0.74,-0.02 1.1,-0.04 v 0.31 c -0.66,0 -0.77,0 -0.77,0.45 z"
         id="path4447" /><path
         style="fill:#000000;stroke-width:0"
         inkscape:connector-curvature="0"
         d="m 245.56,707.88 0,-0.04 0.01,-0.03 0,-0.04 0.01,-0.04 0.01,-0.04 0.01,-0.03 0.02,-0.04 0.01,-0.03 0.01,-0.04 0.02,-0.03 0.02,-0.04 0.02,-0.03 0.02,-0.03 0.02,-0.04 0.02,-0.03 0.02,-0.03 0.03,-0.02 0.03,-0.03 0.02,-0.03 0.03,-0.02 0.03,-0.02 0.03,-0.03 0.04,-0.02 0.03,-0.01 0.03,-0.02 0.04,-0.01 0.04,-0.02 0.04,-0.01 0.04,0 0.04,-0.01 0.04,0 0.04,0 c 0.21,0 0.82,0.13 0.82,0.94 v 0.56 h -0.25 v -0.56 c 0,-0.58 -0.25,-0.64 -0.36,-0.64 -0.33,0 -0.37,0.45 -0.37,0.5 v 1.99 c 0,0.41 0,0.8 -0.35,1.17 -0.39,0.39 -0.89,0.55 -1.37,0.55 -0.81,0 -1.5,-0.47 -1.5,-1.13 0,-0.29 0.2,-0.46 0.46,-0.46 0.28,0 0.46,0.19 0.46,0.45 0,0.12 -0.05,0.45 -0.51,0.46 0.27,0.35 0.75,0.46 1.07,0.46 0.49,0 1.06,-0.39 1.06,-1.27 v -0.37 -0.21 -0.99 c 0,-0.95 -0.72,-1.29 -1.17,-1.29 -0.48,0 -0.89,0.35 -0.89,0.85 0,0.54 0.42,1.37 2.06,1.43 h 0 v 0.21 c -0.51,-0.03 -1.21,-0.06 -1.83,-0.36 -0.75,-0.34 -1,-0.85 -1,-1.29 0,-0.81 0.97,-1.05 1.59,-1.05 0.66,0 1.12,0.39 1.31,0.86 z"
         id="path4449" /><path
         style="fill:#000000;stroke-width:0"
         inkscape:connector-curvature="0"
         d="m 248.89,710.42 v 1.1 l -1.39,-0.11 v -0.31 c 0.7,0 0.78,-0.07 0.78,-0.56 v -2.66 c 0,-0.45 -0.11,-0.45 -0.78,-0.45 v -0.31 c 0.39,0.02 0.86,0.04 1.14,0.04 0.4,0 0.86,0 1.26,-0.04 v 0.31 h -0.21 c -0.73,0 -0.75,0.11 -0.75,0.47 v 1.53 c 0,0.98 0.41,1.87 1.17,1.87 0.07,0 0.09,0 0.11,-0.01 -0.03,-0.01 -0.23,-0.13 -0.23,-0.39 0,-0.28 0.21,-0.43 0.43,-0.43 0.18,0 0.43,0.12 0.43,0.44 0,0.32 -0.31,0.61 -0.74,0.61 -0.73,0 -1.08,-0.67 -1.22,-1.1 z"
         id="path4451" /><path
         style="fill:#000000;stroke-width:0"
         inkscape:connector-curvature="0"
         d="m 252.18,708.45 0,0 0,0.01 0,0 0,0.01 0,0.01 0,0.01 0,0.01 0,0.01 0.01,0.01 0,0.01 0,0.02 0,0.01 0,0.01 0.01,0.02 0,0.01 0,0.02 0.01,0.02 0,0.01 0.01,0.02 0,0.02 0.01,0.02 0.01,0.01 0,0.02 0.01,0.02 0.01,0.02 0.01,0.02 0.01,0.02 0.02,0.02 0.01,0.02 0.01,0.02 0.02,0.01 0.01,0.02 c 0.39,-0.27 0.8,-0.31 0.99,-0.31 v 0.23 c -0.87,0 -0.87,1 -0.87,1.22 0,0.27 0.01,0.59 0.16,0.84 0.08,0.12 0.31,0.4 0.71,0.4 0.86,0 0.86,-1 0.86,-1.22 0,-0.27 -0.01,-0.59 -0.16,-0.84 -0.08,-0.12 -0.31,-0.4 -0.7,-0.4 h 0 v -0.23 c 0.92,0 1.61,0.69 1.61,1.45 0,0.37 -0.16,0.74 -0.41,0.97 0.36,0.34 0.72,0.39 0.89,0.39 0.03,0 0.08,0 0.11,-0.01 -0.11,-0.04 -0.16,-0.15 -0.16,-0.27 0,-0.17 0.13,-0.29 0.28,-0.29 0.1,0 0.29,0.07 0.29,0.3 0,0.17 -0.12,0.48 -0.5,0.48 -0.2,0 -0.64,-0.05 -1.06,-0.46 -0.42,0.33 -0.84,0.36 -1.05,0.36 -0.93,0 -1.62,-0.69 -1.62,-1.45 0,-0.44 0.22,-0.82 0.47,-1.03 -0.13,-0.15 -0.31,-0.47 -0.31,-0.82 0,-0.31 0.13,-0.69 0.44,-0.89 -0.6,-0.17 -0.91,-0.59 -0.91,-0.99 0,-0.72 0.98,-1.26 2.19,-1.26 l 0.02,0.23 c -1.01,0 -1.7,0.5 -1.7,1.03 0,0.46 0.38,0.82 0.82,0.85 h 0.59 c 0.85,0 1.97,0 1.97,-0.85 0,-0.54 -0.71,-1.03 -1.68,-1.03 h 0 l -0.02,-0.23 c 1.18,0 2.21,0.51 2.21,1.28 0,0.35 -0.14,0.85 -0.64,1.13 -0.53,0.28 -1.11,0.28 -1.71,0.28 -0.25,0 -0.68,0 -0.75,0.01 -0.32,0.04 -0.53,0.35 -0.53,0.67 z"
         id="path4453" /><path
         style="fill:#000000;stroke-width:0"
         inkscape:connector-curvature="0"
         d="m 257.21,709.42 0.01,0.21 c 0.06,1.48 0.9,1.73 1.24,1.73 1.02,0 1.12,-1.34 1.12,-1.73 h -2.36 l -0.01,-0.21 h 2.78 c 0.22,0 0.25,0 0.25,0.21 0,0.98 -0.54,1.95 -1.78,1.95 -1.16,0 -2.07,-1.03 -2.07,-2.27 0,-1.33 1.04,-2.29 2.19,-2.29 1.21,0 1.66,1.1 1.66,1.29 0,0.1 -0.08,0.12 -0.13,0.12 -0.09,0 -0.11,-0.06 -0.13,-0.14 -0.35,-1.03 -1.25,-1.03 -1.34,-1.03 -0.5,0 -0.9,0.3 -1.13,0.67 -0.3,0.48 -0.3,1.13 -0.3,1.49 z"
         id="path4455" /></g>    <g
       style="font-style:normal;font-variant:normal;font-weight:normal;font-stretch:normal;letter-spacing:normal;word-spacing:normal;text-anchor:start;fill:none;stroke:#000000;stroke-linecap:butt;stroke-linejoin:miter;stroke-miterlimit:10.43299961;stroke-opacity:1;stroke-dasharray:none;stroke-dashoffset:0"
       ns0:preamble=""
       ns0:text="$X_2$ large\n"
       word-spacing="normal"
       letter-spacing="normal"
       font-size-adjust="none"
       font-stretch="normal"
       font-weight="normal"
       font-variant="normal"
       font-style="normal"
       stroke-miterlimit="10.433"
       xml:space="preserve"
       transform="matrix(4.9872062,0,0,-4.9872062,-1064.3022,3829.865)"
       id="g4562"><path
         id="path4564"
         d="m 228.26,711.21 -0.84,1.97 c -0.03,0.08 -0.05,0.12 -0.05,0.13 0,0.06 0.17,0.25 0.59,0.29 0.1,0.01 0.2,0.02 0.2,0.19 0,0.12 -0.12,0.12 -0.15,0.12 -0.41,0 -0.84,-0.03 -1.25,-0.03 -0.25,0 -0.87,0.03 -1.12,0.03 -0.06,0 -0.18,0 -0.18,-0.2 0,-0.11 0.1,-0.11 0.23,-0.11 0.6,0 0.66,-0.1 0.75,-0.32 l 1.17,-2.77 -2.1,-2.25 -0.13,-0.11 c -0.48,-0.53 -0.95,-0.69 -1.46,-0.72 -0.13,-0.01 -0.22,-0.01 -0.22,-0.2 0,-0.01 0,-0.11 0.13,-0.11 0.3,0 0.63,0.04 0.93,0.04 0.37,0 0.76,-0.04 1.12,-0.04 0.06,0 0.18,0 0.18,0.2 0,0.1 -0.1,0.11 -0.12,0.11 -0.09,0.01 -0.4,0.03 -0.4,0.31 0,0.16 0.15,0.32 0.27,0.45 l 1.01,1.07 0.9,0.97 1.01,-2.37 c 0.03,-0.11 0.04,-0.12 0.04,-0.14 0,-0.08 -0.18,-0.25 -0.57,-0.29 -0.11,-0.01 -0.2,-0.02 -0.2,-0.19 0,-0.12 0.11,-0.12 0.15,-0.12 0.28,0 0.97,0.04 1.25,0.04 0.25,0 0.86,-0.04 1.11,-0.04 0.07,0 0.19,0 0.19,0.19 0,0.12 -0.1,0.12 -0.18,0.12 -0.67,0.01 -0.69,0.04 -0.86,0.44 -0.39,0.92 -1.05,2.47 -1.28,3.07 0.67,0.7 1.72,1.88 2.04,2.15 0.29,0.24 0.66,0.48 1.26,0.51 0.13,0.01 0.22,0.01 0.22,0.2 0,0.01 0,0.11 -0.13,0.11 -0.3,0 -0.63,-0.03 -0.94,-0.03 -0.36,0 -0.74,0.03 -1.1,0.03 -0.06,0 -0.19,0 -0.19,-0.2 0,-0.07 0.05,-0.1 0.12,-0.11 0.09,-0.01 0.4,-0.03 0.4,-0.31 0,-0.13 -0.11,-0.26 -0.19,-0.35 z"
         inkscape:connector-curvature="0"
         style="fill:#000000;stroke-width:0" /><path
         id="path4566"
         d="m 235.2,706.9 h -0.23 c -0.02,-0.16 -0.09,-0.57 -0.18,-0.64 -0.06,-0.04 -0.6,-0.04 -0.69,-0.04 h -1.29 c 0.74,0.65 0.98,0.84 1.4,1.17 0.51,0.41 0.99,0.84 0.99,1.5 0,0.84 -0.74,1.36 -1.63,1.36 -0.86,0 -1.45,-0.61 -1.45,-1.25 0,-0.35 0.3,-0.39 0.37,-0.39 0.17,0 0.37,0.12 0.37,0.37 0,0.13 -0.05,0.37 -0.41,0.37 0.22,0.49 0.69,0.65 1.02,0.65 0.69,0 1.06,-0.54 1.06,-1.11 0,-0.6 -0.43,-1.08 -0.66,-1.33 l -1.68,-1.66 c -0.07,-0.06 -0.07,-0.07 -0.07,-0.27 h 2.87 z"
         inkscape:connector-curvature="0"
         style="fill:#000000;stroke-width:0" /><path
         id="path4568"
         d="m 241.24,714.02 -1.44,-0.11 v -0.31 c 0.7,0 0.78,-0.07 0.78,-0.55 v -5.17 c 0,-0.45 -0.11,-0.45 -0.78,-0.45 v -0.31 c 0.33,0.02 0.86,0.04 1.11,0.04 0.25,0 0.74,-0.02 1.1,-0.04 v 0.31 c -0.66,0 -0.77,0 -0.77,0.45 z"
         inkscape:connector-curvature="0"
         style="fill:#000000;stroke-width:0" /><path
         id="path4570"
         d="m 245.56,707.88 0,-0.04 0.01,-0.03 0,-0.04 0.01,-0.04 0.01,-0.04 0.01,-0.03 0.02,-0.04 0.01,-0.03 0.01,-0.04 0.02,-0.03 0.02,-0.04 0.02,-0.03 0.02,-0.03 0.02,-0.04 0.02,-0.03 0.02,-0.03 0.03,-0.02 0.03,-0.03 0.02,-0.03 0.03,-0.02 0.03,-0.02 0.03,-0.03 0.04,-0.02 0.03,-0.01 0.03,-0.02 0.04,-0.01 0.04,-0.02 0.04,-0.01 0.04,0 0.04,-0.01 0.04,0 0.04,0 c 0.21,0 0.82,0.13 0.82,0.94 v 0.56 h -0.25 v -0.56 c 0,-0.58 -0.25,-0.64 -0.36,-0.64 -0.33,0 -0.37,0.45 -0.37,0.5 v 1.99 c 0,0.41 0,0.8 -0.35,1.17 -0.39,0.39 -0.89,0.55 -1.37,0.55 -0.81,0 -1.5,-0.47 -1.5,-1.13 0,-0.29 0.2,-0.46 0.46,-0.46 0.28,0 0.46,0.19 0.46,0.45 0,0.12 -0.05,0.45 -0.51,0.46 0.27,0.35 0.75,0.46 1.07,0.46 0.49,0 1.06,-0.39 1.06,-1.27 v -0.37 -0.21 -0.99 c 0,-0.95 -0.72,-1.29 -1.17,-1.29 -0.48,0 -0.89,0.35 -0.89,0.85 0,0.54 0.42,1.37 2.06,1.43 h 0 v 0.21 c -0.51,-0.03 -1.21,-0.06 -1.83,-0.36 -0.75,-0.34 -1,-0.85 -1,-1.29 0,-0.81 0.97,-1.05 1.59,-1.05 0.66,0 1.12,0.39 1.31,0.86 z"
         inkscape:connector-curvature="0"
         style="fill:#000000;stroke-width:0" /><path
         id="path4572"
         d="m 248.89,710.42 v 1.1 l -1.39,-0.11 v -0.31 c 0.7,0 0.78,-0.07 0.78,-0.56 v -2.66 c 0,-0.45 -0.11,-0.45 -0.78,-0.45 v -0.31 c 0.39,0.02 0.86,0.04 1.14,0.04 0.4,0 0.86,0 1.26,-0.04 v 0.31 h -0.21 c -0.73,0 -0.75,0.11 -0.75,0.47 v 1.53 c 0,0.98 0.41,1.87 1.17,1.87 0.07,0 0.09,0 0.11,-0.01 -0.03,-0.01 -0.23,-0.13 -0.23,-0.39 0,-0.28 0.21,-0.43 0.43,-0.43 0.18,0 0.43,0.12 0.43,0.44 0,0.32 -0.31,0.61 -0.74,0.61 -0.73,0 -1.08,-0.67 -1.22,-1.1 z"
         inkscape:connector-curvature="0"
         style="fill:#000000;stroke-width:0" /><path
         id="path4574"
         d="m 252.18,708.45 0,0 0,0.01 0,0 0,0.01 0,0.01 0,0.01 0,0.01 0,0.01 0.01,0.01 0,0.01 0,0.02 0,0.01 0,0.01 0.01,0.02 0,0.01 0,0.02 0.01,0.02 0,0.01 0.01,0.02 0,0.02 0.01,0.02 0.01,0.01 0,0.02 0.01,0.02 0.01,0.02 0.01,0.02 0.01,0.02 0.02,0.02 0.01,0.02 0.01,0.02 0.02,0.01 0.01,0.02 c 0.39,-0.27 0.8,-0.31 0.99,-0.31 v 0.23 c -0.87,0 -0.87,1 -0.87,1.22 0,0.27 0.01,0.59 0.16,0.84 0.08,0.12 0.31,0.4 0.71,0.4 0.86,0 0.86,-1 0.86,-1.22 0,-0.27 -0.01,-0.59 -0.16,-0.84 -0.08,-0.12 -0.31,-0.4 -0.7,-0.4 h 0 v -0.23 c 0.92,0 1.61,0.69 1.61,1.45 0,0.37 -0.16,0.74 -0.41,0.97 0.36,0.34 0.72,0.39 0.89,0.39 0.03,0 0.08,0 0.11,-0.01 -0.11,-0.04 -0.16,-0.15 -0.16,-0.27 0,-0.17 0.13,-0.29 0.28,-0.29 0.1,0 0.29,0.07 0.29,0.3 0,0.17 -0.12,0.48 -0.5,0.48 -0.2,0 -0.64,-0.05 -1.06,-0.46 -0.42,0.33 -0.84,0.36 -1.05,0.36 -0.93,0 -1.62,-0.69 -1.62,-1.45 0,-0.44 0.22,-0.82 0.47,-1.03 -0.13,-0.15 -0.31,-0.47 -0.31,-0.82 0,-0.31 0.13,-0.69 0.44,-0.89 -0.6,-0.17 -0.91,-0.59 -0.91,-0.99 0,-0.72 0.98,-1.26 2.19,-1.26 l 0.02,0.23 c -1.01,0 -1.7,0.5 -1.7,1.03 0,0.46 0.38,0.82 0.82,0.85 h 0.59 c 0.85,0 1.97,0 1.97,-0.85 0,-0.54 -0.71,-1.03 -1.68,-1.03 h 0 l -0.02,-0.23 c 1.18,0 2.21,0.51 2.21,1.28 0,0.35 -0.14,0.85 -0.64,1.13 -0.53,0.28 -1.11,0.28 -1.71,0.28 -0.25,0 -0.68,0 -0.75,0.01 -0.32,0.04 -0.53,0.35 -0.53,0.67 z"
         inkscape:connector-curvature="0"
         style="fill:#000000;stroke-width:0" /><path
         id="path4576"
         d="m 257.21,709.42 0.01,0.21 c 0.06,1.48 0.9,1.73 1.24,1.73 1.02,0 1.12,-1.34 1.12,-1.73 h -2.36 l -0.01,-0.21 h 2.78 c 0.22,0 0.25,0 0.25,0.21 0,0.98 -0.54,1.95 -1.78,1.95 -1.16,0 -2.07,-1.03 -2.07,-2.27 0,-1.33 1.04,-2.29 2.19,-2.29 1.21,0 1.66,1.1 1.66,1.29 0,0.1 -0.08,0.12 -0.13,0.12 -0.09,0 -0.11,-0.06 -0.13,-0.14 -0.35,-1.03 -1.25,-1.03 -1.34,-1.03 -0.5,0 -0.9,0.3 -1.13,0.67 -0.3,0.48 -0.3,1.13 -0.3,1.49 z"
         inkscape:connector-curvature="0"
         style="fill:#000000;stroke-width:0" /></g>    <path
       style="fill:#bf0024;stroke-width:1.25000000000000000;stroke-miterlimit:4;stroke-dasharray:none;opacity:0.44444444000000000;fill-opacity:0.61187214"
       d="m 40.484274,372.23973 0,-199.28571 59.038783,0 59.038783,0 -9.39593,56.74835 c -7.73452,46.71404 -9.47113,55.17619 -9.82123,47.85714 -0.42089,-8.79876 -0.46916,-8.8912 -4.64286,-8.8912 -2.31965,0 -4.21755,0.64285 -4.21755,1.42857 0,0.78571 0.96429,1.42857 2.14286,1.42857 1.76871,0 2.14286,2.61905 2.14286,15 0,12.38095 -0.37415,15 -2.14286,15 -1.17857,0 -2.14286,0.64286 -2.14286,1.42857 0,0.78571 1.28572,1.42857 2.85715,1.42857 1.57143,0 2.85714,0.65607 2.85714,1.45793 0,1.76647 -42.548589,257.9115 -43.599344,262.47064 -0.734446,3.1867 -0.96131,3.21429 -26.427873,3.21429 l -25.687069,0 0,-199.28572 z M 109.0557,307.95402 c 0,-1.96429 -0.64285,-3.57143 -1.42857,-3.57143 -0.78571,0 -1.42857,0.64286 -1.42857,1.42857 0,0.78572 -1.62951,1.42857 -3.62114,1.42857 -3.568936,0 -3.548343,-0.0639 1.42857,-4.4337 8.30952,-7.29585 6.20174,-15.5663 -3.96716,-15.5663 -4.135299,0 -7.130499,3.12472 -6.438671,6.71709 0.652541,3.38837 3.189874,2.7514 3.769188,-0.94621 0.542456,-3.46236 5.270393,-3.94569 6.528393,-0.66739 1.0963,2.85691 -0.59811,5.95354 -6.147671,11.23522 -6.548825,6.23271 -5.804929,7.94701 3.448491,7.94701 7.42857,0 7.85714,-0.19481 7.85714,-3.57143 z m -46.337901,-6.1429 c -0.547712,-1.72569 0.748802,-4.0883 3.941812,-7.18308 l 4.757968,-4.61161 1.676204,3.67887 c 2.052924,4.50568 2.158063,7.83015 0.247634,7.83015 -0.785714,0 -1.428571,0.64286 -1.428571,1.42857 0,0.78571 3.214285,1.42857 7.142857,1.42857 3.928571,0 7.142857,-0.32143 7.142857,-0.71428 0,-0.39286 -1.199693,-1.91398 -2.665986,-3.38028 -1.466291,-1.46629 -3.815754,-5.67661 -5.221028,-9.35627 l -2.555043,-6.69028 5.569871,-5.70407 c 3.063429,-3.13723 7.020035,-6.06803 8.792457,-6.51288 5.513449,-1.38379 3.539483,-3.35622 -3.358827,-3.35622 -5.537907,0 -6.437523,0.37496 -5.6739,2.36493 0.840285,2.18975 -3.964827,9.06364 -6.335828,9.06364 -0.855132,0 -4.266002,-6.3359 -4.266002,-7.92436 0,-0.35589 0.964286,-0.64707 2.142857,-0.64707 1.178572,0 2.142858,-0.64286 2.142858,-1.42857 0,-0.78572 -3.535715,-1.42857 -7.857143,-1.42857 -7.644493,0 -10.567345,1.81517 -5.188007,3.2219 1.561665,0.40839 3.724194,3.46063 5.211951,7.35626 l 2.542816,6.65827 -4.256942,5.31035 c -2.341318,2.9207 -6.613531,6.59607 -9.493805,8.1675 -2.880276,1.57143 -5.238602,3.33929 -5.240725,3.92857 -0.0021,0.58929 2.932317,1.07143 6.52098,1.07143 5.633116,0 6.413299,-0.35143 5.708685,-2.57147 z"
       id="path4618"
       inkscape:connector-curvature="0" />
    <path
       style="fill:none;stroke:#000000;stroke-width:1px;stroke-linecap:butt;stroke-linejoin:miter;stroke-opacity:1"
       d="m 720,812.36218 0,80"
       id="path5128"
       inkscape:connector-curvature="0" />
    <path
       style="opacity:0.44444448;fill:#000000;fill-opacity:0;stroke-width:1.25;stroke-miterlimit:4;stroke-dasharray:none"
       d="m 421.34142,870.09688 c 0,-11.78572 0.19648,-21.42857 0.43663,-21.42857 0.24014,0 65.93652,-7.71429 145.99194,-17.14286 80.05543,-9.42857 146.71608,-17.14286 148.1348,-17.14286 2.35418,0 2.57948,1.6164 2.57948,18.50649 0,17.8355 -0.12942,18.63599 -3.57142,22.07793 -4.99659,4.99658 -4.99659,13.80147 0,17.73178 3.05074,2.39971 3.57142,3.9769 3.57142,10.81797 l 0,8.00869 -148.57142,0 -148.57143,0 0,-21.42857 z m 283.38313,14.11157 c 8.39362,-3.82439 4.63974,-11.9009 -6.22602,-13.39533 -7.88321,-1.08421 -9.80703,-3.45763 -2.63741,-3.25379 5.89658,0.16766 10.14854,-4.71385 8.80521,-10.10893 -0.85208,-3.42221 -0.71196,-3.5928 1.47264,-1.79281 2.74075,2.25822 4.5191,1.29902 3.33116,-1.79672 -1.34528,-3.50576 -16.73953,-1.88424 -19.96847,2.10334 -1.42613,1.76119 -2.16839,4.18337 -1.66691,5.43954 1.23907,3.10385 1.57785,12.98025 0.44522,12.97947 -1.54175,-0.001 -2.61582,4.14787 -1.69501,6.54749 1.70856,4.45239 11.62773,6.24475 18.13959,3.27774 l 0,0 z m -99.09742,-2.683 c 0,-0.78572 -0.96428,-1.42857 -2.14286,-1.42857 -1.7172,0 -2.14285,-2.16137 -2.14285,-10.8809 0,-10.58675 -0.0869,-10.85762 -3.21429,-10.01951 -1.76786,0.47377 -4.01786,0.87017 -5,0.8809 -0.98214,0.0107 -1.78571,0.66236 -1.78571,1.44808 0,0.78571 1.28571,1.42857 2.85714,1.42857 2.51661,0 2.85714,0.95238 2.85714,7.99089 0,6.78945 -0.42957,8.10322 -2.85714,8.73804 -5.34023,1.3965 -2.88419,3.27107 4.28571,3.27107 3.92858,0 7.14286,-0.64286 7.14286,-1.42857 z m -45.07541,-7.02084 c 0.44413,-0.71861 -8e-5,-1.61019 -0.98712,-1.9813 -1.15987,-0.43608 0.0824,-2.60051 3.51242,-6.11951 l 5.30701,-5.44478 2.08989,4.92607 c 1.28878,3.03778 1.5818,5.4463 0.76441,6.28322 -2.65551,2.71894 -1.1801,3.64285 5.81737,3.64285 7.13965,0 9.5395,-1.90394 4.43996,-3.52247 -1.4866,-0.47183 -3.02386,-1.96158 -3.41613,-3.31055 -0.39227,-1.34898 -1.7207,-4.77888 -2.95207,-7.62199 -2.2279,-5.14403 -2.21483,-5.19736 2.67479,-10.90977 2.7025,-3.15726 6.53295,-6.14689 8.51211,-6.64363 5.86669,-1.47245 4.10304,-3.70587 -2.92636,-3.70587 -5.65561,0 -6.41508,0.34578 -5.70101,2.59565 0.53158,1.67484 -0.44586,3.78846 -2.75523,5.95801 -4.04504,3.80012 -4.40114,3.69086 -5.77194,-1.77088 -0.6308,-2.51328 -0.4156,-3.92564 0.59815,-3.92564 0.8709,0 1.58345,-0.64286 1.58345,-1.42857 0,-0.78572 -3.21429,-1.42857 -7.14286,-1.42857 -3.92857,0 -7.14286,0.64285 -7.14286,1.42857 0,0.78571 0.87858,1.42857 1.9524,1.42857 1.07381,0 3.3386,3.3356 5.03286,7.41244 l 3.08047,7.41244 -6.10429,6.29046 c -3.35736,3.45976 -7.55072,6.85825 -9.31858,7.55221 -1.76786,0.69395 -3.21429,1.9205 -3.21429,2.72566 0,1.81369 10.95549,1.95657 12.06745,0.15738 l 0,0 z m 79.36113,-0.12202 c 0,-0.78571 -0.64286,-1.42857 -1.42858,-1.42857 -0.86957,0 -1.42857,-6.42857 -1.42857,-16.42857 l 0,-16.42857 -4.28571,0 c -2.35714,0 -4.28572,0.64285 -4.28572,1.42857 0,0.78571 0.64286,1.42857 1.42858,1.42857 0.86167,0 1.42857,5.95238 1.42857,15 0,9.04762 -0.5669,15 -1.42857,15 -0.78572,0 -1.42858,0.64286 -1.42858,1.42857 0,0.78572 2.57143,1.42857 5.71429,1.42857 3.14286,0 5.71429,-0.64285 5.71429,-1.42857 z m 25.37874,-3.57143 0.37874,-4.28571 -2.11384,3.57143 c -2.05116,3.46553 -2.11533,3.34627 -2.16444,-4.02249 -0.0629,-9.4344 -1.70439,-12.62905 -7.09782,-13.81364 -5.61826,-1.23398 -10.39806,1.40898 -9.82521,5.43279 0.59631,4.18877 4.76425,4.1015 4.61611,-0.0967 -0.0784,-2.22289 0.70684,-3.21429 2.54603,-3.21429 1.46271,0 3.19944,1.44643 3.85943,3.21429 1.06876,2.86288 0.64646,3.33455 -3.86274,4.31435 -6.49666,1.41165 -8.85786,3.43096 -8.85786,7.5753 0,4.61603 3.54434,6.14777 13.55617,5.85847 8.4414,-0.24392 8.5931,-0.32064 8.96543,-4.53384 l 0,0 z m 14.62126,3.72427 c 0,-0.70165 -0.96429,-1.64576 -2.14286,-2.09802 -1.50722,-0.57837 -2.14286,-2.9294 -2.14286,-7.92567 0,-6.84459 1.6915,-10.31379 3.55703,-7.29531 1.52669,2.47024 5.0144,1.59913 5.0144,-1.25243 0,-3.35947 -3.62493,-4.89272 -7.1311,-3.01627 -1.68594,0.90229 -2.80894,0.9136 -3.1108,0.0313 -0.56953,-1.66465 -6.90096,-0.22408 -6.90096,1.57015 0,0.69407 0.64286,1.26195 1.42857,1.26195 0.79366,0 1.42858,3.80953 1.42858,8.57143 0,4.76191 -0.63492,8.57143 -1.42858,8.57143 -0.78571,0 -1.42857,0.64286 -1.42857,1.42857 0,0.78572 2.89286,1.42857 6.42857,1.42857 3.53572,0 6.42858,-0.57408 6.42858,-1.27573 z"
       id="path5130"
       inkscape:connector-curvature="0" />
    <path
       style="opacity:0.87242797999999999;fill:#bf0024;fill-opacity:0.44313726;stroke-width:1.25000000000000000;stroke-miterlimit:4;stroke-dasharray:none"
       d="m 421.34142,870.09688 c 0,-11.78572 0.19648,-21.42857 0.43663,-21.42857 0.24014,0 65.93652,-7.71429 145.99194,-17.14286 80.05543,-9.42857 146.71608,-17.14286 148.1348,-17.14286 2.35418,0 2.57948,1.6164 2.57948,18.50649 0,17.8355 -0.12942,18.63599 -3.57142,22.07793 -4.99659,4.99658 -4.99659,13.80147 0,17.73178 3.05074,2.39971 3.57142,3.9769 3.57142,10.81797 l 0,8.00869 -148.57142,0 -148.57143,0 0,-21.42857 z m 283.38313,14.11157 c 8.39362,-3.82439 4.63974,-11.9009 -6.22602,-13.39533 -7.88321,-1.08421 -9.80703,-3.45763 -2.63741,-3.25379 5.89658,0.16766 10.14854,-4.71385 8.80521,-10.10893 -0.85208,-3.42221 -0.71196,-3.5928 1.47264,-1.79281 2.74075,2.25822 4.5191,1.29902 3.33116,-1.79672 -1.34528,-3.50576 -16.73953,-1.88424 -19.96847,2.10334 -1.42613,1.76119 -2.16839,4.18337 -1.66691,5.43954 1.23907,3.10385 1.57785,12.98025 0.44522,12.97947 -1.54175,-0.001 -2.61582,4.14787 -1.69501,6.54749 1.70856,4.45239 11.62773,6.24475 18.13959,3.27774 l 0,0 z m -99.09742,-2.683 c 0,-0.78572 -0.96428,-1.42857 -2.14286,-1.42857 -1.7172,0 -2.14285,-2.16137 -2.14285,-10.8809 0,-10.58675 -0.0869,-10.85762 -3.21429,-10.01951 -1.76786,0.47377 -4.01786,0.87017 -5,0.8809 -0.98214,0.0107 -1.78571,0.66236 -1.78571,1.44808 0,0.78571 1.28571,1.42857 2.85714,1.42857 2.51661,0 2.85714,0.95238 2.85714,7.99089 0,6.78945 -0.42957,8.10322 -2.85714,8.73804 -5.34023,1.3965 -2.88419,3.27107 4.28571,3.27107 3.92858,0 7.14286,-0.64286 7.14286,-1.42857 z m -45.07541,-7.02084 c 0.44413,-0.71861 -8e-5,-1.61019 -0.98712,-1.9813 -1.15987,-0.43608 0.0824,-2.60051 3.51242,-6.11951 l 5.30701,-5.44478 2.08989,4.92607 c 1.28878,3.03778 1.5818,5.4463 0.76441,6.28322 -2.65551,2.71894 -1.1801,3.64285 5.81737,3.64285 7.13965,0 9.5395,-1.90394 4.43996,-3.52247 -1.4866,-0.47183 -3.02386,-1.96158 -3.41613,-3.31055 -0.39227,-1.34898 -1.7207,-4.77888 -2.95207,-7.62199 -2.2279,-5.14403 -2.21483,-5.19736 2.67479,-10.90977 2.7025,-3.15726 6.53295,-6.14689 8.51211,-6.64363 5.86669,-1.47245 4.10304,-3.70587 -2.92636,-3.70587 -5.65561,0 -6.41508,0.34578 -5.70101,2.59565 0.53158,1.67484 -0.44586,3.78846 -2.75523,5.95801 -4.04504,3.80012 -4.40114,3.69086 -5.77194,-1.77088 -0.6308,-2.51328 -0.4156,-3.92564 0.59815,-3.92564 0.8709,0 1.58345,-0.64286 1.58345,-1.42857 0,-0.78572 -3.21429,-1.42857 -7.14286,-1.42857 -3.92857,0 -7.14286,0.64285 -7.14286,1.42857 0,0.78571 0.87858,1.42857 1.9524,1.42857 1.07381,0 3.3386,3.3356 5.03286,7.41244 l 3.08047,7.41244 -6.10429,6.29046 c -3.35736,3.45976 -7.55072,6.85825 -9.31858,7.55221 -1.76786,0.69395 -3.21429,1.9205 -3.21429,2.72566 0,1.81369 10.95549,1.95657 12.06745,0.15738 l 0,0 z m 79.36113,-0.12202 c 0,-0.78571 -0.64286,-1.42857 -1.42858,-1.42857 -0.86957,0 -1.42857,-6.42857 -1.42857,-16.42857 l 0,-16.42857 -4.28571,0 c -2.35714,0 -4.28572,0.64285 -4.28572,1.42857 0,0.78571 0.64286,1.42857 1.42858,1.42857 0.86167,0 1.42857,5.95238 1.42857,15 0,9.04762 -0.5669,15 -1.42857,15 -0.78572,0 -1.42858,0.64286 -1.42858,1.42857 0,0.78572 2.57143,1.42857 5.71429,1.42857 3.14286,0 5.71429,-0.64285 5.71429,-1.42857 z m 25.37874,-3.57143 0.37874,-4.28571 -2.11384,3.57143 c -2.05116,3.46553 -2.11533,3.34627 -2.16444,-4.02249 -0.0629,-9.4344 -1.70439,-12.62905 -7.09782,-13.81364 -5.61826,-1.23398 -10.39806,1.40898 -9.82521,5.43279 0.59631,4.18877 4.76425,4.1015 4.61611,-0.0967 -0.0784,-2.22289 0.70684,-3.21429 2.54603,-3.21429 1.46271,0 3.19944,1.44643 3.85943,3.21429 1.06876,2.86288 0.64646,3.33455 -3.86274,4.31435 -6.49666,1.41165 -8.85786,3.43096 -8.85786,7.5753 0,4.61603 3.54434,6.14777 13.55617,5.85847 8.4414,-0.24392 8.5931,-0.32064 8.96543,-4.53384 l 0,0 z m 14.62126,3.72427 c 0,-0.70165 -0.96429,-1.64576 -2.14286,-2.09802 -1.50722,-0.57837 -2.14286,-2.9294 -2.14286,-7.92567 0,-6.84459 1.6915,-10.31379 3.55703,-7.29531 1.52669,2.47024 5.0144,1.59913 5.0144,-1.25243 0,-3.35947 -3.62493,-4.89272 -7.1311,-3.01627 -1.68594,0.90229 -2.80894,0.9136 -3.1108,0.0313 -0.56953,-1.66465 -6.90096,-0.22408 -6.90096,1.57015 0,0.69407 0.64286,1.26195 1.42857,1.26195 0.79366,0 1.42858,3.80953 1.42858,8.57143 0,4.76191 -0.63492,8.57143 -1.42858,8.57143 -0.78571,0 -1.42857,0.64286 -1.42857,1.42857 0,0.78572 2.89286,1.42857 6.42857,1.42857 3.53572,0 6.42858,-0.57408 6.42858,-1.27573 z"
       id="path5132"
       inkscape:connector-curvature="0" />
    <path
       style="opacity:0.87242803;fill:#000080;fill-opacity:0.19607843;stroke-width:1.25;stroke-miterlimit:4;stroke-dasharray:none"
       d="m 648.48427,870.38259 c 0,-3.29124 2.70876,-6 6,-6 2.99185,0 3.01198,0.0838 1.17822,4.907 -1.64153,4.31754 -7.17822,5.16059 -7.17822,1.093 z"
       id="path5150"
       inkscape:connector-curvature="0" />
    <path
       style="opacity:0.87242803;fill:#000080;fill-opacity:0.19607843;stroke-width:1.25;stroke-miterlimit:4;stroke-dasharray:none"
       d="m 694.45028,864.06289 c -2.30033,-2.30034 -2.11874,-7.7778 0.28849,-8.70154 4.30458,-1.65182 7.04098,5.69343 3.28294,8.81233 -1.38099,1.14612 -2.3444,1.11624 -3.57143,-0.11079 l 0,0 z"
       id="path5152"
       inkscape:connector-curvature="0" />
    <path
       style="opacity:0.87242803;fill:#000080;fill-opacity:0.19607843;stroke-width:1.25;stroke-miterlimit:4;stroke-dasharray:none"
       d=""
       id="path5154"
       inkscape:connector-curvature="0" />
    <path
       style="opacity:0.87242803;fill:#000080;fill-opacity:0.19607843;stroke-width:1.25;stroke-miterlimit:4;stroke-dasharray:none"
       d="m 691.9716,880.90733 c -3.97817,-2.93614 -0.68544,-5.78006 6.15859,-5.31914 6.9216,0.46615 9.11144,2.60805 5.43818,5.31914 -3.53643,2.61012 -8.06033,2.61012 -11.59677,0 z"
       id="path5156"
       inkscape:connector-curvature="0" />
    <path
       style="fill:none;stroke:#000000;stroke-width:1px;stroke-linecap:butt;stroke-linejoin:miter;stroke-opacity:1"
       d="m 160,172.36218 560,0 0,640"
       id="path5158"
       inkscape:connector-curvature="0" />
    <path
       style="opacity:0.40740741000000003;fill:#ff5d9d;fill-opacity:0.19607843;stroke-width:1.25000000000000000;stroke-miterlimit:4;stroke-dasharray:none"
       d="m 421.34142,708.66831 0,-137.14286 -163.32947,0 -163.329481,0 22.248701,-133.57143 c 15.7359,-94.47143 22.77416,-133.57143 24.04376,-133.57143 2.16814,0 2.40091,-2.41709 0.3002,-3.11733 -0.95575,-0.31859 2.13668,-22.38611 8.57494,-61.19048 5.53838,-33.3807 10.40189,-62.13862 10.80778,-63.90647 l 0.738,-3.21429 278.54421,0 278.54421,0 0,319.28571 c 0,175.60715 -0.30624,319.28572 -0.68055,319.28572 -0.3743,0 -66.42787,7.71341 -146.78572,17.14093 -80.35783,9.42751 -146.90873,17.1418 -147.89087,17.14285 -1.41618,0.002 -1.78571,-28.378 -1.78571,-137.14092 z M 688.1664,447.87302 c 3.46706,-2.42843 4.22285,-8.01971 1.3893,-10.27816 -0.98214,-0.78281 -4.83928,-1.8652 -8.57143,-2.40531 -7.49472,-1.08463 -9.19435,-3.18792 -2.57611,-3.18792 5.90756,0 8.6438,-2.7981 8.66941,-8.86538 0.0161,-3.80546 0.3798,-4.6161 1.36909,-3.05132 1.01834,1.61073 1.74983,1.7283 2.99651,0.48162 2.97843,-2.97843 -0.0308,-4.59344 -7.63331,-4.09672 -13.22351,0.86399 -14.60317,2.4574 -12.66879,14.63156 0.93575,5.8892 0.76168,7.59403 -0.83807,8.2079 -1.1273,0.43259 -1.81711,2.18154 -1.56178,3.95973 0.88034,6.13071 13.10791,9.02879 19.42518,4.604 l 0,0 z m -276.82498,-2.06186 c 0,-0.78571 -0.96429,-1.42857 -2.14286,-1.42857 -1.7172,0 -2.14286,-2.16137 -2.14286,-10.8809 0,-10.58674 -0.0869,-10.85761 -3.21428,-10.01951 -1.76786,0.47377 -4.01786,0.87018 -5,0.88091 -0.98215,0.0114 -1.78572,0.66236 -1.78572,1.44807 0,0.78572 1.28572,1.42857 2.85715,1.42857 2.53968,0 2.85714,0.95239 2.85714,8.57143 0,7.61905 -0.31746,8.57143 -2.85714,8.57143 -1.57143,0 -2.85715,0.64286 -2.85715,1.42857 0,0.78572 3.21429,1.42857 7.14286,1.42857 3.92857,0 7.14286,-0.64285 7.14286,-1.42857 l 0,0 z m 177.14285,-2.14285 c 0,-1.96429 -0.64285,-3.57143 -1.42857,-3.57143 -0.78571,0 -1.42857,0.64285 -1.42857,1.42857 0,0.78571 -1.41183,1.42857 -3.13738,1.42857 -2.94199,0 -2.85302,-0.2934 1.42857,-4.71087 7.54231,-7.78169 5.35678,-15.28913 -4.45092,-15.28913 -4.1353,0 -7.1305,3.12471 -6.43867,6.71709 0.65969,3.4255 3.19307,2.73451 3.78032,-1.0311 0.33662,-2.15866 1.33704,-2.87479 3.57142,-2.55659 5.20138,0.74076 4.4965,5.69761 -1.83265,12.88793 -3.1778,3.61017 -5.77783,6.94746 -5.77783,7.41617 0,0.46871 3.53571,0.85221 7.85714,0.85221 7.42857,0 7.85714,-0.1948 7.85714,-3.57142 l 0,0 z m -329.94105,-7.20559 c 7.20514,-7.66954 2.28375,-19.93663 -7.8827,-19.64846 -5.01796,0.14225 -5.03339,0.1234 -5.03339,-6.1445 0,-6.03337 -0.17301,-6.28717 -4.28571,-6.28717 -2.35715,0 -4.28572,0.64286 -4.28572,1.42857 0,0.78572 0.64286,1.42857 1.42857,1.42857 0.86769,0 1.42885,6.30999 1.42926,16.07143 l 6.9e-4,16.07143 7.63325,0.32964 c 6.53498,0.28223 8.11708,-0.18532 10.99575,-3.24951 l 0,0 z m 26.43455,0.12771 c 6.5257,-6.52568 3.63532,-18.15402 -4.98291,-20.04691 -7.57567,-1.6639 -14.24521,3.84627 -14.3223,11.83263 -0.0595,6.16926 5.33201,11.72073 11.38314,11.72073 2.78339,0 5.71175,-1.29616 7.92207,-3.5065 l 0,5e-5 z m 20.68472,-0.15792 c 1.78897,-4.7054 1.77504,-7.7642 -0.0354,-7.7642 -0.78571,0 -1.43841,1.125 -1.45044,2.5 -0.0114,1.375 -0.65489,3.46428 -1.42857,4.64285 -2.21673,3.37679 -4.21586,-0.83103 -4.24197,-8.92857 -0.0203,-6.29154 0.23821,-6.78571 3.54955,-6.78571 1.96429,0 3.57143,-0.64286 3.57143,-1.42857 0,-0.78572 -1.60714,-1.42858 -3.57143,-1.42858 -3.12925,0 -3.57143,-0.61904 -3.57143,-5 0,-2.75 -0.64285,-5 -1.42857,-5 -0.78571,0 -1.42857,1.6017 -1.42857,3.55933 0,2.01217 -1.24193,4.33492 -2.85714,5.34363 -3.38203,2.11212 -3.71479,3.95419 -0.71429,3.95419 1.65846,0 2.14286,1.87301 2.14286,8.28571 0,8.96929 1.58164,11.71429 6.74964,11.71429 2.25049,0 3.7702,-1.18129 4.71429,-3.66443 l 0,6e-5 z m 17.1075,2.2358 c 0,-0.78572 -0.96429,-1.42858 -2.14286,-1.42858 -1.6149,0 -2.14286,-1.7347 -2.14286,-7.04081 0,-7.11863 2.86876,-12.23491 6.23725,-11.12386 2.09691,0.69163 3.03361,18.16467 0.97378,18.16467 -0.82321,0 -1.49674,0.64286 -1.49674,1.42858 0,0.78571 2.57143,1.42857 5.71429,1.42857 3.14285,0 5.71428,-0.64286 5.71428,-1.42857 0,-0.78572 -0.64286,-1.42858 -1.42857,-1.42858 -0.78571,0 -1.42857,-3.41284 -1.42857,-7.5841 0,-10.5093 -3.95002,-14.87842 -11.07143,-12.24614 -3.06183,1.13174 -3.21429,0.85099 -3.21429,-5.9194 0,-6.94484 -0.0981,-7.1075 -4.28571,-7.1075 -4.5155,0 -5.77346,1.98056 -2.14286,3.37376 1.69805,0.6516 2.14286,3.65803 2.14286,14.48338 0,10.82536 -0.44481,13.83179 -2.14286,14.48339 -4.23798,1.62627 -2.01814,3.37376 4.28572,3.37376 3.53571,0 6.42857,-0.64286 6.42857,-1.42857 l 0,0 z m 43.52787,-1.80779 c -0.59553,-2.37281 0.31894,-4.32011 3.42726,-7.29807 l 4.23953,-4.06173 2.38138,4.60509 c 1.71209,3.31081 1.94572,5.04074 0.83124,6.15521 -2.90751,2.90751 -1.55398,3.83586 5.59272,3.83586 6.95446,0 9.3968,-1.68655 4.92648,-3.40196 -1.21901,-0.46779 -3.70292,-4.21887 -5.51981,-8.33574 l -3.30346,-7.48525 4.24087,-5.27718 c 2.33248,-2.90246 6.1021,-6.04814 8.37696,-6.99042 6.05184,-2.50675 5.05782,-4.22374 -2.44531,-4.22374 -5.4429,0 -6.42986,0.39494 -5.7053,2.2831 0.51601,1.3447 -0.53527,3.96043 -2.55775,6.364 l -3.43384,4.08089 -1.85741,-4.48419 c -1.42277,-3.4349 -1.45707,-4.61763 -0.14656,-5.05447 4.16439,-1.38813 1.0966,-3.18933 -5.43201,-3.18933 -3.92858,0 -7.14286,0.64286 -7.14286,1.42857 0,0.78572 0.87857,1.42857 1.95238,1.42857 1.07383,0 3.33862,3.3356 5.03288,7.41245 l 3.08047,7.41244 -6.1043,6.29046 c -3.35736,3.45975 -7.55072,6.85824 -9.31857,7.5522 -5.2867,2.07524 -3.65083,4.1896 3.2415,4.1896 5.99458,0 6.39775,-0.2312 5.64351,-3.23636 l 0,0 z m 81.45404,1.83704 c 0.54806,-0.88677 1.84462,-0.78743 3.53975,0.27119 2.07712,1.2972 3.17971,1.25157 4.93377,-0.20417 2.49355,-2.06947 3.08648,-7.23913 0.83028,-7.23913 -0.78571,0 -1.42857,1.41428 -1.42857,3.14286 0,6.57475 -2.7065,0.19682 -3.13246,-7.38169 -0.3832,-6.818 -0.93808,-8.08846 -4.36754,-10 -3.53081,-1.96803 -4.32633,-1.96723 -7.85714,0.009 -2.20373,1.23277 -3.92857,3.42803 -3.92857,5 0,3.89514 4.18211,3.53187 4.74221,-0.41191 0.49997,-3.52033 3.00517,-4.18119 5.68636,-1.5 2.85584,2.85584 1.94493,5.42857 -1.92207,5.42857 -3.5389,0 -10.64936,5.61156 -10.64936,8.40446 0,4.46348 11.26287,8.188 13.55334,4.48194 l 0,-6.9e-4 z m 23.58952,0.12359 c 0,-0.70166 -0.96429,-1.64576 -2.14286,-2.09803 -3.24033,-1.24343 -2.77547,-11.27703 0.71333,-15.39656 2.8029,-3.30961 2.8962,-3.3208 5,-0.5995 2.76326,3.5743 2.76381,12.83145 9.6e-4,15.5943 -3.26502,3.26503 -2.68555,3.77552 4.28571,3.77552 6.30386,0 8.5237,-1.74749 4.28571,-3.37376 -1.5459,-0.59321 -2.14285,-3.01447 -2.14285,-8.69133 0,-6.69748 -0.50302,-8.19864 -3.3786,-10.0828 -2.53277,-1.65953 -4.29716,-1.8645 -7.04766,-0.81876 -2.01799,0.76723 -3.87261,0.83725 -4.1214,0.15559 -0.57661,-1.57989 -8.30949,-0.13843 -8.30949,1.54903 0,0.69411 0.96429,1.26203 2.14286,1.26203 1.6465,0 2.14286,1.83037 2.14286,7.90197 0,5.70614 -0.59547,8.13048 -2.14286,8.72427 -4.23798,1.62627 -2.01814,3.37376 4.28572,3.37376 3.53571,0 6.42857,-0.57409 6.42857,-1.27573 l 0,0 z m 41.42857,-0.126 c 0,-0.63232 -0.96429,-1.5197 -2.14286,-1.97197 -1.72557,-0.66216 -2.14286,-3.89115 -2.14286,-16.58142 l 0,-15.75917 -4.28571,0 c -4.5155,0 -5.77346,1.98056 -2.14286,3.37376 1.35052,0.51823 2.14286,2.70626 2.14286,5.91738 0,4.56428 -0.28299,4.94366 -2.71619,3.64145 -3.47477,-1.85965 -11.08305,0.63198 -13.02825,4.26661 -2.37227,4.43264 -1.60875,11.67847 1.58933,15.08267 2.52977,2.69283 4.50055,3.18032 12.85714,3.18032 5.42817,0 9.8694,-0.51736 9.8694,-1.14969 l 0,6e-5 z m 29.37638,-1.16969 c -0.54727,-1.72428 0.74326,-4.08293 3.9171,-7.15913 l 4.73325,-4.58765 2.41374,5.06167 c 2.10957,4.42381 2.14493,5.16481 0.28056,5.88024 -3.86526,1.48319 -0.66505,3.37629 5.70754,3.37629 6.48539,0 9.77831,-2.02152 5.23029,-3.21086 -1.53356,-0.40103 -3.94673,-4.00964 -5.90056,-8.82354 l -3.30582,-8.14502 5.55118,-5.68491 c 3.05314,-3.1267 7.00132,-6.04889 8.77375,-6.49373 5.49476,-1.3791 3.54942,-3.35623 -3.30225,-3.35623 -5.65562,0 -6.41509,0.34579 -5.70102,2.59566 0.53413,1.68286 -0.46323,3.80477 -2.83611,6.03398 -3.08532,2.89852 -3.86899,3.10779 -4.9914,1.33293 -1.76943,-2.79801 -1.73709,-7.10543 0.0534,-7.10543 0.78571,0 1.42857,-0.64285 1.42857,-1.42857 0,-0.78571 -3.17634,-1.42857 -7.05854,-1.42857 -3.8822,0 -7.45586,0.64286 -7.94146,1.42857 -0.4856,0.78572 0.10629,1.42857 1.31523,1.42857 2.43388,0 7.97048,9.75748 7.97048,14.04686 0,3.09449 -10.84004,13.69183 -15.52707,15.17943 -4.69,1.48856 -2.16523,3.63086 4.27907,3.63086 4.8641,0 5.60338,-0.38717 4.9101,-2.57147 l 0,5e-5 z m 80.62362,1.75509 c 0,-0.44897 -0.96429,-1.78062 -2.14286,-2.95919 -1.63078,-1.63078 -2.14286,-5.70294 -2.14286,-17.04081 l 0,-14.89796 -4.28571,0 c -2.35714,0 -4.28571,0.64286 -4.28571,1.42857 0,0.78572 0.96428,1.42857 2.14285,1.42857 1.76872,0 2.14286,2.61905 2.14286,15 0,12.63332 -0.3514,15 -2.22717,15 -1.22494,0 -1.82986,0.64286 -1.34426,1.42858 0.91714,1.48395 12.14286,2.04997 12.14286,0.61224 z m 15.04287,-0.68162 c 0.55497,-0.89795 1.59009,-0.99115 2.58431,-0.23267 2.31805,1.76842 22.37282,2.17683 22.37282,0.45563 0,-0.76428 -1.28572,-1.79768 -2.85714,-2.29644 -3.23478,-1.02667 -3.82089,-6.56487 -1.37549,-12.99677 1.1261,-2.96186 1.8803,-3.49842 3.14286,-2.23586 2.27024,2.27024 5.37548,2.09306 5.37548,-0.30674 0,-3.45803 -3.76735,-5.55286 -6.9363,-3.85689 -1.61658,0.86517 -3.03605,0.95826 -3.3056,0.21677 -0.58937,-1.62134 -8.32953,-0.2378 -8.32953,1.48889 0,0.69411 0.96429,1.26203 2.14286,1.26203 1.66667,0 2.14286,1.90475 2.14286,8.57143 0,6.66667 -0.47619,8.57142 -2.14286,8.57142 -1.19047,0 -2.14286,-1.26984 -2.14286,-2.85714 0,-3.89768 -2.5107,-3.6241 -3.27752,0.35714 -0.3405,1.76786 -0.70665,-0.43622 -0.81365,-4.89795 -0.2082,-8.68175 -2.16921,-11.96757 -8.01853,-13.43566 -6.0742,-1.52453 -12.18655,4.6326 -8.37888,8.44027 1.56251,1.56252 4.6649,-1.94378 3.77401,-4.26538 -0.62457,-1.62762 0.0163,-2.04442 2.58492,-1.68128 2.15683,0.30493 3.57067,1.56868 3.8368,3.42949 0.334,2.33539 -0.67069,3.22441 -4.84335,4.28571 -2.89562,0.7365 -6.18595,2.73839 -7.31185,4.44866 -1.83767,2.79146 -1.7441,3.41256 0.91477,6.07143 3.13937,3.13937 9.31221,3.97133 10.86187,1.46391 l 0,0 z m 73.52856,-1.3592 c 2.88844,-2.88844 3.76484,-5.71428 1.77221,-5.71428 -0.59671,0 -1.88788,1.28571 -2.86926,2.85714 -2.35791,3.77563 -6.7721,3.6285 -9.53624,-0.31787 -3.40186,-4.85684 -2.8386,-5.39641 5.63329,-5.39641 6.96295,0 7.85714,-0.33255 7.85714,-2.92208 0,-3.73551 -6.14984,-9.93507 -9.8554,-9.93507 -5.23667,0 -10.43031,5.94927 -10.43031,11.94786 0,10.34824 10.72622,16.18306 17.42857,9.48071 z M 207.58169,312.77988 c 8.39362,-3.82439 4.63974,-11.9009 -6.22601,-13.39533 -7.88322,-1.08422 -9.80703,-3.45764 -2.63742,-3.25379 5.89658,0.16766 10.14854,-4.71385 8.80522,-10.10893 -0.85209,-3.42221 -0.71197,-3.5928 1.47264,-1.79281 2.74074,2.25822 4.5191,1.29902 3.33115,-1.79672 -1.34528,-3.50577 -16.73953,-1.88424 -19.96847,2.10334 -1.42612,1.76118 -2.16839,4.18336 -1.66692,5.43953 1.23908,3.10386 1.57787,12.98025 0.44524,12.97948 -1.54176,-0.001 -2.61583,4.14787 -1.69501,6.54749 1.70854,4.45239 11.62772,6.24474 18.13958,3.27774 l 0,0 z m -39.43296,-13.39729 0.37874,-4.28571 -2.11383,3.57143 c -2.05116,3.46553 -2.11534,3.34627 -2.16446,-4.02249 -0.0629,-9.43441 -1.70438,-12.62905 -7.09781,-13.81364 -5.61825,-1.23398 -10.39806,1.40898 -9.82522,5.43278 0.59633,4.18878 4.76427,4.10151 4.61612,-0.0966 -0.0784,-2.22289 0.70685,-3.21429 2.54604,-3.21429 1.4627,0 3.19944,1.44643 3.85942,3.21429 1.06876,2.86288 0.64646,3.33455 -3.86274,4.31435 -6.49666,1.41165 -8.85786,3.43096 -8.85786,7.5753 0,4.61603 3.54435,6.14776 13.55617,5.85846 8.4414,-0.24392 8.5931,-0.32063 8.96543,-4.53383 z m 14.62126,3.72427 c 0,-0.70165 -0.96429,-1.64576 -2.14286,-2.09802 -1.50721,-0.57837 -2.14286,-2.9294 -2.14286,-7.92567 0,-6.8446 1.69151,-10.31379 3.55703,-7.29531 1.52669,2.47024 5.0144,1.59913 5.0144,-1.25243 0,-3.35947 -3.62492,-4.89272 -7.1311,-3.01627 -1.68594,0.90229 -2.80894,0.9136 -3.1108,0.0313 -0.56953,-1.66465 -6.90095,-0.22409 -6.90095,1.57015 0,0.69407 0.64285,1.26195 1.42857,1.26195 0.79365,0 1.42857,3.80953 1.42857,8.57143 0,4.7619 -0.63492,8.57143 -1.42857,8.57143 -0.78572,0 -1.42857,0.64286 -1.42857,1.42857 0,0.78571 2.89285,1.42857 6.42857,1.42857 3.53571,0 6.42857,-0.57408 6.42857,-1.27573 z m 49.44629,-2.34028 c 2.92858,-4.46958 1.3279,-6.69646 -1.70301,-2.36923 -3.59316,5.12995 -10.60042,3.23152 -10.60042,-2.8719 0,-2.13333 1.21693,-2.57143 7.14285,-2.57143 6.46151,0 7.14077,-0.30661 7.12098,-3.21429 -0.0274,-4.03097 -1.26723,-5.90846 -5.30595,-8.03499 -7.19852,-3.7903 -14.67217,2.04892 -14.67217,11.46346 0,9.89937 12.93567,15.35457 18.01772,7.59838 z"
       id="path5160"
       inkscape:connector-curvature="0" />
  </g>
</svg>
