<?xml version="1.0" encoding="UTF-8" standalone="no"?>
<!-- Created with Inkscape (http://www.inkscape.org/) -->

<svg
   xmlns:ns0="http://www.iki.fi/pav/software/textext/"
   xmlns:dc="http://purl.org/dc/elements/1.1/"
   xmlns:cc="http://creativecommons.org/ns#"
   xmlns:rdf="http://www.w3.org/1999/02/22-rdf-syntax-ns#"
   xmlns:svg="http://www.w3.org/2000/svg"
   xmlns="http://www.w3.org/2000/svg"
   xmlns:xlink="http://www.w3.org/1999/xlink"
   xmlns:sodipodi="http://sodipodi.sourceforge.net/DTD/sodipodi-0.dtd"
   xmlns:inkscape="http://www.inkscape.org/namespaces/inkscape"
   width="870.69348"
   height="856.67017"
   id="svg2"
   version="1.1"
   inkscape:version="0.48.3.1 r9886"
   sodipodi:docname="3D_anyH.svg">
  <sodipodi:namedview
     id="base"
     pagecolor="#ffffff"
     bordercolor="#666666"
     borderopacity="1.0"
     inkscape:pageopacity="0.0"
     inkscape:pageshadow="2"
     inkscape:zoom="0.49497475"
     inkscape:cx="180.09396"
     inkscape:cy="459.18555"
     inkscape:document-units="px"
     inkscape:current-layer="layer1"
     showgrid="true"
     inkscape:window-width="753"
     inkscape:window-height="715"
     inkscape:window-x="0"
     inkscape:window-y="24"
     inkscape:window-maximized="0"
     fit-margin-top="0"
     fit-margin-left="0"
     fit-margin-right="0"
     fit-margin-bottom="0">
    <inkscape:grid
       originy="-393.13967px"
       originx="-18.415269px"
       snapvisiblegridlinesonly="true"
       enabled="true"
       visible="true"
       empspacing="5"
       id="grid3004"
       type="xygrid" />
  </sodipodi:namedview>
  <defs
     id="defs4">
    <linearGradient
       id="linearGradient4648">
      <stop
         id="stop4650"
         offset="0"
         style="stop-color:#a20fa7;stop-opacity:1;" />
      <stop
         id="stop4652"
         offset="1"
         style="stop-color:#fa73ff;stop-opacity:0;" />
    </linearGradient>
    <inkscape:perspective
       id="perspective3865"
       inkscape:persp3d-origin="372.04724 : 350.78739 : 1"
       inkscape:vp_z="744.09448 : 526.18109 : 1"
       inkscape:vp_y="0 : 1000 : 0"
       inkscape:vp_x="0 : 526.18109 : 1"
       sodipodi:type="inkscape:persp3d" />
    <linearGradient
       gradientUnits="userSpaceOnUse"
       y2="-46.398216"
       x2="364.48401"
       y1="-611.1615"
       x1="396.7713"
       id="linearGradient4654"
       xlink:href="#linearGradient4648"
       inkscape:collect="always" />
  </defs>
  <metadata
     id="metadata7">
    <rdf:RDF>
      <cc:Work
         rdf:about="">
        <dc:format>image/svg+xml</dc:format>
        <dc:type
           rdf:resource="http://purl.org/dc/dcmitype/StillImage" />
        <dc:title />
      </cc:Work>
    </rdf:RDF>
  </metadata>
  <g
     transform="translate(-18.415269,197.44763)"
     id="layer1"
     inkscape:groupmode="layer"
     inkscape:label="Layer 1">
    <path
       transform="matrix(0.74631316,0.66559497,-0.66559497,0.74631316,-29.467629,165.40123)"
       d="m 861.49677,-267.63782 c 0,220.913903 -206.61914,400 -461.49677,400 -254.87763,0 -461.496765,-179.086097 -461.496765,-400 0,-220.9139 206.619135,-400 461.496765,-400 254.87763,0 461.49677,179.0861 461.49677,400 z"
       sodipodi:ry="400"
       sodipodi:rx="461.49677"
       sodipodi:cy="-267.63782"
       sodipodi:cx="400"
       id="path4128"
       style="opacity:0.57201646;fill:url(#linearGradient4654);fill-opacity:1;stroke:none"
       sodipodi:type="arc" />
    <path
       sodipodi:nodetypes="cc"
       inkscape:transform-center-y="172.80537"
       inkscape:transform-center-x="-0.29995747"
       inkscape:connector-curvature="0"
       id="path3006"
       d="M 49.563538,608.01391 420,607.36221"
       style="fill:none;stroke:#000000;stroke-width:1.71154296;stroke-linecap:butt;stroke-linejoin:miter;stroke-miterlimit:4;stroke-opacity:1;stroke-dasharray:none" />
    <path
       inkscape:transform-center-y="33.163781"
       inkscape:transform-center-x="320.00079"
       inkscape:connector-curvature="0"
       id="path3008"
       d="M 49.560769,607.14578 48.554316,292.36218"
       style="fill:none;stroke:#000000;stroke-width:2.33413529;stroke-linecap:butt;stroke-linejoin:miter;stroke-miterlimit:4;stroke-opacity:1;stroke-dasharray:none" />
    <path
       inkscape:transform-center-y="112.94621"
       inkscape:transform-center-x="13.858914"
       inkscape:connector-curvature="0"
       id="path3010"
       d="M 48.129438,605.72 440,421.9226"
       style="fill:none;stroke:#000000;stroke-width:0.81713659;stroke-linecap:butt;stroke-linejoin:miter;stroke-miterlimit:4;stroke-opacity:1;stroke-dasharray:none" />
    <path
       inkscape:transform-center-y="235.28737"
       inkscape:transform-center-x="228.7889"
       sodipodi:nodetypes="ccc"
       inkscape:connector-curvature="0"
       id="path3780"
       d="M 229.56319,608.22597 229.25352,448.22628 49.25386,448.57466 231.285,447.07314 231.2088,607.07313"
       style="fill:none;stroke:#ff0000;stroke-width:2.5;stroke-linecap:butt;stroke-linejoin:miter;stroke-miterlimit:4;stroke-opacity:1;stroke-dasharray:none" />
    <path
       inkscape:transform-center-y="127.87716"
       inkscape:transform-center-x="259.55209"
       inkscape:connector-curvature="0"
       id="path3010-4"
       d="M 49.394833,448.43315 169.61765,392.04554"
       style="fill:none;stroke:#000000;stroke-width:2.5;stroke-linecap:butt;stroke-linejoin:miter;stroke-miterlimit:4;stroke-opacity:1;stroke-dasharray:none" />
    <path
       inkscape:transform-center-y="286.25985"
       inkscape:transform-center-x="79.582788"
       inkscape:connector-curvature="0"
       id="path3010-8"
       d="M 230.25236,606.39924 348.69873,550.84483"
       style="fill:none;stroke:#000000;stroke-width:2.5;stroke-linecap:butt;stroke-linejoin:miter;stroke-miterlimit:4;stroke-opacity:1;stroke-dasharray:none" />
    <path
       inkscape:transform-center-y="99.245077"
       inkscape:transform-center-x="111.26151"
       sodipodi:nodetypes="cc"
       inkscape:connector-curvature="0"
       id="path3919"
       d="m 169.34638,391.77846 176.90088,-0.3424"
       style="fill:none;stroke:#000000;stroke-width:2.5;stroke-linecap:butt;stroke-linejoin:miter;stroke-miterlimit:4;stroke-opacity:1;stroke-dasharray:none" />
    <path
       inkscape:transform-center-y="127.75102"
       inkscape:transform-center-x="80.853663"
       inkscape:connector-curvature="0"
       id="path3010-4-5"
       d="M 228.09325,448.30701 348.31609,391.9194"
       style="fill:none;stroke:#000000;stroke-width:2.5;stroke-linecap:butt;stroke-linejoin:miter;stroke-miterlimit:4;stroke-opacity:1;stroke-dasharray:none" />
    <path
       inkscape:transform-center-y="178.48698"
       inkscape:transform-center-x="20.669433"
       inkscape:connector-curvature="0"
       id="path3939"
       d="m 348.23726,392.50221 0.30328,156.6939"
       style="fill:none;stroke:#000000;stroke-width:2.5;stroke-linecap:butt;stroke-linejoin:miter;stroke-miterlimit:4;stroke-opacity:1;stroke-dasharray:none" />
    <path
       inkscape:transform-center-y="177.94982"
       inkscape:transform-center-x="199.81294"
       inkscape:connector-curvature="0"
       id="path3939-0"
       d="m 169.0935,391.83954 0.30378,156.94493"
       style="fill:none;stroke:#000000;stroke-width:1.25;stroke-linecap:butt;stroke-linejoin:miter;stroke-miterlimit:4;stroke-opacity:1;stroke-dasharray:1.25, 1.25;stroke-dashoffset:0" />
    <path
       inkscape:transform-center-y="256.97045"
       inkscape:transform-center-x="110.18194"
       sodipodi:nodetypes="cc"
       inkscape:connector-curvature="0"
       id="path3919-1"
       d="m 169.71522,549.5052 178.32234,-0.34513"
       style="fill:none;stroke:#000000;stroke-width:1.25;stroke-linecap:butt;stroke-linejoin:miter;stroke-miterlimit:4;stroke-opacity:1;stroke-dasharray:1.25, 3.75;stroke-dashoffset:0" />
    <path
       inkscape:transform-center-y="287.23835"
       inkscape:transform-center-x="80.336483"
       sodipodi:nodetypes="cc"
       inkscape:connector-curvature="0"
       id="path3790"
       d="m 231.20875,607.07313 115.0262,-54.94519"
       style="fill:none;stroke:#fa1010;stroke-width:4;stroke-linecap:butt;stroke-linejoin:miter;stroke-miterlimit:4;stroke-opacity:1;stroke-dasharray:none" />
    <path
       inkscape:transform-center-y="127.15354"
       inkscape:transform-center-x="258.26021"
       sodipodi:nodetypes="cc"
       inkscape:connector-curvature="0"
       id="path3790-0"
       d="M 51.285021,446.98737 170.31122,392.04408"
       style="fill:none;stroke:#fa1010;stroke-width:4;stroke-linecap:butt;stroke-linejoin:miter;stroke-miterlimit:4;stroke-opacity:1;stroke-dasharray:none" />
    <path
       inkscape:transform-center-y="256.72405"
       inkscape:transform-center-x="110.32195"
       inkscape:connector-curvature="0"
       id="path3810"
       d="m 171.2364,549.04453 174.99997,0.0834"
       style="opacity:0.51851849;fill:none;stroke:#ee0707;stroke-width:5;stroke-linecap:butt;stroke-linejoin:miter;stroke-miterlimit:4;stroke-opacity:1;stroke-dasharray:none;stroke-dashoffset:0" />
    <path
       inkscape:connector-curvature="0"
       id="path3812"
       d="m 59.888092,445.81726 c 2.508889,-1.46522 108.034388,-49.98765 108.712018,-49.98765 0.39596,0 1.32732,-0.54968 2.0697,-1.22151 1.25371,-1.1346 7.38197,-1.24188 86.12767,-1.50783 46.62785,-0.15747 84.6172,-0.11704 84.42077,0.0898 -0.19643,0.20688 -25.4253,12.13541 -56.06417,26.50783 l -55.70702,26.13167 -29.39513,0 c -25.47008,0 -29.45002,-0.14306 -29.80627,-1.07143 -0.22613,-0.58928 -0.22613,-1.55357 0,-2.14285 0.26035,-0.67846 -0.01,-1.07143 -0.7367,-1.07143 -0.78484,0 -1.14785,0.64156 -1.14785,2.02861 l 0,2.02861 -17.25853,0.47139 c -26.7352,0.73023 -92.586396,0.54595 -91.214488,-0.25525 z m 110.377778,-7.13051 c 0,-1.30952 -0.37037,-2.14285 -0.95239,-2.14285 -0.582,0 -0.95237,0.83333 -0.95237,2.14285 0,1.30953 0.37037,2.14286 0.95237,2.14286 0.58202,0 0.95239,-0.83333 0.95239,-2.14286 l 0,0 z m -0.0426,-3.98699 c -0.23845,-0.62141 -0.43355,-1.5857 -0.43355,-2.14285 0,-0.55716 -0.32143,-1.01301 -0.71429,-1.01301 -0.39286,0 -0.71428,0.96428 -0.71428,2.14285 0,1.49198 0.34865,2.14286 1.14785,2.14286 0.75322,0 0.99879,-0.38843 0.71428,-1.12985 l -10e-6,0 z m -0.43355,-6.01301 c 0,-1.17857 -0.32143,-2.14285 -0.71429,-2.14285 -0.39286,0 -0.71428,0.96428 -0.71428,2.14285 0,1.17858 0.32142,2.14286 0.71428,2.14286 0.39286,0 0.71429,-0.96428 0.71429,-2.14286 z m 0,-5 c 0,-1.17857 -0.32143,-2.14285 -0.71429,-2.14285 -0.39286,0 -0.71428,0.96428 -0.71428,2.14285 0,1.17858 0.32142,2.14286 0.71428,2.14286 0.39286,0 0.71429,-0.96428 0.71429,-2.14286 z m 0,-5 c 0,-1.17857 -0.32143,-2.14285 -0.71429,-2.14285 -0.39286,0 -0.71428,0.96428 -0.71428,2.14285 0,1.17858 0.32142,2.14286 0.71428,2.14286 0.39286,0 0.71429,-0.96428 0.71429,-2.14286 z m 0,-5 c 0,-1.17857 -0.32143,-2.14285 -0.71429,-2.14285 -0.39286,0 -0.71428,0.96428 -0.71428,2.14285 0,1.17858 0.32142,2.14286 0.71428,2.14286 0.39286,0 0.71429,-0.96428 0.71429,-2.14286 z m 0,-5 c 0,-1.17857 -0.32143,-2.14285 -0.71429,-2.14285 -0.39286,0 -0.71428,0.96428 -0.71428,2.14285 0,1.17858 0.32142,2.14286 0.71428,2.14286 0.39286,0 0.71429,-0.96428 0.71429,-2.14286 z m 0,-5 c 0,-1.17857 -0.32143,-2.14285 -0.71429,-2.14285 -0.39286,0 -0.71428,0.96428 -0.71428,2.14285 0,1.17858 0.32142,2.14286 0.71428,2.14286 0.39286,0 0.71429,-0.96428 0.71429,-2.14286 z m 0,-5 c 0,-1.17857 -0.32143,-2.14285 -0.71429,-2.14285 -0.39286,0 -0.71428,0.96428 -0.71428,2.14285 0,1.17858 0.32142,2.14286 0.71428,2.14286 0.39286,0 0.71429,-0.96428 0.71429,-2.14286 z"
       style="opacity:0.39506172;fill:#ffaaaa;fill-opacity:1;stroke:#ee0707;stroke-width:0.89285713;stroke-miterlimit:4;stroke-opacity:1;stroke-dasharray:0.89285714, 0.89285714;stroke-dashoffset:0" />
    <path
       inkscape:connector-curvature="0"
       id="path3814"
       d="m 236.93253,547.61533 c 0,-0.71429 -0.71428,-1.07143 -2.14285,-1.07143 l -2.14286,0 0,-13.1072 0,-13.1072 57.14286,-26.81312 57.14285,-26.81313 0,39.92032 0,39.92033 -2.85714,0 c -1.57143,0 -2.85714,0.32143 -2.85714,0.71428 0,0.39286 -0.96429,0.71429 -2.14286,0.71429 -1.17857,0 -2.14286,-0.32143 -2.14286,-0.71429 0,-0.39285 -1.28571,-0.71428 -2.85714,-0.71428 -1.57143,0 -2.85714,0.32143 -2.85714,0.71428 0,0.39286 -0.96429,0.71429 -2.14286,0.71429 -1.17857,0 -2.14286,-0.32143 -2.14286,-0.71429 0,-0.39285 -1.28571,-0.71428 -2.85714,-0.71428 -1.57143,0 -2.85714,0.32143 -2.85714,0.71428 0,0.39286 -0.96429,0.71429 -2.14286,0.71429 -1.17857,0 -2.14286,-0.32143 -2.14286,-0.71429 0,-0.39285 -1.28571,-0.71428 -2.85714,-0.71428 -1.57143,0 -2.85714,0.32143 -2.85714,0.71428 0,0.39286 -0.96429,0.71429 -2.14286,0.71429 -1.17857,0 -2.14286,-0.32143 -2.14286,-0.71429 0,-0.39285 -1.28571,-0.71428 -2.85714,-0.71428 -1.57143,0 -2.85714,0.32143 -2.85714,0.71428 0,0.39286 -0.96429,0.71429 -2.14286,0.71429 -1.17857,0 -2.14286,-0.32143 -2.14286,-0.71429 0,-0.39285 -1.28571,-0.71428 -2.85714,-0.71428 -1.57143,0 -2.85714,0.32143 -2.85714,0.71428 0,0.39286 -0.96429,0.71429 -2.14286,0.71429 -1.17857,0 -2.14286,-0.32143 -2.14286,-0.71429 0,-0.39285 -1.28571,-0.71428 -2.85714,-0.71428 -1.57143,0 -2.85714,0.32143 -2.85714,0.71428 0,0.39286 -0.96429,0.71429 -2.14286,0.71429 -1.17857,0 -2.14286,-0.32143 -2.14286,-0.71429 0,-0.39285 -1.28571,-0.71428 -2.85714,-0.71428 -2.06349,0 -2.85714,0.29762 -2.85714,1.07143 0,0.71428 -0.71429,1.07142 -2.14286,1.07142 -1.42857,0 -2.14286,-0.35714 -2.14286,-1.07142 0,-0.77381 -0.79365,-1.07143 -2.85714,-1.07143 -2.06349,0 -2.85714,0.29762 -2.85714,1.07143 0,0.71428 -0.71429,1.07142 -2.14286,1.07142 -1.42857,0 -2.14286,-0.35714 -2.14286,-1.07142 0,-0.77381 -0.79365,-1.07143 -2.85714,-1.07143 -2.06349,0 -2.85714,0.29762 -2.85714,1.07143 0,0.71428 -0.71429,1.07142 -2.14286,1.07142 -1.42857,0 -2.14286,-0.35714 -2.14286,-1.07142 0,-0.77381 -0.79365,-1.07143 -2.85714,-1.07143 -2.06349,0 -2.85714,0.29762 -2.85714,1.07143 0,0.71428 -0.71429,1.07142 -2.14286,1.07142 -1.42857,0 -2.14286,-0.35714 -2.14286,-1.07142 z"
       style="opacity:0.51851849;fill:#ffaaaa;fill-opacity:1;stroke:#ee0707;stroke-width:0.89285713;stroke-miterlimit:4;stroke-opacity:1;stroke-dasharray:0.89285714, 0.89285714;stroke-dashoffset:0" />
    <path
       inkscape:connector-curvature="0"
       id="path3816"
       d="m 232.81867,482.89634 0.18529,-35.04618 56.78572,-26.62777 56.78571,-26.62777 0.18545,34.68205 c 0.10199,19.07513 -0.0587,34.90991 -0.35714,35.1884 -0.45134,0.42119 -91.8238,43.42247 -108.58503,51.10177 l -5.18529,2.37569 0.18529,-35.04619 0,0 z"
       style="opacity:0.51851849;fill:#ffaaaa;fill-opacity:1;stroke:#ee0707;stroke-width:0.89285713;stroke-miterlimit:4;stroke-opacity:1;stroke-dasharray:0.89285714, 0.89285714;stroke-dashoffset:0" />
    <path
       inkscape:connector-curvature="0"
       id="path3818"
       d="m 232.64682,577.66346 0,-25.40528 1.80813,0 c 0.99447,0 1.99315,-0.48214 2.21928,-1.07143 0.23436,-0.61073 1.29967,-1.07142 2.47758,-1.07142 1.36064,0 2.06644,0.36594 2.06644,1.07142 0,1.47957 4.88822,1.47957 5.45598,0 0.55373,-1.44298 4.54402,-1.44298 4.54402,0 0,0.75012 0.75646,1.07143 2.52242,1.07143 1.58322,0 2.6755,-0.39893 2.93356,-1.07143 0.23436,-0.61073 1.29967,-1.07142 2.47758,-1.07142 1.36064,0 2.06644,0.36594 2.06644,1.07142 0,0.75012 0.75646,1.07143 2.52242,1.07143 1.58322,0 2.6755,-0.39893 2.93356,-1.07143 0.23436,-0.61073 1.29967,-1.07142 2.47758,-1.07142 1.36064,0 2.06644,0.36594 2.06644,1.07142 0,0.75012 0.75646,1.07143 2.52242,1.07143 1.58322,0 2.6755,-0.39893 2.93356,-1.07143 0.23436,-0.61073 1.29967,-1.07142 2.47758,-1.07142 1.36064,0 2.06644,0.36594 2.06644,1.07142 0,1.47957 4.88822,1.47957 5.45598,0 0.55373,-1.44298 4.54402,-1.44298 4.54402,0 0,0.75012 0.75646,1.07143 2.52242,1.07143 1.58322,0 2.6755,-0.39893 2.93356,-1.07143 0.23436,-0.61073 1.29967,-1.07142 2.47758,-1.07142 1.36064,0 2.06644,0.36594 2.06644,1.07142 0,0.75012 0.75646,1.07143 2.52241,1.07143 1.58323,0 2.67551,-0.39893 2.93357,-1.07143 0.23436,-0.61073 1.29967,-1.07142 2.47758,-1.07142 1.36065,0 2.06644,0.36594 2.06644,1.07142 0,0.75012 0.75646,1.07143 2.52241,1.07143 1.58323,0 2.67551,-0.39893 2.93357,-1.07143 0.23436,-0.61073 1.29967,-1.07142 2.47758,-1.07142 1.36065,0 2.06644,0.36594 2.06644,1.07142 0,0.75012 0.75646,1.07143 2.52241,1.07143 1.58323,0 2.67551,-0.39893 2.93357,-1.07143 0.23436,-0.61073 1.29967,-1.07142 2.47758,-1.07142 1.36065,0 2.06644,0.36594 2.06644,1.07142 0,1.47957 4.88822,1.47957 5.45598,0 0.50021,-1.30352 4.54623,-1.4627 4.53896,-0.17857 -0.003,0.49107 -12.77957,6.98651 -28.39286,14.43431 -49.6103,23.66494 -77.13314,36.66127 -78.67604,37.15097 l -1.49747,0.47528 0,-25.40528 z"
       style="opacity:0.22000001000000000;fill:#ff0000;fill-opacity:0.97260273;stroke:#ee0707;stroke-width:0.89285713000000000;stroke-miterlimit:4;stroke-opacity:1;stroke-dasharray:0.89285714000000005, 0.89285714000000005;stroke-dashoffset:0" />
    <path
       inkscape:connector-curvature="0"
       id="path3832"
       d="m 170,392.36218 0,155"
       style="fill:#ff8080;stroke:#f60909;stroke-width:5;stroke-linecap:butt;stroke-linejoin:miter;stroke-miterlimit:4;stroke-opacity:1;stroke-dasharray:none" />
    <path
       inkscape:connector-curvature="0"
       id="path3834"
       d="m 170.77165,498.78422 -0.0414,-48.78082 19.88023,-0.23703 c 10.93413,-0.13038 23.79127,-0.23704 28.57143,-0.23704 l 8.6912,0 0,35.48399 0,35.48398 -27.52769,12.90887 c -15.14023,7.09988 -27.90523,12.90887 -28.36667,12.90887 -0.49872,0 -0.90523,0.25348 -1.00231,0.625 -0.0898,0.34375 -0.18198,-21.32637 -0.20476,-48.15582 z"
       style="opacity:0.2;fill:#ff8080;fill-opacity:1;stroke:#ee0707;stroke-width:0.44642857;stroke-miterlimit:4;stroke-opacity:1;stroke-dasharray:0.44642857, 0.44642857;stroke-dashoffset:0" />
    <path
       inkscape:connector-curvature="0"
       id="path3840"
       d="m 174.53784,445.25158 c -0.20172,-0.33605 -0.62787,-0.50879 -0.94701,-0.38386 -0.31915,0.12493 -1.09165,0.0314 -1.71668,-0.20781 l -1.13642,-0.43493 0.008,-25.1078 c 0.004,-13.8093 0.17472,-25.34181 0.37881,-25.62783 0.48117,-0.67432 1.88174,-0.71736 27.64519,-0.84962 14.78348,-0.0759 21.85151,-0.29014 22.13554,-0.67098 0.29303,-0.39291 0.49037,-0.37572 0.6628,0.0578 0.16102,0.40471 0.97374,0.52027 2.36066,0.33567 3.26498,-0.43458 113.50351,-0.48363 114.16406,-0.0508 0.37612,0.24646 0.26936,0.38489 -0.30082,0.39001 -0.48613,0.004 -0.88388,0.28098 -0.88388,0.61466 0,0.33369 -0.14246,0.46002 -0.31657,0.28076 -0.17412,-0.17928 -1.02644,0.0638 -1.89404,0.54026 -0.8676,0.47642 -1.7675,0.81138 -1.99976,0.74437 -0.23227,-0.067 -0.54791,0.37267 -0.70142,0.97709 -0.21686,0.85381 -0.38472,0.94413 -0.75258,0.40494 -0.37018,-0.54262 -0.52933,-0.55221 -0.72962,-0.044 -0.1409,0.35752 -0.4975,0.65004 -0.79244,0.65004 -0.29494,0 -2.19016,0.81902 -4.2116,1.82007 -2.02143,1.00104 -3.92038,1.82007 -4.21987,1.82007 -0.2995,0 -0.54454,0.23402 -0.54454,0.52003 0,0.28601 -0.33158,0.52002 -0.73686,0.52002 -1.29492,0 -4.28718,1.79211 -4.34135,2.60011 -0.0341,0.50935 -0.1386,0.56097 -0.30098,0.14876 -0.16504,-0.41895 -0.53387,-0.4747 -1.09655,-0.16576 -0.46633,0.25604 -2.43886,1.22635 -4.3834,2.15624 -1.94454,0.9299 -3.60704,1.86888 -3.69444,2.08662 -0.0874,0.21775 -0.48514,0.26702 -0.88388,0.10947 -0.39874,-0.15754 -0.72498,-0.0274 -0.72498,0.28923 0,0.31661 -0.22573,0.57566 -0.50161,0.57566 -1.22501,0 -4.55295,1.88027 -4.58903,2.59277 -0.0223,0.43962 -0.14382,0.52675 -0.27522,0.19728 -0.17553,-0.44009 -0.54953,-0.44009 -1.47141,0 -0.67984,0.32455 -1.23785,0.75825 -1.24001,0.96378 -0.002,0.20554 -0.34487,0.239 -0.76156,0.0743 -0.41668,-0.16463 -0.75761,-0.0403 -0.75761,0.27633 0,0.31661 -0.45457,0.57566 -1.01015,0.57566 -0.55559,0 -1.42211,0.42414 -1.92561,0.94254 -0.50349,0.51839 -1.18535,0.84991 -1.51523,0.7367 -0.32988,-0.11322 -0.59977,0.0477 -0.59977,0.35751 0,0.30985 -0.17047,0.53805 -0.37881,0.50712 -0.78783,-0.11697 -2.65165,0.71781 -2.65165,1.18763 0,0.26952 -0.19536,0.36574 -0.43413,0.21381 -0.69129,-0.43988 -3.08913,0.91669 -3.13734,1.77493 -0.0248,0.44136 -0.14599,0.52384 -0.27916,0.18995 -0.26423,-0.66251 -2.70427,0.24711 -2.71142,1.01078 -0.002,0.23139 -0.21552,0.28609 -0.47412,0.12153 -0.2586,-0.16455 -0.61294,-0.0614 -0.78742,0.22933 -0.17449,0.29067 -0.7584,0.5285 -1.29759,0.5285 -0.53919,0 -1.3923,0.42414 -1.8958,0.94253 -0.50349,0.5184 -1.18535,0.84991 -1.51523,0.73671 -0.32988,-0.11322 -0.59977,0.0477 -0.59977,0.35751 0,0.30985 -0.17047,0.53805 -0.37881,0.50712 -0.78783,-0.11697 -2.65165,0.7178 -2.65165,1.18762 0,0.26954 -0.21804,0.35132 -0.48453,0.18174 -0.48713,-0.30997 -2.53132,0.65138 -3.10747,1.4614 -0.16996,0.23894 -0.44885,0.43495 -0.61978,0.43559 -0.962,0.003 -2.35421,0.61942 -2.35421,1.0414 0,0.26953 -0.21159,0.35543 -0.47018,0.19088 -0.2586,-0.16455 -0.61294,-0.0614 -0.78742,0.22932 -0.17449,0.29067 -0.75841,0.5285 -1.29759,0.5285 -0.53919,0 -1.3923,0.42415 -1.8958,0.94254 -0.50349,0.5184 -1.18535,0.84991 -1.51523,0.7367 -0.32988,-0.11321 -0.59978,0.0477 -0.59978,0.35751 0,0.30985 -0.17046,0.53805 -0.3788,0.50712 -0.78783,-0.11697 -2.65165,0.7178 -2.65165,1.18762 0,0.26954 -0.21804,0.35133 -0.48453,0.18174 -0.48713,-0.30996 -2.53132,0.6514 -3.10747,1.46141 -0.16996,0.23893 -0.39725,0.42106 -0.50508,0.40471 -0.69206,-0.10494 -2.46891,0.66678 -2.46891,1.07227 0,0.26954 -0.21159,0.35543 -0.47018,0.19088 -0.2586,-0.16455 -0.61294,-0.0614 -0.78742,0.22932 -0.17449,0.29068 -0.75841,0.52851 -1.2976,0.52851 -0.53918,0 -1.39229,0.42414 -1.89579,0.94254 -0.50349,0.5184 -1.18535,0.8499 -1.51523,0.73669 -0.32988,-0.11321 -0.59978,0.0477 -0.59978,0.35752 0,0.30984 -0.17046,0.53805 -0.3788,0.50712 -0.78783,-0.11697 -2.65165,0.7178 -2.65165,1.18762 0,0.26953 -0.21804,0.35132 -0.48453,0.18175 -0.48713,-0.30997 -2.53132,0.65138 -3.10747,1.4614 -0.16996,0.23893 -0.51089,0.45165 -0.75762,0.47269 -1.24233,0.10598 -2.21638,0.57194 -2.21638,1.06027 0,0.30033 -0.14955,0.39207 -0.33233,0.20387 -0.18279,-0.18818 -0.64125,-0.0782 -1.0188,0.24441 -0.49052,0.41914 -8.00055,0.57966 -26.31044,0.56234 -14.09319,-0.0133 -25.73761,-0.0752 -25.87651,-0.13743 -0.85518,-0.38333 -2.82782,-0.29625 -3.09359,0.13653 -0.19807,0.32255 -0.45231,0.28645 -0.68244,-0.097 z"
       style="opacity:0.39506172;fill:#ff8080;fill-opacity:1;stroke:#ee0707;stroke-width:0.64026773;stroke-miterlimit:4;stroke-opacity:1;stroke-dasharray:0.64026774, 0.64026774;stroke-dashoffset:0" />
    <path
       inkscape:connector-curvature="0"
       id="path3842"
       d="m 248.51947,547.91995 c -0.41669,-0.14892 -1.04169,-0.62895 -1.3889,-1.06674 -0.88158,-1.11155 -5.6513,-1.03772 -6.2865,0.0973 -0.57077,1.01992 -3.43628,1.11332 -3.43628,0.112 0,-0.74138 -2.25697,-1.54295 -3.01878,-1.07212 -1.00411,0.62057 -1.19577,-1.48142 -1.18769,-13.02573 l 0.008,-12.08972 1.46766,-0.82319 c 0.80721,-0.45276 1.53917,-0.98089 1.62656,-1.17363 0.0874,-0.19274 0.48515,-0.22524 0.88389,-0.0722 0.39874,0.15301 0.72498,0.0266 0.72498,-0.28091 0,-0.30752 0.36268,-0.55911 0.80595,-0.55911 0.86207,0 3.78883,-1.48997 4.30128,-2.18972 0.16996,-0.23207 0.45168,-0.40875 0.62605,-0.39262 0.89369,0.0826 8.56902,-3.4394 8.82029,-4.04746 0.0874,-0.21149 0.48515,-0.25933 0.88389,-0.10632 0.39874,0.15301 0.72498,0.0266 0.72498,-0.28091 0,-0.30752 0.36268,-0.55912 0.80596,-0.55912 0.86206,0 3.78882,-1.48997 4.30127,-2.18971 0.16996,-0.23207 0.51088,-0.43147 0.75762,-0.44311 1.18885,-0.0561 8.4383,-3.39098 8.68873,-3.99697 0.0874,-0.21149 0.48514,-0.25934 0.88388,-0.10633 0.39874,0.15301 0.72498,0.0266 0.72498,-0.28091 0,-0.30751 0.36268,-0.55911 0.80596,-0.55911 0.86206,0 3.78882,-1.48997 4.30127,-2.18972 0.16996,-0.23207 0.39724,-0.38786 0.50508,-0.3462 0.58512,0.22603 8.68952,-3.48467 8.94127,-4.09388 0.0874,-0.21149 0.48514,-0.25933 0.88388,-0.10632 0.39874,0.15301 0.72498,0.0266 0.72498,-0.28091 0,-0.30752 0.36268,-0.55912 0.80596,-0.55912 0.86206,0 3.78882,-1.48997 4.30127,-2.18971 0.16996,-0.23207 0.39725,-0.40895 0.50508,-0.39307 0.69206,0.10191 2.46891,-0.64762 2.46891,-1.04147 0,-0.26178 0.20592,-0.34871 0.45759,-0.19317 0.46665,0.2884 5.72582,-2.19654 6.01477,-2.84196 0.0874,-0.19521 0.48514,-0.22975 0.88388,-0.0767 0.39874,0.15302 0.72498,0.0266 0.72498,-0.28091 0,-0.30751 0.36268,-0.55911 0.80596,-0.55911 0.86206,0 3.78882,-1.48997 4.30127,-2.18971 0.16996,-0.23207 0.44885,-0.42245 0.61978,-0.42307 0.962,-0.003 2.35421,-0.60162 2.35421,-1.01147 0,-0.26179 0.20592,-0.34872 0.45759,-0.19317 0.47167,0.29151 5.61443,-2.13253 6.16487,-2.90582 0.16996,-0.23876 0.39725,-0.40002 0.50508,-0.35836 0.59425,0.22955 5.5367,-1.95541 6.06091,-2.67942 0.16996,-0.23473 0.39725,-0.41379 0.50508,-0.39791 0.69206,0.10191 2.46891,-0.64762 2.46891,-1.04146 0,-0.26179 0.20592,-0.34872 0.45759,-0.19318 0.47167,0.29151 5.61443,-2.13253 6.16487,-2.90581 0.16996,-0.23876 0.51089,-0.44364 0.75762,-0.45528 1.24382,-0.0587 5.28053,-1.85348 5.80837,-2.58251 0.16996,-0.23473 0.44886,-0.42728 0.61978,-0.4279 0.91842,-0.003 2.35421,-0.59234 2.35421,-0.96581 0,-0.23667 0.31794,-0.30831 0.70653,-0.1592 0.38859,0.14912 0.85657,0.0283 1.03996,-0.26839 0.18339,-0.29673 0.61674,-0.53951 0.96301,-0.53951 0.49452,0 0.62355,5.3087 0.60153,24.74875 -0.0156,13.77162 0.16742,24.74874 0.41262,24.74874 0.24236,-10e-6 0.2337,0.28409 -0.0192,0.63133 -0.25294,0.34724 -0.43748,6.61076 -0.41008,13.91893 0.03,8.00434 -0.14303,13.40678 -0.4352,13.58735 -0.26677,0.16486 -1.3033,0.3722 -2.30343,0.46075 -1.00012,0.0885 -2.32527,0.43101 -2.94477,0.76103 -0.89867,0.47874 -1.6335,0.43626 -3.63496,-0.21015 -2.66497,-0.86069 -6.01447,-0.65969 -6.41534,0.38497 -0.25026,0.65215 -1.60625,0.69671 -2.59553,0.0853 -0.34236,-0.21159 -0.62595,-0.20083 -0.6302,0.0239 -0.004,0.22474 -0.17759,0.14157 -0.38519,-0.18482 -0.66862,-1.05121 -5.1633,-1.07842 -6.26326,-0.0379 -0.75315,0.71244 -1.87693,0.79606 -2.814,0.20938 -0.34724,-0.21739 -0.63483,-0.21139 -0.63908,0.0133 -0.004,0.22473 -0.17759,0.14157 -0.38518,-0.18482 -0.66862,-1.05121 -5.1633,-1.07842 -6.26327,-0.0379 -0.84432,0.79868 -1.84702,0.76899 -3.43215,-0.10164 -1.41322,-0.77621 -5.29504,-0.86539 -6.22026,-0.14292 -0.8385,0.65475 -2.8843,1.12007 -2.8843,0.65603 0,-0.20782 -0.85496,-0.634 -1.8999,-0.94707 -1.85272,-0.55509 -3.37222,-0.44143 -5.42371,0.40569 -2.01207,0.83084 -2.77792,0.97326 -2.77792,0.5166 0,-1.36971 -6.15361,-1.64219 -7.3236,-0.32428 -0.57692,0.64985 -2.77792,0.85108 -2.77792,0.25397 0,-0.65133 -3.62946,-1.44827 -5.01999,-1.10226 -0.71141,0.17702 -1.52075,0.59338 -1.79854,0.92523 -0.90151,1.07695 -2.2183,1.232 -3.08684,0.36346 -0.85739,-0.85739 -1.66903,-1.14792 -3.47916,-1.24536 -2.26572,-0.12196 -3.28299,0.14725 -3.28299,0.86882 0,0.77081 -0.23003,0.86985 -2.02031,0.86985 -1.79203,0 -2.08577,-0.10277 -1.76718,-0.61826 0.46909,-0.75901 -2.06012,-1.53541 -4.136,-1.26963 -1.00405,0.12855 -2.25464,0.69431 -2.77908,1.25723 -0.52445,0.56292 -1.0015,1.00555 -1.06013,0.98362 -0.0586,-0.0218 -0.44751,-0.16164 -0.8642,-0.31056 z"
       style="opacity:0.39506172;fill:#ff8080;fill-opacity:1;stroke:#ee0707;stroke-width:0.63134533;stroke-miterlimit:4;stroke-opacity:1;stroke-dasharray:0.63134534, 0.63134534;stroke-dashoffset:0" />
    <path
       inkscape:connector-curvature="0"
       id="path3844"
       d="m 233.3307,516.70319 c -0.11353,-2.20727 0.0523,-54.64735 0.17726,-56.06346 0.0736,-0.83338 -0.0695,-1.79934 -0.31791,-2.14658 -0.27262,-0.3811 -0.25816,-0.63134 0.0365,-0.63134 0.28014,0 0.4675,-1.85756 0.43973,-4.35973 -0.0495,-4.4565 0.52443,-6.24687 2.0024,-6.24687 0.40093,0 0.72897,-0.22729 0.72897,-0.50508 0,-0.27779 0.17046,-0.48049 0.37881,-0.45045 0.78783,0.11361 2.65165,-0.69717 2.65165,-1.15349 0,-0.26179 0.21804,-0.34122 0.48453,-0.17652 0.48713,0.30106 2.53131,-0.63267 3.10747,-1.4194 0.16996,-0.23207 0.44885,-0.42245 0.61977,-0.42307 0.91842,-0.003 2.35422,-0.59234 2.35422,-0.96581 0,-0.23668 0.34093,-0.29949 0.75761,-0.13959 0.41669,0.15989 0.75762,0.0391 0.75762,-0.26839 0,-0.30752 0.36268,-0.55912 0.80595,-0.55912 0.86207,0 3.78883,-1.48997 4.30128,-2.18971 0.16996,-0.23207 0.44885,-0.42245 0.61977,-0.42307 0.96201,-0.003 2.35422,-0.60162 2.35422,-1.01147 0,-0.26178 0.21804,-0.34122 0.48453,-0.17652 0.48713,0.30106 2.53131,-0.63266 3.10747,-1.4194 0.16996,-0.23207 0.39724,-0.40895 0.50508,-0.39307 0.65294,0.0962 2.46891,-0.6363 2.46891,-0.99581 0,-0.23667 0.34093,-0.29949 0.75762,-0.13959 0.41668,0.1599 0.75761,0.0391 0.75761,-0.26839 0,-0.30751 0.36268,-0.55911 0.80595,-0.55911 0.86207,0 3.78883,-1.48997 4.30128,-2.18971 0.16996,-0.23208 0.44885,-0.42245 0.61977,-0.42307 0.96201,-0.003 2.35422,-0.60162 2.35422,-1.01147 0,-0.26179 0.21804,-0.34122 0.48453,-0.17652 0.48713,0.30106 2.53132,-0.63266 3.10747,-1.4194 0.16996,-0.23207 0.39724,-0.40895 0.50508,-0.39307 0.69206,0.10191 2.46891,-0.64762 2.46891,-1.04147 0,-0.26179 0.21158,-0.34521 0.47018,-0.18539 0.2586,0.15982 0.61294,0.0596 0.78742,-0.22273 0.17449,-0.28232 0.7584,-0.51332 1.29759,-0.51332 0.53919,0 1.3923,-0.41195 1.8958,-0.91545 0.5035,-0.50349 1.18535,-0.82548 1.51523,-0.71552 0.32988,0.10996 0.59977,-0.0463 0.59977,-0.34724 0,-0.30094 0.17047,-0.52259 0.37881,-0.49254 0.78783,0.1136 2.65165,-0.69718 2.65165,-1.1535 0,-0.26178 0.21804,-0.34122 0.48453,-0.17652 0.48713,0.30107 2.53132,-0.63266 3.10747,-1.4194 0.16996,-0.23207 0.39725,-0.40895 0.50508,-0.39307 0.69206,0.10192 2.46891,-0.64762 2.46891,-1.04146 0,-0.26179 0.21158,-0.34522 0.47018,-0.18539 0.2586,0.15982 0.61294,0.0596 0.78742,-0.22274 0.17449,-0.28232 0.7584,-0.51331 1.29759,-0.51331 0.53919,0 1.3923,-0.41195 1.8958,-0.91545 0.5035,-0.5035 1.18535,-0.82548 1.51523,-0.71553 0.32987,0.10996 0.59977,-0.0463 0.59977,-0.34724 0,-0.30094 0.17047,-0.52258 0.37881,-0.49254 0.78783,0.11361 2.65165,-0.69717 2.65165,-1.15349 0,-0.26179 0.21804,-0.34122 0.48453,-0.17652 0.48713,0.30106 2.53132,-0.63266 3.10747,-1.4194 0.16996,-0.23207 0.44885,-0.42245 0.61978,-0.42307 0.962,-0.003 2.35421,-0.60162 2.35421,-1.01147 0,-0.26178 0.21158,-0.34521 0.47018,-0.18539 0.2586,0.15982 0.61294,0.0596 0.78742,-0.22273 0.17449,-0.28232 0.75841,-0.51331 1.29759,-0.51331 0.53919,0 1.3923,-0.41196 1.8958,-0.91545 0.5035,-0.5035 1.18535,-0.82549 1.51523,-0.71553 0.32987,0.10996 0.59978,-0.0463 0.59978,-0.34724 0,-0.30094 0.17046,-0.52258 0.3788,-0.49254 0.78783,0.11361 2.65165,-0.69717 2.65165,-1.15349 0,-0.26179 0.19536,-0.35524 0.43413,-0.20767 0.69129,0.42723 3.08913,-0.89035 3.13734,-1.72392 0.0248,-0.42868 0.146,-0.50878 0.27916,-0.1845 0.26423,0.64348 2.70427,-0.24 2.71142,-0.98173 0.002,-0.22474 0.21553,-0.27785 0.47412,-0.11803 0.2586,0.15982 0.61294,0.0596 0.78742,-0.22273 0.17449,-0.28233 0.75841,-0.51332 1.2976,-0.51332 0.53918,0 1.39229,-0.41195 1.89579,-0.91545 0.5035,-0.5035 1.18535,-0.82548 1.51523,-0.71552 0.32988,0.10996 0.59978,-0.0463 0.59978,-0.34724 0,-0.30094 0.17046,-0.52259 0.3788,-0.49255 0.78783,0.11361 2.65165,-0.69717 2.65165,-1.15349 0,-0.26179 0.19536,-0.35524 0.43413,-0.20767 0.69129,0.42724 3.08913,-0.89034 3.13734,-1.72392 0.0248,-0.42868 0.146,-0.50878 0.27916,-0.18449 0.26423,0.64347 2.70427,-0.24 2.71143,-0.98174 0.002,-0.22474 0.21552,-0.27785 0.47411,-0.11803 0.2586,0.15982 0.61294,0.0596 0.78742,-0.22273 0.17449,-0.28232 0.70159,-0.51331 1.17133,-0.51331 0.79385,-1e-5 0.85091,2.34317 0.80933,33.22834 -0.0421,31.24518 -0.1903,36.07788 -1.10056,35.88129 -0.74968,-0.1619 -3.14785,0.71477 -3.14785,1.15072 0,0.24768 -0.17046,0.42574 -0.3788,0.3957 -0.83111,-0.11984 -2.65166,0.70944 -2.65166,1.20787 0,0.29169 -0.1472,0.38314 -0.32711,0.20322 -0.33299,-0.33298 -4.34012,1.63765 -4.63001,2.27696 -0.0874,0.19275 -0.48514,0.22525 -0.88389,0.0722 -0.39873,-0.153 -0.72498,-0.0446 -0.72498,0.24079 0,0.28544 -0.68185,0.66874 -1.51523,0.85178 -0.83337,0.18304 -1.51522,0.54203 -1.51522,0.79775 0,0.25571 -0.45457,0.46494 -1.01016,0.46494 -0.55558,0 -1.4221,0.41195 -1.9256,0.91545 -0.5035,0.5035 -1.18535,0.82548 -1.51523,0.71553 -0.32988,-0.10996 -0.59978,0.0391 -0.59978,0.33138 0,0.29223 -0.34092,0.40049 -0.75761,0.2406 -0.41669,-0.15991 -0.75762,-0.0392 -0.75762,0.26838 0,0.30752 -0.24975,0.55912 -0.55501,0.55912 -0.77167,0 -4.17624,1.61799 -4.55222,2.1634 -0.16995,0.24654 -0.51088,0.46498 -0.75761,0.48543 -1.1575,0.0959 -2.21638,0.54009 -2.21638,0.92976 0,0.23667 -0.34092,0.29949 -0.75761,0.13959 -0.41669,-0.1599 -0.75762,-0.0391 -0.75762,0.26839 0,0.30752 -0.36268,0.55912 -0.80595,0.55912 -0.86206,0 -3.78883,1.48997 -4.30128,2.18971 -0.16995,0.23207 -0.44885,0.42245 -0.61977,0.42306 -0.962,0.004 -2.35422,0.60162 -2.35422,1.01148 0,0.26178 -0.21804,0.34122 -0.48453,0.17651 -0.48712,-0.30106 -2.53131,0.63267 -3.10747,1.41941 -0.16996,0.23207 -0.44885,0.42245 -0.61977,0.42306 -0.93396,0.004 -2.35422,0.59559 -2.35422,0.98166 0,0.2454 -0.17046,0.41009 -0.3788,0.36599 -0.77767,-0.16462 -5.70002,2.0193 -6.24366,2.77014 -0.16995,0.23473 -0.44885,0.42728 -0.61977,0.4279 -0.93396,0.004 -2.35422,0.59558 -2.35422,0.98166 0,0.24539 -0.17046,0.40888 -0.3788,0.36332 -0.75439,-0.165 -3.15673,0.70847 -3.15673,1.14776 0,0.24767 -0.17046,0.42574 -0.37881,0.39569 -0.76297,-0.11002 -2.65165,0.69035 -2.65165,1.12369 0,0.24539 -0.17046,0.41008 -0.37881,0.36598 -0.77765,-0.16461 -5.70001,2.01931 -6.24365,2.77014 -0.16995,0.23473 -0.39724,0.41379 -0.50507,0.39791 -0.69206,-0.10192 -2.46892,0.64762 -2.46892,1.04146 0,0.26179 -0.21804,0.34122 -0.48453,0.17652 -0.48712,-0.30106 -2.53131,0.63267 -3.10747,1.4194 -0.16995,0.23208 -0.51088,0.43867 -0.75761,0.45912 -1.17227,0.0971 -2.21638,0.54259 -2.21638,0.94561 0,0.24539 -0.17046,0.41009 -0.37881,0.36599 -0.77765,-0.16462 -5.70001,2.0193 -6.24365,2.77014 -0.16995,0.23473 -0.39724,0.41379 -0.50508,0.3979 -0.69205,-0.10191 -2.46891,0.64762 -2.46891,1.04147 0,0.26178 -0.21804,0.34122 -0.48453,0.17652 -0.48713,-0.30106 -2.53131,0.63266 -3.10747,1.4194 -0.16995,0.23207 -0.51088,0.43867 -0.75762,0.45911 -1.19859,0.0993 -2.21637,0.54723 -2.21637,0.97543 0,0.26178 -0.21158,0.34521 -0.47018,0.18539 -0.25859,-0.15983 -0.61293,-0.0596 -0.78742,0.22273 -0.17448,0.28232 -0.7584,0.51331 -1.29759,0.51331 -0.53919,0 -1.3923,0.41195 -1.89579,0.91545 -0.5035,0.5035 -1.18535,0.82548 -1.51523,0.71553 -0.32988,-0.10996 -0.59978,0.0463 -0.59978,0.34724 0,0.30094 -0.17046,0.52258 -0.37881,0.49254 -0.78783,-0.11361 -2.65165,0.69717 -2.65165,1.15349 0,0.26179 -0.21804,0.34122 -0.48453,0.17652 -0.48713,-0.30106 -2.53131,0.63266 -3.10747,1.4194 -0.16996,0.23207 -0.45168,0.40876 -0.62604,0.39263 -0.63147,-0.0584 -2.10393,0.63941 -2.46648,1.16889 -0.21844,0.319 -0.39245,0.12639 -0.42303,-0.46824 l 0,0 z"
       style="opacity:0.39506172;fill:#ff8080;fill-opacity:1;stroke:#ee0707;stroke-width:0.63134533;stroke-miterlimit:4;stroke-opacity:1;stroke-dasharray:0.63134534, 0.63134534;stroke-dashoffset:0" />
    <path
       inkscape:connector-curvature="0"
       id="path3858"
       d="m 176.95751,547.53602 c 0.15266,-0.78595 8.66848,-5.1442 25.12223,-12.85715 13.69021,-6.41749 25.02057,-11.66816 25.17857,-11.66816 0.15801,0 0.26691,5.86607 0.24201,13.03571 -0.0296,8.52341 -0.26889,12.4794 -0.69127,11.42857 -0.89404,-2.22424 -5.69203,-2.37476 -5.69203,-0.17857 0,1.09827 -0.47619,1.42857 -2.05955,1.42857 -1.45883,0 -2.16851,-0.41667 -2.43312,-1.42857 -0.28616,-1.09424 -0.9743,-1.42857 -2.94046,-1.42857 -2.09068,0 -2.56687,0.26502 -2.56687,1.42857 0,1.09827 -0.47619,1.42857 -2.05955,1.42857 -1.45883,0 -2.16851,-0.41667 -2.43312,-1.42857 -0.28616,-1.09424 -0.9743,-1.42857 -2.94046,-1.42857 -2.09068,0 -2.56687,0.26502 -2.56687,1.42857 0,1.09827 -0.47619,1.42857 -2.05955,1.42857 -1.45883,0 -2.16851,-0.41667 -2.43312,-1.42857 -0.28616,-1.09424 -0.9743,-1.42857 -2.94046,-1.42857 -2.09068,0 -2.56687,0.26502 -2.56687,1.42857 0,1.09827 -0.47619,1.42857 -2.05955,1.42857 -1.45883,0 -2.16851,-0.41667 -2.43312,-1.42857 -0.28616,-1.09424 -0.9743,-1.42857 -2.94046,-1.42857 -2.09068,0 -2.56687,0.26502 -2.56687,1.42857 0,1.11869 -0.47619,1.42857 -2.19523,1.42857 -1.66408,0 -2.13935,-0.28768 -1.96428,-1.18897 z"
       style="opacity:0.20987657;fill:#f50f0f;fill-opacity:1;stroke:#ee0707;stroke-width:0.89285713;stroke-miterlimit:4;stroke-opacity:1;stroke-dasharray:0.89285714, 0.89285714;stroke-dashoffset:0" />
    <path
       sodipodi:open="true"
       sodipodi:end="2.0539931"
       sodipodi:start="0.87035294"
       d="m 56.445567,450.00775 c -3.107774,2.62 -7.492246,3.09813 -11.09169,1.20957"
       sodipodi:ry="10"
       sodipodi:rx="10"
       sodipodi:cy="442.36218"
       sodipodi:cx="50"
       id="path3860"
       style="opacity:0.23000004;fill:#ff8282;fill-opacity:0.2;stroke:#ee0707;stroke-width:1.25;stroke-miterlimit:4;stroke-opacity:1;stroke-dasharray:1.25, 3.75;stroke-dashoffset:0"
       sodipodi:type="arc" />
    <path
       sodipodi:nodetypes="cc"
       inkscape:transform-center-y="112.94621"
       inkscape:transform-center-x="13.858914"
       inkscape:connector-curvature="0"
       id="path3010-2"
       d="M 420,607.36221 720,422.36218"
       style="fill:none;stroke:#000000;stroke-width:0.81713659;stroke-linecap:butt;stroke-linejoin:miter;stroke-miterlimit:4;stroke-opacity:1;stroke-dasharray:none" />
    <path
       sodipodi:nodetypes="cc"
       inkscape:transform-center-y="172.80537"
       inkscape:transform-center-x="-0.41822589"
       inkscape:connector-curvature="0"
       id="path3006-6"
       d="m 440,422.36218 280,0"
       style="fill:none;stroke:#000000;stroke-width:2.02098656;stroke-linecap:butt;stroke-linejoin:miter;stroke-miterlimit:4;stroke-opacity:1;stroke-dasharray:none" />
    <path
       sodipodi:nodetypes="cscscccccsscscc"
       inkscape:connector-curvature="0"
       id="path3927"
       d="m 241.89665,605.27261 c 0.32739,-0.30261 21.16667,-10.33446 46.30953,-22.29299 49.96833,-23.7661 62.08868,-29.88417 61.91735,-31.2544 -0.0621,-0.49634 -0.0236,-20.18814 0.0854,-43.75957 l 0.19828,-42.85714 45.32803,-21.09982 45.32804,-21.09982 186.11246,0.38553 L 720,422.36218 615,487.36221 c -92.79691,57.44573 -162.91452,100.06278 -170,105 l -25,15 -86.50807,-1.53941 c -50.69677,-0.90215 -91.9227,-0.24759 -91.59532,-0.55019 z"
       style="opacity:0.27572016;fill:#ff0000;fill-opacity:1;stroke:none" />
    <path
       sodipodi:nodetypes="cc"
       inkscape:transform-center-y="34.766892"
       inkscape:transform-center-x="320.00079"
       inkscape:connector-curvature="0"
       id="path3008-4"
       d="m 440,422.36218 0,-270"
       style="fill:none;stroke:#000000;stroke-width:2.38988471;stroke-linecap:butt;stroke-linejoin:miter;stroke-miterlimit:4;stroke-opacity:1;stroke-dasharray:none" />
    <path
       sodipodi:nodetypes="cc"
       inkscape:transform-center-y="116.36317"
       inkscape:transform-center-x="14.278187"
       inkscape:connector-curvature="0"
       id="path3010-6"
       d="M 44.129438,297.72 440,152.36218"
       style="fill:none;stroke:#000000;stroke-width:0.84185737;stroke-linecap:butt;stroke-linejoin:miter;stroke-miterlimit:4;stroke-opacity:1;stroke-dasharray:none" />
    <path
       sodipodi:nodetypes="ccscccscccsssccc"
       inkscape:connector-curvature="0"
       id="path3983"
       d="m 349.90386,427.36549 c 0,-34.27508 -0.0787,-35.75566 -1.95389,-36.75924 -1.30397,-0.69785 -31.29301,-1.04659 -90.15612,-1.04841 l -88.20222,-0.003 L 115,417.36221 c -19.58343,7.41549 -45,20 -65,30 -0.769898,-0.2921 1.001294,-36.22574 0.531897,-83.5608 L 49.860749,296.12118 250,222.36218 l 190,-70 0.9235,40.0873 c 3.09236,134.233 0.99806,228.42554 -0.0843,228.42554 -0.5437,0 -21.22657,9.49584 -45.96194,21.10188 l -44.97341,21.10186 0,-35.71354 z"
       style="opacity:0.34979428;fill:#f50f0f;fill-opacity:1;stroke:none" />
    <path
       sodipodi:nodetypes="cc"
       inkscape:transform-center-y="15.674979"
       inkscape:transform-center-x="151.24952"
       inkscape:connector-curvature="0"
       id="path3008-1"
       d="m 50,432.36218 -1.445684,-140"
       style="fill:none;stroke:#f81111;stroke-width:5;stroke-linecap:butt;stroke-linejoin:miter;stroke-miterlimit:4;stroke-opacity:1;stroke-dasharray:none" />
    <path
       sodipodi:nodetypes="cc"
       inkscape:transform-center-y="76.854732"
       inkscape:transform-center-x="9.4303541"
       inkscape:connector-curvature="0"
       id="path3010-6-4"
       d="M 180,542.36218 580,352.36221"
       style="fill:none;stroke:#fb1414;stroke-width:3.30236483;stroke-linecap:butt;stroke-linejoin:miter;stroke-miterlimit:4;stroke-opacity:1;stroke-dasharray:none" />
    <path
       inkscape:connector-curvature="0"
       id="path4063"
       d="m 240,606.36218 340,6.00003"
       style="fill:none;stroke:#f90606;stroke-width:5.88348436;stroke-linecap:butt;stroke-linejoin:miter;stroke-miterlimit:4;stroke-opacity:1;stroke-dasharray:none"
       sodipodi:nodetypes="cc" />
    <path
       sodipodi:nodetypes="ccc"
       inkscape:connector-curvature="0"
       id="path4656"
       d="m 40,292.36221 380,0 0,315"
       style="fill:none;stroke:#000000;stroke-width:0.98709625px;stroke-linecap:butt;stroke-linejoin:miter;stroke-opacity:1" />
    <g
       ns0:preamble="/home/anne/texmf/tex/latex/preambleInk.ini"
       ns0:text="$\\mathcal{C}_{1,2}$"
       word-spacing="normal"
       letter-spacing="normal"
       font-size-adjust="none"
       font-stretch="normal"
       font-weight="normal"
       font-variant="normal"
       font-style="normal"
       stroke-miterlimit="10.433"
       xml:space="preserve"
       transform="matrix(7,0,0,-7,-1117.07,5093.4822)"
       id="content"
       style="font-style:normal;font-variant:normal;font-weight:normal;font-stretch:normal;letter-spacing:normal;word-spacing:normal;text-anchor:start;fill:#921e1e;stroke:#000000;stroke-linecap:butt;stroke-linejoin:miter;stroke-miterlimit:10.43299960999999954;stroke-opacity:1;stroke-dasharray:none;stroke-dashoffset:0;fill-opacity:1">
<path
   id="path3846"
   d="m 228.37,658.79 0,0.01 0,0 0,0 0,0.01 0,0 0,0 0,0 -0.01,0 0,0.01 0,0 0,0.01 0,0 0,0 -0.01,0.01 0,0 0,0 0,0.01 -0.01,0 0,0 0,0 -0.01,0 0,0 -0.01,0.01 0,0 0,0 -0.01,0 0,0 -0.01,0 0,0 -0.01,0 0,0 0,0 -0.01,0 0,0 -0.01,0 c -0.17,0 -0.41,-0.14 -0.42,-0.14 -0.2,-0.13 -0.24,-0.2 -0.36,-0.37 -0.31,-0.47 -0.75,-0.81 -1.39,-0.81 -0.9,0 -1.7,0.65 -1.7,2.14 0,0.89 0.36,2.08 0.88,2.86 0.44,0.63 0.98,1.15 2,1.15 0.38,0 0.62,-0.14 0.62,-0.51 0,-0.34 -0.37,-1.05 -0.49,-1.25 -0.06,-0.11 -0.06,-0.13 -0.06,-0.15 0,-0.06 0.05,-0.06 0.11,-0.06 0.2,0 0.57,0.21 0.69,0.37 0.02,0.04 0.59,1.02 0.59,1.52 0,0.55 -0.44,0.63 -0.8,0.63 -1.44,0 -2.63,-0.95 -3.09,-1.5 -1.18,-1.43 -1.3,-2.97 -1.3,-3.49 0,-1.45 0.74,-2.25 1.89,-2.25 1.6,0 2.93,1.55 2.93,1.79 z"
   inkscape:connector-curvature="0"
   style="fill:#921e1e;stroke-width:0;fill-opacity:1" />
<path
   id="path3848"
   d="m 231.01,660.16 0,0.01 0,0.01 0,0.01 0,0.01 0,0 0,0.01 0,0.01 0,0.01 0,0 0,0.01 0,0.01 0,0 0,0.01 0,0 0,0.01 0,0 -0.01,0.01 0,0 0,0.01 0,0.01 0,0.01 -0.01,0 0,0.01 -0.01,0.01 0,0 -0.01,0.01 0,0 -0.01,0 -0.01,0.01 0,0 -0.01,0 -0.01,0 -0.01,0 0,0 -0.01,0 0,0.01 -0.01,0 -0.01,0 0,0 -0.01,0 -0.01,0 0,0 -0.01,0 -0.01,0 -0.01,0 0,0 -0.01,0 -0.01,0 -0.01,0 -0.01,0 c -0.44,-0.44 -1.08,-0.45 -1.36,-0.45 v -0.25 c 0.16,0 0.62,0 1.01,0.2 v -3.55 c 0,-0.23 0,-0.32 -0.7,-0.32 h -0.26 v -0.25 c 0.12,0.01 0.98,0.03 1.24,0.03 0.21,0 1.09,-0.02 1.24,-0.03 v 0.25 h -0.26 c -0.7,0 -0.7,0.09 -0.7,0.32 z"
   inkscape:connector-curvature="0"
   style="fill:#921e1e;stroke-width:0;fill-opacity:1" />
<path
   id="path3850"
   d="m 234.12,655.85 0,-0.07 0,-0.07 -0.01,-0.08 -0.01,-0.08 -0.01,-0.03 0,-0.04 -0.01,-0.04 -0.01,-0.04 -0.01,-0.04 -0.01,-0.04 -0.01,-0.04 -0.02,-0.04 -0.01,-0.04 -0.02,-0.04 -0.01,-0.04 -0.02,-0.04 -0.03,-0.04 -0.02,-0.04 -0.02,-0.05 -0.03,-0.04 -0.03,-0.04 -0.03,-0.04 -0.03,-0.04 -0.04,-0.04 -0.03,-0.04 -0.04,-0.05 -0.04,-0.04 -0.05,-0.04 c -0.02,-0.03 -0.04,-0.05 -0.04,-0.08 0,-0.05 0.05,-0.1 0.09,-0.1 0.1,0 0.69,0.56 0.69,1.38 0,0.43 -0.16,0.76 -0.48,0.76 -0.23,0 -0.4,-0.18 -0.4,-0.4 0,-0.22 0.16,-0.4 0.4,-0.4 0.17,0 0.28,0.11 0.29,0.11 z"
   inkscape:connector-curvature="0"
   style="fill:#921e1e;stroke-width:0;fill-opacity:1" />
<path
   id="path3852"
   d="m 238.53,657.01 h -0.24 c -0.02,-0.16 -0.08,-0.57 -0.18,-0.64 -0.05,-0.04 -0.59,-0.04 -0.68,-0.04 h -1.29 c 0.74,0.65 0.98,0.84 1.4,1.17 0.51,0.41 0.99,0.84 0.99,1.5 0,0.84 -0.74,1.36 -1.63,1.36 -0.86,0 -1.45,-0.61 -1.45,-1.25 0,-0.35 0.3,-0.39 0.37,-0.39 0.17,0 0.37,0.12 0.37,0.37 0,0.13 -0.05,0.37 -0.41,0.37 0.22,0.5 0.69,0.65 1.02,0.65 0.69,0 1.06,-0.54 1.06,-1.11 0,-0.6 -0.43,-1.08 -0.66,-1.33 l -1.68,-1.66 c -0.07,-0.06 -0.07,-0.07 -0.07,-0.27 h 2.87 z"
   inkscape:connector-curvature="0"
   style="fill:#921e1e;stroke-width:0;fill-opacity:1" />
</g>    <g
       id="g4092"
       transform="matrix(7,0,0,-7,-866.08,4729.9822)"
       xml:space="preserve"
       stroke="black"
       stroke-linecap="butt"
       stroke-linejoin="miter"
       stroke-miterlimit="10.433"
       stroke-dasharray="none"
       stroke-dashoffset="0"
       stroke-opacity="1"
       fill="none"
       fill-rule="evenodd"
       fill-opacity="1"
       font-style="normal"
       font-variant="normal"
       font-weight="normal"
       font-stretch="normal"
       font-size-adjust="none"
       letter-spacing="normal"
       word-spacing="normal"
       text-anchor="start"
       ns0:text="$\\mathcal{C}_{1,2,3}$"
       ns0:preamble="/home/anne/texmf/tex/latex/preambleInk.ini"
       style="font-style:normal;font-variant:normal;font-weight:normal;font-stretch:normal;letter-spacing:normal;word-spacing:normal;text-anchor:start;fill:none;stroke:#1500a0;stroke-linecap:butt;stroke-linejoin:miter;stroke-miterlimit:10.43299961;stroke-opacity:1;stroke-dasharray:none;stroke-dashoffset:0;stroke-width:0.14285714">
<path
   style="stroke:#1500a0;stroke-opacity:1;stroke-width:0.14285714;stroke-miterlimit:10.43299961;stroke-dasharray:none"
   d="M228.37,658.79 L228.37,658.8 L228.37,658.8 L228.37,658.8 L228.37,658.81 L228.37,658.81 L228.37,658.81 L228.37,658.81 L228.36,658.81 L228.36,658.82 L228.36,658.82 L228.36,658.83 L228.36,658.83 L228.36,658.83 L228.35,658.84 L228.35,658.84 L228.35,658.84 L228.35,658.85 L228.34,658.85 L228.34,658.85 L228.34,658.85 L228.33,658.85 L228.33,658.85 L228.32,658.86 L228.32,658.86 L228.32,658.86 L228.31,658.86 L228.31,658.86 L228.3,658.86 L228.3,658.86 L228.29,658.86 L228.29,658.86 L228.29,658.86 L228.28,658.86 L228.28,658.86 L228.27,658.86 C228.1,658.86,227.86,658.72,227.85,658.72 C227.65,658.59,227.61,658.52,227.49,658.35 C227.18,657.88,226.74,657.54,226.1,657.54 C225.2,657.54,224.4,658.19,224.4,659.68 C224.4,660.57,224.76,661.76,225.28,662.54 C225.72,663.17,226.26,663.69,227.28,663.69 C227.66,663.69,227.9,663.55,227.9,663.18 C227.9,662.84,227.53,662.13,227.41,661.93 C227.35,661.82,227.35,661.8,227.35,661.78 C227.35,661.72,227.4,661.72,227.46,661.72 C227.66,661.72,228.03,661.93,228.15,662.09 C228.17,662.13,228.74,663.11,228.74,663.61 C228.74,664.16,228.3,664.24,227.94,664.24 C226.5,664.24,225.31,663.29,224.85,662.74 C223.67,661.31,223.55,659.77,223.55,659.25 C223.55,657.8,224.29,657,225.44,657 C227.04,657,228.37,658.55,228.37,658.79 Z "
   stroke-width="0"
   fill="black"
   id="path4094" />
<path
   style="stroke:#1500a0;stroke-opacity:1;stroke-width:0.14285714;stroke-miterlimit:10.43299961;stroke-dasharray:none"
   d="M231.01,660.16 L231.01,660.17 L231.01,660.18 L231.01,660.19 L231.01,660.2 L231.01,660.2 L231.01,660.21 L231.01,660.22 L231.01,660.23 L231.01,660.23 L231.01,660.24 L231.01,660.25 L231.01,660.25 L231.01,660.26 L231.01,660.26 L231.01,660.27 L231.01,660.27 L231,660.28 L231,660.28 L231,660.29 L231,660.3 L231,660.31 L230.99,660.31 L230.99,660.32 L230.98,660.33 L230.98,660.33 L230.97,660.34 L230.97,660.34 L230.96,660.34 L230.95,660.35 L230.95,660.35 L230.94,660.35 L230.93,660.35 L230.92,660.35 L230.92,660.35 L230.91,660.35 L230.91,660.36 L230.9,660.36 L230.89,660.36 L230.89,660.36 L230.88,660.36 L230.87,660.36 L230.87,660.36 L230.86,660.36 L230.85,660.36 L230.84,660.36 L230.84,660.36 L230.83,660.36 L230.82,660.36 L230.81,660.36 L230.8,660.36 C230.36,659.92,229.72,659.91,229.44,659.91 V659.66 C229.6,659.66,230.06,659.66,230.45,659.86 V656.31 C230.45,656.08,230.45,655.99,229.75,655.99 H229.49 V655.74 C229.61,655.75,230.47,655.77,230.73,655.77 C230.94,655.77,231.82,655.75,231.97,655.74 V655.99 H231.71 C231.01,655.99,231.01,656.08,231.01,656.31 Z "
   stroke-width="0"
   fill="black"
   id="path4096" />
<path
   style="stroke:#1500a0;stroke-opacity:1;stroke-width:0.14285714;stroke-miterlimit:10.43299961;stroke-dasharray:none"
   d="M234.12,655.85 L234.12,655.78 L234.12,655.71 L234.11,655.63 L234.1,655.55 L234.09,655.52 L234.09,655.48 L234.08,655.44 L234.07,655.4 L234.06,655.36 L234.05,655.32 L234.04,655.28 L234.02,655.24 L234.01,655.2 L233.99,655.16 L233.98,655.12 L233.96,655.08 L233.93,655.04 L233.91,655 L233.89,654.95 L233.86,654.91 L233.83,654.87 L233.8,654.83 L233.77,654.79 L233.73,654.75 L233.7,654.71 L233.66,654.66 L233.62,654.62 L233.57,654.58 C233.55,654.55,233.53,654.53,233.53,654.5 C233.53,654.45,233.58,654.4,233.62,654.4 C233.72,654.4,234.31,654.96,234.31,655.78 C234.31,656.21,234.15,656.54,233.83,656.54 C233.6,656.54,233.43,656.36,233.43,656.14 C233.43,655.92,233.59,655.74,233.83,655.74 C234,655.74,234.11,655.85,234.12,655.85 Z "
   stroke-width="0"
   fill="black"
   id="path4098" />
<path
   style="stroke:#1500a0;stroke-opacity:1;stroke-width:0.14285714;stroke-miterlimit:10.43299961;stroke-dasharray:none"
   d="M238.53,657.01 H238.29 C238.27,656.85,238.21,656.44,238.11,656.37 C238.06,656.33,237.52,656.33,237.43,656.33 H236.14 C236.88,656.98,237.12,657.17,237.54,657.5 C238.05,657.91,238.53,658.34,238.53,659 C238.53,659.84,237.79,660.36,236.9,660.36 C236.04,660.36,235.45,659.75,235.45,659.11 C235.45,658.76,235.75,658.72,235.82,658.72 C235.99,658.72,236.19,658.84,236.19,659.09 C236.19,659.22,236.14,659.46,235.78,659.46 C236,659.96,236.47,660.11,236.8,660.11 C237.49,660.11,237.86,659.57,237.86,659 C237.86,658.4,237.43,657.92,237.2,657.67 L235.52,656.01 C235.45,655.95,235.45,655.94,235.45,655.74 H238.32 Z "
   stroke-width="0"
   fill="black"
   id="path4100" />
<path
   style="stroke:#1500a0;stroke-opacity:1;stroke-width:0.14285714;stroke-miterlimit:10.43299961;stroke-dasharray:none"
   d="M240.46,655.85 L240.46,655.78 L240.45,655.71 L240.45,655.63 L240.44,655.55 L240.43,655.52 L240.43,655.48 L240.42,655.44 L240.41,655.4 L240.4,655.36 L240.39,655.32 L240.38,655.28 L240.36,655.24 L240.35,655.2 L240.33,655.16 L240.31,655.12 L240.29,655.08 L240.27,655.04 L240.25,655 L240.22,654.95 L240.2,654.91 L240.17,654.87 L240.14,654.83 L240.11,654.79 L240.07,654.75 L240.03,654.71 L240,654.66 L239.96,654.62 L239.91,654.58 C239.88,654.55,239.86,654.53,239.86,654.5 C239.86,654.45,239.92,654.4,239.96,654.4 C240.06,654.4,240.65,654.96,240.65,655.78 C240.65,656.21,240.48,656.54,240.16,656.54 C239.93,656.54,239.77,656.36,239.77,656.14 C239.77,655.92,239.93,655.74,240.17,655.74 C240.34,655.74,240.45,655.85,240.46,655.85 Z "
   stroke-width="0"
   fill="black"
   id="path4102" />
<path
   style="stroke:#1500a0;stroke-opacity:1;stroke-width:0.14285714;stroke-miterlimit:10.43299961;stroke-dasharray:none"
   d="M243.25,658.06 L243.3,658.06 L243.35,658.06 L243.4,658.05 L243.45,658.05 L243.5,658.04 L243.54,658.02 L243.59,658.01 L243.63,657.99 L243.67,657.97 L243.71,657.95 L243.75,657.93 L243.79,657.91 L243.82,657.88 L243.86,657.85 L243.89,657.82 L243.92,657.78 L243.95,657.75 L243.98,657.71 L244.01,657.67 L244.03,657.62 L244.06,657.58 L244.08,657.53 L244.1,657.48 L244.12,657.43 L244.13,657.38 L244.15,657.32 L244.16,657.27 L244.17,657.21 L244.18,657.14 L244.18,657.08 L244.19,657.01 L244.19,656.94 C244.19,656.08,243.68,655.82,243.28,655.82 C243,655.82,242.39,655.9,242.1,656.31 C242.42,656.33,242.5,656.55,242.5,656.7 C242.5,656.92,242.33,657.08,242.12,657.08 C241.92,657.08,241.73,656.97,241.73,656.68 C241.73,656.03,242.45,655.6,243.29,655.6 C244.26,655.6,244.93,656.25,244.93,656.94 C244.93,657.49,244.49,658.03,243.72,658.19 C244.45,658.45,244.72,658.97,244.72,659.4 C244.72,659.95,244.08,660.36,243.31,660.36 C242.54,660.36,241.94,659.98,241.94,659.43 C241.94,659.19,242.1,659.06,242.31,659.06 C242.52,659.06,242.66,659.22,242.66,659.41 C242.66,659.61,242.52,659.76,242.31,659.77 C242.55,660.08,243.03,660.16,243.29,660.16 C243.6,660.16,244.04,660,244.04,659.4 C244.04,659.11,243.94,658.79,243.76,658.57 C243.53,658.31,243.34,658.29,242.99,658.27 C242.81,658.26,242.8,658.26,242.77,658.25 C242.75,658.25,242.7,658.24,242.7,658.16 C242.7,658.06,242.76,658.06,242.88,658.06 Z "
   stroke-width="0"
   fill="black"
   id="path4104" />
</g>    <g
       style="font-style:normal;font-variant:normal;font-weight:normal;font-stretch:normal;letter-spacing:normal;word-spacing:normal;text-anchor:start;fill:none;stroke:#e81717;stroke-linecap:butt;stroke-linejoin:miter;stroke-miterlimit:10.43299961;stroke-opacity:1;stroke-dasharray:none;stroke-dashoffset:0;stroke-width:0.28571429"
       ns0:preamble="/home/anne/texmf/tex/latex/preambleInk.ini"
       ns0:text="$\\mathcal{C}_{2}$"
       text-anchor="start"
       word-spacing="normal"
       letter-spacing="normal"
       font-size-adjust="none"
       font-stretch="normal"
       font-weight="normal"
       font-variant="normal"
       font-style="normal"
       fill-opacity="1"
       fill-rule="evenodd"
       fill="none"
       stroke-opacity="1"
       stroke-dashoffset="0"
       stroke-dasharray="none"
       stroke-miterlimit="10.433"
       stroke-linejoin="miter"
       stroke-linecap="butt"
       stroke="black"
       xml:space="preserve"
       transform="matrix(7,0,0,-7,-1017.05,4946.9922)"
       id="g4273">
<path
   id="path4275"
   fill="black"
   stroke-width="0"
   d="M228.37,658.79 L228.37,658.8 L228.37,658.8 L228.37,658.8 L228.37,658.81 L228.37,658.81 L228.37,658.81 L228.37,658.81 L228.36,658.81 L228.36,658.82 L228.36,658.82 L228.36,658.83 L228.36,658.83 L228.36,658.83 L228.35,658.84 L228.35,658.84 L228.35,658.84 L228.35,658.85 L228.34,658.85 L228.34,658.85 L228.34,658.85 L228.33,658.85 L228.33,658.85 L228.32,658.86 L228.32,658.86 L228.32,658.86 L228.31,658.86 L228.31,658.86 L228.3,658.86 L228.3,658.86 L228.29,658.86 L228.29,658.86 L228.29,658.86 L228.28,658.86 L228.28,658.86 L228.27,658.86 C228.1,658.86,227.86,658.72,227.85,658.72 C227.65,658.59,227.61,658.52,227.49,658.35 C227.18,657.88,226.74,657.54,226.1,657.54 C225.2,657.54,224.4,658.19,224.4,659.68 C224.4,660.57,224.76,661.76,225.28,662.54 C225.72,663.17,226.26,663.69,227.28,663.69 C227.66,663.69,227.9,663.55,227.9,663.18 C227.9,662.84,227.53,662.13,227.41,661.93 C227.35,661.82,227.35,661.8,227.35,661.78 C227.35,661.72,227.4,661.72,227.46,661.72 C227.66,661.72,228.03,661.93,228.15,662.09 C228.17,662.13,228.74,663.11,228.74,663.61 C228.74,664.16,228.3,664.24,227.94,664.24 C226.5,664.24,225.31,663.29,224.85,662.74 C223.67,661.31,223.55,659.77,223.55,659.25 C223.55,657.8,224.29,657,225.44,657 C227.04,657,228.37,658.55,228.37,658.79 Z "
   style="stroke:#e81717;stroke-opacity:1;stroke-width:0.28571429;stroke-miterlimit:10.43299961;stroke-dasharray:none" />
<path
   id="path4277"
   fill="black"
   stroke-width="0"
   d="M232.2,657.01 H231.96 C231.94,656.85,231.87,656.44,231.78,656.37 C231.72,656.33,231.18,656.33,231.09,656.33 H229.81 C230.54,656.98,230.78,657.17,231.2,657.5 C231.71,657.91,232.2,658.34,232.2,659 C232.2,659.84,231.46,660.36,230.57,660.36 C229.7,660.36,229.12,659.75,229.12,659.11 C229.12,658.76,229.42,658.72,229.49,658.72 C229.65,658.72,229.85,658.84,229.85,659.09 C229.85,659.22,229.81,659.46,229.44,659.46 C229.66,659.96,230.13,660.11,230.46,660.11 C231.16,660.11,231.52,659.57,231.52,659 C231.52,658.4,231.09,657.92,230.87,657.67 L229.19,656.01 C229.12,655.95,229.12,655.94,229.12,655.74 H231.99 Z "
   style="stroke:#e81717;stroke-opacity:1;stroke-width:0.28571429;stroke-miterlimit:10.43299961;stroke-dasharray:none" />
</g>    <g
       id="g4442"
       transform="matrix(7,0,0,-7,-946.08,5231.7322)"
       xml:space="preserve"
       stroke-miterlimit="10.433"
       font-style="normal"
       font-variant="normal"
       font-weight="normal"
       font-stretch="normal"
       font-size-adjust="none"
       letter-spacing="normal"
       word-spacing="normal"
       ns0:text="$\\mathcal{C}_{1}$"
       ns0:preamble="/home/anne/texmf/tex/latex/preambleInk.ini"
       style="font-style:normal;font-variant:normal;font-weight:normal;font-stretch:normal;letter-spacing:normal;word-spacing:normal;text-anchor:start;fill:none;stroke:#f21212;stroke-linecap:butt;stroke-linejoin:miter;stroke-miterlimit:10.43299961;stroke-opacity:1;stroke-dasharray:none;stroke-dashoffset:0;stroke-width:0.28571429">
<path
   d="m 228.37,658.79 0,0.01 0,0 0,0 0,0.01 0,0 0,0 0,0 -0.01,0 0,0.01 0,0 0,0.01 0,0 0,0 -0.01,0.01 0,0 0,0 0,0.01 -0.01,0 0,0 0,0 -0.01,0 0,0 -0.01,0.01 0,0 0,0 -0.01,0 0,0 -0.01,0 0,0 -0.01,0 0,0 0,0 -0.01,0 0,0 -0.01,0 c -0.17,0 -0.41,-0.14 -0.42,-0.14 -0.2,-0.13 -0.24,-0.2 -0.36,-0.37 -0.31,-0.47 -0.75,-0.81 -1.39,-0.81 -0.9,0 -1.7,0.65 -1.7,2.14 0,0.89 0.36,2.08 0.88,2.86 0.44,0.63 0.98,1.15 2,1.15 0.38,0 0.62,-0.14 0.62,-0.51 0,-0.34 -0.37,-1.05 -0.49,-1.25 -0.06,-0.11 -0.06,-0.13 -0.06,-0.15 0,-0.06 0.05,-0.06 0.11,-0.06 0.2,0 0.57,0.21 0.69,0.37 0.02,0.04 0.59,1.02 0.59,1.52 0,0.55 -0.44,0.63 -0.8,0.63 -1.44,0 -2.63,-0.95 -3.09,-1.5 -1.18,-1.43 -1.3,-2.97 -1.3,-3.49 0,-1.45 0.74,-2.25 1.89,-2.25 1.6,0 2.93,1.55 2.93,1.79 z"
   id="path4444"
   inkscape:connector-curvature="0"
   style="fill:#000000;stroke-width:0.28571429;stroke:#f21212;stroke-opacity:1;stroke-miterlimit:10.43299961;stroke-dasharray:none" />
<path
   d="m 231.01,660.16 0,0.01 0,0.01 0,0.01 0,0.01 0,0 0,0.01 0,0.01 0,0.01 0,0 0,0.01 0,0.01 0,0 0,0.01 0,0 0,0.01 0,0 -0.01,0.01 0,0 0,0.01 0,0.01 0,0.01 -0.01,0 0,0.01 -0.01,0.01 0,0 -0.01,0.01 0,0 -0.01,0 -0.01,0.01 0,0 -0.01,0 -0.01,0 -0.01,0 0,0 -0.01,0 0,0.01 -0.01,0 -0.01,0 0,0 -0.01,0 -0.01,0 0,0 -0.01,0 -0.01,0 -0.01,0 0,0 -0.01,0 -0.01,0 -0.01,0 -0.01,0 c -0.44,-0.44 -1.08,-0.45 -1.36,-0.45 v -0.25 c 0.16,0 0.62,0 1.01,0.2 v -3.55 c 0,-0.23 0,-0.32 -0.7,-0.32 h -0.26 v -0.25 c 0.12,0.01 0.98,0.03 1.24,0.03 0.21,0 1.09,-0.02 1.24,-0.03 v 0.25 h -0.26 c -0.7,0 -0.7,0.09 -0.7,0.32 z"
   id="path4446"
   inkscape:connector-curvature="0"
   style="fill:#000000;stroke-width:0.28571429;stroke:#f21212;stroke-opacity:1;stroke-miterlimit:10.43299961;stroke-dasharray:none" />
</g>    <g
       style="font-style:normal;font-variant:normal;font-weight:normal;font-stretch:normal;letter-spacing:normal;word-spacing:normal;text-anchor:start;fill:none;stroke:#ff0000;stroke-linecap:butt;stroke-linejoin:miter;stroke-miterlimit:10.43299960999999954;stroke-opacity:1;stroke-dasharray:none;stroke-dashoffset:0;stroke-width:0.28571428999999998"
       ns0:preamble="/home/anne/texmf/tex/latex/preambleInk.ini"
       ns0:text="$\\mathcal{C}_{3}$"
       word-spacing="normal"
       letter-spacing="normal"
       font-size-adjust="none"
       font-stretch="normal"
       font-weight="normal"
       font-variant="normal"
       font-style="normal"
       stroke-miterlimit="10.433"
       xml:space="preserve"
       transform="matrix(7,0,0,-7,-1539.59,4868.1622)"
       id="g4607">
<path
   id="path4609"
   d="m 228.37,658.79 0,0.01 0,0 0,0 0,0.01 0,0 0,0 0,0 -0.01,0 0,0.01 0,0 0,0.01 0,0 0,0 -0.01,0.01 0,0 0,0 0,0.01 -0.01,0 0,0 0,0 -0.01,0 0,0 -0.01,0.01 0,0 0,0 -0.01,0 0,0 -0.01,0 0,0 -0.01,0 0,0 0,0 -0.01,0 0,0 -0.01,0 c -0.17,0 -0.41,-0.14 -0.42,-0.14 -0.2,-0.13 -0.24,-0.2 -0.36,-0.37 -0.31,-0.47 -0.75,-0.81 -1.39,-0.81 -0.9,0 -1.7,0.65 -1.7,2.14 0,0.89 0.36,2.08 0.88,2.86 0.44,0.63 0.98,1.15 2,1.15 0.38,0 0.62,-0.14 0.62,-0.51 0,-0.34 -0.37,-1.05 -0.49,-1.25 -0.06,-0.11 -0.06,-0.13 -0.06,-0.15 0,-0.06 0.05,-0.06 0.11,-0.06 0.2,0 0.57,0.21 0.69,0.37 0.02,0.04 0.59,1.02 0.59,1.52 0,0.55 -0.44,0.63 -0.8,0.63 -1.44,0 -2.63,-0.95 -3.09,-1.5 -1.18,-1.43 -1.3,-2.97 -1.3,-3.49 0,-1.45 0.74,-2.25 1.89,-2.25 1.6,0 2.93,1.55 2.93,1.79 z"
   inkscape:connector-curvature="0"
   style="fill:#000000;stroke-width:0.28571428999999998;stroke-miterlimit:10.43299960999999954;stroke-dasharray:none;stroke:#ff0000;stroke-opacity:1" />
<path
   id="path4611"
   d="m 230.58,658.06 0.05,0 0.05,0 0.05,-0.01 0.05,0 0.04,-0.01 0.05,-0.02 0.04,-0.01 0.04,-0.02 0.05,-0.02 0.04,-0.02 0.04,-0.02 0.03,-0.02 0.04,-0.03 0.03,-0.03 0.04,-0.03 0.03,-0.04 0.03,-0.03 0.03,-0.04 0.03,-0.04 0.02,-0.05 0.02,-0.04 0.03,-0.05 0.02,-0.05 0.01,-0.05 0.02,-0.05 0.01,-0.06 0.02,-0.05 0.01,-0.06 0,-0.07 0.01,-0.06 0,-0.07 0,-0.07 c 0,-0.86 -0.5,-1.12 -0.9,-1.12 -0.28,0 -0.89,0.08 -1.19,0.49 0.33,0.02 0.41,0.24 0.41,0.39 0,0.22 -0.17,0.38 -0.39,0.38 -0.19,0 -0.39,-0.11 -0.39,-0.4 0,-0.65 0.73,-1.08 1.57,-1.08 0.97,0 1.64,0.65 1.64,1.34 0,0.55 -0.45,1.09 -1.21,1.25 0.73,0.26 0.99,0.78 0.99,1.21 0,0.55 -0.63,0.96 -1.41,0.96 -0.77,0 -1.36,-0.38 -1.36,-0.93 0,-0.24 0.15,-0.37 0.36,-0.37 0.22,0 0.36,0.16 0.36,0.35 0,0.2 -0.14,0.35 -0.36,0.36 0.25,0.31 0.73,0.39 0.98,0.39 0.32,0 0.76,-0.16 0.76,-0.76 0,-0.29 -0.1,-0.61 -0.28,-0.83 -0.23,-0.26 -0.43,-0.28 -0.77,-0.3 -0.18,-0.01 -0.19,-0.01 -0.23,-0.02 -0.01,0 -0.07,-0.01 -0.07,-0.09 0,-0.1 0.07,-0.1 0.18,-0.1 z"
   inkscape:connector-curvature="0"
   style="fill:#000000;stroke-width:0.28571428999999998;stroke-miterlimit:10.43299960999999954;stroke-dasharray:none;stroke:#ff0000;stroke-opacity:1" />
</g>    <g
       id="g4768"
       transform="matrix(7,0,0,-7,-1194.95,4823.4022)"
       xml:space="preserve"
       stroke-miterlimit="10.433"
       font-style="normal"
       font-variant="normal"
       font-weight="normal"
       font-stretch="normal"
       font-size-adjust="none"
       letter-spacing="normal"
       word-spacing="normal"
       ns0:text="$\\mathcal{C}_{2,3}$"
       ns0:preamble="/home/anne/texmf/tex/latex/preambleInk.ini"
       style="font-style:normal;font-variant:normal;font-weight:normal;font-stretch:normal;letter-spacing:normal;word-spacing:normal;text-anchor:start;fill:#921e1e;stroke:#000000;stroke-linecap:butt;stroke-linejoin:miter;stroke-miterlimit:10.43299960999999954;stroke-opacity:1;stroke-dasharray:none;stroke-dashoffset:0;fill-opacity:1">
<path
   d="m 228.37,658.79 0,0.01 0,0 0,0 0,0.01 0,0 0,0 0,0 -0.01,0 0,0.01 0,0 0,0.01 0,0 0,0 -0.01,0.01 0,0 0,0 0,0.01 -0.01,0 0,0 0,0 -0.01,0 0,0 -0.01,0.01 0,0 0,0 -0.01,0 0,0 -0.01,0 0,0 -0.01,0 0,0 0,0 -0.01,0 0,0 -0.01,0 c -0.17,0 -0.41,-0.14 -0.42,-0.14 -0.2,-0.13 -0.24,-0.2 -0.36,-0.37 -0.31,-0.47 -0.75,-0.81 -1.39,-0.81 -0.9,0 -1.7,0.65 -1.7,2.14 0,0.89 0.36,2.08 0.88,2.86 0.44,0.63 0.98,1.15 2,1.15 0.38,0 0.62,-0.14 0.62,-0.51 0,-0.34 -0.37,-1.05 -0.49,-1.25 -0.06,-0.11 -0.06,-0.13 -0.06,-0.15 0,-0.06 0.05,-0.06 0.11,-0.06 0.2,0 0.57,0.21 0.69,0.37 0.02,0.04 0.59,1.02 0.59,1.52 0,0.55 -0.44,0.63 -0.8,0.63 -1.44,0 -2.63,-0.95 -3.09,-1.5 -1.18,-1.43 -1.3,-2.97 -1.3,-3.49 0,-1.45 0.74,-2.25 1.89,-2.25 1.6,0 2.93,1.55 2.93,1.79 z"
   id="path4770"
   inkscape:connector-curvature="0"
   style="fill:#921e1e;stroke-width:0;fill-opacity:1" />
<path
   d="m 232.2,657.01 h -0.24 c -0.02,-0.16 -0.09,-0.57 -0.18,-0.64 -0.06,-0.04 -0.6,-0.04 -0.69,-0.04 h -1.28 c 0.73,0.65 0.97,0.84 1.39,1.17 0.51,0.41 1,0.84 1,1.5 0,0.84 -0.74,1.36 -1.63,1.36 -0.87,0 -1.45,-0.61 -1.45,-1.25 0,-0.35 0.3,-0.39 0.37,-0.39 0.16,0 0.36,0.12 0.36,0.37 0,0.13 -0.04,0.37 -0.41,0.37 0.22,0.5 0.69,0.65 1.02,0.65 0.7,0 1.06,-0.54 1.06,-1.11 0,-0.6 -0.43,-1.08 -0.65,-1.33 l -1.68,-1.66 c -0.07,-0.06 -0.07,-0.07 -0.07,-0.27 h 2.87 z"
   id="path4772"
   inkscape:connector-curvature="0"
   style="fill:#921e1e;stroke-width:0;fill-opacity:1" />
<path
   d="m 234.12,655.85 0,-0.07 0,-0.07 -0.01,-0.08 -0.01,-0.08 -0.01,-0.03 0,-0.04 -0.01,-0.04 -0.01,-0.04 -0.01,-0.04 -0.01,-0.04 -0.01,-0.04 -0.02,-0.04 -0.01,-0.04 -0.02,-0.04 -0.01,-0.04 -0.02,-0.04 -0.03,-0.04 -0.02,-0.04 -0.02,-0.05 -0.03,-0.04 -0.03,-0.04 -0.03,-0.04 -0.03,-0.04 -0.04,-0.04 -0.03,-0.04 -0.04,-0.05 -0.04,-0.04 -0.05,-0.04 c -0.02,-0.03 -0.04,-0.05 -0.04,-0.08 0,-0.05 0.05,-0.1 0.09,-0.1 0.1,0 0.69,0.56 0.69,1.38 0,0.43 -0.16,0.76 -0.48,0.76 -0.23,0 -0.4,-0.18 -0.4,-0.4 0,-0.22 0.16,-0.4 0.4,-0.4 0.17,0 0.28,0.11 0.29,0.11 z"
   id="path4774"
   inkscape:connector-curvature="0"
   style="fill:#921e1e;stroke-width:0;fill-opacity:1" />
<path
   d="m 236.92,658.06 0.05,0 0.05,0 0.04,-0.01 0.05,0 0.05,-0.01 0.04,-0.02 0.05,-0.01 0.04,-0.02 0.04,-0.02 0.04,-0.02 0.04,-0.02 0.04,-0.02 0.04,-0.03 0.03,-0.03 0.04,-0.03 0.03,-0.04 0.03,-0.03 0.03,-0.04 0.02,-0.04 0.03,-0.05 0.02,-0.04 0.02,-0.05 0.02,-0.05 0.02,-0.05 0.02,-0.05 0.01,-0.06 0.01,-0.05 0.01,-0.06 0.01,-0.07 0.01,-0.06 0,-0.07 0,-0.07 c 0,-0.86 -0.5,-1.12 -0.91,-1.12 -0.27,0 -0.89,0.08 -1.18,0.49 0.33,0.02 0.4,0.24 0.4,0.39 0,0.22 -0.16,0.38 -0.38,0.38 -0.19,0 -0.39,-0.11 -0.39,-0.4 0,-0.65 0.73,-1.08 1.57,-1.08 0.97,0 1.64,0.65 1.64,1.34 0,0.55 -0.45,1.09 -1.22,1.25 0.73,0.26 1,0.78 1,1.21 0,0.55 -0.64,0.96 -1.41,0.96 -0.77,0 -1.36,-0.38 -1.36,-0.93 0,-0.24 0.15,-0.37 0.36,-0.37 0.21,0 0.35,0.16 0.35,0.35 0,0.2 -0.14,0.35 -0.35,0.36 0.24,0.31 0.72,0.39 0.98,0.39 0.31,0 0.75,-0.16 0.75,-0.76 0,-0.29 -0.09,-0.61 -0.27,-0.83 -0.23,-0.26 -0.43,-0.28 -0.78,-0.3 -0.17,-0.01 -0.19,-0.01 -0.22,-0.02 -0.02,0 -0.07,-0.01 -0.07,-0.09 0,-0.1 0.06,-0.1 0.18,-0.1 z"
   id="path4776"
   inkscape:connector-curvature="0"
   style="fill:#921e1e;stroke-width:0;fill-opacity:1" />
</g>    <g
       style="font-style:normal;font-variant:normal;font-weight:normal;font-stretch:normal;letter-spacing:normal;word-spacing:normal;text-anchor:start;fill:#630e0e;stroke:#000000;stroke-linecap:butt;stroke-linejoin:miter;stroke-miterlimit:10.43299960999999954;stroke-opacity:1;stroke-dasharray:none;stroke-dashoffset:0;fill-opacity:1"
       ns0:preamble="/home/anne/texmf/tex/latex/preambleInk.ini"
       ns0:text="$\\mathcal{C}_{1,3}$"
       word-spacing="normal"
       letter-spacing="normal"
       font-size-adjust="none"
       font-stretch="normal"
       font-weight="normal"
       font-variant="normal"
       font-style="normal"
       stroke-miterlimit="10.433"
       xml:space="preserve"
       transform="matrix(7,0,0,-7,-1284.85,4953.1622)"
       id="g4933">
<path
   id="path4935"
   d="m 228.37,658.79 0,0.01 0,0 0,0 0,0.01 0,0 0,0 0,0 -0.01,0 0,0.01 0,0 0,0.01 0,0 0,0 -0.01,0.01 0,0 0,0 0,0.01 -0.01,0 0,0 0,0 -0.01,0 0,0 -0.01,0.01 0,0 0,0 -0.01,0 0,0 -0.01,0 0,0 -0.01,0 0,0 0,0 -0.01,0 0,0 -0.01,0 c -0.17,0 -0.41,-0.14 -0.42,-0.14 -0.2,-0.13 -0.24,-0.2 -0.36,-0.37 -0.31,-0.47 -0.75,-0.81 -1.39,-0.81 -0.9,0 -1.7,0.65 -1.7,2.14 0,0.89 0.36,2.08 0.88,2.86 0.44,0.63 0.98,1.15 2,1.15 0.38,0 0.62,-0.14 0.62,-0.51 0,-0.34 -0.37,-1.05 -0.49,-1.25 -0.06,-0.11 -0.06,-0.13 -0.06,-0.15 0,-0.06 0.05,-0.06 0.11,-0.06 0.2,0 0.57,0.21 0.69,0.37 0.02,0.04 0.59,1.02 0.59,1.52 0,0.55 -0.44,0.63 -0.8,0.63 -1.44,0 -2.63,-0.95 -3.09,-1.5 -1.18,-1.43 -1.3,-2.97 -1.3,-3.49 0,-1.45 0.74,-2.25 1.89,-2.25 1.6,0 2.93,1.55 2.93,1.79 z"
   inkscape:connector-curvature="0"
   style="fill:#630e0e;stroke-width:0;fill-opacity:1" />
<path
   id="path4937"
   d="m 231.01,660.16 0,0.01 0,0.01 0,0.01 0,0.01 0,0 0,0.01 0,0.01 0,0.01 0,0 0,0.01 0,0.01 0,0 0,0.01 0,0 0,0.01 0,0 -0.01,0.01 0,0 0,0.01 0,0.01 0,0.01 -0.01,0 0,0.01 -0.01,0.01 0,0 -0.01,0.01 0,0 -0.01,0 -0.01,0.01 0,0 -0.01,0 -0.01,0 -0.01,0 0,0 -0.01,0 0,0.01 -0.01,0 -0.01,0 0,0 -0.01,0 -0.01,0 0,0 -0.01,0 -0.01,0 -0.01,0 0,0 -0.01,0 -0.01,0 -0.01,0 -0.01,0 c -0.44,-0.44 -1.08,-0.45 -1.36,-0.45 v -0.25 c 0.16,0 0.62,0 1.01,0.2 v -3.55 c 0,-0.23 0,-0.32 -0.7,-0.32 h -0.26 v -0.25 c 0.12,0.01 0.98,0.03 1.24,0.03 0.21,0 1.09,-0.02 1.24,-0.03 v 0.25 h -0.26 c -0.7,0 -0.7,0.09 -0.7,0.32 z"
   inkscape:connector-curvature="0"
   style="fill:#630e0e;stroke-width:0;fill-opacity:1" />
<path
   id="path4939"
   d="m 234.12,655.85 0,-0.07 0,-0.07 -0.01,-0.08 -0.01,-0.08 -0.01,-0.03 0,-0.04 -0.01,-0.04 -0.01,-0.04 -0.01,-0.04 -0.01,-0.04 -0.01,-0.04 -0.02,-0.04 -0.01,-0.04 -0.02,-0.04 -0.01,-0.04 -0.02,-0.04 -0.03,-0.04 -0.02,-0.04 -0.02,-0.05 -0.03,-0.04 -0.03,-0.04 -0.03,-0.04 -0.03,-0.04 -0.04,-0.04 -0.03,-0.04 -0.04,-0.05 -0.04,-0.04 -0.05,-0.04 c -0.02,-0.03 -0.04,-0.05 -0.04,-0.08 0,-0.05 0.05,-0.1 0.09,-0.1 0.1,0 0.69,0.56 0.69,1.38 0,0.43 -0.16,0.76 -0.48,0.76 -0.23,0 -0.4,-0.18 -0.4,-0.4 0,-0.22 0.16,-0.4 0.4,-0.4 0.17,0 0.28,0.11 0.29,0.11 z"
   inkscape:connector-curvature="0"
   style="fill:#630e0e;stroke-width:0;fill-opacity:1" />
<path
   id="path4941"
   d="m 236.92,658.06 0.05,0 0.05,0 0.04,-0.01 0.05,0 0.05,-0.01 0.04,-0.02 0.05,-0.01 0.04,-0.02 0.04,-0.02 0.04,-0.02 0.04,-0.02 0.04,-0.02 0.04,-0.03 0.03,-0.03 0.04,-0.03 0.03,-0.04 0.03,-0.03 0.03,-0.04 0.02,-0.04 0.03,-0.05 0.02,-0.04 0.02,-0.05 0.02,-0.05 0.02,-0.05 0.02,-0.05 0.01,-0.06 0.01,-0.05 0.01,-0.06 0.01,-0.07 0.01,-0.06 0,-0.07 0,-0.07 c 0,-0.86 -0.5,-1.12 -0.91,-1.12 -0.27,0 -0.89,0.08 -1.18,0.49 0.33,0.02 0.4,0.24 0.4,0.39 0,0.22 -0.16,0.38 -0.38,0.38 -0.19,0 -0.39,-0.11 -0.39,-0.4 0,-0.65 0.73,-1.08 1.57,-1.08 0.97,0 1.64,0.65 1.64,1.34 0,0.55 -0.45,1.09 -1.22,1.25 0.73,0.26 1,0.78 1,1.21 0,0.55 -0.64,0.96 -1.41,0.96 -0.77,0 -1.36,-0.38 -1.36,-0.93 0,-0.24 0.15,-0.37 0.36,-0.37 0.21,0 0.35,0.16 0.35,0.35 0,0.2 -0.14,0.35 -0.35,0.36 0.24,0.31 0.72,0.39 0.98,0.39 0.31,0 0.75,-0.16 0.75,-0.76 0,-0.29 -0.09,-0.61 -0.27,-0.83 -0.23,-0.26 -0.43,-0.28 -0.78,-0.3 -0.17,-0.01 -0.19,-0.01 -0.22,-0.02 -0.02,0 -0.07,-0.01 -0.07,-0.09 0,-0.1 0.06,-0.1 0.18,-0.1 z"
   inkscape:connector-curvature="0"
   style="fill:#630e0e;stroke-width:0;fill-opacity:1" />
</g>    <rect
       style="fill:#a10000;fill-opacity:1;stroke:#e81717;stroke-width:2;stroke-miterlimit:10.43299960999999954;stroke-opacity:1;stroke-dasharray:none;stroke-dashoffset:0"
       id="rect3835"
       width="15"
       height="14.999993"
       x="45"
       y="432.36221" />
    <rect
       style="fill:#790000;fill-opacity:1;stroke:#ff0000;stroke-width:2;stroke-miterlimit:10.43299960999999954;stroke-opacity:1;stroke-dasharray:none;stroke-dashoffset:0"
       id="rect3835-8"
       width="15"
       height="14.999993"
       x="165"
       y="536.36224" />
    <rect
       style="fill:#a10000;fill-opacity:1;stroke:#e81717;stroke-width:2;stroke-miterlimit:10.43299961;stroke-opacity:1;stroke-dasharray:none;stroke-dashoffset:0"
       id="rect3835-81"
       width="15"
       height="14.999993"
       x="225"
       y="594.36224" />
  </g>
</svg>
