<?xml version="1.0" encoding="UTF-8" standalone="no"?>
<!-- Created with Inkscape (http://www.inkscape.org/) -->

<svg
   xmlns:dc="http://purl.org/dc/elements/1.1/"
   xmlns:cc="http://creativecommons.org/ns#"
   xmlns:rdf="http://www.w3.org/1999/02/22-rdf-syntax-ns#"
   xmlns:svg="http://www.w3.org/2000/svg"
   xmlns="http://www.w3.org/2000/svg"
   xmlns:sodipodi="http://sodipodi.sourceforge.net/DTD/sodipodi-0.dtd"
   xmlns:inkscape="http://www.inkscape.org/namespaces/inkscape"
   id="svg3004"
   version="1.1"
   inkscape:version="0.48.5 r10040"
   width="765"
   height="990"
   xml:space="preserve"
   sodipodi:docname="AD_structure1.png"><metadata
     id="metadata3010"><rdf:RDF><cc:Work
         rdf:about=""><dc:format>image/svg+xml</dc:format><dc:type
           rdf:resource="http://purl.org/dc/dcmitype/StillImage" /><dc:title></dc:title></cc:Work></rdf:RDF></metadata><defs
     id="defs3008"><clipPath
       clipPathUnits="userSpaceOnUse"
       id="clipPath3221"><path
         inkscape:connector-curvature="0"
         d="m 0,0 2384,0 0,3370 L 0,3370 0,0 z"
         id="path3223" /></clipPath></defs><sodipodi:namedview
     pagecolor="#ffffff"
     bordercolor="#666666"
     borderopacity="1"
     objecttolerance="10"
     gridtolerance="10"
     guidetolerance="10"
     inkscape:pageopacity="0"
     inkscape:pageshadow="2"
     inkscape:window-width="1855"
     inkscape:window-height="1056"
     id="namedview3006"
     showgrid="false"
     inkscape:zoom="0.91818182"
     inkscape:cx="200.70351"
     inkscape:cy="583.83641"
     inkscape:window-x="65"
     inkscape:window-y="24"
     inkscape:window-maximized="1"
     inkscape:current-layer="g11724"
     inkscape:snap-center="true" /><g
     id="g3012"
     inkscape:groupmode="layer"
     inkscape:label="07-017"
     transform="matrix(1.25,0,0,-1.25,0,990)"><g
       transform="matrix(1.2719388,0,0,1.233485,-54.603012,204.42158)"
       id="g3217"><g
         id="g3225"
         transform="matrix(0.229721,0,0,0.229721,-8.9050925,-3.5318108)"><g
           id="g3237"
           transform="scale(4.35312,4.35312)" /><g
           id="g11724"><g
             id="g17485"
             inkscape:export-filename="/home/nicolas/Documents/DBAD/kaust2014/sourcefigs/AD_structure1.png"
             inkscape:export-xdpi="90"
             inkscape:export-ydpi="90"><g
               id="g17443"><path
                 inkscape:connector-curvature="0"
                 d="m 1472.1807,-89.886934 c -3.2948,4.95154 -9.8356,6.44694 -14.6131,3.3412 -4.7775,-3.10565 -5.9793,-9.63412 -2.6847,-14.585746 3.2941,-4.95073 9.8349,-6.44622 14.6124,-3.34058 4.7776,3.10565 5.9795,9.634296 2.6854,14.585126"
                 style="fill:#000000;fill-opacity:1;fill-rule:evenodd;stroke:none"
                 id="path8300-9" /><path
                 id="path8304-6"
                 style="fill:#000000;fill-opacity:1;fill-rule:evenodd;stroke:none"
                 d="m 1826.5886,-187.14026 c -3.2947,4.95171 -9.8353,6.44702 -14.6129,3.34138 -4.7775,-3.10565 -5.9795,-9.63404 -2.6847,-14.58575 3.294,-4.95083 9.8348,-6.44614 14.6124,-3.34049 4.7775,3.10565 5.9793,9.63412 2.6852,14.58486"
                 inkscape:connector-curvature="0" /><path
                 inkscape:connector-curvature="0"
                 d="m 945.69914,52.625168 c -3.29474,4.951804 -9.83553,6.447115 -14.61304,3.341468 -4.7776,-3.105735 -5.97942,-9.634211 -2.68468,-14.585925 3.29413,-4.950738 9.8348,-6.446138 14.61241,-3.340491 4.77751,3.105647 5.97944,9.634211 2.68531,14.584948"
                 style="fill:#000000;fill-opacity:1;fill-rule:evenodd;stroke:none"
                 id="path8306-7" /><path
                 id="path8312-9"
                 style="fill:#000000;fill-opacity:1;fill-rule:evenodd;stroke:none"
                 d="m 1580.7007,-115.20845 c -3.2947,4.95162 -9.8354,6.44684 -14.6129,3.3412 -4.7775,-3.10574 -5.9796,-9.63421 -2.6848,-14.58575 3.2941,-4.95092 9.8349,-6.44623 14.6125,-3.34049 4.7776,3.10564 5.9795,9.63412 2.6852,14.58504"
                 inkscape:connector-curvature="0" /><path
                 id="path8316-9"
                 style="fill:#000000;fill-opacity:1;fill-rule:evenodd;stroke:none"
                 d="m 1397.8168,-72.512814 c -3.2947,4.95163 -9.8355,6.44694 -14.6131,3.3412 -4.7775,-3.10564 -5.9793,-9.63403 -2.6846,-14.58565 3.2941,-4.95092 9.8347,-6.44623 14.6122,-3.34058 4.7777,3.10573 5.9797,9.63421 2.6855,14.58503"
                 inkscape:connector-curvature="0" /><path
                 inkscape:connector-curvature="0"
                 d="m 1966.5793,-223.43134 c -3.2948,4.95171 -9.8355,6.44703 -14.6132,3.34129 -4.7775,-3.10565 -5.9793,-9.63412 -2.6846,-14.58584 3.2941,-4.95075 9.8348,-6.44614 14.6123,-3.34049 4.7777,3.10574 5.9796,9.63421 2.6855,14.58504"
                 style="fill:#000000;fill-opacity:1;fill-rule:evenodd;stroke:none"
                 id="path8318-5" /><path
                 id="path8322-0"
                 style="fill:#000000;fill-opacity:1;fill-rule:evenodd;stroke:none"
                 d="m 1691.9028,-144.65796 c -3.2947,4.95171 -9.8355,6.44702 -14.6131,3.34129 -4.7775,-3.10565 -5.9794,-9.63412 -2.6847,-14.58584 3.2941,-4.95083 9.8349,-6.44614 14.6124,-3.34049 4.7776,3.10574 5.9795,9.63421 2.6854,14.58504"
                 inkscape:connector-curvature="0" /><path
                 id="path8326-9"
                 style="fill:#000000;fill-opacity:1;fill-rule:evenodd;stroke:none"
                 d="m 1001.1886,36.223996 c -3.29462,4.951537 -9.83547,6.446937 -14.61308,3.341202 -4.7774,-3.105558 -5.97915,-9.634123 -2.68454,-14.58566 3.29419,-4.950826 9.83481,-6.446137 14.6122,-3.340579 4.77762,3.105735 5.97962,9.634122 2.68542,14.585037"
                 inkscape:connector-curvature="0" /><path
                 inkscape:connector-curvature="0"
                 d="m 1170.4012,-10.799129 c -3.2947,4.951804 -9.8354,6.446937 -14.613,3.341291 -4.7775,-3.105647 -5.9794,-9.633945 -2.6845,-14.585659 3.2941,-4.950827 9.8346,-6.446227 14.6123,-3.34058 4.7775,3.105647 5.9794,9.634211 2.6852,14.584948"
                 style="fill:#000000;fill-opacity:1;fill-rule:evenodd;stroke:none"
                 id="path8328-1" /><path
                 inkscape:connector-curvature="0"
                 d="m 1105.8313,4.421516 c -3.2947,4.951715 -9.8354,6.446937 -14.6129,3.34129 -4.7775,-3.105646 -5.9794,-9.634033 -2.6847,-14.585748 3.2942,-4.950737 9.8349,-6.446137 14.6124,-3.340491 4.7774,3.105647 5.9794,9.634123 2.6852,14.584949"
                 style="fill:#000000;fill-opacity:1;fill-rule:evenodd;stroke:none"
                 id="path8330-0" /><path
                 id="path8334-5"
                 style="fill:#000000;fill-opacity:1;fill-rule:evenodd;stroke:none"
                 d="m 1802.4582,-175.26908 c -3.2947,4.95163 -9.8353,6.44703 -14.6129,3.34138 -4.7775,-3.10565 -5.9794,-9.63421 -2.6847,-14.58575 3.2941,-4.95091 9.8348,-6.44613 14.6124,-3.34049 4.7775,3.10565 5.9793,9.63395 2.6852,14.58486"
                 inkscape:connector-curvature="0" /><path
                 id="path8340-0"
                 style="fill:#000000;fill-opacity:1;fill-rule:evenodd;stroke:none"
                 d="m 1608.5539,-125.94539 c -3.2948,4.95172 -9.8356,6.44703 -14.613,3.34138 -4.7775,-3.10564 -5.9795,-9.63421 -2.6847,-14.58592 3.294,-4.95065 9.8348,-6.44596 14.6123,-3.34032 4.7775,3.10565 5.9794,9.63413 2.6854,14.58486"
                 inkscape:connector-curvature="0" /><path
                 inkscape:connector-curvature="0"
                 d="m 1188.6724,-16.725127 c -3.2946,4.951626 -9.8353,6.447026 -14.6129,3.34129 -4.7777,-3.105735 -5.9795,-9.634211 -2.6848,-14.585748 3.2942,-4.950826 9.8349,-6.446226 14.6125,-3.340491 4.7775,3.105736 5.9794,9.634122 2.6852,14.584949"
                 style="fill:#000000;fill-opacity:1;fill-rule:evenodd;stroke:none"
                 id="path8342-3" /><path
                 id="path8350-2"
                 style="fill:#000000;fill-opacity:1;fill-rule:evenodd;stroke:none"
                 d="m 1543.1763,-100.99238 c -3.2948,4.951706 -9.8355,6.447106 -14.6129,3.341466 -4.7776,-3.105646 -5.9795,-9.634126 -2.6847,-14.585836 3.2941,-4.95083 9.8348,-6.44605 14.6123,-3.3404 4.7775,3.10564 5.9794,9.63403 2.6853,14.58477"
                 inkscape:connector-curvature="0" /><path
                 id="path8366-0"
                 style="fill:#000000;fill-opacity:1;fill-rule:evenodd;stroke:none"
                 d="m 656.13751,135.43717 c -3.29468,4.95163 -9.83546,6.44694 -14.61307,3.34121 -4.77751,-3.10565 -5.97933,-9.63404 -2.68465,-14.58566 3.29419,-4.95092 9.83481,-6.44623 14.61231,-3.34058 4.77761,3.10573 5.9796,9.63412 2.68541,14.58503"
                 inkscape:connector-curvature="0" /><path
                 inkscape:connector-curvature="0"
                 d="m 524.89551,168.1618 c -3.29475,4.95172 -9.83553,6.44703 -14.61315,3.34138 -4.7775,-3.10564 -5.97942,-9.63421 -2.68468,-14.58592 3.29413,-4.95083 9.83492,-6.44614 14.61242,-3.34049 4.77761,3.10573 5.97954,9.6343 2.68541,14.58503"
                 style="fill:#000000;fill-opacity:1;fill-rule:evenodd;stroke:none"
                 id="path8368-7" /><path
                 inkscape:connector-curvature="0"
                 d="m 1849.8364,-195.76857 c -3.2948,4.95172 -9.8355,6.44694 -14.613,3.34129 -4.7774,-3.10564 -5.9795,-9.63412 -2.6847,-14.58583 3.2941,-4.95074 9.8349,-6.44605 14.6124,-3.34049 4.7775,3.10564 5.9795,9.63421 2.6853,14.58503"
                 style="fill:#000000;fill-opacity:1;fill-rule:evenodd;stroke:none"
                 id="path8370-4" /><path
                 inkscape:connector-curvature="0"
                 d="m 1063.5939,22.671421 c -3.2947,4.951626 -9.8355,6.446937 -14.613,3.34129 -4.7776,-3.105735 -5.9794,-9.634122 -2.6848,-14.585748 3.2943,-4.950915 9.8349,-6.446226 14.6124,-3.340491 4.7776,3.105647 5.9795,9.634034 2.6854,14.584949"
                 style="fill:#000000;fill-opacity:1;fill-rule:evenodd;stroke:none"
                 id="path8372-2" /><path
                 inkscape:connector-curvature="0"
                 d="m 464.88274,180.864 c -3.29468,4.95163 -9.83536,6.44703 -14.61296,3.34129 -4.7774,-3.10556 -5.97933,-9.63412 -2.68466,-14.58575 3.2942,-4.95082 9.83499,-6.44613 14.61238,-3.34058 4.77761,3.10574 5.97943,9.63413 2.68524,14.58504"
                 style="fill:#000000;fill-opacity:1;fill-rule:evenodd;stroke:none"
                 id="path8376-0" /><path
                 id="path8380-4"
                 style="fill:#000000;fill-opacity:1;fill-rule:evenodd;stroke:none"
                 d="m 495.0174,175.4124 c -3.29467,4.95163 -9.83539,6.44676 -14.61289,3.3412 -4.7775,-3.10565 -5.9795,-9.63412 -2.68483,-14.58575 3.29421,-4.95082 9.83499,-6.44622 14.61249,-3.34058 4.7775,3.10565 5.97943,9.63421 2.68523,14.58513"
                 inkscape:connector-curvature="0" /><path
                 inkscape:connector-curvature="0"
                 d="m 866.57047,82.479347 c -3.2946,4.951448 -9.83539,6.446848 -14.61289,3.341201 -4.77771,-3.105824 -5.97953,-9.634299 -2.68493,-14.585747 3.2942,-4.950916 9.83481,-6.446227 14.61252,-3.340403 4.7775,3.105647 5.97951,9.634034 2.6853,14.584949"
                 style="fill:#000000;fill-opacity:1;fill-rule:evenodd;stroke:none"
                 id="path8382-2" /><path
                 id="path8384-7"
                 style="fill:#000000;fill-opacity:1;fill-rule:evenodd;stroke:none"
                 d="m 1891.6066,-216.89452 c -3.2945,4.95154 -9.8354,6.44694 -14.6129,3.3413 -4.7775,-3.10565 -5.9793,-9.63413 -2.6847,-14.58566 3.2943,-4.95092 9.8349,-6.44632 14.6125,-3.34067 4.7774,3.10564 5.9794,9.63421 2.6851,14.58503"
                 inkscape:connector-curvature="0" /><path
                 inkscape:connector-curvature="0"
                 d="m 1932.1656,-213.10246 c -3.2948,4.95172 -9.8354,6.44694 -14.6128,3.3413 -4.7777,-3.10565 -5.9795,-9.63404 -2.6848,-14.58575 3.2941,-4.95083 9.8348,-6.44614 14.6124,-3.34049 4.7775,3.10564 5.9793,9.63412 2.6852,14.58494"
                 style="fill:#000000;fill-opacity:1;fill-rule:evenodd;stroke:none"
                 id="path8386-6" /><path
                 id="path8388-1"
                 style="fill:#000000;fill-opacity:1;fill-rule:evenodd;stroke:none"
                 d="m 972.73123,49.664834 c -3.29462,4.951537 -9.8354,6.446848 -14.61301,3.341112 -4.77761,-3.105735 -5.97933,-9.634122 -2.68471,-14.58557 3.29419,-4.950915 9.83476,-6.446404 14.61236,-3.340669 4.77762,3.105736 5.97955,9.634211 2.68536,14.585127"
                 inkscape:connector-curvature="0" /><path
                 id="path8390-7"
                 style="fill:#000000;fill-opacity:1;fill-rule:evenodd;stroke:none"
                 d="m 488.2157,177.63303 c -3.29475,4.95171 -9.83546,6.44693 -14.61296,3.34129 -4.77761,-3.10574 -5.97962,-9.63412 -2.68487,-14.58593 3.29413,-4.95073 9.83492,-6.44605 14.61252,-3.34031 4.7775,3.10565 5.97943,9.63412 2.68531,14.58495"
                 inkscape:connector-curvature="0" /><path
                 id="path8392-6"
                 style="fill:#000000;fill-opacity:1;fill-rule:evenodd;stroke:none"
                 d="m 1034.8825,29.658038 c -3.2946,4.951537 -9.835,6.447115 -14.6127,3.34129 -4.7775,-3.105646 -5.9795,-9.634122 -2.6849,-14.585659 3.2942,-4.950915 9.835,-6.446226 14.6125,-3.34058 4.7777,3.105825 5.9793,9.634122 2.6851,14.584949"
                 inkscape:connector-curvature="0" /><path
                 id="path8396-9"
                 style="fill:#000000;fill-opacity:1;fill-rule:evenodd;stroke:none"
                 d="m 813.63021,92.278411 c -3.29468,4.951625 -9.83529,6.446937 -14.61283,3.34129 -4.7775,-3.105647 -5.9795,-9.634033 -2.68482,-14.585659 3.2942,-4.950915 9.83498,-6.446227 14.61248,-3.34058 4.77754,3.105647 5.97936,9.634122 2.68517,14.584949"
                 inkscape:connector-curvature="0" /><path
                 inkscape:connector-curvature="0"
                 d="m 550.66373,161.97458 c -3.29475,4.95172 -9.83546,6.44694 -14.61308,3.34129 -4.7775,-3.10564 -5.9795,-9.63412 -2.68475,-14.58584 3.29413,-4.95074 9.83491,-6.44605 14.61242,-3.3404 4.77761,3.10565 5.97953,9.63421 2.68541,14.58495"
                 style="fill:#000000;fill-opacity:1;fill-rule:evenodd;stroke:none"
                 id="path8398-8" /><path
                 inkscape:connector-curvature="0"
                 d="m 1525.1868,-101.43853 c -3.2946,4.951616 -9.8353,6.446846 -14.6128,3.341196 -4.7775,-3.105646 -5.9795,-9.634036 -2.6848,-14.585656 3.2942,-4.95092 9.8349,-6.44614 14.6124,-3.34049 4.7775,3.10564 5.9794,9.63403 2.6852,14.58495"
                 style="fill:#000000;fill-opacity:1;fill-rule:evenodd;stroke:none"
                 id="path8400-0" /><path
                 inkscape:connector-curvature="0"
                 d="m 984.23875,44.592588 c -3.29475,4.951715 -9.83563,6.447026 -14.61303,3.341379 -4.77762,-3.105646 -5.97954,-9.634211 -2.6848,-14.585925 3.29413,-4.950738 9.83473,-6.446049 14.61246,-3.340314 4.77739,3.105647 5.9795,9.634123 2.68537,14.58486"
                 style="fill:#000000;fill-opacity:1;fill-rule:evenodd;stroke:none"
                 id="path8408-4" /><path
                 inkscape:connector-curvature="0"
                 d="m 582.35503,152.31648 c -3.29467,4.95153 -9.83535,6.44693 -14.61285,3.34129 -4.7775,-3.10565 -5.97943,-9.63413 -2.68475,-14.58575 3.29419,-4.95092 9.83497,-6.44623 14.61247,-3.34058 4.77751,3.10564 5.97934,9.63412 2.68513,14.58504"
                 style="fill:#000000;fill-opacity:1;fill-rule:evenodd;stroke:none"
                 id="path8414-1" /><path
                 inkscape:connector-curvature="0"
                 d="m 1770.2468,-177.32779 c -3.2949,4.95172 -9.8356,6.44703 -14.6131,3.34138 -4.7775,-3.10564 -5.9793,-9.63412 -2.6846,-14.58583 3.2941,-4.95065 9.8347,-6.44605 14.6123,-3.3404 4.7775,3.10564 5.9794,9.63421 2.6854,14.58485"
                 style="fill:#000000;fill-opacity:1;fill-rule:evenodd;stroke:none"
                 id="path8418-9" /><path
                 id="path8420-0"
                 style="fill:#000000;fill-opacity:1;fill-rule:evenodd;stroke:none"
                 d="m 1952.0846,-218.84371 c -3.2946,4.95163 -9.8352,6.44685 -14.6129,3.34121 -4.7775,-3.10565 -5.9795,-9.63413 -2.6848,-14.58575 3.2943,-4.95083 9.835,-6.44623 14.6126,-3.34058 4.7775,3.10573 5.9794,9.63421 2.6851,14.58512"
                 inkscape:connector-curvature="0" /><path
                 inkscape:connector-curvature="0"
                 id="path14869"
                 d="M 258.44017,234.85794 2217.5544,-312.46889 z"
                 style="fill:none;stroke:#000000;stroke-width:2.7802844px;stroke-linecap:butt;stroke-linejoin:miter;stroke-opacity:1" /><path
                 id="path8316-9-0"
                 style="fill:#000000;fill-opacity:1;fill-rule:evenodd;stroke:none"
                 d="m 735.24895,132.85934 c -3.2947,4.9516 -9.8355,6.4469 -14.6131,3.3412 -4.7775,-3.1056 -5.9793,-9.634 -2.6846,-14.5856 3.2941,-4.951 9.8347,-6.4463 14.6122,-3.3406 4.7777,3.1057 5.9797,9.6342 2.6855,14.585"
                 inkscape:connector-curvature="0" /><path
                 id="path8316-9-2"
                 style="fill:#000000;fill-opacity:1;fill-rule:evenodd;stroke:none"
                 d="m 1638.7674,-153.10355 c -3.2947,4.9516 -9.8355,6.4469 -14.6131,3.3412 -4.7775,-3.1056 -5.9793,-9.634 -2.6846,-14.5856 3.2941,-4.951 9.8347,-6.4463 14.6122,-3.3406 4.7777,3.1057 5.9797,9.6342 2.6855,14.585"
                 inkscape:connector-curvature="0" /><path
                 id="path8316-9-9"
                 style="fill:#000000;fill-opacity:1;fill-rule:evenodd;stroke:none"
                 d="m 383.38369,182.05726 c -3.2947,4.9516 -9.8355,6.4469 -14.6131,3.3412 -4.7775,-3.1056 -5.9793,-9.634 -2.6846,-14.5856 3.2941,-4.951 9.8347,-6.4463 14.6122,-3.3406 4.7777,3.1057 5.9797,9.6342 2.6855,14.585"
                 inkscape:connector-curvature="0" /><path
                 id="path8316-9-8"
                 style="fill:#000000;fill-opacity:1;fill-rule:evenodd;stroke:none"
                 d="m 1480.7262,-63.932323 c -3.2947,4.9516 -9.8355,6.4469 -14.6131,3.3412 -4.7775,-3.1056 -5.9793,-9.634 -2.6846,-14.5856 3.2941,-4.951 9.8347,-6.4463 14.6122,-3.3406 4.7777,3.1057 5.9797,9.6342 2.6855,14.585"
                 inkscape:connector-curvature="0" /><path
                 id="path8316-9-5"
                 style="fill:#000000;fill-opacity:1;fill-rule:evenodd;stroke:none"
                 d="m 693.50227,114.41012 c -3.2947,4.9516 -9.8355,6.4469 -14.6131,3.3412 -4.7775,-3.1056 -5.9793,-9.634 -2.6846,-14.5856 3.2941,-4.950999 9.8347,-6.446299 14.6122,-3.340599 4.7777,3.105699 5.9797,9.634199 2.6855,14.584999"
                 inkscape:connector-curvature="0" /><path
                 id="path8316-9-81"
                 style="fill:#000000;fill-opacity:1;fill-rule:evenodd;stroke:none"
                 d="m 1093.0781,34.46351 c -3.2947,4.9516 -9.8355,6.4469 -14.6131,3.3412 -4.7775,-3.1056 -5.9793,-9.634 -2.6846,-14.5856 3.2941,-4.951 9.8347,-6.4463 14.6122,-3.3406 4.7777,3.1057 5.9797,9.6342 2.6855,14.585"
                 inkscape:connector-curvature="0" /></g></g><g
             id="g17399"
             transform="translate(101.38491,-264.4388)"
             inkscape:export-filename="/home/nicolas/Documents/DBAD/kaust2014/sourcefigs/AD_structure2.png"
             inkscape:export-xdpi="90"
             inkscape:export-ydpi="90"><g
               id="g17356"><path
                 inkscape:connector-curvature="0"
                 d="m 1414.8932,792.77303 c -3.2948,4.9516 -9.8356,6.4469 -14.6131,3.3412 -4.7775,-3.1056 -5.9793,-9.6341 -2.6847,-14.5857 3.2941,-4.9508 9.8349,-6.4462 14.6124,-3.3406 4.7776,3.1057 5.9795,9.6343 2.6854,14.5851"
                 style="fill:#000000;fill-opacity:1;fill-rule:evenodd;stroke:none"
                 id="path8300-9-8" /><path
                 id="path8304-6-5"
                 style="fill:#000000;fill-opacity:1;fill-rule:evenodd;stroke:none"
                 d="m 1769.3011,695.51973 c -3.2947,4.9517 -9.8353,6.447 -14.6129,3.3414 -4.7775,-3.1057 -5.9795,-9.6341 -2.6847,-14.5858 3.294,-4.9508 9.8348,-6.4461 14.6124,-3.3405 4.7775,3.1057 5.9793,9.6342 2.6852,14.5849"
                 inkscape:connector-curvature="0" /><path
                 inkscape:connector-curvature="0"
                 d="m 888.41157,935.28513 c -3.29475,4.9518 -9.83553,6.4471 -14.61304,3.3415 -4.77761,-3.1057 -5.97943,-9.6342 -2.68468,-14.5859 3.29412,-4.9508 9.8348,-6.4462 14.61241,-3.3405 4.77751,3.1056 5.97943,9.6342 2.68531,14.5849"
                 style="fill:#000000;fill-opacity:1;fill-rule:evenodd;stroke:none"
                 id="path8306-7-1" /><path
                 id="path8312-9-9"
                 style="fill:#000000;fill-opacity:1;fill-rule:evenodd;stroke:none"
                 d="m 1523.4132,767.45153 c -3.2947,4.9516 -9.8354,6.4468 -14.6129,3.3412 -4.7775,-3.1057 -5.9796,-9.6342 -2.6848,-14.5857 3.2941,-4.951 9.8349,-6.4463 14.6125,-3.3405 4.7776,3.1056 5.9795,9.6341 2.6852,14.585"
                 inkscape:connector-curvature="0" /><path
                 id="path8316-9-26"
                 style="fill:#000000;fill-opacity:1;fill-rule:evenodd;stroke:none"
                 d="m 1340.5293,810.14713 c -3.2947,4.9517 -9.8355,6.447 -14.6131,3.3412 -4.7775,-3.1056 -5.9793,-9.634 -2.6846,-14.5856 3.2941,-4.9509 9.8347,-6.4463 14.6122,-3.3406 4.7777,3.1058 5.9797,9.6342 2.6855,14.585"
                 inkscape:connector-curvature="0" /><path
                 inkscape:connector-curvature="0"
                 d="m 1909.2918,659.22863 c -3.2948,4.9517 -9.8355,6.447 -14.6132,3.3413 -4.7775,-3.1056 -5.9793,-9.6341 -2.6846,-14.5858 3.2941,-4.9508 9.8348,-6.4462 14.6123,-3.3405 4.7777,3.1057 5.9796,9.6342 2.6855,14.585"
                 style="fill:#000000;fill-opacity:1;fill-rule:evenodd;stroke:none"
                 id="path8318-5-59" /><path
                 id="path8322-0-0"
                 style="fill:#000000;fill-opacity:1;fill-rule:evenodd;stroke:none"
                 d="m 1634.6153,738.00203 c -3.2947,4.9517 -9.8355,6.447 -14.6131,3.3413 -4.7775,-3.1057 -5.9794,-9.6341 -2.6847,-14.5858 3.2941,-4.9509 9.8349,-6.4462 14.6124,-3.3405 4.7776,3.1057 5.9795,9.6342 2.6854,14.585"
                 inkscape:connector-curvature="0" /><path
                 id="path8326-9-4"
                 style="fill:#000000;fill-opacity:1;fill-rule:evenodd;stroke:none"
                 d="m 943.90106,918.88393 c -3.2947,4.9516 -9.8355,6.447 -14.6131,3.3412 -4.7774,-3.1055 -5.9792,-9.6341 -2.6846,-14.5856 3.2942,-4.9508 9.8349,-6.4461 14.6122,-3.3406 4.7777,3.1057 5.9797,9.6341 2.6855,14.585"
                 inkscape:connector-curvature="0" /><path
                 inkscape:connector-curvature="0"
                 d="m 1113.1137,871.86083 c -3.2947,4.9518 -9.8354,6.447 -14.613,3.3413 -4.7775,-3.1056 -5.9794,-9.6339 -2.6845,-14.5857 3.2941,-4.9508 9.8346,-6.4462 14.6123,-3.3405 4.7775,3.1056 5.9794,9.6342 2.6852,14.5849"
                 style="fill:#000000;fill-opacity:1;fill-rule:evenodd;stroke:none"
                 id="path8328-1-8" /><path
                 inkscape:connector-curvature="0"
                 d="m 1048.5438,887.08153 c -3.2947,4.9517 -9.8354,6.4469 -14.6129,3.3413 -4.7775,-3.1057 -5.9794,-9.6341 -2.6847,-14.5858 3.2942,-4.9507 9.8349,-6.4461 14.6124,-3.3405 4.7774,3.1057 5.9794,9.6341 2.6852,14.585"
                 style="fill:#000000;fill-opacity:1;fill-rule:evenodd;stroke:none"
                 id="path8330-0-99" /><path
                 id="path8334-5-4"
                 style="fill:#000000;fill-opacity:1;fill-rule:evenodd;stroke:none"
                 d="m 1745.1707,707.39093 c -3.2947,4.9516 -9.8353,6.447 -14.6129,3.3414 -4.7775,-3.1057 -5.9794,-9.6343 -2.6847,-14.5858 3.2941,-4.9509 9.8348,-6.4461 14.6124,-3.3405 4.7775,3.1057 5.9793,9.634 2.6852,14.5849"
                 inkscape:connector-curvature="0" /><path
                 id="path8340-0-3"
                 style="fill:#000000;fill-opacity:1;fill-rule:evenodd;stroke:none"
                 d="m 1551.2664,756.71463 c -3.2948,4.9517 -9.8356,6.447 -14.613,3.3414 -4.7775,-3.1057 -5.9795,-9.6343 -2.6847,-14.586 3.294,-4.9506 9.8348,-6.4459 14.6123,-3.3403 4.7775,3.1056 5.9794,9.6341 2.6854,14.5849"
                 inkscape:connector-curvature="0" /><path
                 inkscape:connector-curvature="0"
                 d="m 1131.3849,865.93483 c -3.2946,4.9516 -9.8353,6.4471 -14.6129,3.3413 -4.7777,-3.1057 -5.9795,-9.6342 -2.6848,-14.5857 3.2942,-4.9509 9.8349,-6.4463 14.6125,-3.3405 4.7775,3.1057 5.9794,9.6341 2.6852,14.5849"
                 style="fill:#000000;fill-opacity:1;fill-rule:evenodd;stroke:none"
                 id="path8342-3-4" /><path
                 id="path8350-2-9"
                 style="fill:#000000;fill-opacity:1;fill-rule:evenodd;stroke:none"
                 d="m 1485.8888,781.66763 c -3.2948,4.9517 -9.8355,6.4471 -14.6129,3.3414 -4.7776,-3.1056 -5.9795,-9.6341 -2.6847,-14.5858 3.2941,-4.9508 9.8348,-6.446 14.6123,-3.3404 4.7775,3.1057 5.9794,9.634 2.6853,14.5848"
                 inkscape:connector-curvature="0" /><path
                 id="path8366-0-5"
                 style="fill:#000000;fill-opacity:1;fill-rule:evenodd;stroke:none"
                 d="m 598.84993,1018.0971 c -3.29466,4.9517 -9.83545,6.447 -14.61306,3.3412 -4.77751,-3.1056 -5.97933,-9.634 -2.68466,-14.5856 3.2942,-4.9509 9.83483,-6.4463 14.6123,-3.3406 4.77762,3.1057 5.97963,9.6341 2.68542,14.585"
                 inkscape:connector-curvature="0" /><path
                 inkscape:connector-curvature="0"
                 d="m 467.60794,1050.8217 c -3.29475,4.9518 -9.83554,6.4471 -14.61315,3.3414 -4.7775,-3.1056 -5.97943,-9.6342 -2.68468,-14.5859 3.29412,-4.9508 9.83491,-6.4461 14.61241,-3.3405 4.77761,3.1058 5.97954,9.6343 2.68542,14.585"
                 style="fill:#000000;fill-opacity:1;fill-rule:evenodd;stroke:none"
                 id="path8368-7-2" /><path
                 inkscape:connector-curvature="0"
                 d="m 1792.5489,686.89143 c -3.2948,4.9517 -9.8355,6.4469 -14.613,3.3413 -4.7774,-3.1057 -5.9795,-9.6341 -2.6847,-14.5859 3.2941,-4.9507 9.8349,-6.446 14.6124,-3.3404 4.7775,3.1056 5.9795,9.6342 2.6853,14.585"
                 style="fill:#000000;fill-opacity:1;fill-rule:evenodd;stroke:none"
                 id="path8370-4-7" /><path
                 inkscape:connector-curvature="0"
                 d="m 1006.3064,905.33143 c -3.2947,4.9516 -9.83554,6.4469 -14.61304,3.3413 -4.7776,-3.1058 -5.9794,-9.6342 -2.6848,-14.5858 3.2943,-4.9509 9.8349,-6.4462 14.61244,-3.3405 4.7776,3.1057 5.9795,9.6341 2.6854,14.585"
                 style="fill:#000000;fill-opacity:1;fill-rule:evenodd;stroke:none"
                 id="path8372-2-2" /><path
                 inkscape:connector-curvature="0"
                 d="m 407.59516,1063.524 c -3.29468,4.9516 -9.83536,6.447 -14.61296,3.3412 -4.7774,-3.1055 -5.97933,-9.6341 -2.68466,-14.5857 3.2942,-4.9508 9.83499,-6.4461 14.61238,-3.3406 4.77761,3.1058 5.97943,9.6341 2.68524,14.5851"
                 style="fill:#000000;fill-opacity:1;fill-rule:evenodd;stroke:none"
                 id="path8376-0-9" /><path
                 id="path8380-4-0"
                 style="fill:#000000;fill-opacity:1;fill-rule:evenodd;stroke:none"
                 d="m 437.72982,1058.0723 c -3.29467,4.9517 -9.83537,6.4468 -14.61288,3.3413 -4.7775,-3.1057 -5.97951,-9.6342 -2.68484,-14.5858 3.29422,-4.9508 9.83499,-6.4462 14.61249,-3.3406 4.7775,3.1057 5.97943,9.6342 2.68523,14.5851"
                 inkscape:connector-curvature="0" /><path
                 inkscape:connector-curvature="0"
                 d="m 809.28291,965.13933 c -3.29461,4.9514 -9.8354,6.4468 -14.61291,3.3412 -4.77769,-3.1058 -5.97951,-9.6343 -2.68493,-14.5857 3.29421,-4.951 9.83483,-6.4463 14.61253,-3.3404 4.7775,3.1056 5.97951,9.634 2.68531,14.5849"
                 style="fill:#000000;fill-opacity:1;fill-rule:evenodd;stroke:none"
                 id="path8382-2-1" /><path
                 id="path8384-7-1"
                 style="fill:#000000;fill-opacity:1;fill-rule:evenodd;stroke:none"
                 d="m 1834.3191,665.76543 c -3.2945,4.9516 -9.8354,6.447 -14.6129,3.3413 -4.7775,-3.1056 -5.9793,-9.6341 -2.6847,-14.5856 3.2943,-4.9509 9.8349,-6.4464 14.6125,-3.3407 4.7774,3.1056 5.9794,9.6342 2.6851,14.585"
                 inkscape:connector-curvature="0" /><path
                 inkscape:connector-curvature="0"
                 d="m 1874.8781,669.55753 c -3.2948,4.9517 -9.8354,6.4469 -14.6128,3.3413 -4.7777,-3.1056 -5.9795,-9.6341 -2.6848,-14.5858 3.2941,-4.9508 9.8348,-6.4461 14.6124,-3.3405 4.7775,3.1057 5.9793,9.6342 2.6852,14.585"
                 style="fill:#000000;fill-opacity:1;fill-rule:evenodd;stroke:none"
                 id="path8386-6-4" /><path
                 id="path8388-1-1"
                 style="fill:#000000;fill-opacity:1;fill-rule:evenodd;stroke:none"
                 d="m 915.44366,932.32483 c -3.29463,4.9515 -9.83539,6.4468 -14.61301,3.3411 -4.77761,-3.1057 -5.97932,-9.6341 -2.68471,-14.5856 3.29418,-4.9509 9.83475,-6.4464 14.61236,-3.3406 4.77766,3.1057 5.97956,9.6342 2.68536,14.5851"
                 inkscape:connector-curvature="0" /><path
                 id="path8390-7-63"
                 style="fill:#000000;fill-opacity:1;fill-rule:evenodd;stroke:none"
                 d="m 430.92813,1060.293 c -3.29475,4.9517 -9.83545,6.4469 -14.61296,3.3413 -4.77762,-3.1058 -5.97963,-9.6342 -2.68488,-14.586 3.29413,-4.9507 9.83492,-6.446 14.61253,-3.3403 4.77751,3.1057 5.97943,9.6341 2.68531,14.585"
                 inkscape:connector-curvature="0" /><path
                 id="path8392-6-5"
                 style="fill:#000000;fill-opacity:1;fill-rule:evenodd;stroke:none"
                 d="m 977.59496,912.31803 c -3.2946,4.9515 -9.835,6.4471 -14.6127,3.3413 -4.7775,-3.1057 -5.9795,-9.6341 -2.6849,-14.5857 3.2942,-4.9509 9.835,-6.4462 14.6125,-3.3406 4.7777,3.1059 5.9793,9.6342 2.6851,14.585"
                 inkscape:connector-curvature="0" /><path
                 id="path8396-9-7"
                 style="fill:#000000;fill-opacity:1;fill-rule:evenodd;stroke:none"
                 d="m 756.34264,974.93843 c -3.29469,4.9516 -9.83529,6.4469 -14.61282,3.3413 -4.77751,-3.1057 -5.97951,-9.6341 -2.68482,-14.5857 3.29417,-4.9509 9.83496,-6.4462 14.61247,-3.3406 4.77753,3.1057 5.97934,9.6341 2.68517,14.585"
                 inkscape:connector-curvature="0" /><path
                 inkscape:connector-curvature="0"
                 d="m 493.37615,1044.6345 c -3.29475,4.9518 -9.83545,6.447 -14.61307,3.3413 -4.7775,-3.1056 -5.97951,-9.6341 -2.68476,-14.5858 3.29414,-4.9508 9.8349,-6.4461 14.61244,-3.3404 4.77758,3.1056 5.97951,9.6342 2.68539,14.5849"
                 style="fill:#000000;fill-opacity:1;fill-rule:evenodd;stroke:none"
                 id="path8398-8-1" /><path
                 inkscape:connector-curvature="0"
                 d="m 1467.8993,781.22143 c -3.2946,4.9516 -9.8353,6.4469 -14.6128,3.3412 -4.7775,-3.1056 -5.9795,-9.634 -2.6848,-14.5856 3.2942,-4.951 9.8349,-6.4462 14.6124,-3.3405 4.7775,3.1056 5.9794,9.634 2.6852,14.5849"
                 style="fill:#000000;fill-opacity:1;fill-rule:evenodd;stroke:none"
                 id="path8400-0-0" /><path
                 inkscape:connector-curvature="0"
                 d="m 926.95116,927.25253 c -3.2947,4.9518 -9.8356,6.4471 -14.61302,3.3414 -4.77762,-3.1056 -5.97954,-9.6342 -2.68479,-14.5859 3.29414,-4.9507 9.83471,-6.4461 14.61251,-3.3403 4.7773,3.1056 5.9794,9.6341 2.6853,14.5848"
                 style="fill:#000000;fill-opacity:1;fill-rule:evenodd;stroke:none"
                 id="path8408-4-8" /><path
                 inkscape:connector-curvature="0"
                 d="m 525.06744,1034.9764 c -3.29466,4.9516 -9.83534,6.447 -14.61285,3.3413 -4.77747,-3.1056 -5.97943,-9.6341 -2.68473,-14.5857 3.2942,-4.9509 9.83496,-6.4463 14.61246,-3.3406 4.77751,3.1056 5.97935,9.6341 2.68512,14.585"
                 style="fill:#000000;fill-opacity:1;fill-rule:evenodd;stroke:none"
                 id="path8414-1-0" /><path
                 inkscape:connector-curvature="0"
                 d="m 1712.9593,705.33223 c -3.2949,4.9517 -9.8356,6.447 -14.6131,3.3413 -4.7775,-3.1056 -5.9793,-9.6341 -2.6846,-14.5858 3.2941,-4.9506 9.8347,-6.446 14.6123,-3.3404 4.7775,3.1056 5.9794,9.6342 2.6854,14.5849"
                 style="fill:#000000;fill-opacity:1;fill-rule:evenodd;stroke:none"
                 id="path8418-9-5" /><path
                 id="path8420-0-6"
                 style="fill:#000000;fill-opacity:1;fill-rule:evenodd;stroke:none"
                 d="m 1894.7971,663.81623 c -3.2946,4.9517 -9.8352,6.4469 -14.6129,3.3412 -4.7775,-3.1056 -5.9795,-9.6341 -2.6848,-14.5857 3.2943,-4.9508 9.835,-6.4462 14.6126,-3.3406 4.7775,3.1057 5.9794,9.6342 2.6851,14.5851"
                 inkscape:connector-curvature="0" /><path
                 sodipodi:nodetypes="cssssssssc"
                 inkscape:connector-curvature="0"
                 id="path14867-7"
                 d="m 144.49632,1139.042 c 7.05414,30.6549 86.05249,28.7906 205.07984,-1.237 307.0348,-77.4572 904.76534,-234.93097 1362.94174,-366.23617 155.7359,-44.6311 277.0524,-76.0252 361.1656,-103.3356 58.782,-19.0858 98.5644,-24.1136 127.8541,-41.2024 45.9402,-26.8032 58.7313,-53.0196 48.1865,-84.5136 -16.9731,-50.6935 -102.6718,-27.5657 -261.46,18.6325 -132.9829,38.6903 -323.4628,92.6436 -507.7344,141.8108 C 991.93966,833.32593 427.7518,987.35563 308.50131,1022.1969 110.61027,1080.0146 144.49632,1139.042 144.49632,1139.042 z"
                 style="fill:#b7ffff;fill-opacity:0.27058824;stroke:#000096;stroke-width:4.92570114;stroke-linecap:butt;stroke-linejoin:round;stroke-miterlimit:4;stroke-opacity:1;stroke-dasharray:19.70280515, 9.85140256;stroke-dashoffset:0" /><path
                 inkscape:connector-curvature="0"
                 id="path14869-6"
                 d="M 201.15259,1117.5179 2160.2669,570.19113 z"
                 style="fill:none;stroke:#000000;stroke-width:2.7802844px;stroke-linecap:butt;stroke-linejoin:miter;stroke-opacity:1" /><path
                 id="path8316-9-0-6"
                 style="fill:#000000;fill-opacity:1;fill-rule:evenodd;stroke:none"
                 d="m 677.96138,1015.5193 c -3.2947,4.9516 -9.83551,6.4469 -14.6131,3.3412 -4.7775,-3.1056 -5.97929,-9.634 -2.6846,-14.5856 3.29409,-4.95097 9.83469,-6.44627 14.61219,-3.3406 4.7777,3.1057 5.97971,9.6342 2.68551,14.585"
                 inkscape:connector-curvature="0" /><path
                 id="path8316-9-2-3"
                 style="fill:#000000;fill-opacity:1;fill-rule:evenodd;stroke:none"
                 d="m 1581.4799,729.55643 c -3.2947,4.9516 -9.8355,6.4469 -14.6131,3.3412 -4.7775,-3.1056 -5.9793,-9.634 -2.6846,-14.5856 3.2941,-4.951 9.8347,-6.4463 14.6122,-3.3406 4.7777,3.1057 5.9797,9.6342 2.6855,14.585"
                 inkscape:connector-curvature="0" /><path
                 id="path8316-9-9-4"
                 style="fill:#000000;fill-opacity:1;fill-rule:evenodd;stroke:none"
                 d="m 326.09611,1064.7172 c -3.2947,4.9516 -9.8355,6.4469 -14.6131,3.3412 -4.7775,-3.1056 -5.9793,-9.634 -2.6846,-14.5856 3.2941,-4.951 9.8347,-6.4463 14.6122,-3.3406 4.7777,3.1057 5.9797,9.6342 2.6855,14.585"
                 inkscape:connector-curvature="0" /><path
                 id="path8316-9-8-8"
                 style="fill:#000000;fill-opacity:1;fill-rule:evenodd;stroke:none"
                 d="m 1423.4387,818.72763 c -3.2947,4.9516 -9.8355,6.4469 -14.6131,3.3412 -4.7775,-3.1056 -5.9793,-9.634 -2.6846,-14.5856 3.2941,-4.951 9.8347,-6.4463 14.6122,-3.3406 4.7777,3.1057 5.9797,9.6342 2.6855,14.585"
                 inkscape:connector-curvature="0" /><path
                 id="path8316-9-5-3"
                 style="fill:#000000;fill-opacity:1;fill-rule:evenodd;stroke:none"
                 d="m 636.21469,997.07013 c -3.29469,4.95157 -9.83551,6.44687 -14.61309,3.34117 -4.77751,-3.10557 -5.9793,-9.63397 -2.6846,-14.58557 3.29409,-4.951 9.83468,-6.4463 14.61219,-3.3406 4.77769,3.1057 5.9797,9.6342 2.6855,14.585"
                 inkscape:connector-curvature="0" /><path
                 id="path8316-9-81-1"
                 style="fill:#000000;fill-opacity:1;fill-rule:evenodd;stroke:none"
                 d="m 1035.7906,917.12353 c -3.2947,4.9516 -9.8355,6.4469 -14.6131,3.3412 -4.7775,-3.1056 -5.9793,-9.634 -2.6846,-14.5856 3.2941,-4.951 9.8347,-6.4463 14.6122,-3.3406 4.7777,3.1057 5.9797,9.6342 2.6855,14.585"
                 inkscape:connector-curvature="0" /></g></g><g
             id="g17309"
             transform="translate(244.51654,-753.34309)"
             inkscape:export-filename="/home/nicolas/Documents/DBAD/kaust2014/sourcefigs/AD_structure3.png"
             inkscape:export-xdpi="90"
             inkscape:export-ydpi="90"><g
               id="g17263"><path
                 sodipodi:open="true"
                 sodipodi:end="5.722382"
                 sodipodi:start="0"
                 transform="matrix(2.9440666,1.9138089,1.9362261,-2.909981,903.15344,2831.2202)"
                 d="m 100.19802,418.76239 c 0,3.30824 -2.681856,5.9901 -5.990096,5.9901 -3.30824,0 -5.990099,-2.68186 -5.990099,-5.9901 0,-3.30824 2.681859,-5.9901 5.990099,-5.9901 2.060632,0 3.976603,1.05917 5.072584,2.80417"
                 sodipodi:ry="5.990099"
                 sodipodi:rx="5.990099"
                 sodipodi:cy="418.76239"
                 sodipodi:cx="94.207924"
                 id="path11610-0"
                 style="fill:#0000ff"
                 sodipodi:type="arc" /><path
                 sodipodi:type="arc"
                 style="fill:#ff2a2a"
                 id="path11614-1"
                 sodipodi:cx="94.207924"
                 sodipodi:cy="418.76239"
                 sodipodi:rx="5.990099"
                 sodipodi:ry="5.990099"
                 d="m 100.19802,418.76239 c 0,3.30824 -2.681856,5.9901 -5.990096,5.9901 -3.30824,0 -5.990099,-2.68186 -5.990099,-5.9901 0,-3.30824 2.681859,-5.9901 5.990099,-5.9901 2.060632,0 3.976603,1.05917 5.072584,2.80417"
                 transform="matrix(2.9440666,1.9138089,1.9362261,-2.909981,240.00056,3125.5889)"
                 sodipodi:start="0"
                 sodipodi:end="5.722382"
                 sodipodi:open="true" /><path
                 sodipodi:open="true"
                 sodipodi:end="5.722382"
                 sodipodi:start="0"
                 transform="matrix(2.9440666,1.9138089,1.9362261,-2.909981,10.909228,3095.7147)"
                 d="m 100.19802,418.76239 c 0,3.30824 -2.681856,5.9901 -5.990096,5.9901 -3.30824,0 -5.990099,-2.68186 -5.990099,-5.9901 0,-3.30824 2.681859,-5.9901 5.990099,-5.9901 2.060632,0 3.976603,1.05917 5.072584,2.80417"
                 sodipodi:ry="5.990099"
                 sodipodi:rx="5.990099"
                 sodipodi:cy="418.76239"
                 sodipodi:cx="94.207924"
                 id="path11722-9"
                 style="fill:#0000ff"
                 sodipodi:type="arc" /><path
                 inkscape:connector-curvature="0"
                 d="m 1298.5987,2001.1968 c -3.2948,4.9516 -9.8355,6.4469 -14.613,3.3412 -4.7776,-3.1055 -5.9793,-9.6341 -2.6848,-14.5857 3.2942,-4.9508 9.835,-6.4462 14.6125,-3.3406 4.7775,3.1057 5.9794,9.6343 2.6853,14.5851"
                 style="fill:#000000;fill-opacity:1;fill-rule:evenodd;stroke:none"
                 id="path8300-9-8-9" /><path
                 id="path8304-6-5-0"
                 style="fill:#000000;fill-opacity:1;fill-rule:evenodd;stroke:none"
                 d="m 1653.0066,1903.9435 c -3.2946,4.9517 -9.8352,6.447 -14.6128,3.3414 -4.7775,-3.1057 -5.9795,-9.6341 -2.6847,-14.5858 3.294,-4.9507 9.8348,-6.446 14.6124,-3.3405 4.7774,3.1057 5.9793,9.6342 2.6851,14.5849"
                 inkscape:connector-curvature="0" /><path
                 inkscape:connector-curvature="0"
                 d="m 772.11709,2143.7089 c -3.29475,4.9518 -9.83553,6.4471 -14.61304,3.3415 -4.77761,-3.1057 -5.97943,-9.6342 -2.68468,-14.5859 3.29412,-4.9508 9.8348,-6.4462 14.61241,-3.3405 4.77751,3.1056 5.97943,9.6342 2.68531,14.5849"
                 style="fill:#000000;fill-opacity:1;fill-rule:evenodd;stroke:none"
                 id="path8306-7-1-8" /><path
                 id="path8312-9-9-4"
                 style="fill:#000000;fill-opacity:1;fill-rule:evenodd;stroke:none"
                 d="m 1407.1188,1975.8753 c -3.2947,4.9516 -9.8354,6.4468 -14.6129,3.3413 -4.7775,-3.1058 -5.9796,-9.6343 -2.6848,-14.5858 3.2941,-4.951 9.8348,-6.4463 14.6125,-3.3405 4.7775,3.1056 5.9794,9.6341 2.6852,14.585"
                 inkscape:connector-curvature="0" /><path
                 id="path8316-9-26-7"
                 style="fill:#000000;fill-opacity:1;fill-rule:evenodd;stroke:none"
                 d="m 1224.2349,2018.5709 c -3.2947,4.9517 -9.8356,6.447 -14.6131,3.3412 -4.7775,-3.1055 -5.9794,-9.634 -2.6846,-14.5856 3.2941,-4.9509 9.8346,-6.4463 14.6122,-3.3406 4.7777,3.1058 5.9797,9.6342 2.6855,14.585"
                 inkscape:connector-curvature="0" /><path
                 inkscape:connector-curvature="0"
                 d="m 1792.9974,1867.6524 c -3.2949,4.9517 -9.8355,6.447 -14.6133,3.3413 -4.7774,-3.1056 -5.9792,-9.6341 -2.6846,-14.5858 3.2942,-4.9508 9.8349,-6.4461 14.6123,-3.3405 4.7778,3.1057 5.9797,9.6343 2.6856,14.585"
                 style="fill:#000000;fill-opacity:1;fill-rule:evenodd;stroke:none"
                 id="path8318-5-59-0" /><path
                 id="path8322-0-0-3"
                 style="fill:#000000;fill-opacity:1;fill-rule:evenodd;stroke:none"
                 d="m 1518.3209,1946.4259 c -3.2947,4.9516 -9.8355,6.4469 -14.6131,3.3412 -4.7776,-3.1056 -5.9794,-9.6341 -2.6848,-14.5858 3.2942,-4.9509 9.835,-6.4462 14.6125,-3.3405 4.7775,3.1058 5.9795,9.6342 2.6854,14.5851"
                 inkscape:connector-curvature="0" /><path
                 id="path8326-9-4-9"
                 style="fill:#000000;fill-opacity:1;fill-rule:evenodd;stroke:none"
                 d="m 827.60658,2127.3077 c -3.2947,4.9516 -9.8355,6.447 -14.6131,3.3412 -4.7774,-3.1055 -5.9792,-9.6341 -2.6846,-14.5856 3.2942,-4.9508 9.8349,-6.4461 14.6122,-3.3406 4.7777,3.1057 5.9797,9.6341 2.6855,14.585"
                 inkscape:connector-curvature="0" /><path
                 inkscape:connector-curvature="0"
                 d="m 996.81918,2080.2846 c -3.2947,4.9518 -9.8354,6.4471 -14.6129,3.3413 -4.7775,-3.1056 -5.9794,-9.6339 -2.6846,-14.5857 3.2942,-4.9508 9.8346,-6.4462 14.6123,-3.3404 4.7775,3.1055 5.97942,9.6341 2.6852,14.5848"
                 style="fill:#000000;fill-opacity:1;fill-rule:evenodd;stroke:none"
                 id="path8328-1-8-1" /><path
                 inkscape:connector-curvature="0"
                 d="m 932.24938,2095.5053 c -3.2947,4.9517 -9.8354,6.4469 -14.613,3.3413 -4.7775,-3.1057 -5.9794,-9.6341 -2.6847,-14.5858 3.2942,-4.9506 9.8349,-6.4461 14.6125,-3.3405 4.7773,3.1057 5.9794,9.6341 2.6852,14.585"
                 style="fill:#000000;fill-opacity:1;fill-rule:evenodd;stroke:none"
                 id="path8330-0-99-6" /><path
                 id="path8334-5-4-6"
                 style="fill:#000000;fill-opacity:1;fill-rule:evenodd;stroke:none"
                 d="m 1628.8763,1915.8147 c -3.2948,4.9516 -9.8353,6.447 -14.6129,3.3414 -4.7775,-3.1057 -5.9794,-9.6343 -2.6847,-14.5858 3.294,-4.9509 9.8348,-6.446 14.6124,-3.3405 4.7775,3.1057 5.9793,9.634 2.6852,14.5849"
                 inkscape:connector-curvature="0" /><path
                 id="path8340-0-3-5"
                 style="fill:#000000;fill-opacity:1;fill-rule:evenodd;stroke:none"
                 d="m 1434.972,1965.1384 c -3.2948,4.9518 -9.8356,6.4471 -14.6131,3.3414 -4.7775,-3.1057 -5.9794,-9.6343 -2.6846,-14.586 3.2939,-4.9506 9.8348,-6.4459 14.6123,-3.3403 4.7774,3.1056 5.9793,9.6341 2.6854,14.5849"
                 inkscape:connector-curvature="0" /><path
                 inkscape:connector-curvature="0"
                 d="m 1015.0904,2074.3586 c -3.2945,4.9516 -9.8353,6.4471 -14.6128,3.3413 -4.77782,-3.1057 -5.97962,-9.6341 -2.68492,-14.5857 3.29422,-4.9509 9.83502,-6.4463 14.61262,-3.3404 4.7774,3.1056 5.9793,9.634 2.6851,14.5848"
                 style="fill:#000000;fill-opacity:1;fill-rule:evenodd;stroke:none"
                 id="path8342-3-4-2" /><path
                 id="path8350-2-9-9"
                 style="fill:#000000;fill-opacity:1;fill-rule:evenodd;stroke:none"
                 d="m 1369.5944,1990.0914 c -3.2949,4.9517 -9.8356,6.4471 -14.613,3.3414 -4.7775,-3.1056 -5.9794,-9.6341 -2.6846,-14.5858 3.2941,-4.9508 9.8348,-6.446 14.6122,-3.3404 4.7775,3.1057 5.9794,9.634 2.6854,14.5848"
                 inkscape:connector-curvature="0" /><path
                 id="path8366-0-5-0"
                 style="fill:#000000;fill-opacity:1;fill-rule:evenodd;stroke:none"
                 d="m 482.55545,2226.5209 c -3.29466,4.9517 -9.83545,6.447 -14.61306,3.3412 -4.77751,-3.1056 -5.97933,-9.634 -2.68466,-14.5856 3.2942,-4.9509 9.83483,-6.4463 14.6123,-3.3406 4.77762,3.1057 5.97963,9.6341 2.68542,14.585"
                 inkscape:connector-curvature="0" /><path
                 inkscape:connector-curvature="0"
                 d="m 351.31346,2259.2455 c -3.29475,4.9518 -9.83554,6.4471 -14.61315,3.3414 -4.7775,-3.1056 -5.97943,-9.6342 -2.68468,-14.5859 3.29412,-4.9508 9.83491,-6.4461 14.61241,-3.3405 4.77761,3.1058 5.97954,9.6343 2.68542,14.585"
                 style="fill:#000000;fill-opacity:1;fill-rule:evenodd;stroke:none"
                 id="path8368-7-2-9" /><path
                 inkscape:connector-curvature="0"
                 d="m 1676.2544,1895.3152 c -3.2948,4.9517 -9.8354,6.4469 -14.6129,3.3414 -4.7774,-3.1057 -5.9796,-9.6342 -2.6847,-14.586 3.2941,-4.9507 9.8349,-6.446 14.6124,-3.3404 4.7775,3.1056 5.9794,9.6342 2.6852,14.585"
                 style="fill:#000000;fill-opacity:1;fill-rule:evenodd;stroke:none"
                 id="path8370-4-7-0" /><path
                 inkscape:connector-curvature="0"
                 d="m 890.01188,2113.7552 c -3.2946,4.9516 -9.8355,6.4469 -14.613,3.3413 -4.7776,-3.1058 -5.9794,-9.6342 -2.6848,-14.5858 3.2943,-4.9509 9.8349,-6.4462 14.6125,-3.3405 4.7775,3.1057 5.9794,9.6341 2.6853,14.585"
                 style="fill:#000000;fill-opacity:1;fill-rule:evenodd;stroke:none"
                 id="path8372-2-2-3" /><path
                 inkscape:connector-curvature="0"
                 d="m 291.30068,2271.9478 c -3.29468,4.9516 -9.83536,6.447 -14.61296,3.3412 -4.7774,-3.1055 -5.97933,-9.6341 -2.68466,-14.5857 3.2942,-4.9508 9.83499,-6.4461 14.61238,-3.3406 4.77761,3.1058 5.97943,9.6341 2.68524,14.5851"
                 style="fill:#000000;fill-opacity:1;fill-rule:evenodd;stroke:none"
                 id="path8376-0-9-7" /><path
                 id="path8380-4-0-3"
                 style="fill:#000000;fill-opacity:1;fill-rule:evenodd;stroke:none"
                 d="m 321.43534,2266.4961 c -3.29467,4.9517 -9.83537,6.4468 -14.61288,3.3413 -4.7775,-3.1057 -5.97951,-9.6342 -2.68484,-14.5858 3.29422,-4.9508 9.83499,-6.4462 14.61249,-3.3406 4.7775,3.1057 5.97943,9.6342 2.68523,14.5851"
                 inkscape:connector-curvature="0" /><path
                 inkscape:connector-curvature="0"
                 d="m 692.98843,2173.5631 c -3.29461,4.9514 -9.8354,6.4468 -14.61291,3.3412 -4.77769,-3.1058 -5.97951,-9.6343 -2.68493,-14.5857 3.29421,-4.951 9.83483,-6.4463 14.61253,-3.3404 4.7775,3.1056 5.97951,9.634 2.68531,14.5849"
                 style="fill:#000000;fill-opacity:1;fill-rule:evenodd;stroke:none"
                 id="path8382-2-1-8" /><path
                 id="path8384-7-1-6"
                 style="fill:#000000;fill-opacity:1;fill-rule:evenodd;stroke:none"
                 d="m 1718.0247,1874.1892 c -3.2946,4.9516 -9.8354,6.447 -14.613,3.3413 -4.7774,-3.1056 -5.9792,-9.6341 -2.6846,-14.5856 3.2942,-4.9509 9.8348,-6.4464 14.6125,-3.3407 4.7774,3.1056 5.9794,9.6342 2.6851,14.585"
                 inkscape:connector-curvature="0" /><path
                 inkscape:connector-curvature="0"
                 d="m 1758.5836,1877.9814 c -3.2948,4.9516 -9.8354,6.4468 -14.6127,3.3412 -4.7777,-3.1056 -5.9795,-9.6341 -2.6848,-14.5858 3.2941,-4.9508 9.8348,-6.4461 14.6123,-3.3405 4.7776,3.1058 5.9794,9.6342 2.6852,14.5851"
                 style="fill:#000000;fill-opacity:1;fill-rule:evenodd;stroke:none"
                 id="path8386-6-4-0" /><path
                 id="path8388-1-1-4"
                 style="fill:#000000;fill-opacity:1;fill-rule:evenodd;stroke:none"
                 d="m 799.14918,2140.7486 c -3.29463,4.9515 -9.83539,6.4468 -14.61301,3.3411 -4.77761,-3.1057 -5.97932,-9.6341 -2.68471,-14.5856 3.29418,-4.9509 9.83475,-6.4464 14.61236,-3.3406 4.77766,3.1057 5.97956,9.6342 2.68536,14.5851"
                 inkscape:connector-curvature="0" /><path
                 id="path8390-7-63-2"
                 style="fill:#000000;fill-opacity:1;fill-rule:evenodd;stroke:none"
                 d="m 314.63365,2268.7168 c -3.29475,4.9517 -9.83545,6.4469 -14.61296,3.3413 -4.77762,-3.1058 -5.97963,-9.6342 -2.68488,-14.586 3.29413,-4.9507 9.83492,-6.446 14.61253,-3.3403 4.77751,3.1057 5.97943,9.6341 2.68531,14.585"
                 inkscape:connector-curvature="0" /><path
                 id="path8392-6-5-4"
                 style="fill:#000000;fill-opacity:1;fill-rule:evenodd;stroke:none"
                 d="m 861.30048,2120.7418 c -3.2946,4.9515 -9.835,6.4471 -14.6127,3.3413 -4.7775,-3.1057 -5.9795,-9.6341 -2.6849,-14.5857 3.2942,-4.9509 9.835,-6.4462 14.6125,-3.3406 4.7777,3.1059 5.9793,9.6342 2.6851,14.585"
                 inkscape:connector-curvature="0" /><path
                 id="path8396-9-7-0"
                 style="fill:#000000;fill-opacity:1;fill-rule:evenodd;stroke:none"
                 d="m 640.04816,2183.3622 c -3.29469,4.9516 -9.83529,6.4469 -14.61282,3.3413 -4.77751,-3.1057 -5.97951,-9.6341 -2.68482,-14.5857 3.29417,-4.9509 9.83496,-6.4462 14.61247,-3.3406 4.77753,3.1057 5.97934,9.6341 2.68517,14.585"
                 inkscape:connector-curvature="0" /><path
                 inkscape:connector-curvature="0"
                 d="m 377.08167,2253.0583 c -3.29475,4.9518 -9.83545,6.447 -14.61307,3.3413 -4.7775,-3.1056 -5.97951,-9.6341 -2.68476,-14.5858 3.29414,-4.9508 9.8349,-6.4461 14.61244,-3.3404 4.77758,3.1056 5.97951,9.6342 2.68539,14.5849"
                 style="fill:#000000;fill-opacity:1;fill-rule:evenodd;stroke:none"
                 id="path8398-8-1-0" /><path
                 inkscape:connector-curvature="0"
                 d="m 1351.6049,1989.6452 c -3.2946,4.9516 -9.8354,6.4469 -14.6128,3.3412 -4.7775,-3.1056 -5.9795,-9.634 -2.6849,-14.5856 3.2942,-4.951 9.835,-6.4462 14.6125,-3.3405 4.7775,3.1056 5.9794,9.6341 2.6852,14.5849"
                 style="fill:#000000;fill-opacity:1;fill-rule:evenodd;stroke:none"
                 id="path8400-0-0-9" /><path
                 inkscape:connector-curvature="0"
                 d="m 810.65668,2135.6763 c -3.2947,4.9518 -9.8356,6.4471 -14.61302,3.3414 -4.77762,-3.1056 -5.97954,-9.6342 -2.68479,-14.5859 3.29414,-4.9507 9.83471,-6.4461 14.61251,-3.3403 4.7773,3.1056 5.9794,9.6341 2.6853,14.5848"
                 style="fill:#000000;fill-opacity:1;fill-rule:evenodd;stroke:none"
                 id="path8408-4-8-1" /><path
                 inkscape:connector-curvature="0"
                 d="m 408.77296,2243.4002 c -3.29466,4.9516 -9.83534,6.447 -14.61285,3.3413 -4.77747,-3.1056 -5.97943,-9.6341 -2.68473,-14.5857 3.2942,-4.9509 9.83496,-6.4463 14.61246,-3.3406 4.77751,3.1056 5.97935,9.6341 2.68512,14.585"
                 style="fill:#000000;fill-opacity:1;fill-rule:evenodd;stroke:none"
                 id="path8414-1-0-4" /><path
                 inkscape:connector-curvature="0"
                 d="m 1596.6649,1913.756 c -3.2949,4.9518 -9.8356,6.4471 -14.6131,3.3413 -4.7775,-3.1056 -5.9793,-9.6341 -2.6846,-14.5858 3.294,-4.9506 9.8346,-6.446 14.6123,-3.3403 4.7775,3.1055 5.9794,9.6341 2.6854,14.5848"
                 style="fill:#000000;fill-opacity:1;fill-rule:evenodd;stroke:none"
                 id="path8418-9-5-8" /><path
                 id="path8420-0-6-3"
                 style="fill:#000000;fill-opacity:1;fill-rule:evenodd;stroke:none"
                 d="m 1778.5027,1872.24 c -3.2946,4.9517 -9.8352,6.4469 -14.6129,3.3412 -4.7775,-3.1055 -5.9795,-9.6341 -2.6849,-14.5857 3.2944,-4.9508 9.8351,-6.4462 14.6127,-3.3406 4.7775,3.1057 5.9794,9.6342 2.6851,14.5851"
                 inkscape:connector-curvature="0" /><path
                 sodipodi:nodetypes="cssssssssc"
                 inkscape:connector-curvature="0"
                 id="path14867-7-2"
                 d="m 28.201844,2347.4658 c 7.05414,30.6549 86.052486,28.7906 205.079836,-1.237 307.0348,-77.4572 904.76542,-234.931 1362.94182,-366.2362 155.7359,-44.6311 277.0524,-76.0252 361.1656,-103.3356 58.782,-19.0857 98.5644,-24.1136 127.8541,-41.2024 45.9402,-26.8032 58.7312,-53.0196 48.1865,-84.5136 -16.9731,-50.6935 -102.6718,-27.5657 -261.46,18.6326 -132.9829,38.6902 -323.4628,92.6435 -507.7344,141.8107 C 875.64518,2041.7497 311.45732,2195.7794 192.20683,2230.6207 -5.6842056,2288.4384 28.201844,2347.4658 28.201844,2347.4658 z"
                 style="fill:#b7ffff;fill-opacity:0.27058824;stroke:#000096;stroke-width:4.92570114;stroke-linecap:butt;stroke-linejoin:round;stroke-miterlimit:4;stroke-opacity:1;stroke-dasharray:19.70280527, 9.85140262;stroke-dashoffset:0" /><path
                 inkscape:connector-curvature="0"
                 id="path14869-6-2"
                 d="M 101.88986,2319.6195 2061.0042,1772.2927 z"
                 style="fill:none;stroke:#000000;stroke-width:2.7802844px;stroke-linecap:butt;stroke-linejoin:miter;stroke-opacity:1" /><path
                 id="path8316-9-0-6-2"
                 style="fill:#000000;fill-opacity:1;fill-rule:evenodd;stroke:none"
                 d="m 561.6669,2223.9431 c -3.2947,4.9516 -9.83551,6.4469 -14.6131,3.3412 -4.7775,-3.1056 -5.97929,-9.634 -2.6846,-14.5856 3.29409,-4.951 9.83469,-6.4463 14.61219,-3.3406 4.7777,3.1057 5.97971,9.6342 2.68551,14.585"
                 inkscape:connector-curvature="0" /><path
                 id="path8316-9-2-3-3"
                 style="fill:#000000;fill-opacity:1;fill-rule:evenodd;stroke:none"
                 d="m 1465.1855,1937.9802 c -3.2947,4.9516 -9.8356,6.4469 -14.6131,3.3412 -4.7775,-3.1056 -5.9793,-9.634 -2.6846,-14.5856 3.294,-4.951 9.8346,-6.4463 14.6121,-3.3406 4.7777,3.1057 5.9798,9.6343 2.6856,14.585"
                 inkscape:connector-curvature="0" /><path
                 id="path8316-9-9-4-7"
                 style="fill:#000000;fill-opacity:1;fill-rule:evenodd;stroke:none"
                 d="m 209.80163,2273.141 c -3.2947,4.9516 -9.8355,6.4469 -14.6131,3.3412 -4.7775,-3.1056 -5.9793,-9.634 -2.6846,-14.5856 3.2941,-4.951 9.8347,-6.4463 14.6122,-3.3406 4.7777,3.1057 5.9797,9.6342 2.6855,14.585"
                 inkscape:connector-curvature="0" /><path
                 id="path8316-9-8-8-2"
                 style="fill:#000000;fill-opacity:1;fill-rule:evenodd;stroke:none"
                 d="m 1307.1443,2027.1514 c -3.2947,4.9516 -9.8356,6.4469 -14.6131,3.3412 -4.7775,-3.1056 -5.9793,-9.634 -2.6846,-14.5856 3.294,-4.951 9.8346,-6.4463 14.6122,-3.3406 4.7776,3.1057 5.9797,9.6343 2.6855,14.585"
                 inkscape:connector-curvature="0" /><path
                 id="path8316-9-5-3-6"
                 style="fill:#000000;fill-opacity:1;fill-rule:evenodd;stroke:none"
                 d="m 519.92021,2205.4939 c -3.29469,4.9516 -9.83551,6.4469 -14.61309,3.3412 -4.77751,-3.1056 -5.9793,-9.634 -2.6846,-14.5856 3.29409,-4.951 9.83468,-6.4463 14.61219,-3.3406 4.77769,3.1057 5.9797,9.6342 2.6855,14.585"
                 inkscape:connector-curvature="0" /><path
                 id="path8316-9-81-1-3"
                 style="fill:#000000;fill-opacity:1;fill-rule:evenodd;stroke:none"
                 d="m 919.49618,2125.5473 c -3.2948,4.9516 -9.8355,6.4469 -14.6132,3.3412 -4.7774,-3.1056 -5.9793,-9.634 -2.6846,-14.5856 3.2942,-4.951 9.8348,-6.4463 14.6123,-3.3406 4.7777,3.1057 5.9796,9.6342 2.6855,14.585"
                 inkscape:connector-curvature="0" /></g></g></g></g></g></g></svg>