<?xml version="1.0" encoding="UTF-8" standalone="no"?>
<!-- Created with Inkscape (http://www.inkscape.org/) -->

<svg
   xmlns:dc="http://purl.org/dc/elements/1.1/"
   xmlns:cc="http://creativecommons.org/ns#"
   xmlns:rdf="http://www.w3.org/1999/02/22-rdf-syntax-ns#"
   xmlns:svg="http://www.w3.org/2000/svg"
   xmlns="http://www.w3.org/2000/svg"
   xmlns:xlink="http://www.w3.org/1999/xlink"
   xmlns:sodipodi="http://sodipodi.sourceforge.net/DTD/sodipodi-0.dtd"
   xmlns:inkscape="http://www.inkscape.org/namespaces/inkscape"
   id="svg2"
   version="1.1"
   inkscape:version="0.91 r"
   xml:space="preserve"
   width="765"
   height="720"
   viewBox="0 0 765 720"
   sodipodi:docname="application4.svg"><sodipodi:namedview
     pagecolor="#ffffff"
     bordercolor="#666666"
     borderopacity="1"
     objecttolerance="10"
     gridtolerance="10"
     guidetolerance="10"
     inkscape:pageopacity="0"
     inkscape:pageshadow="2"
     inkscape:window-width="1865"
     inkscape:window-height="1056"
     id="namedview4"
     showgrid="false"
     inkscape:zoom="0.92709556"
     inkscape:cx="52.978977"
     inkscape:cy="381.57275"
     inkscape:window-x="55"
     inkscape:window-y="24"
     inkscape:window-maximized="1"
     inkscape:current-layer="svg2" /><metadata
     id="metadata8"><rdf:RDF><cc:Work
         rdf:about=""><dc:format>image/svg+xml</dc:format><dc:type
           rdf:resource="http://purl.org/dc/dcmitype/StillImage" /><dc:title></dc:title></cc:Work></rdf:RDF></metadata><defs
     id="defs6"><linearGradient
       inkscape:collect="always"
       id="linearGradient5820"><stop
         style="stop-color:#00c300;stop-opacity:1;"
         offset="0"
         id="stop5822" /><stop
         style="stop-color:#00c300;stop-opacity:0;"
         offset="1"
         id="stop5824" /></linearGradient><clipPath
       id="clipPath16"
       clipPathUnits="userSpaceOnUse"><path
         style="clip-rule:evenodd"
         inkscape:connector-curvature="0"
         id="path18"
         d="M 0,0 612,0 612,576 0,576 0,0 Z" /></clipPath><clipPath
       id="clipPath274"
       clipPathUnits="userSpaceOnUse"><path
         inkscape:connector-curvature="0"
         id="path276"
         d="m 306,78 0,0 0,420.1 0,0 0,-420.1 z" /></clipPath><linearGradient
       inkscape:collect="always"
       xlink:href="#linearGradient5820"
       id="linearGradient5828"
       x1="162.24495"
       y1="551.67389"
       x2="647.63184"
       y2="72.75885"
       gradientUnits="userSpaceOnUse" /><filter
       inkscape:collect="always"
       style="color-interpolation-filters:sRGB"
       id="filter5992"
       x="-0.036605607"
       width="1.0732112"
       y="-0.035414105"
       height="1.0708282"><feGaussianBlur
         inkscape:collect="always"
         stdDeviation="8.8016817"
         id="feGaussianBlur5994" /></filter></defs><g
     transform="matrix(1.25,0,0,-1.25,0,720)"
     inkscape:label="application4"
     inkscape:groupmode="layer"
     id="g10"><g
       id="g270"><g
         id="g272" /><g
         id="g278"><g
           style="opacity:0.5"
           id="g280"
           clip-path="url(#clipPath274)" /></g></g></g><g
     id="g5207"
     inkscape:export-xdpi="151.2"
     inkscape:export-ydpi="151.2"><g
       transform="matrix(1.25,0,0,-1.25,49.617328,710.29226)"
       id="g5996"><path
         inkscape:connector-curvature="0"
         id="path60"
         style="fill:#000000;fill-opacity:1;fill-rule:evenodd;stroke:none"
         d="m 528.32303,37.309929 -19.1,6.5 -0.1,-12.8 19.2,6.3 z" /><path
         inkscape:connector-curvature="0"
         id="path102"
         style="fill:#000000;fill-opacity:1;fill-rule:evenodd;stroke:none"
         d="m 34.394868,545.11127 -6.4,-19.3 12.9,0 -6.5,19.3 z" /><path
         inkscape:connector-curvature="0"
         id="path4408"
         d="m 34.516399,531.55254 0,-493.5845 481.503761,0"
         style="fill:none;fill-rule:evenodd;stroke:#000000;stroke-width:0.80000001px;stroke-linecap:butt;stroke-linejoin:miter;stroke-opacity:1" /><ellipse
         cx="-307.08777"
         cy="-365.23352"
         rx="41.214882"
         ry="81.580917"
         transform="matrix(0.42570163,-0.90486359,-0.88006941,-0.47484506,0,0)"
         id="path4722"
         style="opacity:0.97800012;fill:none;fill-opacity:1;fill-rule:nonzero;stroke:#009d00;stroke-width:5.0691328;stroke-linecap:square;stroke-linejoin:miter;stroke-miterlimit:4;stroke-dasharray:5.06913266, 5.06913266;stroke-dashoffset:0;stroke-opacity:1" /><path
         inkscape:connector-curvature="0"
         id="path4726"
         d="m 32.790579,374.50293 337.397801,0 0,-336.53489"
         style="fill:none;fill-rule:evenodd;stroke:#000000;stroke-width:0.80000001px;stroke-linecap:butt;stroke-linejoin:miter;stroke-opacity:1" /><text
         xml:space="preserve"
         style="font-style:normal;font-variant:normal;font-weight:normal;font-stretch:normal;font-size:24px;line-height:125%;font-family:'Times New Roman';-inkscape-font-specification:'Times New Roman, Normal';text-align:start;letter-spacing:0px;word-spacing:0px;writing-mode:lr-tb;text-anchor:start;fill:#004f00;fill-opacity:1;stroke:none;stroke-width:1px;stroke-linecap:butt;stroke-linejoin:miter;stroke-opacity:1"
         x="378.81747"
         y="-99.23468"
         id="text5762"
         sodipodi:linespacing="125%"
         transform="scale(1,-1)"><tspan
           sodipodi:role="line"
           id="tspan5764"
           x="378.81747"
           y="-99.23468"
           style="font-size:28px;fill:#004f00;fill-opacity:1">&quot;Extremal</tspan><tspan
           sodipodi:role="line"
           x="378.81747"
           y="-64.23468"
           style="font-size:28px;fill:#004f00;fill-opacity:1"
           id="tspan5778"> region&quot;</tspan></text>
<text
         xml:space="preserve"
         style="font-style:normal;font-variant:normal;font-weight:normal;font-stretch:normal;font-size:30px;line-height:125%;font-family:'Times New Roman';-inkscape-font-specification:'Times New Roman, Normal';text-align:start;letter-spacing:0px;word-spacing:0px;writing-mode:lr-tb;text-anchor:start;fill:#000000;fill-opacity:1;stroke:none;stroke-width:1px;stroke-linecap:butt;stroke-linejoin:miter;stroke-opacity:1"
         x="175.17073"
         y="-440.94702"
         id="text5770"
         sodipodi:linespacing="125%"
         transform="scale(1,-1)"><tspan
           sodipodi:role="line"
           id="tspan5772"
           x="175.17073"
           y="-440.94702">A</tspan></text>
<text
         xml:space="preserve"
         style="font-style:normal;font-variant:normal;font-weight:normal;font-stretch:normal;font-size:30px;line-height:125%;font-family:'Times New Roman';-inkscape-font-specification:'Times New Roman, Normal';text-align:start;letter-spacing:0px;word-spacing:0px;writing-mode:lr-tb;text-anchor:start;fill:#000000;fill-opacity:1;stroke:none;stroke-width:1px;stroke-linecap:butt;stroke-linejoin:miter;stroke-opacity:1"
         x="-103.5492"
         y="-365.87384"
         id="text5774"
         sodipodi:linespacing="125%"
         transform="scale(1,-1)"><tspan
           sodipodi:role="line"
           id="tspan5776"
           x="-103.5492"
           y="-365.87384"
           style="font-size:28px">threshold t</tspan></text>
<path
         style="opacity:0.228;fill:url(#linearGradient5828);fill-opacity:1;fill-rule:nonzero;stroke:none;stroke-width:0;stroke-linecap:butt;stroke-linejoin:miter;stroke-miterlimit:4;stroke-dasharray:none;stroke-dashoffset:0;stroke-opacity:1;filter:url(#filter5992)"
         d="m 463.18481,461.60765 0,-210.33431 -209.79499,0 -209.794987,0 0,-87.90895 0,-87.908953 288.535517,0 288.53553,0 0,298.243263 0,298.24325 -78.74054,0 -78.74053,0 0,-210.3343 z"
         id="path5818"
         inkscape:connector-curvature="0"
         transform="matrix(0.8,0,0,-0.8,10.35492,586.35492)"
         inkscape:transform-center-x="78.740535"
         inkscape:transform-center-y="102.47056" /></g><path
       sodipodi:type="spiral"
       style="fill:none;fill-rule:evenodd;stroke:#000000;stroke-width:2.132617;stroke-linecap:butt;stroke-linejoin:miter;stroke-miterlimit:4;stroke-dasharray:none;stroke-opacity:1"
       id="path4795"
       sodipodi:cx="488.76709"
       sodipodi:cy="186.25635"
       sodipodi:expansion="1"
       sodipodi:revolution="3"
       sodipodi:radius="2.7098472"
       sodipodi:argument="-17.523739"
       sodipodi:t0="0"
       d="m 488.76709,186.25635 c 0.033,0.13181 -0.16142,0.10945 -0.21908,0.0548 -0.15625,-0.14818 -0.0467,-0.39647 0.10954,-0.49293 0.27946,-0.17255 0.63296,-3.1e-4 0.76677,0.27385 0.19638,0.40233 -0.0456,0.87334 -0.43815,1.04062 -0.52325,0.22296 -1.11519,-0.0911 -1.31447,-0.60246 -0.25077,-0.64346 0.1365,-1.35776 0.76677,-1.58832 0.76334,-0.27924 1.60074,0.18176 1.86217,0.93108 0.30807,0.88305 -0.22694,1.84398 -1.09539,2.13601 -1.00267,0.33717 -2.08739,-0.27207 -2.40986,-1.2597 -0.36642,-1.1222 0.31716,-2.33091 1.424,-2.6837 1.24171,-0.39578 2.57454,0.36224 2.95756,1.58831 0.42522,1.36118 -0.4073,2.81822 -1.75262,3.23141" /><g
       transform="translate(211.41294,30.201849)"
       id="g4904"><g
         style="font-style:normal;font-variant:normal;font-weight:normal;font-stretch:normal;letter-spacing:normal;word-spacing:normal;text-anchor:start;fill:none;fill-opacity:1;fill-rule:evenodd;stroke:#000000;stroke-linecap:butt;stroke-linejoin:miter;stroke-miterlimit:10.43299961;stroke-dasharray:none;stroke-dashoffset:0;stroke-opacity:1"
         id="g4906"
         transform="matrix(1.0285714,0,0,-1.0285714,-180,573.75)"
         xml:space="preserve"
         stroke-miterlimit="10.433"
         font-style="normal"
         font-variant="normal"
         font-weight="normal"
         font-stretch="normal"
         font-size-adjust="none"
         letter-spacing="normal"
         word-spacing="normal"><path
           style="fill:#000000;stroke-width:0"
           inkscape:connector-curvature="0"
           d="m 486.8,434.54 0.23,0.36 0.23,0.33 0.22,0.31 0.22,0.29 0.22,0.28 0.22,0.25 0.22,0.24 0.22,0.22 0.21,0.2 0.21,0.19 0.21,0.17 0.2,0.16 0.21,0.14 0.2,0.13 0.21,0.12 0.19,0.11 0.2,0.09 0.2,0.09 0.19,0.07 0.2,0.07 0.19,0.06 0.19,0.05 0.18,0.04 0.19,0.03 0.18,0.03 0.19,0.03 0.36,0.04 0.35,0.02 0.35,0.02 c 0.6,0.05 0.64,0.89 0.64,0.96 0,0.39 -0.25,0.59 -0.64,0.59 -1.3,0 -2.75,-0.16 -4.09,-0.16 -1.64,0 -3.35,0.16 -4.94,0.16 -0.3,0 -0.94,0 -0.94,-0.95 0,-0.55 0.46,-0.6 0.8,-0.6 1.34,-0.09 2.3,-0.59 2.3,-1.64 0,-0.75 -0.75,-1.84 -0.75,-1.89 l -15.3,-24.31 -3.39,26.34 c 0,0.85 1.14,1.5 3.44,1.5 0.7,0 1.25,0 1.25,1 0,0.44 -0.41,0.55 -0.71,0.55 -1.98,0 -4.14,-0.16 -6.17,-0.16 -0.9,0 -1.84,0.05 -2.75,0.05 -0.89,0 -1.84,0.11 -2.69,0.11 -0.34,0 -0.93,0 -0.93,-0.95 0,-0.6 0.43,-0.6 1.23,-0.6 2.8,0 2.84,-0.45 3,-1.68 l 3.92,-30.75 c 0.16,-1 0.36,-1.14 1,-1.14 0.8,0 1,0.25 1.41,0.89 z"
           id="path4908" /></g></g><g
       transform="matrix(0.63894693,0,0,0.63894693,489.21115,602.40069)"
       id="g5006"><g
         style="font-style:normal;font-variant:normal;font-weight:normal;font-stretch:normal;letter-spacing:normal;word-spacing:normal;text-anchor:start;fill:none;fill-opacity:1;fill-rule:evenodd;stroke:#000000;stroke-linecap:butt;stroke-linejoin:miter;stroke-miterlimit:10.43299961;stroke-dasharray:none;stroke-dashoffset:0;stroke-opacity:1"
         word-spacing="normal"
         letter-spacing="normal"
         font-size-adjust="none"
         font-stretch="normal"
         font-weight="normal"
         font-variant="normal"
         font-style="normal"
         stroke-miterlimit="10.433"
         xml:space="preserve"
         transform="matrix(1.0285714,0,0,-1.0285714,-180,573.75)"
         id="g5008"><path
           style="fill:#000000;stroke-width:0"
           inkscape:connector-curvature="0"
           id="path5010"
           d="m 486.8,434.54 0.23,0.36 0.23,0.33 0.22,0.31 0.22,0.29 0.22,0.28 0.22,0.25 0.22,0.24 0.22,0.22 0.21,0.2 0.21,0.19 0.21,0.17 0.2,0.16 0.21,0.14 0.2,0.13 0.21,0.12 0.19,0.11 0.2,0.09 0.2,0.09 0.19,0.07 0.2,0.07 0.19,0.06 0.19,0.05 0.18,0.04 0.19,0.03 0.18,0.03 0.19,0.03 0.36,0.04 0.35,0.02 0.35,0.02 c 0.6,0.05 0.64,0.89 0.64,0.96 0,0.39 -0.25,0.59 -0.64,0.59 -1.3,0 -2.75,-0.16 -4.09,-0.16 -1.64,0 -3.35,0.16 -4.94,0.16 -0.3,0 -0.94,0 -0.94,-0.95 0,-0.55 0.46,-0.6 0.8,-0.6 1.34,-0.09 2.3,-0.59 2.3,-1.64 0,-0.75 -0.75,-1.84 -0.75,-1.89 l -15.3,-24.31 -3.39,26.34 c 0,0.85 1.14,1.5 3.44,1.5 0.7,0 1.25,0 1.25,1 0,0.44 -0.41,0.55 -0.71,0.55 -1.98,0 -4.14,-0.16 -6.17,-0.16 -0.9,0 -1.84,0.05 -2.75,0.05 -0.89,0 -1.84,0.11 -2.69,0.11 -0.34,0 -0.93,0 -0.93,-0.95 0,-0.6 0.43,-0.6 1.23,-0.6 2.8,0 2.84,-0.45 3,-1.68 l 3.92,-30.75 c 0.16,-1 0.36,-1.14 1,-1.14 0.8,0 1,0.25 1.41,0.89 z" /><path
           style="fill:#000000;stroke-width:0"
           inkscape:connector-curvature="0"
           id="path5012"
           d="m 496.23,420.92 0,0.04 0,0.04 0,0.05 0,0.04 0,0.03 0,0.04 0,0.04 0,0.03 -0.01,0.04 0,0.03 0,0.03 0,0.03 0,0.03 -0.01,0.03 0,0.03 -0.01,0.02 0,0.03 0,0.02 -0.01,0.03 0,0.02 -0.02,0.04 -0.01,0.04 -0.02,0.03 -0.02,0.03 -0.02,0.03 -0.02,0.03 -0.03,0.02 -0.03,0.02 -0.04,0.02 -0.03,0.01 -0.04,0.01 -0.05,0.02 -0.02,0 -0.03,0 -0.02,0.01 -0.03,0 -0.02,0.01 -0.03,0 -0.03,0 -0.03,0 -0.04,0 -0.03,0.01 -0.03,0 -0.04,0 -0.04,0 -0.03,0 -0.04,0 -0.04,0 -0.04,0 -0.05,0 -0.04,0 -0.05,0 c -2.23,-2.2 -5.39,-2.23 -6.82,-2.23 l 0,-1.25 c 0.84,0 3.14,0 5.04,0.97 l 0,-17.77 c 0,-1.16 0,-1.61 -3.48,-1.61 l -1.31,0 0,-1.25 c 0.62,0.03 4.9,0.14 6.2,0.14 1.08,0 5.47,-0.11 6.23,-0.14 l 0,1.25 -1.33,0 c -3.48,0 -3.48,0.45 -3.48,1.61 z" /></g></g><g
       transform="matrix(0.63894693,0,0,0.63894693,-148.07967,-44.482042)"
       id="g5118"><g
         style="font-style:normal;font-variant:normal;font-weight:normal;font-stretch:normal;letter-spacing:normal;word-spacing:normal;text-anchor:start;fill:none;fill-opacity:1;fill-rule:evenodd;stroke:#000000;stroke-linecap:butt;stroke-linejoin:miter;stroke-miterlimit:10.43299961;stroke-dasharray:none;stroke-dashoffset:0;stroke-opacity:1"
         id="g5120"
         transform="matrix(1.0285714,0,0,-1.0285714,-180,573.75)"
         xml:space="preserve"
         stroke-miterlimit="10.433"
         font-style="normal"
         font-variant="normal"
         font-weight="normal"
         font-stretch="normal"
         font-size-adjust="none"
         letter-spacing="normal"
         word-spacing="normal"><path
           style="fill:#000000;stroke-width:0"
           inkscape:connector-curvature="0"
           d="m 486.8,434.54 0.23,0.36 0.23,0.33 0.22,0.31 0.22,0.29 0.22,0.28 0.22,0.25 0.22,0.24 0.22,0.22 0.21,0.2 0.21,0.19 0.21,0.17 0.2,0.16 0.21,0.14 0.2,0.13 0.21,0.12 0.19,0.11 0.2,0.09 0.2,0.09 0.19,0.07 0.2,0.07 0.19,0.06 0.19,0.05 0.18,0.04 0.19,0.03 0.18,0.03 0.19,0.03 0.36,0.04 0.35,0.02 0.35,0.02 c 0.6,0.05 0.64,0.89 0.64,0.96 0,0.39 -0.25,0.59 -0.64,0.59 -1.3,0 -2.75,-0.16 -4.09,-0.16 -1.64,0 -3.35,0.16 -4.94,0.16 -0.3,0 -0.94,0 -0.94,-0.95 0,-0.55 0.46,-0.6 0.8,-0.6 1.34,-0.09 2.3,-0.59 2.3,-1.64 0,-0.75 -0.75,-1.84 -0.75,-1.89 l -15.3,-24.31 -3.39,26.34 c 0,0.85 1.14,1.5 3.44,1.5 0.7,0 1.25,0 1.25,1 0,0.44 -0.41,0.55 -0.71,0.55 -1.98,0 -4.14,-0.16 -6.17,-0.16 -0.9,0 -1.84,0.05 -2.75,0.05 -0.89,0 -1.84,0.11 -2.69,0.11 -0.34,0 -0.93,0 -0.93,-0.95 0,-0.6 0.43,-0.6 1.23,-0.6 2.8,0 2.84,-0.45 3,-1.68 l 3.92,-30.75 c 0.16,-1 0.36,-1.14 1,-1.14 0.8,0 1,0.25 1.41,0.89 z"
           id="path5122" /><path
           style="fill:#000000;stroke-width:0"
           inkscape:connector-curvature="0"
           d="m 502.15,405.11 -1.19,0 c -0.09,-0.77 -0.45,-2.83 -0.9,-3.18 -0.27,-0.2 -2.95,-0.2 -3.44,-0.2 l -6.42,0 c 3.66,3.23 4.87,4.2 6.97,5.84 2.58,2.07 4.98,4.22 4.98,7.54 0,4.21 -3.69,6.79 -8.15,6.79 -4.32,0 -7.25,-3.03 -7.25,-6.23 0,-1.78 1.5,-1.96 1.86,-1.96 0.82,0 1.84,0.6 1.84,1.85 0,0.62 -0.25,1.84 -2.06,1.84 1.07,2.47 3.45,3.24 5.09,3.24 3.48,0 5.3,-2.71 5.3,-5.53 0,-3.04 -2.16,-5.44 -3.28,-6.69 l -8.39,-8.3 c -0.36,-0.31 -0.36,-0.39 -0.36,-1.36 l 14.36,0 z"
           id="path5124" /></g></g></g></svg>