<?xml version="1.0" encoding="UTF-8" standalone="no"?>
<!-- Created with Inkscape (http://www.inkscape.org/) -->

<svg
   xmlns:dc="http://purl.org/dc/elements/1.1/"
   xmlns:cc="http://creativecommons.org/ns#"
   xmlns:rdf="http://www.w3.org/1999/02/22-rdf-syntax-ns#"
   xmlns:svg="http://www.w3.org/2000/svg"
   xmlns="http://www.w3.org/2000/svg"
   xmlns:xlink="http://www.w3.org/1999/xlink"
   xmlns:sodipodi="http://sodipodi.sourceforge.net/DTD/sodipodi-0.dtd"
   xmlns:inkscape="http://www.inkscape.org/namespaces/inkscape"
   id="svg4336"
   version="1.1"
   inkscape:version="0.91 r"
   width="431"
   height="403"
   viewBox="0 0 431 403"
   sodipodi:docname="phi.svg">
  <sodipodi:namedview
     pagecolor="#ffffff"
     bordercolor="#666666"
     borderopacity="1"
     objecttolerance="10"
     gridtolerance="10"
     guidetolerance="10"
     inkscape:pageopacity="0"
     inkscape:pageshadow="2"
     inkscape:window-width="1865"
     inkscape:window-height="1056"
     id="namedview4338"
     showgrid="false"
     inkscape:zoom="1.5186104"
     inkscape:cx="146.15847"
     inkscape:cy="191.23252"
     inkscape:window-x="55"
     inkscape:window-y="24"
     inkscape:window-maximized="1"
     inkscape:current-layer="g8656"
     showguides="false" />
  <metadata
     id="metadata4342">
    <rdf:RDF>
      <cc:Work
         rdf:about="">
        <dc:format>image/svg+xml</dc:format>
        <dc:type
           rdf:resource="http://purl.org/dc/dcmitype/StillImage" />
        <dc:title></dc:title>
      </cc:Work>
    </rdf:RDF>
  </metadata>
  <defs
     id="defs4340">
    <linearGradient
       inkscape:collect="always"
       id="linearGradient4277">
      <stop
         style="stop-color:#00ff00;stop-opacity:1"
         offset="0"
         id="stop4279" />
      <stop
         style="stop-color:#008900;stop-opacity:0"
         offset="1"
         id="stop4281" />
    </linearGradient>
    <marker
       inkscape:stockid="Arrow1Mstart"
       orient="auto"
       refY="0"
       refX="0"
       id="Arrow1Mstart"
       style="overflow:visible">
      <path
         inkscape:connector-curvature="0"
         id="path3814"
         d="M 0,0 5,-5 -12.5,0 5,5 0,0 z"
         style="fill-rule:evenodd;stroke:#000000;stroke-width:1pt"
         transform="matrix(0.4,0,0,0.4,4,0)" />
    </marker>
    <marker
       inkscape:stockid="Arrow1Mend"
       orient="auto"
       refY="0"
       refX="0"
       id="Arrow1Mend"
       style="overflow:visible">
      <path
         inkscape:connector-curvature="0"
         id="path3817"
         d="M 0,0 5,-5 -12.5,0 5,5 0,0 z"
         style="fill-rule:evenodd;stroke:#000000;stroke-width:1pt"
         transform="matrix(-0.4,0,0,-0.4,-4,0)" />
    </marker>
    <linearGradient
       inkscape:collect="always"
       xlink:href="#linearGradient4277"
       id="linearGradient4275"
       x1="123.34414"
       y1="286.75833"
       x2="181.61801"
       y2="30.603096"
       gradientUnits="userSpaceOnUse"
       gradientTransform="translate(-207.66987,143.41327)" />
  </defs>
  <g
     transform="translate(207.66987,-143.41327)"
     id="g8656">
    <path
       inkscape:connector-curvature="0"
       id="path4348"
       d="m -147.56457,169.93867 0,338.01092 364.78405,0"
       style="fill:none;fill-rule:evenodd;stroke:#000000;stroke-width:0.89842278px;stroke-linecap:butt;stroke-linejoin:miter;stroke-opacity:1" />
    <path
       inkscape:connector-curvature="0"
       id="path6296"
       d="m -148.27501,400.81906 115.211168,0 0,106.84456"
       style="fill:none;fill-rule:evenodd;stroke:#000000;stroke-width:0.89842278px;stroke-linecap:butt;stroke-linejoin:miter;stroke-opacity:1"
       sodipodi:nodetypes="ccc" />
    <path
       sodipodi:nodetypes="cc"
       inkscape:connector-curvature="0"
       id="path5049"
       d="M -113.46448,400.58355 -51.560877,170.99504"
       style="fill:none;stroke:#240aec;stroke-width:3.20986509;stroke-linecap:butt;stroke-linejoin:miter;stroke-miterlimit:4;stroke-dasharray:none;stroke-opacity:1"
       inkscape:transform-center-x="28.995351"
       inkscape:transform-center-y="6.4896523" />
    <path
       sodipodi:nodetypes="cc"
       inkscape:connector-curvature="0"
       id="path5049-2"
       d="M -57.865154,399.67033 112.5205,202.54516"
       style="fill:none;stroke:#1c11ef;stroke-width:3.20986509;stroke-linecap:butt;stroke-linejoin:miter;stroke-miterlimit:4;stroke-dasharray:none;stroke-opacity:1" />
    <path
       sodipodi:nodetypes="ccc"
       inkscape:connector-curvature="0"
       id="path5069"
       d="m -112.91243,397.86413 -34.3118,107.56712 z"
       style="fill:none;stroke:#0000ff;stroke-width:1.07000005;stroke-linecap:round;stroke-linejoin:miter;stroke-miterlimit:4;stroke-dasharray:2.1400001, 6.42000031;stroke-dashoffset:1.75398266;stroke-opacity:1" />
    <path
       sodipodi:nodetypes="ccc"
       inkscape:connector-curvature="0"
       id="path5069-1"
       d="M -56.535362,399.94873 -147.64819,507.75661 Z"
       style="fill:#0000ff;stroke:#0000ff;stroke-width:1.06995499;stroke-linecap:round;stroke-linejoin:miter;stroke-miterlimit:4;stroke-dasharray:2.13991, 6.41973;stroke-dashoffset:0;stroke-opacity:1" />
    <g
       id="g7825"
       transform="matrix(1.069955,0,0,1.069955,-292.91266,344.65186)"
       style="fill:#0000ff;fill-opacity:1">
      <g
         word-spacing="normal"
         letter-spacing="normal"
         font-size-adjust="none"
         font-stretch="normal"
         font-weight="normal"
         font-variant="normal"
         font-style="normal"
         stroke-miterlimit="10.433"
         xml:space="preserve"
         transform="matrix(0.57571429,0,0,-0.57571429,-100.75,323.25)"
         id="content"
         style="font-style:normal;font-variant:normal;font-weight:normal;font-stretch:normal;letter-spacing:normal;word-spacing:normal;text-anchor:start;fill:#0000ff;fill-opacity:1;fill-rule:evenodd;stroke:#000000;stroke-linecap:butt;stroke-linejoin:miter;stroke-miterlimit:10.43299961;stroke-dasharray:none;stroke-dashoffset:0;stroke-opacity:1"><path
           id="path7828"
           d="m 475.39,412.92 0.72,0.07 0.71,0.09 0.69,0.11 0.67,0.14 0.66,0.15 0.64,0.18 0.63,0.2 0.61,0.21 0.59,0.23 0.58,0.26 0.55,0.26 0.54,0.29 0.51,0.3 0.5,0.31 0.47,0.33 0.45,0.34 0.43,0.36 0.41,0.37 0.38,0.37 0.36,0.4 0.33,0.4 0.31,0.41 0.28,0.42 0.25,0.42 0.23,0.44 0.19,0.44 0.17,0.45 0.14,0.45 0.11,0.46 0.08,0.47 0.05,0.46 0.01,0.47 c 0,5.19 -5.67,9.72 -13.25,10.32 l 0,-1.1 c 6.88,-0.79 8.29,-5.37 8.29,-9.17 0,-2.98 -0.75,-8.31 -8.29,-9.2 l 0,18.37 0,1.1 0,2.79 c 0,1.69 0,2.39 4.74,2.39 l 1.64,0 0,1.55 c -1.78,-0.16 -6.38,-0.16 -8.41,-0.16 -2.04,0 -6.68,0 -8.48,0.16 l 0,-1.55 1.66,0 c 4.73,0 4.73,-0.65 4.73,-2.39 l 0,-2.79 0,-1.14 0,-18.29 c -7.08,0.94 -7.98,6.04 -7.98,9.11 0,2.6 0.5,8.18 7.98,9.18 l 0,1.14 c -7.63,-0.74 -12.95,-5.33 -12.95,-10.27 0,-5.12 5.51,-9.56 12.95,-10.31 l 0,-2.78 c 0,-1.71 0,-2.39 -4.73,-2.39 l -1.66,0 0,-1.55 c 1.8,0.16 6.39,0.16 8.42,0.16 2.05,0 6.69,0 8.47,-0.16 l 0,1.55 -1.64,0 c -4.74,0 -4.74,0.64 -4.74,2.39 z"
           inkscape:connector-curvature="0"
           style="fill:#0000ff;fill-opacity:1;stroke-width:0" /></g>    </g>
    <path
       sodipodi:nodetypes="ccc"
       inkscape:connector-curvature="0"
       id="path4276"
       d="m -166.84308,264.57667 269.98367,-0.6585 0.6585,242.98529"
       style="fill:none;fill-rule:evenodd;stroke:#000000;stroke-width:1px;stroke-linecap:butt;stroke-linejoin:miter;stroke-opacity:1" />
    <path
       inkscape:connector-curvature="0"
       id="path4654"
       d="m -146.75432,217.69669 0,-45.7711 49.94029,0 49.94029,0 -13.59567,45.6009 -13.59567,45.6009 -36.34462,0.1702 -36.34462,0.1702 0,-45.7711 z m 7.86054,42.96134 c 1.12591,-2.90299 -2.57056,-5.71738 -4.93355,-3.75628 -1.15537,0.95887 -1.24268,3.36632 -0.1613,4.4477 1.38114,1.38114 4.45269,0.9643 5.09485,-0.69142 z m 39.55122,-6.42035 c 1.59661,-1.5966 1.66878,-2.84663 0.24647,-4.26894 -2.84251,-2.84251 -7.24096,1.26972 -4.54474,4.24901 1.52392,1.6839 2.62918,1.68903 4.29827,0.0199 z m -9.00526,-27.49223 c 1.03933,-3.56438 2.63224,-4.18259 2.96926,-1.15237 0.38911,3.49849 3.51288,5.53922 5.25879,3.43553 1.26889,-1.52892 2.09086,-4.34762 1.39351,-4.77861 -0.3577,-0.22107 -0.96801,0.50925 -1.35625,1.62293 -0.90618,2.59947 -2.65575,2.77053 -2.18895,0.21402 0.36184,-1.9817 -0.0811,-2.90677 -1.85524,-3.87443 -1.05587,-0.57591 -0.98042,-0.80839 0.82312,-2.53629 1.44606,-1.38542 1.98553,-1.61956 1.98553,-0.86177 0,0.57227 0.39728,1.19294 0.88284,1.37927 1.42052,0.5451 2.54265,-0.55032 2.30264,-2.24784 -0.3457,-2.44496 -2.83973,-2.39928 -5.96116,0.10917 -2.0489,1.64654 -2.55349,1.84256 -2.25998,0.87795 0.20783,-0.68304 0.69594,-2.72351 1.08468,-4.53438 0.38874,-1.81086 0.87024,-3.83049 1.06999,-4.48806 0.31289,-1.03003 0.0202,-1.16681 -2.11336,-0.98775 -2.37065,0.19895 -4.13349,1.85408 -1.97474,1.85408 0.57345,0 1.03576,0.0741 1.02736,0.16462 -0.008,0.0905 -1.02726,4.14876 -2.26415,9.01826 -1.23689,4.8695 -2.1015,9.09211 -1.92137,9.38358 0.87964,1.42329 2.26335,0.26274 3.09748,-2.59791 z m 40.9527,-12.06466 c 0.53547,-2.43799 -0.13001,-3.34795 -1.28914,-1.76274 -0.46304,0.63323 -1.5499,1.15133 -2.41524,1.15133 -1.44857,0 -1.35143,-0.20286 1.22496,-2.55791 3.15908,-2.88768 3.62264,-5.17823 1.48133,-7.31954 -1.76686,-1.76686 -5.49733,-1.74613 -7.28395,0.0405 -1.63492,1.63492 -1.42907,3.58125 0.37876,3.58125 0.95355,0 1.30797,-0.44276 1.30797,-1.63398 0,-1.73394 1.34749,-2.39031 2.88092,-1.40332 1.92395,1.23835 1.00873,4.04158 -2.46936,7.56343 -1.85614,1.87948 -3.3748,3.63017 -3.3748,3.89041 0,0.26024 2.05073,0.47317 4.55716,0.47317 4.55166,0 4.55769,-0.002 5.00139,-2.02258 z m -13.84223,-6.40813 c 2.49321,-1.73804 3.85919,-4.08073 2.37939,-4.08073 -0.37613,0 -1.69635,0.88897 -2.93383,1.97549 -2.73096,2.39782 -3.9463,2.46989 -6.057,0.35918 -3.6203,-3.62029 -0.42385,-13.84572 4.73271,-15.13993 2.36461,-0.59348 3.01247,0.27161 2.07111,2.76554 -1.49637,3.96435 1.29462,3.51528 3.10508,-0.4996 1.59261,-3.53179 1.0203,-4.60688 -2.45022,-4.60273 -6.57012,0.008 -12.36748,6.71856 -12.36748,14.31589 0,7.03987 5.25168,9.27675 11.52024,4.90689 z m -53.23061,-0.6396 c 0.5201,-2.07225 -0.4403,-3.70261 -2.34778,-3.98555 -3.15002,-0.46725 -4.63178,3.52546 -1.99402,5.37302 1.83543,1.28559 3.83096,0.64789 4.3418,-1.38747 z m 38.74714,-5.41662 c 0,-0.81747 -1.46651,-1.01966 -8.50703,-1.17287 -8.21219,-0.17871 -10.26948,0.21803 -9.29625,1.79275 0.30652,0.49596 3.27233,0.67506 9.12865,0.55125 7.19028,-0.152 8.67463,-0.3524 8.67463,-1.17113 z m 27.38934,-4.64251 c 0.71069,-0.38035 1.1177,-0.9738 0.9045,-1.31878 -0.24362,-0.39417 -0.84444,-0.38278 -1.61699,0.0307 -1.61083,0.86209 -3.30022,0.17534 -3.30022,-1.34158 0,-0.87796 0.5806,-1.2608 2.14011,-1.41117 2.68543,-0.25892 2.78231,-1.38138 0.16463,-1.9073 -1.98531,-0.39886 -1.4881,-0.94567 1.26242,-1.38835 2.16333,-0.34817 2.02591,-1.84942 -0.16928,-1.84942 -2.78962,0 -6.03187,2.8631 -6.03187,5.32651 0,3.52081 3.49139,5.54808 6.6467,3.85941 z m -63.69336,-3.994 c 1.35695,-1.93732 0.43959,-4.14516 -1.83502,-4.41638 -2.17753,-0.25965 -3.67551,0.87952 -3.67551,2.79512 0,3.05088 3.73873,4.15086 5.51053,1.62126 z m 24.1308,-7.86817 c 0.94361,-4.44653 2.72963,-7.2012 4.66896,-7.2012 1.8424,0 2.0733,1.21736 0.93973,4.95445 -1.28452,4.23475 -1.26516,6.03075 0.0731,6.77966 1.64839,0.92249 3.47563,0.15509 4.54232,-1.90766 1.86643,-3.60928 0.7525,-4.57348 -1.2676,-1.0972 -1.68285,2.89592 -2.09379,1.29037 -0.72472,-2.83151 0.6095,-1.83503 0.92073,-4.0616 0.694,-4.96495 -0.57813,-2.30347 -3.25556,-3.20988 -5.77256,-1.95424 -1.73295,0.86451 -2.13173,0.86407 -3.45631,-0.004 -1.34726,-0.88276 -1.63574,-0.86405 -2.87827,0.18672 -1.59985,1.35294 -2.65764,4.78954 -1.47422,4.78954 0.42027,0 1.07403,-0.88897 1.4528,-1.97549 0.37876,-1.08652 0.95599,-1.97549 1.28273,-1.97549 0.78889,0 0.76743,0.197 -0.64561,5.92647 -0.82962,3.36386 -1.00829,5.20379 -0.56029,5.76997 1.10367,1.39482 2.2152,-0.2036 3.12595,-4.49524 z"
       style="opacity:1;fill:#d00000;fill-opacity:0;fill-rule:nonzero;stroke:none;stroke-width:0.19754903;stroke-linecap:butt;stroke-linejoin:miter;stroke-miterlimit:4;stroke-dasharray:none;stroke-dashoffset:0;stroke-opacity:1" />
    <path
       inkscape:connector-curvature="0"
       id="path4656"
       d="m -146.75432,217.69669 0,-45.7711 49.94029,0 49.94029,0 -13.59567,45.6009 -13.59567,45.6009 -36.34462,0.1702 -36.34462,0.1702 0,-45.7711 z m 7.86054,42.96134 c 1.12591,-2.90299 -2.57056,-5.71738 -4.93355,-3.75628 -1.15537,0.95887 -1.24268,3.36632 -0.1613,4.4477 1.38114,1.38114 4.45269,0.9643 5.09485,-0.69142 z m 39.55122,-6.42035 c 1.59661,-1.5966 1.66878,-2.84663 0.24647,-4.26894 -2.84251,-2.84251 -7.24096,1.26972 -4.54474,4.24901 1.52392,1.6839 2.62918,1.68903 4.29827,0.0199 z m -9.00526,-27.49223 c 1.03933,-3.56438 2.63224,-4.18259 2.96926,-1.15237 0.38911,3.49849 3.51288,5.53922 5.25879,3.43553 1.26889,-1.52892 2.09086,-4.34762 1.39351,-4.77861 -0.3577,-0.22107 -0.96801,0.50925 -1.35625,1.62293 -0.90618,2.59947 -2.65575,2.77053 -2.18895,0.21402 0.36184,-1.9817 -0.0811,-2.90677 -1.85524,-3.87443 -1.05587,-0.57591 -0.98042,-0.80839 0.82312,-2.53629 1.44606,-1.38542 1.98553,-1.61956 1.98553,-0.86177 0,0.57227 0.39728,1.19294 0.88284,1.37927 1.42052,0.5451 2.54265,-0.55032 2.30264,-2.24784 -0.3457,-2.44496 -2.83973,-2.39928 -5.96116,0.10917 -2.0489,1.64654 -2.55349,1.84256 -2.25998,0.87795 0.20783,-0.68304 0.69594,-2.72351 1.08468,-4.53438 0.38874,-1.81086 0.87024,-3.83049 1.06999,-4.48806 0.31289,-1.03003 0.0202,-1.16681 -2.11336,-0.98775 -2.37065,0.19895 -4.13349,1.85408 -1.97474,1.85408 0.57345,0 1.03576,0.0741 1.02736,0.16462 -0.008,0.0905 -1.02726,4.14876 -2.26415,9.01826 -1.23689,4.8695 -2.1015,9.09211 -1.92137,9.38358 0.87964,1.42329 2.26335,0.26274 3.09748,-2.59791 z m 40.9527,-12.06466 c 0.53547,-2.43799 -0.13001,-3.34795 -1.28914,-1.76274 -0.46304,0.63323 -1.5499,1.15133 -2.41524,1.15133 -1.44857,0 -1.35143,-0.20286 1.22496,-2.55791 3.15908,-2.88768 3.62264,-5.17823 1.48133,-7.31954 -1.76686,-1.76686 -5.49733,-1.74613 -7.28395,0.0405 -1.63492,1.63492 -1.42907,3.58125 0.37876,3.58125 0.95355,0 1.30797,-0.44276 1.30797,-1.63398 0,-1.73394 1.34749,-2.39031 2.88092,-1.40332 1.92395,1.23835 1.00873,4.04158 -2.46936,7.56343 -1.85614,1.87948 -3.3748,3.63017 -3.3748,3.89041 0,0.26024 2.05073,0.47317 4.55716,0.47317 4.55166,0 4.55769,-0.002 5.00139,-2.02258 z m -13.84223,-6.40813 c 2.49321,-1.73804 3.85919,-4.08073 2.37939,-4.08073 -0.37613,0 -1.69635,0.88897 -2.93383,1.97549 -2.73096,2.39782 -3.9463,2.46989 -6.057,0.35918 -3.6203,-3.62029 -0.42385,-13.84572 4.73271,-15.13993 2.36461,-0.59348 3.01247,0.27161 2.07111,2.76554 -1.49637,3.96435 1.29462,3.51528 3.10508,-0.4996 1.59261,-3.53179 1.0203,-4.60688 -2.45022,-4.60273 -6.57012,0.008 -12.36748,6.71856 -12.36748,14.31589 0,7.03987 5.25168,9.27675 11.52024,4.90689 z m -53.23061,-0.6396 c 0.5201,-2.07225 -0.4403,-3.70261 -2.34778,-3.98555 -3.15002,-0.46725 -4.63178,3.52546 -1.99402,5.37302 1.83543,1.28559 3.83096,0.64789 4.3418,-1.38747 z m 38.74714,-5.41662 c 0,-0.81747 -1.46651,-1.01966 -8.50703,-1.17287 -8.21219,-0.17871 -10.26948,0.21803 -9.29625,1.79275 0.30652,0.49596 3.27233,0.67506 9.12865,0.55125 7.19028,-0.152 8.67463,-0.3524 8.67463,-1.17113 z m 27.38934,-4.64251 c 0.71069,-0.38035 1.1177,-0.9738 0.9045,-1.31878 -0.24362,-0.39417 -0.84444,-0.38278 -1.61699,0.0307 -1.61083,0.86209 -3.30022,0.17534 -3.30022,-1.34158 0,-0.87796 0.5806,-1.2608 2.14011,-1.41117 2.68543,-0.25892 2.78231,-1.38138 0.16463,-1.9073 -1.98531,-0.39886 -1.4881,-0.94567 1.26242,-1.38835 2.16333,-0.34817 2.02591,-1.84942 -0.16928,-1.84942 -2.78962,0 -6.03187,2.8631 -6.03187,5.32651 0,3.52081 3.49139,5.54808 6.6467,3.85941 z m -63.69336,-3.994 c 1.35695,-1.93732 0.43959,-4.14516 -1.83502,-4.41638 -2.17753,-0.25965 -3.67551,0.87952 -3.67551,2.79512 0,3.05088 3.73873,4.15086 5.51053,1.62126 z m 24.1308,-7.86817 c 0.94361,-4.44653 2.72963,-7.2012 4.66896,-7.2012 1.8424,0 2.0733,1.21736 0.93973,4.95445 -1.28452,4.23475 -1.26516,6.03075 0.0731,6.77966 1.64839,0.92249 3.47563,0.15509 4.54232,-1.90766 1.86643,-3.60928 0.7525,-4.57348 -1.2676,-1.0972 -1.68285,2.89592 -2.09379,1.29037 -0.72472,-2.83151 0.6095,-1.83503 0.92073,-4.0616 0.694,-4.96495 -0.57813,-2.30347 -3.25556,-3.20988 -5.77256,-1.95424 -1.73295,0.86451 -2.13173,0.86407 -3.45631,-0.004 -1.34726,-0.88276 -1.63574,-0.86405 -2.87827,0.18672 -1.59985,1.35294 -2.65764,4.78954 -1.47422,4.78954 0.42027,0 1.07403,-0.88897 1.4528,-1.97549 0.37876,-1.08652 0.95599,-1.97549 1.28273,-1.97549 0.78889,0 0.76743,0.197 -0.64561,5.92647 -0.82962,3.36386 -1.00829,5.20379 -0.56029,5.76997 1.10367,1.39482 2.2152,-0.2036 3.12595,-4.49524 z"
       style="opacity:1;fill:#d00000;fill-opacity:0;fill-rule:nonzero;stroke:none;stroke-width:0.30000001;stroke-linecap:butt;stroke-linejoin:miter;stroke-miterlimit:4;stroke-dasharray:none;stroke-dashoffset:0;stroke-opacity:1" />
    <path
       inkscape:connector-curvature="0"
       id="path4658"
       d="m -146.75432,217.69669 0,-45.7711 49.94029,0 49.94029,0 -13.59567,45.6009 -13.59567,45.6009 -36.34462,0.1702 -36.34462,0.1702 0,-45.7711 z m 7.86054,42.96134 c 1.12591,-2.90299 -2.57056,-5.71738 -4.93355,-3.75628 -1.15537,0.95887 -1.24268,3.36632 -0.1613,4.4477 1.38114,1.38114 4.45269,0.9643 5.09485,-0.69142 z m 39.55122,-6.42035 c 1.59661,-1.5966 1.66878,-2.84663 0.24647,-4.26894 -2.84251,-2.84251 -7.24096,1.26972 -4.54474,4.24901 1.52392,1.6839 2.62918,1.68903 4.29827,0.0199 z m -9.00526,-27.49223 c 1.03933,-3.56438 2.63224,-4.18259 2.96926,-1.15237 0.38911,3.49849 3.51288,5.53922 5.25879,3.43553 1.26889,-1.52892 2.09086,-4.34762 1.39351,-4.77861 -0.3577,-0.22107 -0.96801,0.50925 -1.35625,1.62293 -0.90618,2.59947 -2.65575,2.77053 -2.18895,0.21402 0.36184,-1.9817 -0.0811,-2.90677 -1.85524,-3.87443 -1.05587,-0.57591 -0.98042,-0.80839 0.82312,-2.53629 1.44606,-1.38542 1.98553,-1.61956 1.98553,-0.86177 0,0.57227 0.39728,1.19294 0.88284,1.37927 1.42052,0.5451 2.54265,-0.55032 2.30264,-2.24784 -0.3457,-2.44496 -2.83973,-2.39928 -5.96116,0.10917 -2.0489,1.64654 -2.55349,1.84256 -2.25998,0.87795 0.20783,-0.68304 0.69594,-2.72351 1.08468,-4.53438 0.38874,-1.81086 0.87024,-3.83049 1.06999,-4.48806 0.31289,-1.03003 0.0202,-1.16681 -2.11336,-0.98775 -2.37065,0.19895 -4.13349,1.85408 -1.97474,1.85408 0.57345,0 1.03576,0.0741 1.02736,0.16462 -0.008,0.0905 -1.02726,4.14876 -2.26415,9.01826 -1.23689,4.8695 -2.1015,9.09211 -1.92137,9.38358 0.87964,1.42329 2.26335,0.26274 3.09748,-2.59791 z m 40.9527,-12.06466 c 0.53547,-2.43799 -0.13001,-3.34795 -1.28914,-1.76274 -0.46304,0.63323 -1.5499,1.15133 -2.41524,1.15133 -1.44857,0 -1.35143,-0.20286 1.22496,-2.55791 3.15908,-2.88768 3.62264,-5.17823 1.48133,-7.31954 -1.76686,-1.76686 -5.49733,-1.74613 -7.28395,0.0405 -1.63492,1.63492 -1.42907,3.58125 0.37876,3.58125 0.95355,0 1.30797,-0.44276 1.30797,-1.63398 0,-1.73394 1.34749,-2.39031 2.88092,-1.40332 1.92395,1.23835 1.00873,4.04158 -2.46936,7.56343 -1.85614,1.87948 -3.3748,3.63017 -3.3748,3.89041 0,0.26024 2.05073,0.47317 4.55716,0.47317 4.55166,0 4.55769,-0.002 5.00139,-2.02258 z m -13.84223,-6.40813 c 2.49321,-1.73804 3.85919,-4.08073 2.37939,-4.08073 -0.37613,0 -1.69635,0.88897 -2.93383,1.97549 -2.73096,2.39782 -3.9463,2.46989 -6.057,0.35918 -3.6203,-3.62029 -0.42385,-13.84572 4.73271,-15.13993 2.36461,-0.59348 3.01247,0.27161 2.07111,2.76554 -1.49637,3.96435 1.29462,3.51528 3.10508,-0.4996 1.59261,-3.53179 1.0203,-4.60688 -2.45022,-4.60273 -6.57012,0.008 -12.36748,6.71856 -12.36748,14.31589 0,7.03987 5.25168,9.27675 11.52024,4.90689 z m -53.23061,-0.6396 c 0.5201,-2.07225 -0.4403,-3.70261 -2.34778,-3.98555 -3.15002,-0.46725 -4.63178,3.52546 -1.99402,5.37302 1.83543,1.28559 3.83096,0.64789 4.3418,-1.38747 z m 38.74714,-5.41662 c 0,-0.81747 -1.46651,-1.01966 -8.50703,-1.17287 -8.21219,-0.17871 -10.26948,0.21803 -9.29625,1.79275 0.30652,0.49596 3.27233,0.67506 9.12865,0.55125 7.19028,-0.152 8.67463,-0.3524 8.67463,-1.17113 z m 27.38934,-4.64251 c 0.71069,-0.38035 1.1177,-0.9738 0.9045,-1.31878 -0.24362,-0.39417 -0.84444,-0.38278 -1.61699,0.0307 -1.61083,0.86209 -3.30022,0.17534 -3.30022,-1.34158 0,-0.87796 0.5806,-1.2608 2.14011,-1.41117 2.68543,-0.25892 2.78231,-1.38138 0.16463,-1.9073 -1.98531,-0.39886 -1.4881,-0.94567 1.26242,-1.38835 2.16333,-0.34817 2.02591,-1.84942 -0.16928,-1.84942 -2.78962,0 -6.03187,2.8631 -6.03187,5.32651 0,3.52081 3.49139,5.54808 6.6467,3.85941 z m -63.69336,-3.994 c 1.35695,-1.93732 0.43959,-4.14516 -1.83502,-4.41638 -2.17753,-0.25965 -3.67551,0.87952 -3.67551,2.79512 0,3.05088 3.73873,4.15086 5.51053,1.62126 z m 24.1308,-7.86817 c 0.94361,-4.44653 2.72963,-7.2012 4.66896,-7.2012 1.8424,0 2.0733,1.21736 0.93973,4.95445 -1.28452,4.23475 -1.26516,6.03075 0.0731,6.77966 1.64839,0.92249 3.47563,0.15509 4.54232,-1.90766 1.86643,-3.60928 0.7525,-4.57348 -1.2676,-1.0972 -1.68285,2.89592 -2.09379,1.29037 -0.72472,-2.83151 0.6095,-1.83503 0.92073,-4.0616 0.694,-4.96495 -0.57813,-2.30347 -3.25556,-3.20988 -5.77256,-1.95424 -1.73295,0.86451 -2.13173,0.86407 -3.45631,-0.004 -1.34726,-0.88276 -1.63574,-0.86405 -2.87827,0.18672 -1.59985,1.35294 -2.65764,4.78954 -1.47422,4.78954 0.42027,0 1.07403,-0.88897 1.4528,-1.97549 0.37876,-1.08652 0.95599,-1.97549 1.28273,-1.97549 0.78889,0 0.76743,0.197 -0.64561,5.92647 -0.82962,3.36386 -1.00829,5.20379 -0.56029,5.76997 1.10367,1.39482 2.2152,-0.2036 3.12595,-4.49524 z"
       style="opacity:1;fill:#d00000;fill-opacity:0;fill-rule:nonzero;stroke:none;stroke-width:0.30000001;stroke-linecap:butt;stroke-linejoin:miter;stroke-miterlimit:4;stroke-dasharray:none;stroke-dashoffset:0;stroke-opacity:1" />
    <path
       inkscape:connector-curvature="0"
       id="path4660"
       d="m -146.75432,217.69669 0,-45.7711 49.94029,0 49.94029,0 -13.59567,45.6009 -13.59567,45.6009 -36.34462,0.1702 -36.34462,0.1702 0,-45.7711 z m 7.86054,42.96134 c 1.12591,-2.90299 -2.57056,-5.71738 -4.93355,-3.75628 -1.15537,0.95887 -1.24268,3.36632 -0.1613,4.4477 1.38114,1.38114 4.45269,0.9643 5.09485,-0.69142 z m 39.55122,-6.42035 c 1.59661,-1.5966 1.66878,-2.84663 0.24647,-4.26894 -2.84251,-2.84251 -7.24096,1.26972 -4.54474,4.24901 1.52392,1.6839 2.62918,1.68903 4.29827,0.0199 z m -9.00526,-27.49223 c 1.03933,-3.56438 2.63224,-4.18259 2.96926,-1.15237 0.38911,3.49849 3.51288,5.53922 5.25879,3.43553 1.26889,-1.52892 2.09086,-4.34762 1.39351,-4.77861 -0.3577,-0.22107 -0.96801,0.50925 -1.35625,1.62293 -0.90618,2.59947 -2.65575,2.77053 -2.18895,0.21402 0.36184,-1.9817 -0.0811,-2.90677 -1.85524,-3.87443 -1.05587,-0.57591 -0.98042,-0.80839 0.82312,-2.53629 1.44606,-1.38542 1.98553,-1.61956 1.98553,-0.86177 0,0.57227 0.39728,1.19294 0.88284,1.37927 1.42052,0.5451 2.54265,-0.55032 2.30264,-2.24784 -0.3457,-2.44496 -2.83973,-2.39928 -5.96116,0.10917 -2.0489,1.64654 -2.55349,1.84256 -2.25998,0.87795 0.20783,-0.68304 0.69594,-2.72351 1.08468,-4.53438 0.38874,-1.81086 0.87024,-3.83049 1.06999,-4.48806 0.31289,-1.03003 0.0202,-1.16681 -2.11336,-0.98775 -2.37065,0.19895 -4.13349,1.85408 -1.97474,1.85408 0.57345,0 1.03576,0.0741 1.02736,0.16462 -0.008,0.0905 -1.02726,4.14876 -2.26415,9.01826 -1.23689,4.8695 -2.1015,9.09211 -1.92137,9.38358 0.87964,1.42329 2.26335,0.26274 3.09748,-2.59791 z m 40.9527,-12.06466 c 0.53547,-2.43799 -0.13001,-3.34795 -1.28914,-1.76274 -0.46304,0.63323 -1.5499,1.15133 -2.41524,1.15133 -1.44857,0 -1.35143,-0.20286 1.22496,-2.55791 3.15908,-2.88768 3.62264,-5.17823 1.48133,-7.31954 -1.76686,-1.76686 -5.49733,-1.74613 -7.28395,0.0405 -1.63492,1.63492 -1.42907,3.58125 0.37876,3.58125 0.95355,0 1.30797,-0.44276 1.30797,-1.63398 0,-1.73394 1.34749,-2.39031 2.88092,-1.40332 1.92395,1.23835 1.00873,4.04158 -2.46936,7.56343 -1.85614,1.87948 -3.3748,3.63017 -3.3748,3.89041 0,0.26024 2.05073,0.47317 4.55716,0.47317 4.55166,0 4.55769,-0.002 5.00139,-2.02258 z m -13.84223,-6.40813 c 2.49321,-1.73804 3.85919,-4.08073 2.37939,-4.08073 -0.37613,0 -1.69635,0.88897 -2.93383,1.97549 -2.73096,2.39782 -3.9463,2.46989 -6.057,0.35918 -3.6203,-3.62029 -0.42385,-13.84572 4.73271,-15.13993 2.36461,-0.59348 3.01247,0.27161 2.07111,2.76554 -1.49637,3.96435 1.29462,3.51528 3.10508,-0.4996 1.59261,-3.53179 1.0203,-4.60688 -2.45022,-4.60273 -6.57012,0.008 -12.36748,6.71856 -12.36748,14.31589 0,7.03987 5.25168,9.27675 11.52024,4.90689 z m -53.23061,-0.6396 c 0.5201,-2.07225 -0.4403,-3.70261 -2.34778,-3.98555 -3.15002,-0.46725 -4.63178,3.52546 -1.99402,5.37302 1.83543,1.28559 3.83096,0.64789 4.3418,-1.38747 z m 38.74714,-5.41662 c 0,-0.81747 -1.46651,-1.01966 -8.50703,-1.17287 -8.21219,-0.17871 -10.26948,0.21803 -9.29625,1.79275 0.30652,0.49596 3.27233,0.67506 9.12865,0.55125 7.19028,-0.152 8.67463,-0.3524 8.67463,-1.17113 z m 27.38934,-4.64251 c 0.71069,-0.38035 1.1177,-0.9738 0.9045,-1.31878 -0.24362,-0.39417 -0.84444,-0.38278 -1.61699,0.0307 -1.61083,0.86209 -3.30022,0.17534 -3.30022,-1.34158 0,-0.87796 0.5806,-1.2608 2.14011,-1.41117 2.68543,-0.25892 2.78231,-1.38138 0.16463,-1.9073 -1.98531,-0.39886 -1.4881,-0.94567 1.26242,-1.38835 2.16333,-0.34817 2.02591,-1.84942 -0.16928,-1.84942 -2.78962,0 -6.03187,2.8631 -6.03187,5.32651 0,3.52081 3.49139,5.54808 6.6467,3.85941 z m -63.69336,-3.994 c 1.35695,-1.93732 0.43959,-4.14516 -1.83502,-4.41638 -2.17753,-0.25965 -3.67551,0.87952 -3.67551,2.79512 0,3.05088 3.73873,4.15086 5.51053,1.62126 z m 24.1308,-7.86817 c 0.94361,-4.44653 2.72963,-7.2012 4.66896,-7.2012 1.8424,0 2.0733,1.21736 0.93973,4.95445 -1.28452,4.23475 -1.26516,6.03075 0.0731,6.77966 1.64839,0.92249 3.47563,0.15509 4.54232,-1.90766 1.86643,-3.60928 0.7525,-4.57348 -1.2676,-1.0972 -1.68285,2.89592 -2.09379,1.29037 -0.72472,-2.83151 0.6095,-1.83503 0.92073,-4.0616 0.694,-4.96495 -0.57813,-2.30347 -3.25556,-3.20988 -5.77256,-1.95424 -1.73295,0.86451 -2.13173,0.86407 -3.45631,-0.004 -1.34726,-0.88276 -1.63574,-0.86405 -2.87827,0.18672 -1.59985,1.35294 -2.65764,4.78954 -1.47422,4.78954 0.42027,0 1.07403,-0.88897 1.4528,-1.97549 0.37876,-1.08652 0.95599,-1.97549 1.28273,-1.97549 0.78889,0 0.76743,0.197 -0.64561,5.92647 -0.82962,3.36386 -1.00829,5.20379 -0.56029,5.76997 1.10367,1.39482 2.2152,-0.2036 3.12595,-4.49524 z"
       style="opacity:1;fill:#d00000;fill-opacity:0;fill-rule:nonzero;stroke:none;stroke-width:0.30000001;stroke-linecap:butt;stroke-linejoin:miter;stroke-miterlimit:4;stroke-dasharray:none;stroke-dashoffset:0;stroke-opacity:1" />
    <path
       inkscape:connector-curvature="0"
       id="path4662"
       d="m -146.75432,217.69669 0,-45.7711 49.94029,0 49.94029,0 -13.59567,45.6009 -13.59567,45.6009 -36.34462,0.1702 -36.34462,0.1702 0,-45.7711 z m 7.86054,42.96134 c 1.12591,-2.90299 -2.57056,-5.71738 -4.93355,-3.75628 -1.15537,0.95887 -1.24268,3.36632 -0.1613,4.4477 1.38114,1.38114 4.45269,0.9643 5.09485,-0.69142 z m 39.55122,-6.42035 c 1.59661,-1.5966 1.66878,-2.84663 0.24647,-4.26894 -2.84251,-2.84251 -7.24096,1.26972 -4.54474,4.24901 1.52392,1.6839 2.62918,1.68903 4.29827,0.0199 z m -9.00526,-27.49223 c 1.03933,-3.56438 2.63224,-4.18259 2.96926,-1.15237 0.38911,3.49849 3.51288,5.53922 5.25879,3.43553 1.26889,-1.52892 2.09086,-4.34762 1.39351,-4.77861 -0.3577,-0.22107 -0.96801,0.50925 -1.35625,1.62293 -0.90618,2.59947 -2.65575,2.77053 -2.18895,0.21402 0.36184,-1.9817 -0.0811,-2.90677 -1.85524,-3.87443 -1.05587,-0.57591 -0.98042,-0.80839 0.82312,-2.53629 1.44606,-1.38542 1.98553,-1.61956 1.98553,-0.86177 0,0.57227 0.39728,1.19294 0.88284,1.37927 1.42052,0.5451 2.54265,-0.55032 2.30264,-2.24784 -0.3457,-2.44496 -2.83973,-2.39928 -5.96116,0.10917 -2.0489,1.64654 -2.55349,1.84256 -2.25998,0.87795 0.20783,-0.68304 0.69594,-2.72351 1.08468,-4.53438 0.38874,-1.81086 0.87024,-3.83049 1.06999,-4.48806 0.31289,-1.03003 0.0202,-1.16681 -2.11336,-0.98775 -2.37065,0.19895 -4.13349,1.85408 -1.97474,1.85408 0.57345,0 1.03576,0.0741 1.02736,0.16462 -0.008,0.0905 -1.02726,4.14876 -2.26415,9.01826 -1.23689,4.8695 -2.1015,9.09211 -1.92137,9.38358 0.87964,1.42329 2.26335,0.26274 3.09748,-2.59791 z m 40.9527,-12.06466 c 0.53547,-2.43799 -0.13001,-3.34795 -1.28914,-1.76274 -0.46304,0.63323 -1.5499,1.15133 -2.41524,1.15133 -1.44857,0 -1.35143,-0.20286 1.22496,-2.55791 3.15908,-2.88768 3.62264,-5.17823 1.48133,-7.31954 -1.76686,-1.76686 -5.49733,-1.74613 -7.28395,0.0405 -1.63492,1.63492 -1.42907,3.58125 0.37876,3.58125 0.95355,0 1.30797,-0.44276 1.30797,-1.63398 0,-1.73394 1.34749,-2.39031 2.88092,-1.40332 1.92395,1.23835 1.00873,4.04158 -2.46936,7.56343 -1.85614,1.87948 -3.3748,3.63017 -3.3748,3.89041 0,0.26024 2.05073,0.47317 4.55716,0.47317 4.55166,0 4.55769,-0.002 5.00139,-2.02258 z m -13.84223,-6.40813 c 2.49321,-1.73804 3.85919,-4.08073 2.37939,-4.08073 -0.37613,0 -1.69635,0.88897 -2.93383,1.97549 -2.73096,2.39782 -3.9463,2.46989 -6.057,0.35918 -3.6203,-3.62029 -0.42385,-13.84572 4.73271,-15.13993 2.36461,-0.59348 3.01247,0.27161 2.07111,2.76554 -1.49637,3.96435 1.29462,3.51528 3.10508,-0.4996 1.59261,-3.53179 1.0203,-4.60688 -2.45022,-4.60273 -6.57012,0.008 -12.36748,6.71856 -12.36748,14.31589 0,7.03987 5.25168,9.27675 11.52024,4.90689 z m -53.23061,-0.6396 c 0.5201,-2.07225 -0.4403,-3.70261 -2.34778,-3.98555 -3.15002,-0.46725 -4.63178,3.52546 -1.99402,5.37302 1.83543,1.28559 3.83096,0.64789 4.3418,-1.38747 z m 38.74714,-5.41662 c 0,-0.81747 -1.46651,-1.01966 -8.50703,-1.17287 -8.21219,-0.17871 -10.26948,0.21803 -9.29625,1.79275 0.30652,0.49596 3.27233,0.67506 9.12865,0.55125 7.19028,-0.152 8.67463,-0.3524 8.67463,-1.17113 z m 27.38934,-4.64251 c 0.71069,-0.38035 1.1177,-0.9738 0.9045,-1.31878 -0.24362,-0.39417 -0.84444,-0.38278 -1.61699,0.0307 -1.61083,0.86209 -3.30022,0.17534 -3.30022,-1.34158 0,-0.87796 0.5806,-1.2608 2.14011,-1.41117 2.68543,-0.25892 2.78231,-1.38138 0.16463,-1.9073 -1.98531,-0.39886 -1.4881,-0.94567 1.26242,-1.38835 2.16333,-0.34817 2.02591,-1.84942 -0.16928,-1.84942 -2.78962,0 -6.03187,2.8631 -6.03187,5.32651 0,3.52081 3.49139,5.54808 6.6467,3.85941 z m -63.69336,-3.994 c 1.35695,-1.93732 0.43959,-4.14516 -1.83502,-4.41638 -2.17753,-0.25965 -3.67551,0.87952 -3.67551,2.79512 0,3.05088 3.73873,4.15086 5.51053,1.62126 z m 24.1308,-7.86817 c 0.94361,-4.44653 2.72963,-7.2012 4.66896,-7.2012 1.8424,0 2.0733,1.21736 0.93973,4.95445 -1.28452,4.23475 -1.26516,6.03075 0.0731,6.77966 1.64839,0.92249 3.47563,0.15509 4.54232,-1.90766 1.86643,-3.60928 0.7525,-4.57348 -1.2676,-1.0972 -1.68285,2.89592 -2.09379,1.29037 -0.72472,-2.83151 0.6095,-1.83503 0.92073,-4.0616 0.694,-4.96495 -0.57813,-2.30347 -3.25556,-3.20988 -5.77256,-1.95424 -1.73295,0.86451 -2.13173,0.86407 -3.45631,-0.004 -1.34726,-0.88276 -1.63574,-0.86405 -2.87827,0.18672 -1.59985,1.35294 -2.65764,4.78954 -1.47422,4.78954 0.42027,0 1.07403,-0.88897 1.4528,-1.97549 0.37876,-1.08652 0.95599,-1.97549 1.28273,-1.97549 0.78889,0 0.76743,0.197 -0.64561,5.92647 -0.82962,3.36386 -1.00829,5.20379 -0.56029,5.76997 1.10367,1.39482 2.2152,-0.2036 3.12595,-4.49524 z"
       style="opacity:1;fill:#d00000;fill-opacity:0;fill-rule:nonzero;stroke:none;stroke-width:0.30000001;stroke-linecap:butt;stroke-linejoin:miter;stroke-miterlimit:4;stroke-dasharray:none;stroke-dashoffset:0;stroke-opacity:1" />
    <path
       inkscape:connector-curvature="0"
       id="path4664"
       d="m -146.75432,217.69669 0,-45.7711 49.94029,0 49.94029,0 -13.59567,45.6009 -13.59567,45.6009 -36.34462,0.1702 -36.34462,0.1702 0,-45.7711 z m 7.86054,42.96134 c 1.12591,-2.90299 -2.57056,-5.71738 -4.93355,-3.75628 -1.15537,0.95887 -1.24268,3.36632 -0.1613,4.4477 1.38114,1.38114 4.45269,0.9643 5.09485,-0.69142 z m 39.55122,-6.42035 c 1.59661,-1.5966 1.66878,-2.84663 0.24647,-4.26894 -2.84251,-2.84251 -7.24096,1.26972 -4.54474,4.24901 1.52392,1.6839 2.62918,1.68903 4.29827,0.0199 z m -9.00526,-27.49223 c 1.03933,-3.56438 2.63224,-4.18259 2.96926,-1.15237 0.38911,3.49849 3.51288,5.53922 5.25879,3.43553 1.26889,-1.52892 2.09086,-4.34762 1.39351,-4.77861 -0.3577,-0.22107 -0.96801,0.50925 -1.35625,1.62293 -0.90618,2.59947 -2.65575,2.77053 -2.18895,0.21402 0.36184,-1.9817 -0.0811,-2.90677 -1.85524,-3.87443 -1.05587,-0.57591 -0.98042,-0.80839 0.82312,-2.53629 1.44606,-1.38542 1.98553,-1.61956 1.98553,-0.86177 0,0.57227 0.39728,1.19294 0.88284,1.37927 1.42052,0.5451 2.54265,-0.55032 2.30264,-2.24784 -0.3457,-2.44496 -2.83973,-2.39928 -5.96116,0.10917 -2.0489,1.64654 -2.55349,1.84256 -2.25998,0.87795 0.20783,-0.68304 0.69594,-2.72351 1.08468,-4.53438 0.38874,-1.81086 0.87024,-3.83049 1.06999,-4.48806 0.31289,-1.03003 0.0202,-1.16681 -2.11336,-0.98775 -2.37065,0.19895 -4.13349,1.85408 -1.97474,1.85408 0.57345,0 1.03576,0.0741 1.02736,0.16462 -0.008,0.0905 -1.02726,4.14876 -2.26415,9.01826 -1.23689,4.8695 -2.1015,9.09211 -1.92137,9.38358 0.87964,1.42329 2.26335,0.26274 3.09748,-2.59791 z m 40.9527,-12.06466 c 0.53547,-2.43799 -0.13001,-3.34795 -1.28914,-1.76274 -0.46304,0.63323 -1.5499,1.15133 -2.41524,1.15133 -1.44857,0 -1.35143,-0.20286 1.22496,-2.55791 3.15908,-2.88768 3.62264,-5.17823 1.48133,-7.31954 -1.76686,-1.76686 -5.49733,-1.74613 -7.28395,0.0405 -1.63492,1.63492 -1.42907,3.58125 0.37876,3.58125 0.95355,0 1.30797,-0.44276 1.30797,-1.63398 0,-1.73394 1.34749,-2.39031 2.88092,-1.40332 1.92395,1.23835 1.00873,4.04158 -2.46936,7.56343 -1.85614,1.87948 -3.3748,3.63017 -3.3748,3.89041 0,0.26024 2.05073,0.47317 4.55716,0.47317 4.55166,0 4.55769,-0.002 5.00139,-2.02258 z m -13.84223,-6.40813 c 2.49321,-1.73804 3.85919,-4.08073 2.37939,-4.08073 -0.37613,0 -1.69635,0.88897 -2.93383,1.97549 -2.73096,2.39782 -3.9463,2.46989 -6.057,0.35918 -3.6203,-3.62029 -0.42385,-13.84572 4.73271,-15.13993 2.36461,-0.59348 3.01247,0.27161 2.07111,2.76554 -1.49637,3.96435 1.29462,3.51528 3.10508,-0.4996 1.59261,-3.53179 1.0203,-4.60688 -2.45022,-4.60273 -6.57012,0.008 -12.36748,6.71856 -12.36748,14.31589 0,7.03987 5.25168,9.27675 11.52024,4.90689 z m -53.23061,-0.6396 c 0.5201,-2.07225 -0.4403,-3.70261 -2.34778,-3.98555 -3.15002,-0.46725 -4.63178,3.52546 -1.99402,5.37302 1.83543,1.28559 3.83096,0.64789 4.3418,-1.38747 z m 38.74714,-5.41662 c 0,-0.81747 -1.46651,-1.01966 -8.50703,-1.17287 -8.21219,-0.17871 -10.26948,0.21803 -9.29625,1.79275 0.30652,0.49596 3.27233,0.67506 9.12865,0.55125 7.19028,-0.152 8.67463,-0.3524 8.67463,-1.17113 z m 27.38934,-4.64251 c 0.71069,-0.38035 1.1177,-0.9738 0.9045,-1.31878 -0.24362,-0.39417 -0.84444,-0.38278 -1.61699,0.0307 -1.61083,0.86209 -3.30022,0.17534 -3.30022,-1.34158 0,-0.87796 0.5806,-1.2608 2.14011,-1.41117 2.68543,-0.25892 2.78231,-1.38138 0.16463,-1.9073 -1.98531,-0.39886 -1.4881,-0.94567 1.26242,-1.38835 2.16333,-0.34817 2.02591,-1.84942 -0.16928,-1.84942 -2.78962,0 -6.03187,2.8631 -6.03187,5.32651 0,3.52081 3.49139,5.54808 6.6467,3.85941 z m -63.69336,-3.994 c 1.35695,-1.93732 0.43959,-4.14516 -1.83502,-4.41638 -2.17753,-0.25965 -3.67551,0.87952 -3.67551,2.79512 0,3.05088 3.73873,4.15086 5.51053,1.62126 z m 24.1308,-7.86817 c 0.94361,-4.44653 2.72963,-7.2012 4.66896,-7.2012 1.8424,0 2.0733,1.21736 0.93973,4.95445 -1.28452,4.23475 -1.26516,6.03075 0.0731,6.77966 1.64839,0.92249 3.47563,0.15509 4.54232,-1.90766 1.86643,-3.60928 0.7525,-4.57348 -1.2676,-1.0972 -1.68285,2.89592 -2.09379,1.29037 -0.72472,-2.83151 0.6095,-1.83503 0.92073,-4.0616 0.694,-4.96495 -0.57813,-2.30347 -3.25556,-3.20988 -5.77256,-1.95424 -1.73295,0.86451 -2.13173,0.86407 -3.45631,-0.004 -1.34726,-0.88276 -1.63574,-0.86405 -2.87827,0.18672 -1.59985,1.35294 -2.65764,4.78954 -1.47422,4.78954 0.42027,0 1.07403,-0.88897 1.4528,-1.97549 0.37876,-1.08652 0.95599,-1.97549 1.28273,-1.97549 0.78889,0 0.76743,0.197 -0.64561,5.92647 -0.82962,3.36386 -1.00829,5.20379 -0.56029,5.76997 1.10367,1.39482 2.2152,-0.2036 3.12595,-4.49524 z"
       style="opacity:1;fill:#d00000;fill-opacity:0;fill-rule:nonzero;stroke:none;stroke-width:0.30000001;stroke-linecap:butt;stroke-linejoin:miter;stroke-miterlimit:4;stroke-dasharray:none;stroke-dashoffset:0;stroke-opacity:1" />
    <path
       inkscape:connector-curvature="0"
       id="path4666"
       d="m -146.75432,217.69669 0,-45.7711 49.94029,0 49.94029,0 -13.59567,45.6009 -13.59567,45.6009 -36.34462,0.1702 -36.34462,0.1702 0,-45.7711 z m 7.86054,42.96134 c 1.12591,-2.90299 -2.57056,-5.71738 -4.93355,-3.75628 -1.15537,0.95887 -1.24268,3.36632 -0.1613,4.4477 1.38114,1.38114 4.45269,0.9643 5.09485,-0.69142 z m 39.55122,-6.42035 c 1.59661,-1.5966 1.66878,-2.84663 0.24647,-4.26894 -2.84251,-2.84251 -7.24096,1.26972 -4.54474,4.24901 1.52392,1.6839 2.62918,1.68903 4.29827,0.0199 z m -9.00526,-27.49223 c 1.03933,-3.56438 2.63224,-4.18259 2.96926,-1.15237 0.38911,3.49849 3.51288,5.53922 5.25879,3.43553 1.26889,-1.52892 2.09086,-4.34762 1.39351,-4.77861 -0.3577,-0.22107 -0.96801,0.50925 -1.35625,1.62293 -0.90618,2.59947 -2.65575,2.77053 -2.18895,0.21402 0.36184,-1.9817 -0.0811,-2.90677 -1.85524,-3.87443 -1.05587,-0.57591 -0.98042,-0.80839 0.82312,-2.53629 1.44606,-1.38542 1.98553,-1.61956 1.98553,-0.86177 0,0.57227 0.39728,1.19294 0.88284,1.37927 1.42052,0.5451 2.54265,-0.55032 2.30264,-2.24784 -0.3457,-2.44496 -2.83973,-2.39928 -5.96116,0.10917 -2.0489,1.64654 -2.55349,1.84256 -2.25998,0.87795 0.20783,-0.68304 0.69594,-2.72351 1.08468,-4.53438 0.38874,-1.81086 0.87024,-3.83049 1.06999,-4.48806 0.31289,-1.03003 0.0202,-1.16681 -2.11336,-0.98775 -2.37065,0.19895 -4.13349,1.85408 -1.97474,1.85408 0.57345,0 1.03576,0.0741 1.02736,0.16462 -0.008,0.0905 -1.02726,4.14876 -2.26415,9.01826 -1.23689,4.8695 -2.1015,9.09211 -1.92137,9.38358 0.87964,1.42329 2.26335,0.26274 3.09748,-2.59791 z m 40.9527,-12.06466 c 0.53547,-2.43799 -0.13001,-3.34795 -1.28914,-1.76274 -0.46304,0.63323 -1.5499,1.15133 -2.41524,1.15133 -1.44857,0 -1.35143,-0.20286 1.22496,-2.55791 3.15908,-2.88768 3.62264,-5.17823 1.48133,-7.31954 -1.76686,-1.76686 -5.49733,-1.74613 -7.28395,0.0405 -1.63492,1.63492 -1.42907,3.58125 0.37876,3.58125 0.95355,0 1.30797,-0.44276 1.30797,-1.63398 0,-1.73394 1.34749,-2.39031 2.88092,-1.40332 1.92395,1.23835 1.00873,4.04158 -2.46936,7.56343 -1.85614,1.87948 -3.3748,3.63017 -3.3748,3.89041 0,0.26024 2.05073,0.47317 4.55716,0.47317 4.55166,0 4.55769,-0.002 5.00139,-2.02258 z m -13.84223,-6.40813 c 2.49321,-1.73804 3.85919,-4.08073 2.37939,-4.08073 -0.37613,0 -1.69635,0.88897 -2.93383,1.97549 -2.73096,2.39782 -3.9463,2.46989 -6.057,0.35918 -3.6203,-3.62029 -0.42385,-13.84572 4.73271,-15.13993 2.36461,-0.59348 3.01247,0.27161 2.07111,2.76554 -1.49637,3.96435 1.29462,3.51528 3.10508,-0.4996 1.59261,-3.53179 1.0203,-4.60688 -2.45022,-4.60273 -6.57012,0.008 -12.36748,6.71856 -12.36748,14.31589 0,7.03987 5.25168,9.27675 11.52024,4.90689 z m -53.23061,-0.6396 c 0.5201,-2.07225 -0.4403,-3.70261 -2.34778,-3.98555 -3.15002,-0.46725 -4.63178,3.52546 -1.99402,5.37302 1.83543,1.28559 3.83096,0.64789 4.3418,-1.38747 z m 38.74714,-5.41662 c 0,-0.81747 -1.46651,-1.01966 -8.50703,-1.17287 -8.21219,-0.17871 -10.26948,0.21803 -9.29625,1.79275 0.30652,0.49596 3.27233,0.67506 9.12865,0.55125 7.19028,-0.152 8.67463,-0.3524 8.67463,-1.17113 z m 27.38934,-4.64251 c 0.71069,-0.38035 1.1177,-0.9738 0.9045,-1.31878 -0.24362,-0.39417 -0.84444,-0.38278 -1.61699,0.0307 -1.61083,0.86209 -3.30022,0.17534 -3.30022,-1.34158 0,-0.87796 0.5806,-1.2608 2.14011,-1.41117 2.68543,-0.25892 2.78231,-1.38138 0.16463,-1.9073 -1.98531,-0.39886 -1.4881,-0.94567 1.26242,-1.38835 2.16333,-0.34817 2.02591,-1.84942 -0.16928,-1.84942 -2.78962,0 -6.03187,2.8631 -6.03187,5.32651 0,3.52081 3.49139,5.54808 6.6467,3.85941 z m -63.69336,-3.994 c 1.35695,-1.93732 0.43959,-4.14516 -1.83502,-4.41638 -2.17753,-0.25965 -3.67551,0.87952 -3.67551,2.79512 0,3.05088 3.73873,4.15086 5.51053,1.62126 z m 24.1308,-7.86817 c 0.94361,-4.44653 2.72963,-7.2012 4.66896,-7.2012 1.8424,0 2.0733,1.21736 0.93973,4.95445 -1.28452,4.23475 -1.26516,6.03075 0.0731,6.77966 1.64839,0.92249 3.47563,0.15509 4.54232,-1.90766 1.86643,-3.60928 0.7525,-4.57348 -1.2676,-1.0972 -1.68285,2.89592 -2.09379,1.29037 -0.72472,-2.83151 0.6095,-1.83503 0.92073,-4.0616 0.694,-4.96495 -0.57813,-2.30347 -3.25556,-3.20988 -5.77256,-1.95424 -1.73295,0.86451 -2.13173,0.86407 -3.45631,-0.004 -1.34726,-0.88276 -1.63574,-0.86405 -2.87827,0.18672 -1.59985,1.35294 -2.65764,4.78954 -1.47422,4.78954 0.42027,0 1.07403,-0.88897 1.4528,-1.97549 0.37876,-1.08652 0.95599,-1.97549 1.28273,-1.97549 0.78889,0 0.76743,0.197 -0.64561,5.92647 -0.82962,3.36386 -1.00829,5.20379 -0.56029,5.76997 1.10367,1.39482 2.2152,-0.2036 3.12595,-4.49524 z"
       style="opacity:1;fill:#d00000;fill-opacity:0;fill-rule:nonzero;stroke:none;stroke-width:0.30000001;stroke-linecap:butt;stroke-linejoin:miter;stroke-miterlimit:4;stroke-dasharray:none;stroke-dashoffset:0;stroke-opacity:1" />
    <path
       inkscape:connector-curvature="0"
       id="path4668"
       d="m -146.75432,217.69669 0,-45.7711 49.94029,0 49.94029,0 -13.59567,45.6009 -13.59567,45.6009 -36.34462,0.1702 -36.34462,0.1702 0,-45.7711 z m 7.86054,42.96134 c 1.12591,-2.90299 -2.57056,-5.71738 -4.93355,-3.75628 -1.15537,0.95887 -1.24268,3.36632 -0.1613,4.4477 1.38114,1.38114 4.45269,0.9643 5.09485,-0.69142 z m 39.55122,-6.42035 c 1.59661,-1.5966 1.66878,-2.84663 0.24647,-4.26894 -2.84251,-2.84251 -7.24096,1.26972 -4.54474,4.24901 1.52392,1.6839 2.62918,1.68903 4.29827,0.0199 z m -9.00526,-27.49223 c 1.03933,-3.56438 2.63224,-4.18259 2.96926,-1.15237 0.38911,3.49849 3.51288,5.53922 5.25879,3.43553 1.26889,-1.52892 2.09086,-4.34762 1.39351,-4.77861 -0.3577,-0.22107 -0.96801,0.50925 -1.35625,1.62293 -0.90618,2.59947 -2.65575,2.77053 -2.18895,0.21402 0.36184,-1.9817 -0.0811,-2.90677 -1.85524,-3.87443 -1.05587,-0.57591 -0.98042,-0.80839 0.82312,-2.53629 1.44606,-1.38542 1.98553,-1.61956 1.98553,-0.86177 0,0.57227 0.39728,1.19294 0.88284,1.37927 1.42052,0.5451 2.54265,-0.55032 2.30264,-2.24784 -0.3457,-2.44496 -2.83973,-2.39928 -5.96116,0.10917 -2.0489,1.64654 -2.55349,1.84256 -2.25998,0.87795 0.20783,-0.68304 0.69594,-2.72351 1.08468,-4.53438 0.38874,-1.81086 0.87024,-3.83049 1.06999,-4.48806 0.31289,-1.03003 0.0202,-1.16681 -2.11336,-0.98775 -2.37065,0.19895 -4.13349,1.85408 -1.97474,1.85408 0.57345,0 1.03576,0.0741 1.02736,0.16462 -0.008,0.0905 -1.02726,4.14876 -2.26415,9.01826 -1.23689,4.8695 -2.1015,9.09211 -1.92137,9.38358 0.87964,1.42329 2.26335,0.26274 3.09748,-2.59791 z m 40.9527,-12.06466 c 0.53547,-2.43799 -0.13001,-3.34795 -1.28914,-1.76274 -0.46304,0.63323 -1.5499,1.15133 -2.41524,1.15133 -1.44857,0 -1.35143,-0.20286 1.22496,-2.55791 3.15908,-2.88768 3.62264,-5.17823 1.48133,-7.31954 -1.76686,-1.76686 -5.49733,-1.74613 -7.28395,0.0405 -1.63492,1.63492 -1.42907,3.58125 0.37876,3.58125 0.95355,0 1.30797,-0.44276 1.30797,-1.63398 0,-1.73394 1.34749,-2.39031 2.88092,-1.40332 1.92395,1.23835 1.00873,4.04158 -2.46936,7.56343 -1.85614,1.87948 -3.3748,3.63017 -3.3748,3.89041 0,0.26024 2.05073,0.47317 4.55716,0.47317 4.55166,0 4.55769,-0.002 5.00139,-2.02258 z m -13.84223,-6.40813 c 2.49321,-1.73804 3.85919,-4.08073 2.37939,-4.08073 -0.37613,0 -1.69635,0.88897 -2.93383,1.97549 -2.73096,2.39782 -3.9463,2.46989 -6.057,0.35918 -3.6203,-3.62029 -0.42385,-13.84572 4.73271,-15.13993 2.36461,-0.59348 3.01247,0.27161 2.07111,2.76554 -1.49637,3.96435 1.29462,3.51528 3.10508,-0.4996 1.59261,-3.53179 1.0203,-4.60688 -2.45022,-4.60273 -6.57012,0.008 -12.36748,6.71856 -12.36748,14.31589 0,7.03987 5.25168,9.27675 11.52024,4.90689 z m -53.23061,-0.6396 c 0.5201,-2.07225 -0.4403,-3.70261 -2.34778,-3.98555 -3.15002,-0.46725 -4.63178,3.52546 -1.99402,5.37302 1.83543,1.28559 3.83096,0.64789 4.3418,-1.38747 z m 38.74714,-5.41662 c 0,-0.81747 -1.46651,-1.01966 -8.50703,-1.17287 -8.21219,-0.17871 -10.26948,0.21803 -9.29625,1.79275 0.30652,0.49596 3.27233,0.67506 9.12865,0.55125 7.19028,-0.152 8.67463,-0.3524 8.67463,-1.17113 z m 27.38934,-4.64251 c 0.71069,-0.38035 1.1177,-0.9738 0.9045,-1.31878 -0.24362,-0.39417 -0.84444,-0.38278 -1.61699,0.0307 -1.61083,0.86209 -3.30022,0.17534 -3.30022,-1.34158 0,-0.87796 0.5806,-1.2608 2.14011,-1.41117 2.68543,-0.25892 2.78231,-1.38138 0.16463,-1.9073 -1.98531,-0.39886 -1.4881,-0.94567 1.26242,-1.38835 2.16333,-0.34817 2.02591,-1.84942 -0.16928,-1.84942 -2.78962,0 -6.03187,2.8631 -6.03187,5.32651 0,3.52081 3.49139,5.54808 6.6467,3.85941 z m -63.69336,-3.994 c 1.35695,-1.93732 0.43959,-4.14516 -1.83502,-4.41638 -2.17753,-0.25965 -3.67551,0.87952 -3.67551,2.79512 0,3.05088 3.73873,4.15086 5.51053,1.62126 z m 24.1308,-7.86817 c 0.94361,-4.44653 2.72963,-7.2012 4.66896,-7.2012 1.8424,0 2.0733,1.21736 0.93973,4.95445 -1.28452,4.23475 -1.26516,6.03075 0.0731,6.77966 1.64839,0.92249 3.47563,0.15509 4.54232,-1.90766 1.86643,-3.60928 0.7525,-4.57348 -1.2676,-1.0972 -1.68285,2.89592 -2.09379,1.29037 -0.72472,-2.83151 0.6095,-1.83503 0.92073,-4.0616 0.694,-4.96495 -0.57813,-2.30347 -3.25556,-3.20988 -5.77256,-1.95424 -1.73295,0.86451 -2.13173,0.86407 -3.45631,-0.004 -1.34726,-0.88276 -1.63574,-0.86405 -2.87827,0.18672 -1.59985,1.35294 -2.65764,4.78954 -1.47422,4.78954 0.42027,0 1.07403,-0.88897 1.4528,-1.97549 0.37876,-1.08652 0.95599,-1.97549 1.28273,-1.97549 0.78889,0 0.76743,0.197 -0.64561,5.92647 -0.82962,3.36386 -1.00829,5.20379 -0.56029,5.76997 1.10367,1.39482 2.2152,-0.2036 3.12595,-4.49524 z"
       style="opacity:1;fill:#d00000;fill-opacity:0;fill-rule:nonzero;stroke:none;stroke-width:0.30000001;stroke-linecap:butt;stroke-linejoin:miter;stroke-miterlimit:4;stroke-dasharray:none;stroke-dashoffset:0;stroke-opacity:1" />
    <path
       inkscape:connector-curvature="0"
       id="path4670"
       d="m -146.75432,217.69669 0,-45.7711 49.94029,0 49.94029,0 -13.59567,45.6009 -13.59567,45.6009 -36.34462,0.1702 -36.34462,0.1702 0,-45.7711 z m 7.86054,42.96134 c 1.12591,-2.90299 -2.57056,-5.71738 -4.93355,-3.75628 -1.15537,0.95887 -1.24268,3.36632 -0.1613,4.4477 1.38114,1.38114 4.45269,0.9643 5.09485,-0.69142 z m 39.55122,-6.42035 c 1.59661,-1.5966 1.66878,-2.84663 0.24647,-4.26894 -2.84251,-2.84251 -7.24096,1.26972 -4.54474,4.24901 1.52392,1.6839 2.62918,1.68903 4.29827,0.0199 z m -9.00526,-27.49223 c 1.03933,-3.56438 2.63224,-4.18259 2.96926,-1.15237 0.38911,3.49849 3.51288,5.53922 5.25879,3.43553 1.26889,-1.52892 2.09086,-4.34762 1.39351,-4.77861 -0.3577,-0.22107 -0.96801,0.50925 -1.35625,1.62293 -0.90618,2.59947 -2.65575,2.77053 -2.18895,0.21402 0.36184,-1.9817 -0.0811,-2.90677 -1.85524,-3.87443 -1.05587,-0.57591 -0.98042,-0.80839 0.82312,-2.53629 1.44606,-1.38542 1.98553,-1.61956 1.98553,-0.86177 0,0.57227 0.39728,1.19294 0.88284,1.37927 1.42052,0.5451 2.54265,-0.55032 2.30264,-2.24784 -0.3457,-2.44496 -2.83973,-2.39928 -5.96116,0.10917 -2.0489,1.64654 -2.55349,1.84256 -2.25998,0.87795 0.20783,-0.68304 0.69594,-2.72351 1.08468,-4.53438 0.38874,-1.81086 0.87024,-3.83049 1.06999,-4.48806 0.31289,-1.03003 0.0202,-1.16681 -2.11336,-0.98775 -2.37065,0.19895 -4.13349,1.85408 -1.97474,1.85408 0.57345,0 1.03576,0.0741 1.02736,0.16462 -0.008,0.0905 -1.02726,4.14876 -2.26415,9.01826 -1.23689,4.8695 -2.1015,9.09211 -1.92137,9.38358 0.87964,1.42329 2.26335,0.26274 3.09748,-2.59791 z m 40.9527,-12.06466 c 0.53547,-2.43799 -0.13001,-3.34795 -1.28914,-1.76274 -0.46304,0.63323 -1.5499,1.15133 -2.41524,1.15133 -1.44857,0 -1.35143,-0.20286 1.22496,-2.55791 3.15908,-2.88768 3.62264,-5.17823 1.48133,-7.31954 -1.76686,-1.76686 -5.49733,-1.74613 -7.28395,0.0405 -1.63492,1.63492 -1.42907,3.58125 0.37876,3.58125 0.95355,0 1.30797,-0.44276 1.30797,-1.63398 0,-1.73394 1.34749,-2.39031 2.88092,-1.40332 1.92395,1.23835 1.00873,4.04158 -2.46936,7.56343 -1.85614,1.87948 -3.3748,3.63017 -3.3748,3.89041 0,0.26024 2.05073,0.47317 4.55716,0.47317 4.55166,0 4.55769,-0.002 5.00139,-2.02258 z m -13.84223,-6.40813 c 2.49321,-1.73804 3.85919,-4.08073 2.37939,-4.08073 -0.37613,0 -1.69635,0.88897 -2.93383,1.97549 -2.73096,2.39782 -3.9463,2.46989 -6.057,0.35918 -3.6203,-3.62029 -0.42385,-13.84572 4.73271,-15.13993 2.36461,-0.59348 3.01247,0.27161 2.07111,2.76554 -1.49637,3.96435 1.29462,3.51528 3.10508,-0.4996 1.59261,-3.53179 1.0203,-4.60688 -2.45022,-4.60273 -6.57012,0.008 -12.36748,6.71856 -12.36748,14.31589 0,7.03987 5.25168,9.27675 11.52024,4.90689 z m -53.23061,-0.6396 c 0.5201,-2.07225 -0.4403,-3.70261 -2.34778,-3.98555 -3.15002,-0.46725 -4.63178,3.52546 -1.99402,5.37302 1.83543,1.28559 3.83096,0.64789 4.3418,-1.38747 z m 38.74714,-5.41662 c 0,-0.81747 -1.46651,-1.01966 -8.50703,-1.17287 -8.21219,-0.17871 -10.26948,0.21803 -9.29625,1.79275 0.30652,0.49596 3.27233,0.67506 9.12865,0.55125 7.19028,-0.152 8.67463,-0.3524 8.67463,-1.17113 z m 27.38934,-4.64251 c 0.71069,-0.38035 1.1177,-0.9738 0.9045,-1.31878 -0.24362,-0.39417 -0.84444,-0.38278 -1.61699,0.0307 -1.61083,0.86209 -3.30022,0.17534 -3.30022,-1.34158 0,-0.87796 0.5806,-1.2608 2.14011,-1.41117 2.68543,-0.25892 2.78231,-1.38138 0.16463,-1.9073 -1.98531,-0.39886 -1.4881,-0.94567 1.26242,-1.38835 2.16333,-0.34817 2.02591,-1.84942 -0.16928,-1.84942 -2.78962,0 -6.03187,2.8631 -6.03187,5.32651 0,3.52081 3.49139,5.54808 6.6467,3.85941 z m -63.69336,-3.994 c 1.35695,-1.93732 0.43959,-4.14516 -1.83502,-4.41638 -2.17753,-0.25965 -3.67551,0.87952 -3.67551,2.79512 0,3.05088 3.73873,4.15086 5.51053,1.62126 z m 24.1308,-7.86817 c 0.94361,-4.44653 2.72963,-7.2012 4.66896,-7.2012 1.8424,0 2.0733,1.21736 0.93973,4.95445 -1.28452,4.23475 -1.26516,6.03075 0.0731,6.77966 1.64839,0.92249 3.47563,0.15509 4.54232,-1.90766 1.86643,-3.60928 0.7525,-4.57348 -1.2676,-1.0972 -1.68285,2.89592 -2.09379,1.29037 -0.72472,-2.83151 0.6095,-1.83503 0.92073,-4.0616 0.694,-4.96495 -0.57813,-2.30347 -3.25556,-3.20988 -5.77256,-1.95424 -1.73295,0.86451 -2.13173,0.86407 -3.45631,-0.004 -1.34726,-0.88276 -1.63574,-0.86405 -2.87827,0.18672 -1.59985,1.35294 -2.65764,4.78954 -1.47422,4.78954 0.42027,0 1.07403,-0.88897 1.4528,-1.97549 0.37876,-1.08652 0.95599,-1.97549 1.28273,-1.97549 0.78889,0 0.76743,0.197 -0.64561,5.92647 -0.82962,3.36386 -1.00829,5.20379 -0.56029,5.76997 1.10367,1.39482 2.2152,-0.2036 3.12595,-4.49524 z"
       style="opacity:1;fill:#d00000;fill-opacity:0;fill-rule:nonzero;stroke:none;stroke-width:0.30000001;stroke-linecap:butt;stroke-linejoin:miter;stroke-miterlimit:4;stroke-dasharray:none;stroke-dashoffset:0;stroke-opacity:1" />
    <path
       inkscape:connector-curvature="0"
       id="path4672"
       d="m -146.75432,217.69669 0,-45.7711 49.94029,0 49.94029,0 -13.59567,45.6009 -13.59567,45.6009 -36.34462,0.1702 -36.34462,0.1702 0,-45.7711 z m 7.86054,42.96134 c 1.12591,-2.90299 -2.57056,-5.71738 -4.93355,-3.75628 -1.15537,0.95887 -1.24268,3.36632 -0.1613,4.4477 1.38114,1.38114 4.45269,0.9643 5.09485,-0.69142 z m 39.55122,-6.42035 c 1.59661,-1.5966 1.66878,-2.84663 0.24647,-4.26894 -2.84251,-2.84251 -7.24096,1.26972 -4.54474,4.24901 1.52392,1.6839 2.62918,1.68903 4.29827,0.0199 z m -9.00526,-27.49223 c 1.03933,-3.56438 2.63224,-4.18259 2.96926,-1.15237 0.38911,3.49849 3.51288,5.53922 5.25879,3.43553 1.26889,-1.52892 2.09086,-4.34762 1.39351,-4.77861 -0.3577,-0.22107 -0.96801,0.50925 -1.35625,1.62293 -0.90618,2.59947 -2.65575,2.77053 -2.18895,0.21402 0.36184,-1.9817 -0.0811,-2.90677 -1.85524,-3.87443 -1.05587,-0.57591 -0.98042,-0.80839 0.82312,-2.53629 1.44606,-1.38542 1.98553,-1.61956 1.98553,-0.86177 0,0.57227 0.39728,1.19294 0.88284,1.37927 1.42052,0.5451 2.54265,-0.55032 2.30264,-2.24784 -0.3457,-2.44496 -2.83973,-2.39928 -5.96116,0.10917 -2.0489,1.64654 -2.55349,1.84256 -2.25998,0.87795 0.20783,-0.68304 0.69594,-2.72351 1.08468,-4.53438 0.38874,-1.81086 0.87024,-3.83049 1.06999,-4.48806 0.31289,-1.03003 0.0202,-1.16681 -2.11336,-0.98775 -2.37065,0.19895 -4.13349,1.85408 -1.97474,1.85408 0.57345,0 1.03576,0.0741 1.02736,0.16462 -0.008,0.0905 -1.02726,4.14876 -2.26415,9.01826 -1.23689,4.8695 -2.1015,9.09211 -1.92137,9.38358 0.87964,1.42329 2.26335,0.26274 3.09748,-2.59791 z m 40.9527,-12.06466 c 0.53547,-2.43799 -0.13001,-3.34795 -1.28914,-1.76274 -0.46304,0.63323 -1.5499,1.15133 -2.41524,1.15133 -1.44857,0 -1.35143,-0.20286 1.22496,-2.55791 3.15908,-2.88768 3.62264,-5.17823 1.48133,-7.31954 -1.76686,-1.76686 -5.49733,-1.74613 -7.28395,0.0405 -1.63492,1.63492 -1.42907,3.58125 0.37876,3.58125 0.95355,0 1.30797,-0.44276 1.30797,-1.63398 0,-1.73394 1.34749,-2.39031 2.88092,-1.40332 1.92395,1.23835 1.00873,4.04158 -2.46936,7.56343 -1.85614,1.87948 -3.3748,3.63017 -3.3748,3.89041 0,0.26024 2.05073,0.47317 4.55716,0.47317 4.55166,0 4.55769,-0.002 5.00139,-2.02258 z m -13.84223,-6.40813 c 2.49321,-1.73804 3.85919,-4.08073 2.37939,-4.08073 -0.37613,0 -1.69635,0.88897 -2.93383,1.97549 -2.73096,2.39782 -3.9463,2.46989 -6.057,0.35918 -3.6203,-3.62029 -0.42385,-13.84572 4.73271,-15.13993 2.36461,-0.59348 3.01247,0.27161 2.07111,2.76554 -1.49637,3.96435 1.29462,3.51528 3.10508,-0.4996 1.59261,-3.53179 1.0203,-4.60688 -2.45022,-4.60273 -6.57012,0.008 -12.36748,6.71856 -12.36748,14.31589 0,7.03987 5.25168,9.27675 11.52024,4.90689 z m -53.23061,-0.6396 c 0.5201,-2.07225 -0.4403,-3.70261 -2.34778,-3.98555 -3.15002,-0.46725 -4.63178,3.52546 -1.99402,5.37302 1.83543,1.28559 3.83096,0.64789 4.3418,-1.38747 z m 38.74714,-5.41662 c 0,-0.81747 -1.46651,-1.01966 -8.50703,-1.17287 -8.21219,-0.17871 -10.26948,0.21803 -9.29625,1.79275 0.30652,0.49596 3.27233,0.67506 9.12865,0.55125 7.19028,-0.152 8.67463,-0.3524 8.67463,-1.17113 z m 27.38934,-4.64251 c 0.71069,-0.38035 1.1177,-0.9738 0.9045,-1.31878 -0.24362,-0.39417 -0.84444,-0.38278 -1.61699,0.0307 -1.61083,0.86209 -3.30022,0.17534 -3.30022,-1.34158 0,-0.87796 0.5806,-1.2608 2.14011,-1.41117 2.68543,-0.25892 2.78231,-1.38138 0.16463,-1.9073 -1.98531,-0.39886 -1.4881,-0.94567 1.26242,-1.38835 2.16333,-0.34817 2.02591,-1.84942 -0.16928,-1.84942 -2.78962,0 -6.03187,2.8631 -6.03187,5.32651 0,3.52081 3.49139,5.54808 6.6467,3.85941 z m -63.69336,-3.994 c 1.35695,-1.93732 0.43959,-4.14516 -1.83502,-4.41638 -2.17753,-0.25965 -3.67551,0.87952 -3.67551,2.79512 0,3.05088 3.73873,4.15086 5.51053,1.62126 z m 24.1308,-7.86817 c 0.94361,-4.44653 2.72963,-7.2012 4.66896,-7.2012 1.8424,0 2.0733,1.21736 0.93973,4.95445 -1.28452,4.23475 -1.26516,6.03075 0.0731,6.77966 1.64839,0.92249 3.47563,0.15509 4.54232,-1.90766 1.86643,-3.60928 0.7525,-4.57348 -1.2676,-1.0972 -1.68285,2.89592 -2.09379,1.29037 -0.72472,-2.83151 0.6095,-1.83503 0.92073,-4.0616 0.694,-4.96495 -0.57813,-2.30347 -3.25556,-3.20988 -5.77256,-1.95424 -1.73295,0.86451 -2.13173,0.86407 -3.45631,-0.004 -1.34726,-0.88276 -1.63574,-0.86405 -2.87827,0.18672 -1.59985,1.35294 -2.65764,4.78954 -1.47422,4.78954 0.42027,0 1.07403,-0.88897 1.4528,-1.97549 0.37876,-1.08652 0.95599,-1.97549 1.28273,-1.97549 0.78889,0 0.76743,0.197 -0.64561,5.92647 -0.82962,3.36386 -1.00829,5.20379 -0.56029,5.76997 1.10367,1.39482 2.2152,-0.2036 3.12595,-4.49524 z"
       style="opacity:1;fill:#d00000;fill-opacity:0;fill-rule:nonzero;stroke:none;stroke-width:0.30000001;stroke-linecap:butt;stroke-linejoin:miter;stroke-miterlimit:4;stroke-dasharray:none;stroke-dashoffset:0;stroke-opacity:1" />
    <path
       inkscape:connector-curvature="0"
       id="path4674"
       d="m -32.17589,440.26301 0,-39.83905 -41.81454,0 c -27.43737,0 -41.81454,-0.22641 -41.81454,-0.6585 0,-0.41758 -4.93873,-0.65849 -13.49919,-0.65849 l -13.49918,0 0,-1.97549 c 0,-1.756 -0.2195,-1.97549 -1.97549,-1.97549 l -1.97549,0 0,-64.84536 0,-64.84535 35.72345,-0.1812 c 19.64789,-0.0997 35.84184,-0.11219 35.98656,-0.0278 0.14471,0.0844 -0.0151,1.12149 -0.35503,2.30474 -0.56295,1.95929 -0.84901,2.15138 -3.20378,2.15138 -2.24872,0 -2.67264,0.24494 -3.25343,1.87979 -0.57184,1.60967 -0.45554,2.05166 0.80936,3.07592 0.81243,0.65787 1.827,1.31274 2.25457,1.45527 0.52178,0.17392 -4.59242,18.21802 -15.55216,54.87179 -20.05366,67.06742 -19.64742,65.62238 -18.63283,66.27905 1.58388,1.02514 2.74538,0.11718 3.56574,-2.78736 0.55106,-1.95111 1.34561,-3.18689 2.32534,-3.61668 1.68325,-0.73842 2.30365,-3.22465 1.15119,-4.61328 -0.60311,-0.7267 3.07872,-13.83092 17.19616,-61.20396 l 17.96358,-60.27927 86.35933,0 86.35935,0 0.43643,27.76485 c 0.24003,15.27066 0.43643,55.83422 0.43643,90.14122 l 0,62.37639 -11.02982,2.63809 c -6.0664,1.45096 -36.28212,8.65497 -67.14604,16.00891 -55.5009,13.2242 -56.11206,13.38742 -55.73621,14.88489 0.2253,0.89768 0.0829,1.51408 -0.34987,1.51408 -0.52614,0 -0.72989,-11.12104 -0.72989,-39.83905 z m 23.70588,16.13317 c 1.58534,-1.58534 1.6111,-1.92106 0.29192,-3.80446 -1.11522,-1.59218 -3.51243,-1.93058 -4.76969,-0.67332 -1.10809,1.10809 -0.98355,3.53186 0.24458,4.75999 1.38729,1.3873 2.64772,1.30327 4.23319,-0.28221 z m 24.47575,-10.04207 c 1.57668,-1.27037 1.8603,-2.84028 0.78936,-4.36926 -1.0724,-1.53107 -3.4836,-1.8388 -4.72001,-0.60239 -1.10808,1.10808 -0.98354,3.53186 0.24459,4.75999 1.24899,1.24899 2.32214,1.31061 3.68606,0.21166 z m 42.55922,-9.84453 c 0.43461,-0.43461 0.7902,-1.41248 0.7902,-2.17304 0,-1.90181 -1.2316,-2.96323 -3.4383,-2.96323 -2.35026,0 -3.6817,2.37935 -2.53275,4.52618 0.8375,1.56488 3.86906,1.92188 5.18085,0.61009 z m -77.05894,-4.18587 c 1.59219,-1.11521 1.93059,-3.51242 0.67332,-4.76969 -1.7478,-1.74779 -5.79477,-0.19732 -5.79477,2.22008 0,0.99161 2.27328,3.5747 3.14596,3.5747 0.28159,0 1.17056,-0.46129 1.97549,-1.02509 z M 5.74823,406.02118 c 0.99921,-1.52499 0.99921,-1.76749 0,-3.29248 -1.22978,-1.87688 -3.10903,-2.12543 -4.623,-0.61146 -1.32162,1.32162 -1.32162,3.19378 0,4.5154 1.51397,1.51397 3.39322,1.26542 4.623,-0.61146 z M -97.91279,389.4567 c 2.27511,-2.05894 0.7694,-7.47065 -2.07857,-7.47065 -3.00714,0 -4.46944,4.8622 -2.21237,7.35624 1.35228,1.49425 2.72577,1.53087 4.29094,0.11441 z m 67.82517,-5.26797 c 1.55961,-1.41143 1.52863,-3.02196 -0.0862,-4.4834 -2.96637,-2.68454 -6.96728,1.31637 -4.28274,4.28274 1.42711,1.57695 2.77957,1.63907 4.36899,0.20066 z m -16.7069,-26.04026 c 1.25727,-1.25727 0.91887,-3.65448 -0.67332,-4.76969 -0.80492,-0.56379 -1.69389,-1.02508 -1.97549,-1.02508 -0.87268,0 -3.14596,2.58308 -3.14596,3.57469 0,2.4174 4.04698,3.96787 5.79477,2.22008 z m -20.55039,-8.09951 c 0.99921,-1.52499 0.99921,-1.76749 0,-3.29248 -1.22977,-1.87688 -3.10903,-2.12543 -4.62299,-0.61146 -2.00912,2.0091 -0.54835,5.55018 2.28956,5.55018 0.69012,0 1.74017,-0.74081 2.33343,-1.64624 z M 83.49695,323.55538 c 0.71369,-1.7081 0.84933,-2.96423 0.44441,-4.1156 -0.75261,-2.14003 -3.09925,-2.26135 -3.39548,-0.17554 -0.16189,1.13991 0.11411,1.48161 1.19674,1.48161 1.15407,0 1.32596,0.2665 0.95566,1.48162 -0.24833,0.81489 -0.90687,2.00019 -1.46343,2.63399 -0.91553,1.04261 -0.90491,1.15237 0.11149,1.15237 0.67485,0 1.53355,-0.98162 2.15061,-2.45845 z m -9.14052,-3.20626 c 0.1018,-0.32506 -0.56492,-0.68477 -1.48162,-0.79937 l -1.66671,-0.20837 0,-8.57159 c 0,-6.60032 -0.1893,-8.49309 -0.82312,-8.23026 -0.45272,0.18774 -1.93434,0.70382 -3.29249,1.14685 -2.94571,0.96091 -3.32373,2.24955 -0.49387,1.68358 l 1.97549,-0.3951 0,7.227 0,7.227 -1.97549,0 c -1.75722,0 -2.48518,0.58689 -1.70161,1.37187 0.54197,0.54293 9.27857,0.12583 9.45942,-0.45161 z m 25.39763,0.55634 c 0.7409,-1.1988 1.19122,-5.42758 0.57798,-5.42758 -0.36024,0 -0.80996,0.59265 -0.99938,1.31699 -0.2912,1.11353 -0.88802,1.31359 -3.86316,1.29492 l -3.51875,-0.0221 2.63398,-2.1106 c 6.45735,-5.17423 7.60668,-7.80311 4.9102,-11.23114 -3.30327,-4.19941 -11.16592,-2.2617 -11.16592,2.75178 0,1.38047 1.09762,2.08141 2.46937,1.57696 0.97498,-0.35855 1.11849,-2.79578 0.16462,-2.79578 -1.37144,0 -0.57998,-1.18974 1.31311,-1.97388 2.90045,-1.20141 5.27186,0.46541 5.27186,3.70548 0,2.03307 -0.6474,3.02741 -4.67653,7.18267 -2.5721,2.65261 -4.48071,5.13978 -4.24137,5.52704 0.49343,0.79839 10.64169,0.98561 11.12399,0.20522 z M 54.61398,310.48145 c 3.158,-1.57369 6.05817,-4.26809 6.05817,-5.62832 0,-1.14149 -1.30145,-0.51382 -4.28023,2.06429 -3.76683,3.26017 -6.18345,3.46606 -8.89193,0.75758 -2.33703,-2.33703 -2.98125,-5.56332 -2.01266,-10.07966 1.49108,-6.95268 5.73545,-11.74197 10.41072,-11.74735 1.85555,-0.002 2.14011,0.22078 2.14011,1.67648 0,0.92342 -0.43266,2.51563 -0.96148,3.53825 -1.16065,2.24445 -0.74826,2.83548 1.32071,1.8928 1.63568,-0.74527 3.59175,-4.76559 3.59175,-7.38211 0,-4.14308 -9.10994,-2.59141 -14.3811,2.44949 -6.60867,6.31999 -8.38352,17.90807 -3.42342,22.35163 2.61699,2.34445 5.87227,2.37782 10.42936,0.10692 z m -164.44919,-0.95321 c 1.44357,-0.77257 1.73562,-3.86099 0.4835,-5.1131 -0.4346,-0.43461 -1.41247,-0.7902 -2.17303,-0.7902 -1.88985,0 -2.96324,1.2285 -2.96324,3.39146 0,2.60756 2.22723,3.80995 4.65277,2.51184 z m 16.67792,-10.23739 c 0.21984,-0.57288 0.39028,-1.68409 0.37876,-2.46936 -0.0195,-1.32711 -0.0826,-1.34652 -0.89572,-0.27539 -0.53303,0.70219 -1.74677,1.14963 -3.10691,1.14535 l -2.23215,-0.007 3.12786,-2.88481 c 3.49387,-3.22238 4.01745,-5.43051 1.81087,-7.63709 -1.61025,-1.61025 -5.0409,-1.72661 -6.69774,-0.22719 -1.49965,1.35716 -1.61399,4.17817 -0.16935,4.17817 0.74128,0 0.9748,-0.51373 0.82312,-1.81086 -0.19538,-1.6709 -0.0336,-1.81087 2.09299,-1.81087 2.15823,0 2.317,0.14651 2.49771,2.30474 0.16832,2.01039 -0.23115,2.72207 -3.12786,5.57247 -1.82646,1.79725 -3.32083,3.64927 -3.32083,4.1156 0,1.34867 8.29732,1.1664 8.81925,-0.19373 z m 168.33615,-3.26246 c 0.74001,-0.89166 0.51579,-0.95982 -1.89129,-0.57491 -3.16961,0.50684 -4.71346,-0.40188 -4.71346,-2.77437 0,-1.41654 0.28215,-1.56561 2.96324,-1.56561 2.19498,0 2.96323,-0.25608 2.96323,-0.98774 0,-0.71207 -0.72936,-0.98775 -2.61332,-0.98775 -3.56169,0 -2.90031,-1.72886 1.04104,-2.7213 3.16057,-0.79584 3.86745,-1.88818 1.22188,-1.88818 -2.4708,0 -5.91536,1.62638 -7.13625,3.36945 -1.53808,2.19591 -1.36971,5.7789 0.35797,7.61793 1.72205,1.83304 6.45324,2.14361 7.80696,0.51248 z m -182.52218,-4.91902 c 1.50304,-1.08879 2.73279,-2.42225 2.73279,-2.96323 0,-1.38003 -0.33763,-1.25288 -2.63399,0.99187 -4.11273,4.02032 -8.57223,1.80791 -8.54599,-4.23977 0.0263,-6.05637 4.02407,-11.87668 7.8515,-11.43085 1.75468,0.20439 1.98328,1.18539 1.00469,4.31155 -0.70497,2.25207 0.8136,1.82601 2.34703,-0.65849 0.72648,-1.17707 1.24069,-2.88093 1.14269,-3.78636 -0.16249,-1.50126 -0.4484,-1.64293 -3.24639,-1.6086 -2.14063,0.0263 -3.8355,0.54541 -5.60623,1.71723 -5.73647,3.79621 -8.52377,14.05742 -4.87459,17.9454 2.31112,2.46236 6.19663,2.35216 9.82849,-0.27875 z m 13.54413,-9.61452 c 0.57288,-0.21984 1.0416,-0.65699 1.0416,-0.97145 0,-0.31446 -0.73823,-0.29107 -1.64052,0.052 -2.22582,0.84626 -3.62745,0.18377 -3.62745,-1.71452 0,-1.30485 0.33298,-1.57579 1.93663,-1.57579 1.06514,0 2.11976,-0.29632 2.3436,-0.6585 0.23833,-0.38563 -0.45045,-0.65849 -1.66226,-0.65849 -2.6777,0 -2.29006,-1.28837 0.71426,-2.3739 l 2.26499,-0.81839 -2.41083,-0.0501 c -1.9172,-0.0398 -2.75988,0.36473 -4.1156,1.97592 -1.92304,2.28539 -2.01373,2.74158 -0.9477,4.76686 1.23491,2.34615 3.39823,3.0644 6.10328,2.02638 z"
       style="opacity:1;fill:#d00000;fill-opacity:0;fill-rule:nonzero;stroke:none;stroke-width:0.30000001;stroke-linecap:butt;stroke-linejoin:miter;stroke-miterlimit:4;stroke-dasharray:none;stroke-dashoffset:0;stroke-opacity:1" />
    <path
       style="opacity:1;fill:url(#linearGradient4275);fill-opacity:1;fill-rule:nonzero;stroke:none;stroke-width:0.70459157;stroke-linecap:butt;stroke-linejoin:miter;stroke-miterlimit:4;stroke-dasharray:1.40918309, 4.22754928;stroke-dashoffset:1.75398266;stroke-opacity:1"
       d="m -74.4483,263.39558 c 0.002,-0.33106 5.55776,-21.20285 12.34682,-46.38176 l 12.34373,-45.77983 79.6781,15.49469 c 43.82296,8.52208 79.67811,15.71029 79.67811,15.97381 0,0.26352 -11.65253,13.96592 -25.89451,30.44977 l -25.8945,29.97064 -24.15125,5.7e-4 c -13.28319,3.1e-4 -43.04187,0.1971 -66.13041,0.4373 -25.23569,0.26253 -41.97794,0.19665 -41.97609,-0.16519 z"
       id="path4267"
       inkscape:connector-curvature="0" />
    <path
       style="fill:none;fill-rule:evenodd;stroke:#00a600;stroke-width:3.16946435;stroke-linecap:butt;stroke-linejoin:miter;stroke-miterlimit:4;stroke-dasharray:none;stroke-opacity:1"
       d="m -113.81248,399.62986 57.245985,0.20651"
       id="path4283"
       inkscape:connector-curvature="0"
       sodipodi:nodetypes="cc" />
    <text
       xml:space="preserve"
       style="font-style:normal;font-variant:normal;font-weight:normal;font-stretch:normal;font-size:37.5px;line-height:125%;font-family:'Times New Roman';-inkscape-font-specification:'Times New Roman, Normal';text-align:start;letter-spacing:0px;word-spacing:0px;writing-mode:lr-tb;text-anchor:start;fill:#000000;fill-opacity:1;stroke:none;stroke-width:1px;stroke-linecap:butt;stroke-linejoin:miter;stroke-opacity:1"
       x="-91.774445"
       y="389.69104"
       id="text4285"
       sodipodi:linespacing="125%"><tspan
         sodipodi:role="line"
         id="tspan4287"
         x="-91.774445"
         y="389.69104"
         style="font-size:31.25px;fill:#008000">B</tspan></text>
    <text
       xml:space="preserve"
       style="font-style:normal;font-variant:normal;font-weight:normal;font-stretch:normal;font-size:25px;line-height:125%;font-family:'Times New Roman';-inkscape-font-specification:'Times New Roman, Normal';text-align:start;letter-spacing:0px;word-spacing:0px;writing-mode:lr-tb;text-anchor:start;fill:#000000;fill-opacity:1;stroke:none;stroke-width:1px;stroke-linecap:butt;stroke-linejoin:miter;stroke-opacity:1"
       x="-182.06036"
       y="268.89926"
       id="text4289"
       sodipodi:linespacing="125%"><tspan
         sodipodi:role="line"
         id="tspan4291"
         x="-182.06036"
         y="268.89926">r</tspan></text>
    <circle
       style="opacity:1;fill:#222b00;fill-opacity:1;fill-rule:nonzero;stroke:#000000;stroke-width:2.4000001;stroke-linecap:butt;stroke-linejoin:miter;stroke-miterlimit:4;stroke-dasharray:none;stroke-dashoffset:1.75398266;stroke-opacity:1"
       id="path4293"
       cx="-9.7781811"
       cy="227.45844"
       r="1.3968825" />
    <text
       xml:space="preserve"
       style="font-style:normal;font-variant:normal;font-weight:normal;font-stretch:normal;font-size:25px;line-height:125%;font-family:'Times New Roman';-inkscape-font-specification:'Times New Roman, Normal';text-align:start;letter-spacing:0px;word-spacing:0px;writing-mode:lr-tb;text-anchor:start;fill:#000000;fill-opacity:1;stroke:none;stroke-width:1px;stroke-linecap:butt;stroke-linejoin:miter;stroke-opacity:1"
       x="-4.1906385"
       y="229.32094"
       id="text4295"
       sodipodi:linespacing="125%"><tspan
         sodipodi:role="line"
         id="tspan4297"
         x="-4.1906385"
         y="229.32094">V</tspan></text>
    <text
       xml:space="preserve"
       style="font-style:normal;font-variant:normal;font-weight:normal;font-stretch:normal;font-size:25px;line-height:125%;font-family:'Times New Roman';-inkscape-font-specification:'Times New Roman, Normal';text-align:start;letter-spacing:0px;word-spacing:0px;writing-mode:lr-tb;text-anchor:start;fill:#000000;fill-opacity:1;stroke:none;stroke-width:1px;stroke-linecap:butt;stroke-linejoin:miter;stroke-opacity:1"
       x="-167.50157"
       y="404.83649"
       id="text4420"
       sodipodi:linespacing="125%"><tspan
         sodipodi:role="line"
         id="tspan4422"
         x="-167.50157"
         y="404.83649">1</tspan></text>
  </g>
</svg>
