<?xml version="1.0" encoding="UTF-8" standalone="no"?>
<!-- Created with Inkscape (http://www.inkscape.org/) -->

<svg
   xmlns:dc="http://purl.org/dc/elements/1.1/"
   xmlns:cc="http://creativecommons.org/ns#"
   xmlns:rdf="http://www.w3.org/1999/02/22-rdf-syntax-ns#"
   xmlns:svg="http://www.w3.org/2000/svg"
   xmlns="http://www.w3.org/2000/svg"
   xmlns:sodipodi="http://sodipodi.sourceforge.net/DTD/sodipodi-0.dtd"
   xmlns:inkscape="http://www.inkscape.org/namespaces/inkscape"
   id="svg4336"
   version="1.1"
   inkscape:version="0.91 r"
   width="431"
   height="403"
   viewBox="0 0 431 403"
   sodipodi:docname="representation2D.svg">
  <sodipodi:namedview
     pagecolor="#ffffff"
     bordercolor="#666666"
     borderopacity="1"
     objecttolerance="10"
     gridtolerance="10"
     guidetolerance="10"
     inkscape:pageopacity="0"
     inkscape:pageshadow="2"
     inkscape:window-width="1861"
     inkscape:window-height="1056"
     id="namedview4338"
     showgrid="false"
     inkscape:zoom="1.5186104"
     inkscape:cx="350.93048"
     inkscape:cy="196.56186"
     inkscape:window-x="59"
     inkscape:window-y="24"
     inkscape:window-maximized="1"
     inkscape:current-layer="g8656" />
  <metadata
     id="metadata4342">
    <rdf:RDF>
      <cc:Work
         rdf:about="">
        <dc:format>image/svg+xml</dc:format>
        <dc:type
           rdf:resource="http://purl.org/dc/dcmitype/StillImage" />
        <dc:title />
      </cc:Work>
    </rdf:RDF>
  </metadata>
  <defs
     id="defs4340">
    <marker
       style="overflow:visible"
       id="Arrow1Mstart"
       refX="0"
       refY="0"
       orient="auto"
       inkscape:stockid="Arrow1Mstart">
      <path
         transform="matrix(0.4,0,0,0.4,4,0)"
         style="fill-rule:evenodd;stroke:#000000;stroke-width:1pt"
         d="M 0,0 5,-5 -12.5,0 5,5 0,0 z"
         id="path3814"
         inkscape:connector-curvature="0" />
    </marker>
    <marker
       style="overflow:visible"
       id="Arrow1Mend"
       refX="0"
       refY="0"
       orient="auto"
       inkscape:stockid="Arrow1Mend">
      <path
         transform="matrix(-0.4,0,0,-0.4,-4,0)"
         style="fill-rule:evenodd;stroke:#000000;stroke-width:1pt"
         d="M 0,0 5,-5 -12.5,0 5,5 0,0 z"
         id="path3817"
         inkscape:connector-curvature="0" />
    </marker>
  </defs>
  <g
     id="g8656"
     transform="translate(207.66987,-143.41327)">
    <path
       style="fill:none;fill-rule:evenodd;stroke:#000000;stroke-width:0.89842278px;stroke-linecap:butt;stroke-linejoin:miter;stroke-opacity:1"
       d="m -147.56457,169.93867 0,338.01092 364.78405,0"
       id="path4348"
       inkscape:connector-curvature="0" />
    <circle
       r="2.6773143"
       cy="350.31689"
       cx="-127.00341"
       id="use5284"
       style="opacity:1;fill:#000000;fill-opacity:1;fill-rule:nonzero;stroke:#0000e6;stroke-width:0.72581244;stroke-linecap:butt;stroke-linejoin:miter;stroke-miterlimit:4;stroke-dasharray:none;stroke-dashoffset:0;stroke-opacity:1" />
    <circle
       r="2.6773143"
       cy="285.80722"
       cx="-127.68764"
       id="use5314"
       style="opacity:1;fill:#000000;fill-opacity:1;fill-rule:nonzero;stroke:#0000e6;stroke-width:0.72581244;stroke-linecap:butt;stroke-linejoin:miter;stroke-miterlimit:4;stroke-dasharray:none;stroke-dashoffset:0;stroke-opacity:1" />
    <circle
       r="2.6773143"
       cy="206.57759"
       cx="-137.19061"
       id="use5328"
       style="opacity:1;fill:#000000;fill-opacity:1;fill-rule:nonzero;stroke:#0000e6;stroke-width:0.72581244;stroke-linecap:butt;stroke-linejoin:miter;stroke-miterlimit:4;stroke-dasharray:none;stroke-dashoffset:0;stroke-opacity:1" />
    <circle
       r="2.6773143"
       cy="191.98941"
       cx="-134.49234"
       id="use5334"
       style="opacity:1;fill:#000000;fill-opacity:1;fill-rule:nonzero;stroke:#0000e6;stroke-width:0.72581244;stroke-linecap:butt;stroke-linejoin:miter;stroke-miterlimit:4;stroke-dasharray:none;stroke-dashoffset:0;stroke-opacity:1" />
    <circle
       r="2.6773143"
       cy="501.69965"
       cx="-16.617542"
       id="use5380"
       style="opacity:1;fill:#000000;fill-opacity:1;fill-rule:nonzero;stroke:#0000e6;stroke-width:0.72581244;stroke-linecap:butt;stroke-linejoin:miter;stroke-miterlimit:4;stroke-dasharray:none;stroke-dashoffset:0;stroke-opacity:1" />
    <circle
       r="2.6773143"
       cy="454.26984"
       cx="-10.682374"
       id="use5384"
       style="opacity:1;fill:#000000;fill-opacity:1;fill-rule:nonzero;stroke:#0000e6;stroke-width:0.72581244;stroke-linecap:butt;stroke-linejoin:miter;stroke-miterlimit:4;stroke-dasharray:none;stroke-dashoffset:0;stroke-opacity:1" />
    <circle
       r="2.6773143"
       cy="500.95752"
       cx="48.918392"
       id="use5416"
       style="opacity:1;fill:#000000;fill-opacity:1;fill-rule:nonzero;stroke:#0000e6;stroke-width:0.72581244;stroke-linecap:butt;stroke-linejoin:miter;stroke-miterlimit:4;stroke-dasharray:none;stroke-dashoffset:0;stroke-opacity:1" />
    <circle
       r="2.6773143"
       cy="503.59311"
       cx="145.24173"
       id="use5438"
       style="opacity:1;fill:#000000;fill-opacity:1;fill-rule:nonzero;stroke:#0000e6;stroke-width:0.72581244;stroke-linecap:butt;stroke-linejoin:miter;stroke-miterlimit:4;stroke-dasharray:none;stroke-dashoffset:0;stroke-opacity:1" />
    <circle
       r="2.6773143"
       cy="496.48264"
       cx="-15.451622"
       id="use5458"
       style="opacity:1;fill:#000000;fill-opacity:1;fill-rule:nonzero;stroke:#0000e6;stroke-width:0.72581244;stroke-linecap:butt;stroke-linejoin:miter;stroke-miterlimit:4;stroke-dasharray:none;stroke-dashoffset:0;stroke-opacity:1" />
    <circle
       r="2.6773143"
       cy="480.58124"
       cx="-11.145647"
       id="use5462"
       style="opacity:1;fill:#000000;fill-opacity:1;fill-rule:nonzero;stroke:#0000e6;stroke-width:0.72581244;stroke-linecap:butt;stroke-linejoin:miter;stroke-miterlimit:4;stroke-dasharray:none;stroke-dashoffset:0;stroke-opacity:1" />
    <circle
       r="2.6773143"
       cy="502.4884"
       cx="24.542305"
       id="use5474"
       style="opacity:1;fill:#000000;fill-opacity:1;fill-rule:nonzero;stroke:#0000e6;stroke-width:0.72581244;stroke-linecap:butt;stroke-linejoin:miter;stroke-miterlimit:4;stroke-dasharray:none;stroke-dashoffset:0;stroke-opacity:1" />
    <circle
       r="2.6773143"
       cy="498.66531"
       cx="185.58412"
       id="use5514"
       style="opacity:1;fill:#000000;fill-opacity:1;fill-rule:nonzero;stroke:#0000e6;stroke-width:0.72581244;stroke-linecap:butt;stroke-linejoin:miter;stroke-miterlimit:4;stroke-dasharray:none;stroke-dashoffset:0;stroke-opacity:1" />
    <circle
       r="2.6773143"
       cy="493.57938"
       cx="170.0939"
       id="use5526"
       style="opacity:1;fill:#000000;fill-opacity:1;fill-rule:nonzero;stroke:#0000e6;stroke-width:0.72581244;stroke-linecap:butt;stroke-linejoin:miter;stroke-miterlimit:4;stroke-dasharray:none;stroke-dashoffset:0;stroke-opacity:1" />
    <circle
       r="2.6773143"
       cy="259.21899"
       cx="-141.74504"
       id="use5552"
       style="opacity:1;fill:#000000;fill-opacity:1;fill-rule:nonzero;stroke:#0000e6;stroke-width:0.72581244;stroke-linecap:butt;stroke-linejoin:miter;stroke-miterlimit:4;stroke-dasharray:none;stroke-dashoffset:0;stroke-opacity:1" />
    <circle
       r="2.6773143"
       cy="318.75635"
       cx="-139.6494"
       id="use5574"
       style="opacity:1;fill:#000000;fill-opacity:1;fill-rule:nonzero;stroke:#0000e6;stroke-width:0.72581244;stroke-linecap:butt;stroke-linejoin:miter;stroke-miterlimit:4;stroke-dasharray:none;stroke-dashoffset:0;stroke-opacity:1" />
    <circle
       r="2.6773143"
       cy="365.39682"
       cx="-145.05498"
       id="use5578"
       style="opacity:1;fill:#000000;fill-opacity:1;fill-rule:nonzero;stroke:#0000e6;stroke-width:0.72581244;stroke-linecap:butt;stroke-linejoin:miter;stroke-miterlimit:4;stroke-dasharray:none;stroke-dashoffset:0;stroke-opacity:1" />
    <circle
       r="2.6773143"
       cy="375.39664"
       cx="-134.38466"
       id="use5582"
       style="opacity:1;fill:#000000;fill-opacity:1;fill-rule:nonzero;stroke:#0000e6;stroke-width:0.72581244;stroke-linecap:butt;stroke-linejoin:miter;stroke-miterlimit:4;stroke-dasharray:none;stroke-dashoffset:0;stroke-opacity:1" />
    <circle
       r="2.6773143"
       cy="387.1925"
       cx="-100.04468"
       id="use5584"
       style="opacity:1;fill:#000000;fill-opacity:1;fill-rule:nonzero;stroke:#0000e6;stroke-width:0.72581244;stroke-linecap:butt;stroke-linejoin:miter;stroke-miterlimit:4;stroke-dasharray:none;stroke-dashoffset:0;stroke-opacity:1" />
    <circle
       r="2.6773143"
       cy="388.24466"
       cx="-108.28557"
       id="use5598"
       style="opacity:1;fill:#000000;fill-opacity:1;fill-rule:nonzero;stroke:#0000e6;stroke-width:0.72581244;stroke-linecap:butt;stroke-linejoin:miter;stroke-miterlimit:4;stroke-dasharray:none;stroke-dashoffset:0;stroke-opacity:1" />
    <circle
       r="2.6773143"
       cy="385.35791"
       cx="-100.14463"
       id="use5612"
       style="opacity:1;fill:#000000;fill-opacity:1;fill-rule:nonzero;stroke:#0000e6;stroke-width:0.72581244;stroke-linecap:butt;stroke-linejoin:miter;stroke-miterlimit:4;stroke-dasharray:none;stroke-dashoffset:0;stroke-opacity:1" />
    <circle
       r="2.6773143"
       cy="309.23346"
       cx="-144.60081"
       id="use5664"
       style="opacity:1;fill:#000000;fill-opacity:1;fill-rule:nonzero;stroke:#0000e6;stroke-width:0.72581244;stroke-linecap:butt;stroke-linejoin:miter;stroke-miterlimit:4;stroke-dasharray:none;stroke-dashoffset:0;stroke-opacity:1" />
    <circle
       r="2.6773143"
       cy="307.09943"
       cx="-128.85918"
       id="use5666"
       style="opacity:1;fill:#000000;fill-opacity:1;fill-rule:nonzero;stroke:#0000e6;stroke-width:0.72581244;stroke-linecap:butt;stroke-linejoin:miter;stroke-miterlimit:4;stroke-dasharray:none;stroke-dashoffset:0;stroke-opacity:1" />
    <circle
       r="2.6773143"
       cy="319.93085"
       cx="-136.30067"
       id="use5684"
       style="opacity:1;fill:#000000;fill-opacity:1;fill-rule:nonzero;stroke:#0000e6;stroke-width:0.72581244;stroke-linecap:butt;stroke-linejoin:miter;stroke-miterlimit:4;stroke-dasharray:none;stroke-dashoffset:0;stroke-opacity:1" />
    <path
       style="fill:none;fill-rule:evenodd;stroke:#000000;stroke-width:0.89842278px;stroke-linecap:butt;stroke-linejoin:miter;stroke-opacity:1"
       d="m -153.54298,400.81906 120.479138,0 0,112.11253"
       id="path6296"
       inkscape:connector-curvature="0" />
    <path
       id="path3025"
       d="m -174.4482,477.90067 0.10929,0 0.10928,0 0.10929,0 0.0364,0 0.0729,0 0.0364,0 0.0729,-0.0364 0.0364,0 0.0364,0 0.0729,0 0.0364,0 0.0364,-0.0364 0.0729,0 0.0364,-0.0364 0.0364,0 0.0364,-0.0364 0.0364,0 0.0364,-0.0364 0.0364,0 0.0364,-0.0364 0,-0.0364 0.0364,-0.0364 0,-0.0364 0.0364,0 0,-0.0364 0,0 0,-0.0364 0.0364,0 0,-0.0364 0,-0.0364 0,0 0,-0.0364 0,-0.0364 0,0 0,-0.0364 0.0364,-0.0364 c 0,-0.51002 -0.43715,-0.51002 -1.05646,-0.51002 l -5.86514,0 c 0.83789,-3.06007 2.87793,-5.17298 6.19301,-5.17298 l 1.12932,0 c 0.58287,0 1.16573,0 1.16573,-0.61931 0,-0.51 -0.47358,-0.51 -1.09288,-0.51 l -1.2386,0 c -4.73584,0 -9.58095,3.64295 -9.58095,9.18022 0,3.97082 2.73221,6.81231 6.5573,6.81231 2.36793,0 4.69941,-1.42075 4.69941,-1.82147 0,-0.10928 -0.0364,-0.51001 -0.3643,-0.51001 -0.0729,0 -0.14571,0 -0.47358,0.21858 -1.09289,0.72858 -2.44077,1.34788 -3.78867,1.34788 -2.1129,0 -3.89795,-1.53003 -3.89795,-4.73583 0,-1.2386 0.29143,-2.62292 0.40073,-3.06007 z"
       inkscape:connector-curvature="0"
       style="font-style:normal;font-variant:normal;font-weight:normal;font-stretch:normal;letter-spacing:normal;word-spacing:normal;text-anchor:start;fill:#000000;stroke:#3822e3;stroke-width:1.56228626;stroke-linecap:butt;stroke-linejoin:miter;stroke-miterlimit:10.43299961;stroke-dasharray:none;stroke-dashoffset:0;stroke-opacity:1" />
    <path
       inkscape:connector-curvature="0"
       id="path4798"
       d="m -32.256058,479.21652 -128.869282,0"
       style="fill:none;stroke:#191cdc;stroke-width:2.13990998;stroke-linecap:butt;stroke-linejoin:miter;stroke-miterlimit:4;stroke-dasharray:6.41973, 6.41973;stroke-dashoffset:0;stroke-opacity:1"
       sodipodi:nodetypes="cc" />
    <path
       sodipodi:nodetypes="cc"
       inkscape:connector-curvature="0"
       id="path4798-0"
       d="m -112.90295,521.64634 -1.07167,-119.7935"
       style="fill:none;stroke:#352fce;stroke-width:2.13990998;stroke-linecap:butt;stroke-linejoin:miter;stroke-miterlimit:4;stroke-dasharray:8.55964, 8.55964;stroke-dashoffset:0;stroke-opacity:1" />
    <g
       transform="matrix(1.069955,0,0,1.069955,-47.578456,-237.1579)"
       id="g8634">
      <path
         id="path4835"
         d="m 100.99327,506.63396 0,-0.037 0,0 0,0 0,-0.037 0,0 0,0 0,0 -0.037,0 0,-0.037 0,0 0,-0.037 0,0 0,0 -0.037,-0.037 0,0 0,0 0,-0.037 -0.037,0 0,0 0,0 -0.037,0 0,0 -0.037,-0.037 0,0 0,0 -0.037,0 0,0 -0.037,0 0,0 -0.037,0 0,0 0,0 -0.037,0 0,0 -0.037,0 c -0.62847,0 -1.51571,0.51756 -1.55268,0.51756 -0.73937,0.48059 -0.88725,0.73937 -1.33087,1.36783 -1.14603,1.73753 -2.77265,2.99446 -5.13863,2.99446 -3.32718,0 -6.28466,-2.40296 -6.28466,-7.91128 0,-3.2902 1.33087,-7.68946 3.25323,-10.57301 1.62662,-2.32902 3.62292,-4.25139 7.39372,-4.25139 1.4048,0 2.29205,0.51756 2.29205,1.8854 0,1.25693 -1.36784,3.8817 -1.81146,4.62107 -0.22181,0.40666 -0.22181,0.48059 -0.22181,0.55453 0,0.22181 0.18484,0.22181 0.40665,0.22181 0.73937,0 2.10721,-0.77634 2.55083,-1.36783 0.0739,-0.14788 2.18115,-3.7708 2.18115,-5.61923 0,-2.03327 -1.62662,-2.32902 -2.95749,-2.32902 -5.32347,0 -9.72273,3.51202 -11.42329,5.54529 -4.36229,5.2865 -4.80591,10.97967 -4.80591,12.90203 0,5.36044 2.73567,8.31793 6.98706,8.31793 5.91497,0 10.83179,-5.73013 10.83179,-6.61737 z"
         inkscape:connector-curvature="0"
         style="font-style:normal;font-variant:normal;font-weight:normal;font-stretch:normal;letter-spacing:normal;word-spacing:normal;text-anchor:start;fill:#000000;stroke:#000000;stroke-width:0;stroke-linecap:butt;stroke-linejoin:miter;stroke-miterlimit:10.43299961;stroke-dasharray:none;stroke-dashoffset:0;stroke-opacity:1" />
      <path
         id="path4837"
         d="m 113.26684,493.25133 0.0739,0 0.0739,0 0.0739,0 0.037,0 0.037,0 0.037,0 0.037,0 0.037,0 0.037,-0.037 0.037,0 0.037,0 0.037,0 0.037,-0.037 0.037,0 0,0 0.037,-0.037 0.037,0 0.037,-0.037 0,0 0.037,-0.037 0,0 0.037,-0.037 0,0 0,-0.037 0,0 0.037,0 0,-0.037 0,0 0,-0.037 0,0 0,-0.037 0,0 0,-0.037 0.037,0 0,-0.037 0,0 0,-0.037 c 0,-0.44362 -0.40666,-0.44362 -0.88725,-0.44362 l -4.62107,0 c 0.77634,-2.32902 2.43992,-3.47505 4.73198,-3.47505 l 0.96118,0 c 0.40665,0 0.92421,0 0.92421,-0.48059 0,-0.44362 -0.36968,-0.44362 -0.85027,-0.44362 l -1.10906,0 c -3.43808,0 -7.28281,2.40295 -7.28281,6.32162 0,2.99446 2.29205,5.02773 5.28651,5.02773 0.77634,0 1.84842,-0.14788 3.21626,-0.92422 0.51756,-0.25878 0.55453,-0.33271 0.55453,-0.48059 0,-0.0739 0,-0.51756 -0.36968,-0.51756 -0.11091,0 -0.14788,0 -0.29575,0.11091 -0.92422,0.5915 -1.99631,1.07209 -3.0684,1.07209 -0.99815,0 -3.14232,-0.48059 -3.14232,-3.43808 0,-0.36969 0,-0.85028 0.22181,-1.84843 z"
         inkscape:connector-curvature="0"
         style="font-style:normal;font-variant:normal;font-weight:normal;font-stretch:normal;letter-spacing:normal;word-spacing:normal;text-anchor:start;fill:#000000;stroke:#000000;stroke-width:0;stroke-linecap:butt;stroke-linejoin:miter;stroke-miterlimit:10.43299961;stroke-dasharray:none;stroke-dashoffset:0;stroke-opacity:1" />
      <path
         id="path4839"
         d="m 110.75298,505.15521 0,0 0,-0.037 0,-0.037 0,-0.037 0,-0.037 0,0 0,-0.037 0,-0.037 0,0 0,-0.037 0,-0.037 0,0 0,-0.037 0,0 0,-0.037 0,-0.037 -0.037,0 0,0 0,-0.037 0,-0.037 0,-0.037 -0.037,-0.037 0,0 -0.037,-0.037 0,0 -0.037,-0.037 0,0 -0.037,0 -0.037,-0.037 0,0 -0.037,0 -0.037,0 -0.037,-0.037 0,0 -0.037,0 0,0 -0.037,0 -0.037,0 0,0 -0.037,0 -0.037,0 0,0 -0.037,0 -0.037,0 -0.037,0 0,0 -0.037,0 -0.037,0 -0.037,0 -0.037,0 c -1.62662,1.62662 -3.99261,1.66359 -5.02773,1.66359 l 0,0.92421 c 0.5915,0 2.29205,0 3.73383,-0.73937 l 0,13.12384 c 0,0.85028 0,1.183 -2.5878,1.183 l -0.96119,0 0,0.92421 c 0.44363,-0.037 3.62292,-0.1109 4.58411,-0.1109 0.77634,0 4.02957,0.0739 4.5841,0.1109 l 0,-0.92421 -0.96118,0 c -2.5878,0 -2.5878,-0.33272 -2.5878,-1.183 z"
         inkscape:connector-curvature="0"
         style="font-style:normal;font-variant:normal;font-weight:normal;font-stretch:normal;letter-spacing:normal;word-spacing:normal;text-anchor:start;fill:#000000;stroke:#000000;stroke-width:0;stroke-linecap:butt;stroke-linejoin:miter;stroke-miterlimit:10.43299961;stroke-dasharray:none;stroke-dashoffset:0;stroke-opacity:1" />
      <path
         id="path4841"
         d="m 122.2502,521.12564 0,0.25878 0,0.25878 -0.037,0.29575 -0.037,0.25878 -0.037,0.14787 0,0.14788 -0.037,0.14787 -0.037,0.14787 -0.037,0.14788 -0.037,0.14787 -0.037,0.14788 -0.0739,0.14787 -0.037,0.14788 -0.0739,0.14787 -0.037,0.14787 -0.0739,0.14788 -0.11091,0.14787 -0.0739,0.14788 -0.0739,0.14787 -0.11091,0.18484 -0.1109,0.14788 -0.11091,0.14787 -0.11091,0.14788 -0.14787,0.14787 -0.11091,0.14788 -0.14787,0.14787 -0.14787,0.18484 -0.18485,0.14788 c -0.0739,0.1109 -0.14787,0.18484 -0.14787,0.29575 0,0.18484 0.18484,0.36968 0.33272,0.36968 0.36968,0 2.55083,-2.07024 2.55083,-5.10166 0,-1.62662 -0.5915,-2.80961 -1.77449,-2.80961 -0.85028,0 -1.47875,0.66543 -1.47875,1.44177 0,0.85028 0.5915,1.51571 1.47875,1.51571 0.62846,0 1.03512,-0.40665 1.07208,-0.40665 z"
         inkscape:connector-curvature="0"
         style="font-style:normal;font-variant:normal;font-weight:normal;font-stretch:normal;letter-spacing:normal;word-spacing:normal;text-anchor:start;fill:#000000;stroke:#000000;stroke-width:0;stroke-linecap:butt;stroke-linejoin:miter;stroke-miterlimit:10.43299961;stroke-dasharray:none;stroke-dashoffset:0;stroke-opacity:1" />
      <path
         id="path4843"
         d="m 138.55335,516.83728 -0.88725,0 c -0.0739,0.55453 -0.29575,2.07024 -0.66543,2.32902 -0.18485,0.18485 -2.18115,0.18485 -2.51387,0.18485 l -4.76894,0 c 2.73567,-2.40296 3.62292,-3.14233 5.1756,-4.32533 1.8854,-1.51571 3.65989,-3.10536 3.65989,-5.54528 0,-3.14233 -2.73568,-5.02773 -6.02588,-5.02773 -3.1793,0 -5.36044,2.21811 -5.36044,4.5841 0,1.33087 1.10905,1.44178 1.36783,1.44178 0.62847,0 1.36784,-0.40666 1.36784,-1.33087 0,-0.48059 -0.18484,-1.36784 -1.51571,-1.36784 0.81331,-1.84843 2.55083,-2.40296 3.77079,-2.40296 2.55084,0 3.91867,1.99631 3.91867,4.10352 0,2.21811 -1.58965,3.9926 -2.43992,4.91682 l -6.21072,6.13678 c -0.25878,0.22181 -0.25878,0.25878 -0.25878,0.99815 l 10.60998,0 z"
         inkscape:connector-curvature="0"
         style="font-style:normal;font-variant:normal;font-weight:normal;font-stretch:normal;letter-spacing:normal;word-spacing:normal;text-anchor:start;fill:#000000;stroke:#000000;stroke-width:0;stroke-linecap:butt;stroke-linejoin:miter;stroke-miterlimit:10.43299961;stroke-dasharray:none;stroke-dashoffset:0;stroke-opacity:1" />
    </g>
    <g
       transform="matrix(1.069955,0,0,1.069955,-92.670415,-278.02248)"
       style="fill:#0000ff"
       id="g8629">
      <path
         d="m 266.12196,703.79189 0,-0.0422 0,0 0,0 0,-0.0422 0,0 0,0 0,0 -0.0422,0 0,-0.0422 0,0 0,-0.0422 0,0 0,0 -0.0422,-0.0422 0,0 0,0 0,-0.0422 -0.0422,0 0,0 0,0 -0.0422,0 0,0 -0.0422,-0.0422 0,0 0,0 -0.0422,0 0,0 -0.0422,0 0,0 -0.0422,0 0,0 0,0 -0.0422,0 0,0 -0.0422,0 c -0.7173,0 -1.72996,0.59072 -1.77215,0.59072 -0.84388,0.54852 -1.01266,0.84388 -1.51899,1.56118 -1.30802,1.98312 -3.16456,3.41772 -5.86498,3.41772 -3.79747,0 -7.17299,-2.74262 -7.17299,-9.02954 0,-3.75527 1.51898,-8.77637 3.71308,-12.06751 1.85654,-2.65823 4.13502,-4.85232 8.43882,-4.85232 1.60337,0 2.61603,0.59072 2.61603,2.1519 0,1.4346 -1.56118,4.43038 -2.06751,5.27426 -0.25317,0.46414 -0.25317,0.54853 -0.25317,0.63291 0,0.25317 0.21097,0.25317 0.46414,0.25317 0.84388,0 2.40506,-0.88608 2.91139,-1.56118 0.0844,-0.16878 2.48945,-4.3038 2.48945,-6.41351 0,-2.32067 -1.85654,-2.65822 -3.37552,-2.65822 -6.07595,0 -11.09705,4.00844 -13.03798,6.32911 -4.9789,6.03376 -5.48523,12.53165 -5.48523,14.72574 0,6.11814 3.12236,9.49367 7.97468,9.49367 6.75106,0 12.36287,-6.54008 12.36287,-7.55274 z"
         id="path4943"
         inkscape:connector-curvature="0"
         style="font-style:normal;font-variant:normal;font-weight:normal;font-stretch:normal;letter-spacing:normal;word-spacing:normal;text-anchor:start;fill:#0000ff;stroke:#000000;stroke-width:0;stroke-linecap:butt;stroke-linejoin:miter;stroke-miterlimit:10.43299961;stroke-dasharray:none;stroke-dashoffset:0;stroke-opacity:1" />
      <path
         d="m 280.1304,688.51763 0.0844,0 0.0844,0 0.0844,0 0.0422,0 0.0422,0 0.0422,0 0.0422,0 0.0422,0 0.0422,-0.0422 0.0422,0 0.0422,0 0.0422,0 0.0422,-0.0422 0.0422,0 0,0 0.0422,-0.0422 0.0422,0 0.0422,-0.0422 0,0 0.0422,-0.0422 0,0 0.0422,-0.0422 0,0 0,-0.0422 0,0 0.0422,0 0,-0.0422 0,0 0,-0.0422 0,0 0,-0.0422 0,0 0,-0.0422 0.0422,0 0,-0.0422 0,0 0,-0.0422 c 0,-0.50633 -0.46414,-0.50633 -1.01266,-0.50633 l -5.27426,0 c 0.88608,-2.65822 2.78481,-3.96624 5.40084,-3.96624 l 1.09705,0 c 0.46413,0 1.05485,0 1.05485,-0.54852 0,-0.50633 -0.42194,-0.50633 -0.97046,-0.50633 l -1.26583,0 c -3.92405,0 -8.31223,2.74261 -8.31223,7.21519 0,3.41772 2.61603,5.73839 6.03375,5.73839 0.88608,0 2.10971,-0.16877 3.67089,-1.05485 0.59072,-0.29536 0.63291,-0.37975 0.63291,-0.54852 0,-0.0844 0,-0.59072 -0.42194,-0.59072 -0.12658,0 -0.16878,0 -0.33755,0.12658 -1.05485,0.67511 -2.27848,1.22363 -3.50211,1.22363 -1.13924,0 -3.5865,-0.54852 -3.5865,-3.92405 0,-0.42194 0,-0.97046 0.25316,-2.1097 z"
         id="path4945"
         inkscape:connector-curvature="0"
         style="font-style:normal;font-variant:normal;font-weight:normal;font-stretch:normal;letter-spacing:normal;word-spacing:normal;text-anchor:start;fill:#0000ff;stroke:#000000;stroke-width:0;stroke-linecap:butt;stroke-linejoin:miter;stroke-miterlimit:10.43299961;stroke-dasharray:none;stroke-dashoffset:0;stroke-opacity:1" />
      <path
         d="m 277.2612,702.10412 0,0 0,-0.0422 0,-0.0422 0,-0.0422 0,-0.0422 0,0 0,-0.0422 0,-0.0422 0,0 0,-0.0422 0,-0.0422 0,0 0,-0.0422 0,0 0,-0.0422 0,-0.0422 -0.0422,0 0,0 0,-0.0422 0,-0.0422 0,-0.0422 -0.0422,-0.0422 0,0 -0.0422,-0.0422 0,0 -0.0422,-0.0422 0,0 -0.0422,0 -0.0422,-0.0422 0,0 -0.0422,0 -0.0422,0 -0.0422,-0.0422 0,0 -0.0422,0 0,0 -0.0422,0 -0.0422,0 0,0 -0.0422,0 -0.0422,0 0,0 -0.0422,0 -0.0422,0 -0.0422,0 0,0 -0.0422,0 -0.0422,0 -0.0422,0 -0.0422,0 c -1.85654,1.85654 -4.55697,1.89873 -5.7384,1.89873 l 0,1.05485 c 0.67511,0 2.61603,0 4.2616,-0.84388 l 0,14.9789 c 0,0.97047 0,1.35021 -2.95358,1.35021 l -1.09705,0 0,1.05486 c 0.50633,-0.0422 4.13502,-0.12659 5.23207,-0.12659 0.88607,0 4.59915,0.0844 5.23207,0.12659 l 0,-1.05486 -1.09705,0 c -2.95359,0 -2.95359,-0.37974 -2.95359,-1.35021 z"
         id="path4947"
         inkscape:connector-curvature="0"
         style="font-style:normal;font-variant:normal;font-weight:normal;font-stretch:normal;letter-spacing:normal;word-spacing:normal;text-anchor:start;fill:#0000ff;stroke:#000000;stroke-width:0;stroke-linecap:butt;stroke-linejoin:miter;stroke-miterlimit:10.43299961;stroke-dasharray:none;stroke-dashoffset:0;stroke-opacity:1" />
    </g>
    <g
       style="fill:#0000ff"
       transform="matrix(1.069955,0,0,1.069955,-38.855562,-180.39949)"
       id="g8624">
      <path
         id="path5005"
         d="m -56.82559,375.83049 0,-0.0422 0,0 0,0 0,-0.0422 0,0 0,0 0,0 -0.0422,0 0,-0.0422 0,0 0,-0.0422 0,0 0,0 -0.0422,-0.0422 0,0 0,0 0,-0.0422 -0.0422,0 0,0 0,0 -0.0422,0 0,0 -0.0422,-0.0422 0,0 0,0 -0.0422,0 0,0 -0.0422,0 0,0 -0.0422,0 0,0 0,0 -0.0422,0 0,0 -0.0422,0 c -0.7173,0 -1.72996,0.59072 -1.77215,0.59072 -0.84388,0.54852 -1.01266,0.84388 -1.51899,1.56118 -1.30802,1.98312 -3.16456,3.41772 -5.86498,3.41772 -3.79747,0 -7.17299,-2.74262 -7.17299,-9.02954 0,-3.75527 1.51898,-8.77637 3.71308,-12.06751 1.85654,-2.65823 4.13502,-4.85232 8.43882,-4.85232 1.60337,0 2.61603,0.59072 2.61603,2.1519 0,1.4346 -1.56118,4.43038 -2.06751,5.27426 -0.25317,0.46414 -0.25317,0.54853 -0.25317,0.63291 0,0.25317 0.21097,0.25317 0.46414,0.25317 0.84388,0 2.40506,-0.88608 2.91139,-1.56118 0.0844,-0.16878 2.48945,-4.3038 2.48945,-6.41351 0,-2.32067 -1.85654,-2.65822 -3.37552,-2.65822 -6.07595,0 -11.09705,4.00844 -13.03798,6.32911 -4.9789,6.03376 -5.48523,12.53165 -5.48523,14.72574 0,6.11814 3.12236,9.49367 7.97468,9.49367 6.75106,0 12.36287,-6.54008 12.36287,-7.55274 z"
         inkscape:connector-curvature="0"
         style="font-style:normal;font-variant:normal;font-weight:normal;font-stretch:normal;letter-spacing:normal;word-spacing:normal;text-anchor:start;fill:#0000ff;stroke:#000000;stroke-width:0;stroke-linecap:butt;stroke-linejoin:miter;stroke-miterlimit:10.43299961;stroke-dasharray:none;stroke-dashoffset:0;stroke-opacity:1" />
      <path
         id="path5007"
         d="m -42.81715,360.55623 0.0844,0 0.0844,0 0.0844,0 0.0422,0 0.0422,0 0.0422,0 0.0422,0 0.0422,0 0.0422,-0.0422 0.0422,0 0.0422,0 0.0422,0 0.0422,-0.0422 0.0422,0 0,0 0.0422,-0.0422 0.0422,0 0.0422,-0.0422 0,0 0.0422,-0.0422 0,0 0.0422,-0.0422 0,0 0,-0.0422 0,0 0.0422,0 0,-0.0422 0,0 0,-0.0422 0,0 0,-0.0422 0,0 0,-0.0422 0.0422,0 0,-0.0422 0,0 0,-0.0422 c 0,-0.50633 -0.46414,-0.50633 -1.01266,-0.50633 l -5.27426,0 c 0.88608,-2.65822 2.78481,-3.96624 5.40084,-3.96624 l 1.09705,0 c 0.46413,0 1.05485,0 1.05485,-0.54852 0,-0.50633 -0.42194,-0.50633 -0.97046,-0.50633 l -1.26583,0 c -3.92405,0 -8.31223,2.74261 -8.31223,7.21519 0,3.41772 2.61603,5.73839 6.03375,5.73839 0.88608,0 2.10971,-0.16877 3.67089,-1.05485 0.59072,-0.29536 0.63291,-0.37975 0.63291,-0.54852 0,-0.0844 0,-0.59072 -0.42194,-0.59072 -0.12658,0 -0.16878,0 -0.33755,0.12658 -1.05485,0.67511 -2.27848,1.22363 -3.50211,1.22363 -1.13924,0 -3.5865,-0.54852 -3.5865,-3.92405 0,-0.42194 0,-0.97046 0.25316,-2.1097 z"
         inkscape:connector-curvature="0"
         style="font-style:normal;font-variant:normal;font-weight:normal;font-stretch:normal;letter-spacing:normal;word-spacing:normal;text-anchor:start;fill:#0000ff;stroke:#000000;stroke-width:0;stroke-linecap:butt;stroke-linejoin:miter;stroke-miterlimit:10.43299961;stroke-dasharray:none;stroke-dashoffset:0;stroke-opacity:1" />
      <path
         id="path5009"
         d="m -40.66525,387.47606 -1.01266,0 c -0.0844,0.63291 -0.37975,2.36287 -0.75949,2.65822 -0.25317,0.21098 -2.53165,0.21098 -2.91139,0.21098 l -5.40085,0 c 3.08017,-2.74262 4.09283,-3.5865 5.86498,-4.93671 2.1519,-1.72996 4.21941,-3.54431 4.21941,-6.32912 0,-3.5865 -3.12236,-5.73839 -6.87764,-5.73839 -3.67088,0 -6.11814,2.53164 -6.11814,5.23206 0,1.51899 1.26582,1.64557 1.56118,1.64557 0.67511,0 1.51899,-0.46413 1.51899,-1.51898 0,-0.54853 -0.16878,-1.56119 -1.72996,-1.56119 0.92827,-2.1097 2.91139,-2.74261 4.3038,-2.74261 2.95358,0 4.47257,2.27848 4.47257,4.68354 0,2.53165 -1.81434,4.55696 -2.74261,5.61182 l -7.08861,7.00422 c -0.29536,0.25316 -0.29536,0.29535 -0.29536,1.13924 l 12.1097,0 z"
         inkscape:connector-curvature="0"
         style="font-style:normal;font-variant:normal;font-weight:normal;font-stretch:normal;letter-spacing:normal;word-spacing:normal;text-anchor:start;fill:#0000ff;stroke:#000000;stroke-width:0;stroke-linecap:butt;stroke-linejoin:miter;stroke-miterlimit:10.43299961;stroke-dasharray:none;stroke-dashoffset:0;stroke-opacity:1" />
    </g>
    <path
       inkscape:transform-center-y="6.4896523"
       inkscape:transform-center-x="28.995351"
       style="fill:none;stroke:#240aec;stroke-width:3.20986509;stroke-linecap:butt;stroke-linejoin:miter;stroke-miterlimit:4;stroke-dasharray:none;stroke-opacity:1"
       d="M -112.14749,397.29107 -54.194865,209.84635"
       id="path5049"
       inkscape:connector-curvature="0"
       sodipodi:nodetypes="cc" />
    <path
       style="fill:none;stroke:#1c11ef;stroke-width:3.20986509;stroke-linecap:butt;stroke-linejoin:miter;stroke-miterlimit:4;stroke-dasharray:none;stroke-opacity:1"
       d="M -30.8384,478.83785 180.31728,431.55412"
       id="path5049-2"
       inkscape:connector-curvature="0"
       sodipodi:nodetypes="cc" />
    <path
       style="fill:none;stroke:#0000ff;stroke-width:1.06995499;stroke-linecap:round;stroke-linejoin:miter;stroke-miterlimit:4;stroke-dasharray:1.069955, 8.55964;stroke-dashoffset:1.75390887;stroke-opacity:1"
       d="m -112.91243,397.86413 -34.3118,107.56712 z"
       id="path5069"
       inkscape:connector-curvature="0"
       sodipodi:nodetypes="ccc" />
    <path
       style="fill:#0000ff;stroke:#0000ff;stroke-width:1.06995499;stroke-linecap:round;stroke-linejoin:miter;stroke-miterlimit:4;stroke-dasharray:2.13991, 6.41973;stroke-dashoffset:0;stroke-opacity:1"
       d="M -25.480097,477.83618 -147.09561,506.25477 Z"
       id="path5069-1"
       inkscape:connector-curvature="0"
       sodipodi:nodetypes="ccc" />
    <rect
       style="color:#000000;clip-rule:nonzero;display:inline;overflow:visible;visibility:visible;opacity:1;isolation:auto;mix-blend-mode:normal;color-interpolation:sRGB;color-interpolation-filters:linearRGB;solid-color:#000000;solid-opacity:1;fill:#008000;fill-opacity:1;fill-rule:evenodd;stroke:#007900;stroke-width:11.06513786;stroke-linecap:butt;stroke-linejoin:miter;stroke-miterlimit:4;stroke-dasharray:none;stroke-dashoffset:0;stroke-opacity:1;color-rendering:auto;image-rendering:auto;shape-rendering:auto;text-rendering:auto;enable-background:accumulate"
       id="rect7749-4"
       width="1.0191878"
       height="1.019202"
       x="-149.87878"
       y="400.69971"
       rx="0"
       ry="0" />
    <g
       style="fill:#008000"
       transform="matrix(1.069955,0,0,1.069955,-373.24926,312.38552)"
       id="g7825">
      <g
         style="font-style:normal;font-variant:normal;font-weight:normal;font-stretch:normal;letter-spacing:normal;word-spacing:normal;text-anchor:start;fill:#008000;fill-opacity:1;fill-rule:evenodd;stroke:#000000;stroke-linecap:butt;stroke-linejoin:miter;stroke-miterlimit:10.43299961;stroke-dasharray:none;stroke-dashoffset:0;stroke-opacity:1"
         id="content"
         transform="matrix(0.57571429,0,0,-0.57571429,-100.75,323.25)"
         xml:space="preserve"
         stroke-miterlimit="10.433"
         font-style="normal"
         font-variant="normal"
         font-weight="normal"
         font-stretch="normal"
         font-size-adjust="none"
         letter-spacing="normal"
         word-spacing="normal"><path
           style="fill:#008000;stroke-width:0"
           inkscape:connector-curvature="0"
           d="m 475.39,412.92 0.72,0.07 0.71,0.09 0.69,0.11 0.67,0.14 0.66,0.15 0.64,0.18 0.63,0.2 0.61,0.21 0.59,0.23 0.58,0.26 0.55,0.26 0.54,0.29 0.51,0.3 0.5,0.31 0.47,0.33 0.45,0.34 0.43,0.36 0.41,0.37 0.38,0.37 0.36,0.4 0.33,0.4 0.31,0.41 0.28,0.42 0.25,0.42 0.23,0.44 0.19,0.44 0.17,0.45 0.14,0.45 0.11,0.46 0.08,0.47 0.05,0.46 0.01,0.47 c 0,5.19 -5.67,9.72 -13.25,10.32 l 0,-1.1 c 6.88,-0.79 8.29,-5.37 8.29,-9.17 0,-2.98 -0.75,-8.31 -8.29,-9.2 l 0,18.37 0,1.1 0,2.79 c 0,1.69 0,2.39 4.74,2.39 l 1.64,0 0,1.55 c -1.78,-0.16 -6.38,-0.16 -8.41,-0.16 -2.04,0 -6.68,0 -8.48,0.16 l 0,-1.55 1.66,0 c 4.73,0 4.73,-0.65 4.73,-2.39 l 0,-2.79 0,-1.14 0,-18.29 c -7.08,0.94 -7.98,6.04 -7.98,9.11 0,2.6 0.5,8.18 7.98,9.18 l 0,1.14 c -7.63,-0.74 -12.95,-5.33 -12.95,-10.27 0,-5.12 5.51,-9.56 12.95,-10.31 l 0,-2.78 c 0,-1.71 0,-2.39 -4.73,-2.39 l -1.66,0 0,-1.55 c 1.8,0.16 6.39,0.16 8.42,0.16 2.05,0 6.69,0 8.47,-0.16 l 0,1.55 -1.64,0 c -4.74,0 -4.74,0.64 -4.74,2.39 z"
           id="path7828" /></g>    </g>
    <path
       inkscape:connector-curvature="0"
       id="path7890"
       d="m -147.80238,400.64674 31.70528,0"
       style="fill:#ff0000;fill-rule:evenodd;stroke:#ff0000;stroke-width:3.20986509;stroke-linecap:butt;stroke-linejoin:miter;stroke-miterlimit:4;stroke-dasharray:none;stroke-opacity:1" />
    <g
       style="fill:#ff0000"
       transform="matrix(1.2604304,0,0,1.2604304,-366.28328,324.93022)"
       id="g8315">
      <g
         style="font-style:normal;font-variant:normal;font-weight:normal;font-stretch:normal;letter-spacing:normal;word-spacing:normal;text-anchor:start;fill:#ff0000;fill-opacity:1;fill-rule:evenodd;stroke:#000000;stroke-linecap:butt;stroke-linejoin:miter;stroke-miterlimit:10.43299961;stroke-dasharray:none;stroke-dashoffset:0;stroke-opacity:1"
         word-spacing="normal"
         letter-spacing="normal"
         font-size-adjust="none"
         font-stretch="normal"
         font-weight="normal"
         font-variant="normal"
         font-style="normal"
         stroke-miterlimit="10.433"
         xml:space="preserve"
         transform="matrix(0.57571429,0,0,-0.57571429,-100.75,323.25)"
         id="g8317"><path
           style="fill:#ff0000;stroke-width:0"
           inkscape:connector-curvature="0"
           id="path8319"
           d="m 489.25,414.28 -1.25,0 c -0.25,-1.3 -0.45,-2.46 -0.89,-3.64 -0.25,-0.8 -0.4,-1.21 -3.29,-1.21 l -3.99,0 c 0.64,2.8 2.19,5.19 4.44,8.47 2.34,3.55 4.37,6.99 4.37,10.92 0,6.93 -6.71,12.5 -15.14,12.5 -8.56,0 -15.18,-5.68 -15.18,-12.5 0,-3.93 2.03,-7.37 4.37,-10.92 2.19,-3.28 3.78,-5.67 4.44,-8.47 l -3.99,0 c -2.89,0 -3.04,0.41 -3.29,1.16 -0.39,1.14 -0.64,2.44 -0.89,3.69 l -1.25,0 1.65,-8.08 7.97,0 c 1.1,0 1.24,0 1.24,1.05 0,3.48 -1.53,7.87 -2.69,11.06 -1.05,2.89 -2.44,6.83 -2.44,10.56 0,7.97 5.49,11.36 10.02,11.36 4.78,0 10.06,-3.59 10.06,-11.36 0,-3.73 -1.34,-7.53 -2.8,-11.61 -0.73,-2.09 -2.33,-6.58 -2.33,-10.01 0,-1.05 0.15,-1.05 1.29,-1.05 l 7.92,0 z" /><path
           style="fill:#ff0000;stroke-width:0"
           inkscape:connector-curvature="0"
           id="path8321"
           d="m 503.68,432.01 0.1,0 0.1,0 0.1,0.01 0.05,0 0.06,0 0.05,0.01 0.05,0 0.05,0.01 0.04,0.01 0.05,0.01 0.05,0.01 0.04,0.01 0.05,0.01 0.04,0.02 0.04,0.02 0.04,0.02 0.04,0.02 0.03,0.03 0.03,0.03 0.03,0.03 0.03,0.03 0.01,0.02 0.02,0.01 0.01,0.02 0.01,0.02 0.01,0.02 0.01,0.03 0.01,0.02 0,0.02 0.01,0.03 0.01,0.02 0,0.03 0.01,0.02 0,0.03 0,0.03 0,0.03 0,0.03 c 0,0.59 -0.51,0.59 -1.18,0.59 l -6.24,0 c 1.05,3.17 3.31,4.7 6.38,4.7 l 1.32,0 c 0.57,0 1.22,0 1.22,0.66 0,0.59 -0.48,0.59 -1.15,0.59 l -1.49,0 c -4.64,0 -9.83,-3.23 -9.83,-8.53 0,-4.07 3.1,-6.82 7.15,-6.82 1.04,0 2.5,0.17 4.35,1.21 0.69,0.38 0.77,0.49 0.77,0.69 0,0.11 0,0.7 -0.53,0.7 -0.14,0 -0.2,-0.03 -0.42,-0.17 -1.22,-0.79 -2.67,-1.47 -4.11,-1.47 -1.39,0 -4.28,0.71 -4.28,4.68 0,0.48 0,1.18 0.31,2.51 z" /><path
           style="fill:#ff0000;stroke-width:0"
           inkscape:connector-curvature="0"
           id="path8323"
           d="m 509.11,400.18 -1.18,0 c -0.1,-0.76 -0.46,-2.82 -0.91,-3.17 -0.27,-0.2 -2.95,-0.2 -3.44,-0.2 l -6.42,0 c 3.66,3.23 4.88,4.2 6.97,5.84 2.58,2.06 4.98,4.22 4.98,7.53 0,4.22 -3.68,6.8 -8.15,6.8 -4.32,0 -7.25,-3.03 -7.25,-6.23 0,-1.79 1.5,-1.96 1.86,-1.96 0.82,0 1.84,0.6 1.84,1.85 0,0.62 -0.25,1.84 -2.06,1.84 1.08,2.47 3.45,3.23 5.09,3.23 3.49,0 5.3,-2.7 5.3,-5.53 0,-3.03 -2.16,-5.43 -3.28,-6.68 l -8.39,-8.3 c -0.36,-0.31 -0.36,-0.39 -0.36,-1.36 l 14.36,0 z" /></g>    </g>
    <g
       style="fill:#ff0000"
       transform="matrix(1.3277066,0,0,1.3277066,-295.26221,401.66362)"
       id="g8503">
      <g
         style="font-style:normal;font-variant:normal;font-weight:normal;font-stretch:normal;letter-spacing:normal;word-spacing:normal;text-anchor:start;fill:#ff0000;fill-opacity:1;fill-rule:evenodd;stroke:#000000;stroke-linecap:butt;stroke-linejoin:miter;stroke-miterlimit:10.43299961;stroke-dasharray:none;stroke-dashoffset:0;stroke-opacity:1"
         id="g8505"
         transform="matrix(0.57571429,0,0,-0.57571429,-100.75,323.25)"
         xml:space="preserve"
         stroke-miterlimit="10.433"
         font-style="normal"
         font-variant="normal"
         font-weight="normal"
         font-stretch="normal"
         font-size-adjust="none"
         letter-spacing="normal"
         word-spacing="normal"><path
           style="fill:#ff0000;stroke-width:0"
           inkscape:connector-curvature="0"
           d="m 489.25,414.28 -1.25,0 c -0.25,-1.3 -0.45,-2.46 -0.89,-3.64 -0.25,-0.8 -0.4,-1.21 -3.29,-1.21 l -3.99,0 c 0.64,2.8 2.19,5.19 4.44,8.47 2.34,3.55 4.37,6.99 4.37,10.92 0,6.93 -6.71,12.5 -15.14,12.5 -8.56,0 -15.18,-5.68 -15.18,-12.5 0,-3.93 2.03,-7.37 4.37,-10.92 2.19,-3.28 3.78,-5.67 4.44,-8.47 l -3.99,0 c -2.89,0 -3.04,0.41 -3.29,1.16 -0.39,1.14 -0.64,2.44 -0.89,3.69 l -1.25,0 1.65,-8.08 7.97,0 c 1.1,0 1.24,0 1.24,1.05 0,3.48 -1.53,7.87 -2.69,11.06 -1.05,2.89 -2.44,6.83 -2.44,10.56 0,7.97 5.49,11.36 10.02,11.36 4.78,0 10.06,-3.59 10.06,-11.36 0,-3.73 -1.34,-7.53 -2.8,-11.61 -0.73,-2.09 -2.33,-6.58 -2.33,-10.01 0,-1.05 0.15,-1.05 1.29,-1.05 l 7.92,0 z"
           id="path8507" /><path
           style="fill:#ff0000;stroke-width:0"
           inkscape:connector-curvature="0"
           d="m 503.68,432.01 0.1,0 0.1,0 0.1,0.01 0.05,0 0.06,0 0.05,0.01 0.05,0 0.05,0.01 0.04,0.01 0.05,0.01 0.05,0.01 0.04,0.01 0.05,0.01 0.04,0.02 0.04,0.02 0.04,0.02 0.04,0.02 0.03,0.03 0.03,0.03 0.03,0.03 0.03,0.03 0.01,0.02 0.02,0.01 0.01,0.02 0.01,0.02 0.01,0.02 0.01,0.03 0.01,0.02 0,0.02 0.01,0.03 0.01,0.02 0,0.03 0.01,0.02 0,0.03 0,0.03 0,0.03 0,0.03 c 0,0.59 -0.51,0.59 -1.18,0.59 l -6.24,0 c 1.05,3.17 3.31,4.7 6.38,4.7 l 1.32,0 c 0.57,0 1.22,0 1.22,0.66 0,0.59 -0.48,0.59 -1.15,0.59 l -1.49,0 c -4.64,0 -9.83,-3.23 -9.83,-8.53 0,-4.07 3.1,-6.82 7.15,-6.82 1.04,0 2.5,0.17 4.35,1.21 0.69,0.38 0.77,0.49 0.77,0.69 0,0.11 0,0.7 -0.53,0.7 -0.14,0 -0.2,-0.03 -0.42,-0.17 -1.22,-0.79 -2.67,-1.47 -4.11,-1.47 -1.39,0 -4.28,0.71 -4.28,4.68 0,0.48 0,1.18 0.31,2.51 z"
           id="path8509" /><path
           style="fill:#ff0000;stroke-width:0"
           inkscape:connector-curvature="0"
           d="m 503.19,416 0,0.04 0,0.04 0,0.04 0,0.04 0,0.04 0,0.04 0,0.04 0,0.03 -0.01,0.04 0,0.03 0,0.03 0,0.03 0,0.03 -0.01,0.03 0,0.03 0,0.02 -0.01,0.03 0,0.02 -0.01,0.02 0,0.03 -0.02,0.04 -0.01,0.04 -0.02,0.03 -0.02,0.03 -0.02,0.03 -0.02,0.03 -0.03,0.02 -0.03,0.02 -0.03,0.01 -0.04,0.02 -0.04,0.01 -0.05,0.01 -0.02,0.01 -0.02,0 -0.03,0.01 -0.03,0 -0.02,0 -0.03,0.01 -0.03,0 -0.03,0 -0.03,0 -0.04,0 -0.03,0.01 -0.04,0 -0.03,0 -0.04,0 -0.04,0 -0.04,0 -0.04,0 -0.05,0 -0.04,0 -0.05,0 c -2.23,-2.2 -5.39,-2.23 -6.82,-2.23 l 0,-1.25 c 0.84,0 3.14,0 5.04,0.96 l 0,-17.76 c 0,-1.16 0,-1.61 -3.48,-1.61 l -1.31,0 0,-1.25 c 0.62,0.03 4.9,0.14 6.2,0.14 1.08,0 5.47,-0.11 6.23,-0.14 l 0,1.25 -1.32,0 c -3.49,0 -3.49,0.45 -3.49,1.61 z"
           id="path8511" /></g>    </g>
    <rect
       style="color:#000000;clip-rule:nonzero;display:inline;overflow:visible;visibility:visible;opacity:1;isolation:auto;mix-blend-mode:normal;color-interpolation:sRGB;color-interpolation-filters:linearRGB;solid-color:#000000;solid-opacity:1;fill:#008000;fill-opacity:1;fill-rule:evenodd;stroke:#008a00;stroke-width:11.06513786;stroke-linecap:butt;stroke-linejoin:miter;stroke-miterlimit:4;stroke-dasharray:none;stroke-dashoffset:0;stroke-opacity:1;color-rendering:auto;image-rendering:auto;shape-rendering:auto;text-rendering:auto;enable-background:accumulate"
       id="rect7749-4-2"
       width="1.0191878"
       height="1.019202"
       x="-33.386757"
       y="507.35419"
       rx="0"
       ry="0" />
    <path
       inkscape:connector-curvature="0"
       id="path7892"
       d="m -32.958794,507.56401 0,-27.47792"
       style="fill:#ff0000;fill-rule:evenodd;stroke:#ff0000;stroke-width:3.20986509;stroke-linecap:butt;stroke-linejoin:miter;stroke-miterlimit:4;stroke-dasharray:none;stroke-opacity:1" />
  </g>
</svg>
