<?xml version="1.0" encoding="UTF-8" standalone="no"?>
<!-- Created with Inkscape (http://www.inkscape.org/) -->

<svg
   xmlns:dc="http://purl.org/dc/elements/1.1/"
   xmlns:cc="http://creativecommons.org/ns#"
   xmlns:rdf="http://www.w3.org/1999/02/22-rdf-syntax-ns#"
   xmlns:svg="http://www.w3.org/2000/svg"
   xmlns="http://www.w3.org/2000/svg"
   xmlns:sodipodi="http://sodipodi.sourceforge.net/DTD/sodipodi-0.dtd"
   xmlns:inkscape="http://www.inkscape.org/namespaces/inkscape"
   id="svg4336"
   version="1.1"
   inkscape:version="0.91 r"
   width="431"
   height="403"
   viewBox="0 0 431 403"
   sodipodi:docname="tree.svg">
  <sodipodi:namedview
     pagecolor="#ffffff"
     bordercolor="#666666"
     borderopacity="1"
     objecttolerance="10"
     gridtolerance="10"
     guidetolerance="10"
     inkscape:pageopacity="0"
     inkscape:pageshadow="2"
     inkscape:window-width="1865"
     inkscape:window-height="1056"
     id="namedview4338"
     showgrid="false"
     inkscape:zoom="0.7593052"
     inkscape:cx="193.5384"
     inkscape:cy="49.79679"
     inkscape:window-x="55"
     inkscape:window-y="24"
     inkscape:window-maximized="1"
     inkscape:current-layer="g6160" />
  <metadata
     id="metadata4342">
    <rdf:RDF>
      <cc:Work
         rdf:about="">
        <dc:format>image/svg+xml</dc:format>
        <dc:type
           rdf:resource="http://purl.org/dc/dcmitype/StillImage" />
        <dc:title></dc:title>
      </cc:Work>
    </rdf:RDF>
  </metadata>
  <defs
     id="defs4340">
    <marker
       style="overflow:visible"
       id="Arrow1Mstart"
       refX="0"
       refY="0"
       orient="auto"
       inkscape:stockid="Arrow1Mstart">
      <path
         transform="matrix(0.4,0,0,0.4,4,0)"
         style="fill-rule:evenodd;stroke:#000000;stroke-width:1pt"
         d="M 0,0 5,-5 -12.5,0 5,5 0,0 z"
         id="path3814"
         inkscape:connector-curvature="0" />
    </marker>
    <marker
       style="overflow:visible"
       id="Arrow1Mend"
       refX="0"
       refY="0"
       orient="auto"
       inkscape:stockid="Arrow1Mend">
      <path
         transform="matrix(-0.4,0,0,-0.4,-4,0)"
         style="fill-rule:evenodd;stroke:#000000;stroke-width:1pt"
         d="M 0,0 5,-5 -12.5,0 5,5 0,0 z"
         id="path3817"
         inkscape:connector-curvature="0" />
    </marker>
  </defs>
  <g
     id="g8656"
     transform="translate(207.66987,-143.41327)">
    <g
       id="g6160"
       transform="translate(287.10458,77.702615)">
      <g
         id="g4492">
        <circle
           style="opacity:1;fill:#000000;fill-opacity:1;fill-rule:nonzero;stroke:#0000e6;stroke-width:3.94952226;stroke-linecap:butt;stroke-linejoin:miter;stroke-miterlimit:4;stroke-dasharray:none;stroke-dashoffset:0;stroke-opacity:1"
           id="use4254"
           cx="-400.72632"
           cy="325.80356"
           r="14.568657" />
        <rect
           style="color:#000000;clip-rule:nonzero;display:inline;overflow:visible;visibility:visible;opacity:1;isolation:auto;mix-blend-mode:normal;color-interpolation:sRGB;color-interpolation-filters:linearRGB;solid-color:#000000;solid-opacity:1;fill:none;fill-opacity:1;fill-rule:evenodd;stroke:#000000;stroke-width:5;stroke-linecap:butt;stroke-linejoin:miter;stroke-miterlimit:4;stroke-dasharray:none;stroke-dashoffset:0;stroke-opacity:1;color-rendering:auto;image-rendering:auto;shape-rendering:auto;text-rendering:auto;enable-background:accumulate"
           id="rect4191"
           width="395.78339"
           height="287.89487"
           x="-478.39761"
           y="144.29831" />
        <rect
           y="182.22794"
           x="-257.34537"
           height="27.125463"
           width="28.387157"
           id="use4241"
           style="color:#000000;clip-rule:nonzero;display:inline;overflow:visible;visibility:visible;opacity:1;isolation:auto;mix-blend-mode:normal;color-interpolation:sRGB;color-interpolation-filters:linearRGB;solid-color:#000000;solid-opacity:1;fill:#ff0000;fill-opacity:1;fill-rule:evenodd;stroke:#000000;stroke-width:2.23567343;stroke-linecap:butt;stroke-linejoin:miter;stroke-miterlimit:4;stroke-dasharray:none;stroke-dashoffset:0;stroke-opacity:1;color-rendering:auto;image-rendering:auto;shape-rendering:auto;text-rendering:auto;enable-background:accumulate" />
        <g
           id="g4339"
           transform="matrix(1.5731611,0,0,1.5731611,-717.68396,38.509238)">
          <g
             id="content"
             transform="matrix(0.57571429,0,0,-0.57571429,-100.75,323.25)"
             xml:space="preserve"
             stroke-miterlimit="10.433"
             font-style="normal"
             font-variant="normal"
             font-weight="normal"
             font-stretch="normal"
             font-size-adjust="none"
             letter-spacing="normal"
             word-spacing="normal"
             style="font-style:normal;font-variant:normal;font-weight:normal;font-stretch:normal;letter-spacing:normal;word-spacing:normal;text-anchor:start;fill:none;fill-opacity:1;fill-rule:evenodd;stroke:#000000;stroke-linecap:butt;stroke-linejoin:miter;stroke-miterlimit:10.43299961;stroke-dasharray:none;stroke-dashoffset:0;stroke-opacity:1"><path
               d="m 465.79,426.12 4.68,0 c 0.99,0 1.49,0 1.49,1 0,0.55 -0.5,0.55 -1.39,0.55 l -4.39,0 c 1.79,7.08 2.04,8.08 2.04,8.37 0,0.85 -0.59,1.35 -1.43,1.35 -0.16,0 -1.55,-0.05 -2,-1.8 l -1.94,-7.92 -4.69,0 c -1,0 -1.5,0 -1.5,-0.94 0,-0.61 0.41,-0.61 1.41,-0.61 l 4.37,0 c -3.58,-14.14 -3.78,-14.98 -3.78,-15.89 0,-2.69 1.89,-4.58 4.58,-4.58 5.08,0 7.92,7.27 7.92,7.67 0,0.5 -0.39,0.5 -0.59,0.5 -0.46,0 -0.5,-0.15 -0.75,-0.7 -2.14,-5.17 -4.78,-6.37 -6.47,-6.37 -1.05,0 -1.55,0.65 -1.55,2.29 0,1.19 0.09,1.55 0.3,2.39 z"
               id="path4342"
               inkscape:connector-curvature="0"
               style="fill:#000000;stroke-width:0" /><path
               d="m 487.88,419.7 0.03,0.12 0.03,0.11 0.02,0.1 0.03,0.1 0.03,0.1 0.03,0.09 0.04,0.08 0.04,0.08 0.04,0.08 0.04,0.07 0.05,0.07 0.06,0.06 0.06,0.06 0.07,0.06 0.07,0.05 0.09,0.05 0.09,0.04 0.1,0.04 0.11,0.04 0.12,0.03 0.07,0.02 0.06,0.01 0.07,0.02 0.08,0.01 0.07,0.01 0.08,0.01 0.08,0.02 0.09,0.01 0.09,0 0.09,0.01 0.1,0.01 0.1,0.01 0.1,0.01 0.11,0 0.11,0.01 0.11,0 0.12,0.01 0.12,0 0.13,0 0.13,0 0.13,0.01 0.14,0 0.15,0 0.14,0 c 1.08,0 1.43,0 1.43,0.76 0,0.04 -0.04,0.49 -0.6,0.49 -0.79,0 -1.73,-0.06 -2.58,-0.11 -0.87,-0.03 -1.9,-0.03 -2.78,-0.03 -0.73,0 -1.67,0.03 -2.4,0.03 -0.74,0 -1.57,0.11 -2.27,0.11 -0.2,0 -0.73,0 -0.73,-0.77 0,-0.48 0.42,-0.48 1.12,-0.48 0.03,0 0.69,0 1.31,-0.08 0.74,-0.06 0.82,-0.14 0.82,-0.48 0,-0.07 0,-0.24 -0.14,-0.77 l -4.64,-18.5 c -0.32,-1.19 -0.4,-1.47 -3.07,-1.47 -0.59,0 -1.04,0 -1.04,-0.73 0,-0.52 0.42,-0.52 1.04,-0.52 l 17.52,0 c 0.87,0 0.9,0.03 1.19,0.7 0.36,0.94 2.96,7.69 2.96,7.97 0,0.11 -0.07,0.5 -0.59,0.5 -0.42,0 -0.48,-0.18 -0.7,-0.73 -1.31,-3.31 -2.86,-7.19 -9.24,-7.19 l -3.93,0 c -1.08,0 -1.11,0.05 -1.11,0.36 0,0.03 0,0.2 0.14,0.72 z"
               id="path4344"
               inkscape:connector-curvature="0"
               style="fill:#000000;stroke-width:0" /></g>        </g>
        <g
           id="g4496"
           transform="matrix(1.5731611,0,0,1.5731611,-395.606,40.439526)">
          <g
             word-spacing="normal"
             letter-spacing="normal"
             font-size-adjust="none"
             font-stretch="normal"
             font-weight="normal"
             font-variant="normal"
             font-style="normal"
             stroke-miterlimit="10.433"
             xml:space="preserve"
             transform="matrix(0.57571429,0,0,-0.57571429,-100.75,323.25)"
             id="g4498"
             style="font-style:normal;font-variant:normal;font-weight:normal;font-stretch:normal;letter-spacing:normal;word-spacing:normal;text-anchor:start;fill:none;fill-opacity:1;fill-rule:evenodd;stroke:#000000;stroke-linecap:butt;stroke-linejoin:miter;stroke-miterlimit:10.43299961;stroke-dasharray:none;stroke-dashoffset:0;stroke-opacity:1"><path
               id="path4500"
               d="m 465.79,426.12 4.68,0 c 0.99,0 1.49,0 1.49,1 0,0.55 -0.5,0.55 -1.39,0.55 l -4.39,0 c 1.79,7.08 2.04,8.08 2.04,8.37 0,0.85 -0.59,1.35 -1.43,1.35 -0.16,0 -1.55,-0.05 -2,-1.8 l -1.94,-7.92 -4.69,0 c -1,0 -1.5,0 -1.5,-0.94 0,-0.61 0.41,-0.61 1.41,-0.61 l 4.37,0 c -3.58,-14.14 -3.78,-14.98 -3.78,-15.89 0,-2.69 1.89,-4.58 4.58,-4.58 5.08,0 7.92,7.27 7.92,7.67 0,0.5 -0.39,0.5 -0.59,0.5 -0.46,0 -0.5,-0.15 -0.75,-0.7 -2.14,-5.17 -4.78,-6.37 -6.47,-6.37 -1.05,0 -1.55,0.65 -1.55,2.29 0,1.19 0.09,1.55 0.3,2.39 z"
               inkscape:connector-curvature="0"
               style="fill:#000000;stroke-width:0" /><path
               id="path4502"
               d="m 494.22,410.61 0.39,0.09 0.38,0.11 0.38,0.11 0.38,0.12 0.37,0.13 0.36,0.14 0.36,0.15 0.35,0.15 0.35,0.17 0.33,0.16 0.33,0.18 0.32,0.18 0.31,0.19 0.3,0.2 0.28,0.21 0.28,0.21 0.26,0.21 0.25,0.22 0.24,0.23 0.23,0.24 0.21,0.24 0.19,0.24 0.18,0.25 0.16,0.26 0.15,0.26 0.12,0.26 0.11,0.27 0.09,0.27 0.08,0.28 0.05,0.28 0.03,0.29 0.01,0.29 c 0,2.98 -3.55,5.36 -8.59,5.36 l -10.71,0 c -0.65,0 -1.11,0 -1.11,-0.77 0,-0.48 0.41,-0.48 1.11,-0.48 0.04,0 0.71,0 1.33,-0.08 0.74,-0.06 0.8,-0.14 0.8,-0.48 0,-0.07 0,-0.24 -0.14,-0.77 l -4.64,-18.5 c -0.27,-1.19 -0.35,-1.47 -3.06,-1.47 -0.6,0 -1.05,0 -1.05,-0.73 0,-0.35 0.25,-0.52 0.56,-0.52 0.66,0 1.47,0.11 2.16,0.11 0.67,0 1.67,0.03 2.29,0.03 0.71,0 1.5,-0.03 2.24,-0.03 0.73,0 1.61,-0.11 2.34,-0.11 0.17,0 0.72,0 0.72,0.74 0,0.51 -0.34,0.51 -1.14,0.51 -0.56,0 -0.7,0 -1.33,0.08 -0.76,0.09 -0.76,0.17 -0.76,0.52 0,0.03 0,0.25 0.14,0.76 l 2.18,8.81 4.75,0 0.04,0.99 -4.5,0 2.23,8.95 c 0.25,0.97 0.31,1.08 1.08,1.19 l 2.23,0 c 3.24,0 7.25,0 7.25,-3.6 0,-1.42 -0.67,-3.62 -2.29,-4.87 -1.44,-1.11 -3.6,-1.67 -6,-1.67 l -0.04,-0.99 c 3,0 4.29,-1.48 4.29,-3.12 0,-0.45 -0.32,-1.64 -0.49,-2.44 -0.42,-1.61 -0.56,-2.12 -0.56,-2.72 0,-2.75 2.55,-3.84 5.12,-3.84 3.21,0 4.6,3.42 4.6,4.05 0,0.1 -0.06,0.48 -0.6,0.48 -0.45,0 -0.51,-0.23 -0.62,-0.59 -0.49,-1.54 -1.77,-2.96 -3.24,-2.96 -0.9,0 -1.56,0.38 -1.56,2.27 0,0.87 0.21,2.69 0.35,3.62 0.14,0.94 0.14,1.28 0.14,1.64 0,0.41 0,1.54 -0.99,2.58 -0.65,0.72 -1.59,1.17 -2.36,1.46 z"
               inkscape:connector-curvature="0"
               style="fill:#000000;stroke-width:0" /></g>        </g>
        <g
           id="g4662"
           transform="matrix(1.5731611,0,0,1.5731611,-545.88111,-1.666397)">
          <g
             id="g4664"
             transform="matrix(0.57571429,0,0,-0.57571429,-100.75,323.25)"
             xml:space="preserve"
             stroke-miterlimit="10.433"
             font-style="normal"
             font-variant="normal"
             font-weight="normal"
             font-stretch="normal"
             font-size-adjust="none"
             letter-spacing="normal"
             word-spacing="normal"
             style="font-style:normal;font-variant:normal;font-weight:normal;font-stretch:normal;letter-spacing:normal;word-spacing:normal;text-anchor:start;fill:none;fill-opacity:1;fill-rule:evenodd;stroke:#000000;stroke-linecap:butt;stroke-linejoin:miter;stroke-miterlimit:10.43299961;stroke-dasharray:none;stroke-dashoffset:0;stroke-opacity:1"><path
               d="m 465.79,426.12 4.68,0 c 0.99,0 1.49,0 1.49,1 0,0.55 -0.5,0.55 -1.39,0.55 l -4.39,0 c 1.79,7.08 2.04,8.08 2.04,8.37 0,0.85 -0.59,1.35 -1.43,1.35 -0.16,0 -1.55,-0.05 -2,-1.8 l -1.94,-7.92 -4.69,0 c -1,0 -1.5,0 -1.5,-0.94 0,-0.61 0.41,-0.61 1.41,-0.61 l 4.37,0 c -3.58,-14.14 -3.78,-14.98 -3.78,-15.89 0,-2.69 1.89,-4.58 4.58,-4.58 5.08,0 7.92,7.27 7.92,7.67 0,0.5 -0.39,0.5 -0.59,0.5 -0.46,0 -0.5,-0.15 -0.75,-0.7 -2.14,-5.17 -4.78,-6.37 -6.47,-6.37 -1.05,0 -1.55,0.65 -1.55,2.29 0,1.19 0.09,1.55 0.3,2.39 z"
               id="path4666"
               inkscape:connector-curvature="0"
               style="fill:#000000;stroke-width:0" /></g>        </g>
        <g
           id="g5012"
           transform="matrix(1.5731611,0,0,1.5731611,-692.22792,233.03844)"
           style="fill:#000088;fill-opacity:1;stroke:#000000;stroke-width:0.30000001;stroke-miterlimit:4;stroke-dasharray:none;stroke-opacity:1">
          <g
             id="g5014"
             transform="matrix(0.57571429,0,0,-0.57571429,-100.75,323.25)"
             xml:space="preserve"
             stroke-miterlimit="10.433"
             font-style="normal"
             font-variant="normal"
             font-weight="normal"
             font-stretch="normal"
             font-size-adjust="none"
             letter-spacing="normal"
             word-spacing="normal"
             style="font-style:normal;font-variant:normal;font-weight:normal;font-stretch:normal;letter-spacing:normal;word-spacing:normal;text-anchor:start;fill:#000088;fill-opacity:1;fill-rule:evenodd;stroke:#000000;stroke-width:0.52109182;stroke-linecap:butt;stroke-linejoin:miter;stroke-miterlimit:4;stroke-dasharray:none;stroke-dashoffset:0;stroke-opacity:1"><path
               d="m 459.91,409.14 -0.02,-0.07 -0.01,-0.08 -0.02,-0.07 -0.01,-0.08 -0.04,-0.16 -0.04,-0.16 -0.03,-0.16 -0.04,-0.16 -0.04,-0.16 -0.04,-0.16 -0.01,-0.08 -0.02,-0.07 -0.02,-0.07 -0.01,-0.07 -0.02,-0.07 -0.01,-0.07 -0.01,-0.06 -0.01,-0.06 -0.01,-0.06 -0.01,-0.05 -0.01,-0.05 -0.01,-0.04 -0.01,-0.04 0,-0.04 0,-0.03 0,-0.02 c 0,-0.89 0.7,-1.35 1.43,-1.35 0.61,0 1.5,0.39 1.85,1.39 0.06,0.11 0.65,2.44 0.95,3.69 l 1.1,4.48 c 0.29,1.1 0.59,2.19 0.84,3.35 0.2,0.84 0.61,2.28 0.66,2.48 0.75,1.55 3.39,6.08 8.1,6.08 2.25,0 2.71,-1.84 2.71,-3.48 0,-3.1 -2.46,-9.47 -3.25,-11.61 -0.44,-1.14 -0.49,-1.75 -0.49,-2.3 0,-2.33 1.74,-4.08 4.08,-4.08 4.69,0 6.53,7.27 6.53,7.67 0,0.5 -0.45,0.5 -0.61,0.5 -0.48,0 -0.48,-0.15 -0.73,-0.9 -1,-3.38 -2.64,-6.17 -5.09,-6.17 -0.85,0 -1.19,0.5 -1.19,1.64 0,1.25 0.45,2.45 0.89,3.54 0.95,2.64 3.05,8.11 3.05,10.96 0,3.34 -2.15,5.32 -5.74,5.32 -4.48,0 -6.92,-3.18 -7.76,-4.32 -0.25,2.79 -2.3,4.32 -4.6,4.32 -2.28,0 -3.23,-1.93 -3.73,-2.82 -0.8,-1.71 -1.5,-4.64 -1.5,-4.85 0,-0.5 0.5,-0.5 0.61,-0.5 0.5,0 0.54,0.07 0.84,1.16 0.84,3.53 1.84,5.92 3.64,5.92 0.99,0 1.55,-0.64 1.55,-2.28 0,-1.05 -0.16,-1.61 -0.8,-4.19 z"
               id="path5016"
               inkscape:connector-curvature="0"
               style="fill:#000088;fill-opacity:1;stroke:#000000;stroke-width:0.52109182;stroke-miterlimit:4;stroke-dasharray:none;stroke-opacity:1" /><path
               d="m 493.98,412.53 3.54,0 c 0.66,0 1.11,0 1.11,0.76 0,0.49 -0.45,0.49 -1.03,0.49 l -3.31,0 1.28,5.15 c 0.03,0.18 0.11,0.35 0.11,0.49 0,0.64 -0.48,1.12 -1.19,1.12 -0.87,0 -1.39,-0.59 -1.64,-1.5 -0.23,-0.87 0.22,0.8 -1.33,-5.26 l -3.54,0 c -0.66,0 -1.11,0 -1.11,-0.77 0,-0.48 0.4,-0.48 1.04,-0.48 l 3.3,0 -2.05,-8.22 c -0.21,-0.88 -0.53,-2.13 -0.53,-2.58 0,-2.06 1.75,-3.31 3.74,-3.31 3.87,0 6.06,4.87 6.06,5.33 0,0.45 -0.45,0.45 -0.56,0.45 -0.41,0 -0.46,-0.08 -0.72,-0.66 -0.99,-2.2 -2.77,-4.15 -4.67,-4.15 -0.74,0 -1.22,0.45 -1.22,1.7 0,0.36 0.14,1.09 0.2,1.44 z"
               id="path5018"
               inkscape:connector-curvature="0"
               style="fill:#000088;fill-opacity:1;stroke:#000000;stroke-width:0.52109182;stroke-miterlimit:4;stroke-dasharray:none;stroke-opacity:1" /><path
               d="m 512.27,408.61 0.02,0.06 0.01,0.05 0.02,0.05 0.01,0.05 0.02,0.05 0.01,0.05 0.02,0.04 0.02,0.04 0.02,0.04 0.01,0.04 0.02,0.04 0.02,0.03 0.02,0.03 0.03,0.03 0.02,0.03 0.02,0.03 0.03,0.02 0.03,0.03 0.03,0.02 0.03,0.02 0.03,0.02 0.03,0.02 0.04,0.01 0.04,0.02 0.04,0.01 0.04,0.02 0.04,0.01 0.05,0.01 0.05,0.01 0.05,0.01 0.05,0.01 0.06,0.01 c 0.7,0.09 1.2,0.09 1.87,0.09 0.75,0 1.08,0 1.08,0.7 0,0.27 -0.2,0.42 -0.49,0.42 -0.64,0 -1.34,-0.07 -1.98,-0.07 -0.7,0 -1.38,-0.02 -2.08,-0.02 -0.64,0 -1.28,0.02 -1.9,0.02 -0.58,0 -1.22,0.07 -1.79,0.07 -0.17,0 -0.61,0 -0.61,-0.7 0,-0.42 0.32,-0.42 0.93,-0.42 0.25,0 1.06,0 1.59,-0.14 0,-0.31 0,-0.36 -0.08,-0.63 l -3.26,-13.06 c -0.21,-0.75 -0.22,-0.94 -2.13,-0.94 -0.64,0 -1.03,0 -1.03,-0.7 0,-0.42 0.39,-0.42 0.81,-0.42 l 14.13,0 c 0.65,0 0.67,0.03 0.89,0.58 0.25,0.64 2.22,5.62 2.22,5.78 0,0.17 -0.13,0.42 -0.52,0.42 -0.37,0 -0.4,-0.08 -0.67,-0.73 -1.33,-3.19 -2.92,-4.93 -7.03,-4.93 l -3.45,0 c -0.21,0 -0.55,0 -0.8,0.05 0.01,0.2 0.01,0.25 0.06,0.45 z"
               id="path5020"
               inkscape:connector-curvature="0"
               style="fill:#000088;fill-opacity:1;stroke:#000000;stroke-width:0.52109182;stroke-miterlimit:4;stroke-dasharray:none;stroke-opacity:1" /></g>        </g>
        <g
           id="g5204"
           transform="matrix(1.5731611,0,0,1.5731611,-416.73351,237.1331)"
           style="fill:#000088;fill-opacity:1;stroke:#000000;stroke-width:0.30000001;stroke-miterlimit:4;stroke-dasharray:none;stroke-opacity:1">
          <g
             word-spacing="normal"
             letter-spacing="normal"
             font-size-adjust="none"
             font-stretch="normal"
             font-weight="normal"
             font-variant="normal"
             font-style="normal"
             stroke-miterlimit="10.433"
             xml:space="preserve"
             transform="matrix(0.57571429,0,0,-0.57571429,-100.75,323.25)"
             id="g5206"
             style="font-style:normal;font-variant:normal;font-weight:normal;font-stretch:normal;letter-spacing:normal;word-spacing:normal;text-anchor:start;fill:#000088;fill-opacity:1;fill-rule:evenodd;stroke:#000000;stroke-width:0.52109182;stroke-linecap:butt;stroke-linejoin:miter;stroke-miterlimit:4;stroke-dasharray:none;stroke-dashoffset:0;stroke-opacity:1"><path
               id="path5208"
               d="m 459.91,409.14 -0.02,-0.07 -0.01,-0.08 -0.02,-0.07 -0.01,-0.08 -0.04,-0.16 -0.04,-0.16 -0.03,-0.16 -0.04,-0.16 -0.04,-0.16 -0.04,-0.16 -0.01,-0.08 -0.02,-0.07 -0.02,-0.07 -0.01,-0.07 -0.02,-0.07 -0.01,-0.07 -0.01,-0.06 -0.01,-0.06 -0.01,-0.06 -0.01,-0.05 -0.01,-0.05 -0.01,-0.04 -0.01,-0.04 0,-0.04 0,-0.03 0,-0.02 c 0,-0.89 0.7,-1.35 1.43,-1.35 0.61,0 1.5,0.39 1.85,1.39 0.06,0.11 0.65,2.44 0.95,3.69 l 1.1,4.48 c 0.29,1.1 0.59,2.19 0.84,3.35 0.2,0.84 0.61,2.28 0.66,2.48 0.75,1.55 3.39,6.08 8.1,6.08 2.25,0 2.71,-1.84 2.71,-3.48 0,-3.1 -2.46,-9.47 -3.25,-11.61 -0.44,-1.14 -0.49,-1.75 -0.49,-2.3 0,-2.33 1.74,-4.08 4.08,-4.08 4.69,0 6.53,7.27 6.53,7.67 0,0.5 -0.45,0.5 -0.61,0.5 -0.48,0 -0.48,-0.15 -0.73,-0.9 -1,-3.38 -2.64,-6.17 -5.09,-6.17 -0.85,0 -1.19,0.5 -1.19,1.64 0,1.25 0.45,2.45 0.89,3.54 0.95,2.64 3.05,8.11 3.05,10.96 0,3.34 -2.15,5.32 -5.74,5.32 -4.48,0 -6.92,-3.18 -7.76,-4.32 -0.25,2.79 -2.3,4.32 -4.6,4.32 -2.28,0 -3.23,-1.93 -3.73,-2.82 -0.8,-1.71 -1.5,-4.64 -1.5,-4.85 0,-0.5 0.5,-0.5 0.61,-0.5 0.5,0 0.54,0.07 0.84,1.16 0.84,3.53 1.84,5.92 3.64,5.92 0.99,0 1.55,-0.64 1.55,-2.28 0,-1.05 -0.16,-1.61 -0.8,-4.19 z"
               inkscape:connector-curvature="0"
               style="fill:#000088;fill-opacity:1;stroke:#000000;stroke-width:0.52109182;stroke-miterlimit:4;stroke-dasharray:none;stroke-opacity:1" /><path
               id="path5210"
               d="m 493.98,412.53 3.54,0 c 0.66,0 1.11,0 1.11,0.76 0,0.49 -0.45,0.49 -1.03,0.49 l -3.31,0 1.28,5.15 c 0.03,0.18 0.11,0.35 0.11,0.49 0,0.64 -0.48,1.12 -1.19,1.12 -0.87,0 -1.39,-0.59 -1.64,-1.5 -0.23,-0.87 0.22,0.8 -1.33,-5.26 l -3.54,0 c -0.66,0 -1.11,0 -1.11,-0.77 0,-0.48 0.4,-0.48 1.04,-0.48 l 3.3,0 -2.05,-8.22 c -0.21,-0.88 -0.53,-2.13 -0.53,-2.58 0,-2.06 1.75,-3.31 3.74,-3.31 3.87,0 6.06,4.87 6.06,5.33 0,0.45 -0.45,0.45 -0.56,0.45 -0.41,0 -0.46,-0.08 -0.72,-0.66 -0.99,-2.2 -2.77,-4.15 -4.67,-4.15 -0.74,0 -1.22,0.45 -1.22,1.7 0,0.36 0.14,1.09 0.2,1.44 z"
               inkscape:connector-curvature="0"
               style="fill:#000088;fill-opacity:1;stroke:#000000;stroke-width:0.52109182;stroke-miterlimit:4;stroke-dasharray:none;stroke-opacity:1" /><path
               id="path5212"
               d="m 518.12,402.22 0.52,0.14 0.53,0.16 0.26,0.09 0.26,0.09 0.25,0.1 0.26,0.1 0.25,0.11 0.24,0.11 0.24,0.12 0.23,0.12 0.23,0.13 0.22,0.13 0.22,0.14 0.2,0.14 0.2,0.15 0.19,0.15 0.18,0.15 0.17,0.16 0.16,0.17 0.15,0.17 0.13,0.17 0.13,0.18 0.11,0.18 0.1,0.18 0.08,0.19 0.08,0.2 0.05,0.2 0.04,0.2 0.03,0.21 0.01,0.21 c 0,2.26 -3.07,3.96 -7,3.96 l -8.61,0 c -0.5,0 -0.88,0 -0.88,-0.7 0,-0.42 0.3,-0.42 0.92,-0.42 0.25,0 1.07,0 1.6,-0.14 0,-0.31 0,-0.36 -0.08,-0.63 l -3.27,-13.06 c -0.2,-0.75 -0.22,-0.94 -2.14,-0.94 -0.62,0 -1.01,0 -1.01,-0.7 0,-0.2 0.17,-0.42 0.43,-0.42 0.54,0 1.13,0.08 1.68,0.08 0.59,0 1.2,0.01 1.79,0.01 0.63,0 1.22,-0.01 1.85,-0.01 0.54,0 1.17,-0.08 1.68,-0.08 0.16,0 0.63,0 0.63,0.7 0,0.42 -0.34,0.42 -0.81,0.42 -0.07,0 -0.66,0 -1.08,0.05 -0.63,0.05 -0.64,0.08 -0.64,0.27 0,0.06 0,0.11 0.06,0.36 l 1.58,6.29 3.94,0 0.09,0.85 -3.83,0 1.53,6.14 c 0.21,0.76 0.21,0.81 1.25,0.81 l 2.85,0 c 2.78,0 4.65,-0.67 4.65,-2.64 0,-1.06 -0.59,-2.44 -1.81,-3.27 -0.23,-0.12 -1.66,-1.04 -4.64,-1.04 l -0.09,-0.85 c 1.81,0 3.57,-0.64 3.57,-2.19 0,-0.29 -0.21,-1.14 -0.37,-1.71 -0.14,-0.63 -0.34,-1.43 -0.34,-1.89 0,-2.4 2.54,-2.85 4.09,-2.85 2.45,0 3.62,2.39 3.62,2.97 0,0.42 -0.37,0.42 -0.51,0.42 -0.38,0 -0.42,-0.15 -0.55,-0.48 -0.42,-1.27 -1.51,-2.06 -2.44,-2.06 -0.65,0 -1.35,0.2 -1.35,1.79 0,0.55 0.2,1.94 0.28,2.57 0.09,0.71 0.09,0.82 0.09,0.96 0,1.96 -1.69,2.6 -2.45,2.88 z"
               inkscape:connector-curvature="0"
               style="fill:#000088;fill-opacity:1;stroke:#000000;stroke-width:0.52109182;stroke-miterlimit:4;stroke-dasharray:none;stroke-opacity:1" /></g>        </g>
        <g
           id="g5406"
           transform="matrix(1.5731611,0,0,1.5731611,-497.67786,113.94085)"
           style="fill:#ff0000;fill-opacity:1;stroke:#000000;stroke-width:0.2;stroke-miterlimit:4;stroke-dasharray:none;stroke-opacity:1">
          <g
             id="g5408"
             transform="matrix(0.57571429,0,0,-0.57571429,-100.75,323.25)"
             xml:space="preserve"
             stroke-miterlimit="10.433"
             font-style="normal"
             font-variant="normal"
             font-weight="normal"
             font-stretch="normal"
             font-size-adjust="none"
             letter-spacing="normal"
             word-spacing="normal"
             style="font-style:normal;font-variant:normal;font-weight:normal;font-stretch:normal;letter-spacing:normal;word-spacing:normal;text-anchor:start;fill:#ff0000;fill-opacity:1;fill-rule:evenodd;stroke:#000000;stroke-width:0.34739453;stroke-linecap:butt;stroke-linejoin:miter;stroke-miterlimit:4;stroke-dasharray:none;stroke-dashoffset:0;stroke-opacity:1"><path
               d="m 459.91,409.14 -0.02,-0.07 -0.01,-0.08 -0.02,-0.07 -0.01,-0.08 -0.04,-0.16 -0.04,-0.16 -0.03,-0.16 -0.04,-0.16 -0.04,-0.16 -0.04,-0.16 -0.01,-0.08 -0.02,-0.07 -0.02,-0.07 -0.01,-0.07 -0.02,-0.07 -0.01,-0.07 -0.01,-0.06 -0.01,-0.06 -0.01,-0.06 -0.01,-0.05 -0.01,-0.05 -0.01,-0.04 -0.01,-0.04 0,-0.04 0,-0.03 0,-0.02 c 0,-0.89 0.7,-1.35 1.43,-1.35 0.61,0 1.5,0.39 1.85,1.39 0.06,0.11 0.65,2.44 0.95,3.69 l 1.1,4.48 c 0.29,1.1 0.59,2.19 0.84,3.35 0.2,0.84 0.61,2.28 0.66,2.48 0.75,1.55 3.39,6.08 8.1,6.08 2.25,0 2.71,-1.84 2.71,-3.48 0,-3.1 -2.46,-9.47 -3.25,-11.61 -0.44,-1.14 -0.49,-1.75 -0.49,-2.3 0,-2.33 1.74,-4.08 4.08,-4.08 4.69,0 6.53,7.27 6.53,7.67 0,0.5 -0.45,0.5 -0.61,0.5 -0.48,0 -0.48,-0.15 -0.73,-0.9 -1,-3.38 -2.64,-6.17 -5.09,-6.17 -0.85,0 -1.19,0.5 -1.19,1.64 0,1.25 0.45,2.45 0.89,3.54 0.95,2.64 3.05,8.11 3.05,10.96 0,3.34 -2.15,5.32 -5.74,5.32 -4.48,0 -6.92,-3.18 -7.76,-4.32 -0.25,2.79 -2.3,4.32 -4.6,4.32 -2.28,0 -3.23,-1.93 -3.73,-2.82 -0.8,-1.71 -1.5,-4.64 -1.5,-4.85 0,-0.5 0.5,-0.5 0.61,-0.5 0.5,0 0.54,0.07 0.84,1.16 0.84,3.53 1.84,5.92 3.64,5.92 0.99,0 1.55,-0.64 1.55,-2.28 0,-1.05 -0.16,-1.61 -0.8,-4.19 z"
               id="path5410"
               inkscape:connector-curvature="0"
               style="fill:#ff0000;fill-opacity:1;stroke:#000000;stroke-width:0.34739453;stroke-miterlimit:4;stroke-dasharray:none;stroke-opacity:1" /><path
               d="m 495.51,440.65 0.02,0.06 0.03,0.05 0.02,0.05 0.02,0.05 0.02,0.04 0.02,0.05 0.02,0.04 0.02,0.04 0.01,0.05 0.01,0.04 0.02,0.03 0.01,0.04 0.01,0.04 0.01,0.03 0.01,0.04 0.01,0.03 0.01,0.03 0,0.03 0.01,0.03 0.01,0.03 0,0.03 0,0.03 0.01,0.03 0,0.02 0.01,0.06 0,0.05 0,0.04 0,0.05 c 0,1.08 -0.98,1.92 -2.06,1.92 -1.33,0 -1.74,-1.09 -1.91,-1.64 l -4.61,-15.09 c -0.03,-0.06 -0.17,-0.52 -0.17,-0.56 0,-0.41 1.08,-0.77 1.36,-0.77 0.25,0 0.28,0.08 0.52,0.59 z"
               id="path5412"
               inkscape:connector-curvature="0"
               style="fill:#ff0000;fill-opacity:1;stroke:#000000;stroke-width:0.34739453;stroke-miterlimit:4;stroke-dasharray:none;stroke-opacity:1" /><path
               d="m 493.98,407.61 3.54,0 c 0.66,0 1.11,0 1.11,0.76 0,0.49 -0.45,0.49 -1.03,0.49 l -3.31,0 1.28,5.15 c 0.03,0.17 0.11,0.35 0.11,0.49 0,0.64 -0.48,1.12 -1.19,1.12 -0.87,0 -1.39,-0.59 -1.64,-1.5 -0.23,-0.87 0.22,0.8 -1.33,-5.26 l -3.54,0 c -0.66,0 -1.11,0 -1.11,-0.77 0,-0.48 0.4,-0.48 1.04,-0.48 l 3.3,0 -2.05,-8.22 c -0.21,-0.88 -0.53,-2.13 -0.53,-2.58 0,-2.06 1.75,-3.31 3.74,-3.31 3.87,0 6.06,4.87 6.06,5.32 0,0.46 -0.45,0.46 -0.56,0.46 -0.41,0 -0.46,-0.08 -0.72,-0.66 -0.99,-2.2 -2.77,-4.16 -4.67,-4.16 -0.74,0 -1.22,0.46 -1.22,1.71 0,0.36 0.14,1.09 0.2,1.44 z"
               id="path5414"
               inkscape:connector-curvature="0"
               style="fill:#ff0000;fill-opacity:1;stroke:#000000;stroke-width:0.34739453;stroke-miterlimit:4;stroke-dasharray:none;stroke-opacity:1" /><path
               d="m 518.12,397.3 0.52,0.14 0.53,0.16 0.26,0.09 0.26,0.09 0.25,0.1 0.26,0.1 0.25,0.11 0.24,0.11 0.24,0.12 0.23,0.12 0.23,0.13 0.22,0.13 0.22,0.14 0.2,0.14 0.2,0.15 0.19,0.15 0.18,0.15 0.17,0.16 0.16,0.17 0.15,0.17 0.13,0.17 0.13,0.18 0.11,0.18 0.1,0.19 0.08,0.19 0.08,0.19 0.05,0.2 0.04,0.2 0.03,0.21 0.01,0.21 c 0,2.26 -3.07,3.97 -7,3.97 l -8.61,0 c -0.5,0 -0.88,0 -0.88,-0.71 0,-0.42 0.3,-0.42 0.92,-0.42 0.25,0 1.07,0 1.6,-0.14 0,-0.31 0,-0.36 -0.08,-0.62 l -3.27,-13.07 c -0.2,-0.75 -0.22,-0.93 -2.14,-0.93 -0.62,0 -1.01,0 -1.01,-0.71 0,-0.2 0.17,-0.42 0.43,-0.42 0.54,0 1.13,0.08 1.68,0.08 0.59,0 1.2,0.01 1.79,0.01 0.63,0 1.22,-0.01 1.85,-0.01 0.54,0 1.17,-0.08 1.68,-0.08 0.16,0 0.63,0 0.63,0.7 0,0.43 -0.34,0.43 -0.81,0.43 -0.07,0 -0.66,0 -1.08,0.04 -0.63,0.05 -0.64,0.08 -0.64,0.27 0,0.06 0,0.11 0.06,0.36 l 1.58,6.29 3.94,0 0.09,0.85 -3.83,0 1.53,6.14 c 0.21,0.76 0.21,0.81 1.25,0.81 l 2.85,0 c 2.78,0 4.65,-0.67 4.65,-2.64 0,-1.06 -0.59,-2.44 -1.81,-3.26 -0.23,-0.13 -1.66,-1.05 -4.64,-1.05 l -0.09,-0.85 c 1.81,0 3.57,-0.64 3.57,-2.18 0,-0.3 -0.21,-1.14 -0.37,-1.72 -0.14,-0.63 -0.34,-1.42 -0.34,-1.89 0,-2.39 2.54,-2.85 4.09,-2.85 2.45,0 3.62,2.39 3.62,2.97 0,0.42 -0.37,0.42 -0.51,0.42 -0.38,0 -0.42,-0.15 -0.55,-0.48 -0.42,-1.27 -1.51,-2.06 -2.44,-2.06 -0.65,0 -1.35,0.2 -1.35,1.79 0,0.55 0.2,1.94 0.28,2.57 0.09,0.72 0.09,0.83 0.09,0.97 0,1.95 -1.69,2.59 -2.45,2.87 z"
               id="path5416"
               inkscape:connector-curvature="0"
               style="fill:#ff0000;fill-opacity:1;stroke:#000000;stroke-width:0.34739453;stroke-miterlimit:4;stroke-dasharray:none;stroke-opacity:1" /></g>        </g>
        <g
           id="g5622"
           transform="matrix(1.5731611,0,0,1.5731611,-707.02306,109.19486)"
           style="fill:#ff0000;fill-opacity:1;stroke:#000000;stroke-width:0.2;stroke-miterlimit:4;stroke-dasharray:none;stroke-opacity:1">
          <g
             word-spacing="normal"
             letter-spacing="normal"
             font-size-adjust="none"
             font-stretch="normal"
             font-weight="normal"
             font-variant="normal"
             font-style="normal"
             stroke-miterlimit="10.433"
             xml:space="preserve"
             transform="matrix(0.57571429,0,0,-0.57571429,-100.75,323.25)"
             id="g5624"
             style="font-style:normal;font-variant:normal;font-weight:normal;font-stretch:normal;letter-spacing:normal;word-spacing:normal;text-anchor:start;fill:#ff0000;fill-opacity:1;fill-rule:evenodd;stroke:#000000;stroke-width:0.34739453;stroke-linecap:butt;stroke-linejoin:miter;stroke-miterlimit:4;stroke-dasharray:none;stroke-dashoffset:0;stroke-opacity:1"><path
               id="path5626"
               d="m 459.91,409.14 -0.02,-0.07 -0.01,-0.08 -0.02,-0.07 -0.01,-0.08 -0.04,-0.16 -0.04,-0.16 -0.03,-0.16 -0.04,-0.16 -0.04,-0.16 -0.04,-0.16 -0.01,-0.08 -0.02,-0.07 -0.02,-0.07 -0.01,-0.07 -0.02,-0.07 -0.01,-0.07 -0.01,-0.06 -0.01,-0.06 -0.01,-0.06 -0.01,-0.05 -0.01,-0.05 -0.01,-0.04 -0.01,-0.04 0,-0.04 0,-0.03 0,-0.02 c 0,-0.89 0.7,-1.35 1.43,-1.35 0.61,0 1.5,0.39 1.85,1.39 0.06,0.11 0.65,2.44 0.95,3.69 l 1.1,4.48 c 0.29,1.1 0.59,2.19 0.84,3.35 0.2,0.84 0.61,2.28 0.66,2.48 0.75,1.55 3.39,6.08 8.1,6.08 2.25,0 2.71,-1.84 2.71,-3.48 0,-3.1 -2.46,-9.47 -3.25,-11.61 -0.44,-1.14 -0.49,-1.75 -0.49,-2.3 0,-2.33 1.74,-4.08 4.08,-4.08 4.69,0 6.53,7.27 6.53,7.67 0,0.5 -0.45,0.5 -0.61,0.5 -0.48,0 -0.48,-0.15 -0.73,-0.9 -1,-3.38 -2.64,-6.17 -5.09,-6.17 -0.85,0 -1.19,0.5 -1.19,1.64 0,1.25 0.45,2.45 0.89,3.54 0.95,2.64 3.05,8.11 3.05,10.96 0,3.34 -2.15,5.32 -5.74,5.32 -4.48,0 -6.92,-3.18 -7.76,-4.32 -0.25,2.79 -2.3,4.32 -4.6,4.32 -2.28,0 -3.23,-1.93 -3.73,-2.82 -0.8,-1.71 -1.5,-4.64 -1.5,-4.85 0,-0.5 0.5,-0.5 0.61,-0.5 0.5,0 0.54,0.07 0.84,1.16 0.84,3.53 1.84,5.92 3.64,5.92 0.99,0 1.55,-0.64 1.55,-2.28 0,-1.05 -0.16,-1.61 -0.8,-4.19 z"
               inkscape:connector-curvature="0"
               style="fill:#ff0000;fill-opacity:1;stroke:#000000;stroke-width:0.34739453;stroke-miterlimit:4;stroke-dasharray:none;stroke-opacity:1" /><path
               id="path5628"
               d="m 495.51,440.65 0.02,0.06 0.03,0.05 0.02,0.05 0.02,0.05 0.02,0.04 0.02,0.05 0.02,0.04 0.02,0.04 0.01,0.05 0.01,0.04 0.02,0.03 0.01,0.04 0.01,0.04 0.01,0.03 0.01,0.04 0.01,0.03 0.01,0.03 0,0.03 0.01,0.03 0.01,0.03 0,0.03 0,0.03 0.01,0.03 0,0.02 0.01,0.06 0,0.05 0,0.04 0,0.05 c 0,1.08 -0.98,1.92 -2.06,1.92 -1.33,0 -1.74,-1.09 -1.91,-1.64 l -4.61,-15.09 c -0.03,-0.06 -0.17,-0.52 -0.17,-0.56 0,-0.41 1.08,-0.77 1.36,-0.77 0.25,0 0.28,0.08 0.52,0.59 z"
               inkscape:connector-curvature="0"
               style="fill:#ff0000;fill-opacity:1;stroke:#000000;stroke-width:0.34739453;stroke-miterlimit:4;stroke-dasharray:none;stroke-opacity:1" /><path
               id="path5630"
               d="m 493.98,407.61 3.54,0 c 0.66,0 1.11,0 1.11,0.76 0,0.49 -0.45,0.49 -1.03,0.49 l -3.31,0 1.28,5.15 c 0.03,0.17 0.11,0.35 0.11,0.49 0,0.64 -0.48,1.12 -1.19,1.12 -0.87,0 -1.39,-0.59 -1.64,-1.5 -0.23,-0.87 0.22,0.8 -1.33,-5.26 l -3.54,0 c -0.66,0 -1.11,0 -1.11,-0.77 0,-0.48 0.4,-0.48 1.04,-0.48 l 3.3,0 -2.05,-8.22 c -0.21,-0.88 -0.53,-2.13 -0.53,-2.58 0,-2.06 1.75,-3.31 3.74,-3.31 3.87,0 6.06,4.87 6.06,5.32 0,0.46 -0.45,0.46 -0.56,0.46 -0.41,0 -0.46,-0.08 -0.72,-0.66 -0.99,-2.2 -2.77,-4.16 -4.67,-4.16 -0.74,0 -1.22,0.46 -1.22,1.71 0,0.36 0.14,1.09 0.2,1.44 z"
               inkscape:connector-curvature="0"
               style="fill:#ff0000;fill-opacity:1;stroke:#000000;stroke-width:0.34739453;stroke-miterlimit:4;stroke-dasharray:none;stroke-opacity:1" /><path
               id="path5632"
               d="m 512.27,403.69 0.02,0.06 0.01,0.05 0.02,0.06 0.01,0.05 0.02,0.04 0.01,0.05 0.02,0.04 0.02,0.05 0.02,0.04 0.01,0.03 0.02,0.04 0.02,0.03 0.02,0.03 0.03,0.03 0.02,0.03 0.02,0.03 0.03,0.02 0.03,0.03 0.03,0.02 0.03,0.02 0.03,0.02 0.03,0.02 0.04,0.02 0.04,0.01 0.04,0.02 0.04,0.01 0.04,0.01 0.05,0.01 0.05,0.01 0.05,0.01 0.05,0.01 0.06,0.01 c 0.7,0.09 1.2,0.09 1.87,0.09 0.75,0 1.08,0 1.08,0.7 0,0.27 -0.2,0.43 -0.49,0.43 -0.64,0 -1.34,-0.08 -1.98,-0.08 -0.7,0 -1.38,-0.02 -2.08,-0.02 -0.64,0 -1.28,0.02 -1.9,0.02 -0.58,0 -1.22,0.08 -1.79,0.08 -0.17,0 -0.61,0 -0.61,-0.71 0,-0.42 0.32,-0.42 0.93,-0.42 0.25,0 1.06,0 1.59,-0.14 0,-0.31 0,-0.36 -0.08,-0.62 l -3.26,-13.07 c -0.21,-0.75 -0.22,-0.93 -2.13,-0.93 -0.64,0 -1.03,0 -1.03,-0.71 0,-0.42 0.39,-0.42 0.81,-0.42 l 14.13,0 c 0.65,0 0.67,0.03 0.89,0.58 0.25,0.64 2.22,5.62 2.22,5.78 0,0.17 -0.13,0.42 -0.52,0.42 -0.37,0 -0.4,-0.08 -0.67,-0.73 -1.33,-3.19 -2.92,-4.92 -7.03,-4.92 l -3.45,0 c -0.21,0 -0.55,0 -0.8,0.04 0.01,0.21 0.01,0.25 0.06,0.46 z"
               inkscape:connector-curvature="0"
               style="fill:#ff0000;fill-opacity:1;stroke:#000000;stroke-width:0.34739453;stroke-miterlimit:4;stroke-dasharray:none;stroke-opacity:1" /></g>        </g>
        <rect
           y="245.42836"
           x="-144.15614"
           height="27.125463"
           width="28.387157"
           id="use4241-4"
           style="color:#000000;clip-rule:nonzero;display:inline;overflow:visible;visibility:visible;opacity:1;isolation:auto;mix-blend-mode:normal;color-interpolation:sRGB;color-interpolation-filters:linearRGB;solid-color:#000000;solid-opacity:1;fill:#ff0000;fill-opacity:1;fill-rule:evenodd;stroke:#000000;stroke-width:2.23567343;stroke-linecap:butt;stroke-linejoin:miter;stroke-miterlimit:4;stroke-dasharray:none;stroke-dashoffset:0;stroke-opacity:1;color-rendering:auto;image-rendering:auto;shape-rendering:auto;text-rendering:auto;enable-background:accumulate" />
        <rect
           y="339.83206"
           x="-273.92871"
           height="27.125463"
           width="28.387157"
           id="use4241-2"
           style="color:#000000;clip-rule:nonzero;display:inline;overflow:visible;visibility:visible;opacity:1;isolation:auto;mix-blend-mode:normal;color-interpolation:sRGB;color-interpolation-filters:linearRGB;solid-color:#000000;solid-opacity:1;fill:#ff0000;fill-opacity:1;fill-rule:evenodd;stroke:#000000;stroke-width:2.23567343;stroke-linecap:butt;stroke-linejoin:miter;stroke-miterlimit:4;stroke-dasharray:none;stroke-dashoffset:0;stroke-opacity:1;color-rendering:auto;image-rendering:auto;shape-rendering:auto;text-rendering:auto;enable-background:accumulate" />
        <rect
           y="201.51096"
           x="-399.46567"
           height="27.125463"
           width="28.387157"
           id="use4241-3"
           style="color:#000000;clip-rule:nonzero;display:inline;overflow:visible;visibility:visible;opacity:1;isolation:auto;mix-blend-mode:normal;color-interpolation:sRGB;color-interpolation-filters:linearRGB;solid-color:#000000;solid-opacity:1;fill:#ff0000;fill-opacity:1;fill-rule:evenodd;stroke:#000000;stroke-width:2.23567343;stroke-linecap:butt;stroke-linejoin:miter;stroke-miterlimit:4;stroke-dasharray:none;stroke-dashoffset:0;stroke-opacity:1;color-rendering:auto;image-rendering:auto;shape-rendering:auto;text-rendering:auto;enable-background:accumulate" />
        <circle
           style="opacity:1;fill:#000000;fill-opacity:1;fill-rule:nonzero;stroke:#0000e6;stroke-width:3.94952226;stroke-linecap:butt;stroke-linejoin:miter;stroke-miterlimit:4;stroke-dasharray:none;stroke-dashoffset:0;stroke-opacity:1"
           id="use4254-4"
           cx="-377.3721"
           cy="285.97006"
           r="14.568657" />
        <circle
           style="opacity:1;fill:#000000;fill-opacity:1;fill-rule:nonzero;stroke:#0000e6;stroke-width:3.94952226;stroke-linecap:butt;stroke-linejoin:miter;stroke-miterlimit:4;stroke-dasharray:none;stroke-dashoffset:0;stroke-opacity:1"
           id="use4254-8"
           cx="-455.07471"
           cy="206.40024"
           r="14.568657" />
        <circle
           style="opacity:1;fill:#000000;fill-opacity:1;fill-rule:nonzero;stroke:#0000e6;stroke-width:3.94952226;stroke-linecap:butt;stroke-linejoin:miter;stroke-miterlimit:4;stroke-dasharray:none;stroke-dashoffset:0;stroke-opacity:1"
           id="use4254-5"
           cx="-136.79147"
           cy="332.43259"
           r="14.568657" />
        <circle
           style="opacity:1;fill:#000000;fill-opacity:1;fill-rule:nonzero;stroke:#0000e6;stroke-width:3.94952226;stroke-linecap:butt;stroke-linejoin:miter;stroke-miterlimit:4;stroke-dasharray:none;stroke-dashoffset:0;stroke-opacity:1"
           id="use4254-2"
           cx="-457.40326"
           cy="387.87866"
           r="14.568657" />
        <path
           sodipodi:nodetypes="cc"
           style="fill:none;fill-rule:evenodd;stroke:#000000;stroke-width:5;stroke-linecap:butt;stroke-linejoin:miter;stroke-miterlimit:4;stroke-dasharray:none;stroke-opacity:1"
           d="m -357.33445,144.29829 0,285.64662"
           id="path5811"
           inkscape:connector-curvature="0" />
      </g>
      <g
         style="fill:#ff0000;fill-opacity:1;stroke:#000000;stroke-width:0.1291655;stroke-miterlimit:4;stroke-dasharray:none;stroke-opacity:1"
         transform="matrix(1.5484011,0,0,1.5484011,-662.88131,477.49572)"
         id="g5871">
        <g
           style="font-style:normal;font-variant:normal;font-weight:normal;font-stretch:normal;letter-spacing:normal;word-spacing:normal;text-anchor:start;fill:#ff0000;fill-opacity:1;fill-rule:evenodd;stroke:#000000;stroke-width:0.22435693;stroke-linecap:butt;stroke-linejoin:miter;stroke-miterlimit:4;stroke-dasharray:none;stroke-dashoffset:0;stroke-opacity:1"
           word-spacing="normal"
           letter-spacing="normal"
           font-size-adjust="none"
           font-stretch="normal"
           font-weight="normal"
           font-variant="normal"
           font-style="normal"
           stroke-miterlimit="10.433"
           xml:space="preserve"
           transform="matrix(0.57571429,0,0,-0.57571429,-100.75,323.25)"
           id="g5873"><path
             style="fill:#ff0000;fill-opacity:1;stroke:#000000;stroke-width:0.22435693;stroke-miterlimit:4;stroke-dasharray:none;stroke-opacity:1"
             inkscape:connector-curvature="0"
             id="path5875"
             d="m 459.91,409.14 -0.02,-0.07 -0.01,-0.08 -0.02,-0.07 -0.01,-0.08 -0.04,-0.16 -0.04,-0.16 -0.03,-0.16 -0.04,-0.16 -0.04,-0.16 -0.04,-0.16 -0.01,-0.08 -0.02,-0.07 -0.02,-0.07 -0.01,-0.07 -0.02,-0.07 -0.01,-0.07 -0.01,-0.06 -0.01,-0.06 -0.01,-0.06 -0.01,-0.05 -0.01,-0.05 -0.01,-0.04 -0.01,-0.04 0,-0.04 0,-0.03 0,-0.02 c 0,-0.89 0.7,-1.35 1.43,-1.35 0.61,0 1.5,0.39 1.85,1.39 0.06,0.11 0.65,2.44 0.95,3.69 l 1.1,4.48 c 0.29,1.1 0.59,2.19 0.84,3.35 0.2,0.84 0.61,2.28 0.66,2.48 0.75,1.55 3.39,6.08 8.1,6.08 2.25,0 2.71,-1.84 2.71,-3.48 0,-3.1 -2.46,-9.47 -3.25,-11.61 -0.44,-1.14 -0.49,-1.75 -0.49,-2.3 0,-2.33 1.74,-4.08 4.08,-4.08 4.69,0 6.53,7.27 6.53,7.67 0,0.5 -0.45,0.5 -0.61,0.5 -0.48,0 -0.48,-0.15 -0.73,-0.9 -1,-3.38 -2.64,-6.17 -5.09,-6.17 -0.85,0 -1.19,0.5 -1.19,1.64 0,1.25 0.45,2.45 0.89,3.54 0.95,2.64 3.05,8.11 3.05,10.96 0,3.34 -2.15,5.32 -5.74,5.32 -4.48,0 -6.92,-3.18 -7.76,-4.32 -0.25,2.79 -2.3,4.32 -4.6,4.32 -2.28,0 -3.23,-1.93 -3.73,-2.82 -0.8,-1.71 -1.5,-4.64 -1.5,-4.85 0,-0.5 0.5,-0.5 0.61,-0.5 0.5,0 0.54,0.07 0.84,1.16 0.84,3.53 1.84,5.92 3.64,5.92 0.99,0 1.55,-0.64 1.55,-2.28 0,-1.05 -0.16,-1.61 -0.8,-4.19 z" /><path
             style="fill:#ff0000;fill-opacity:1;stroke:#000000;stroke-width:0.22435693;stroke-miterlimit:4;stroke-dasharray:none;stroke-opacity:1"
             inkscape:connector-curvature="0"
             id="path5877"
             d="m 495.51,440.65 0.02,0.06 0.03,0.05 0.02,0.05 0.02,0.05 0.02,0.04 0.02,0.05 0.02,0.04 0.02,0.04 0.01,0.05 0.01,0.04 0.02,0.03 0.01,0.04 0.01,0.04 0.01,0.03 0.01,0.04 0.01,0.03 0.01,0.03 0,0.03 0.01,0.03 0.01,0.03 0,0.03 0,0.03 0.01,0.03 0,0.02 0.01,0.06 0,0.05 0,0.04 0,0.05 c 0,1.08 -0.98,1.92 -2.06,1.92 -1.33,0 -1.74,-1.09 -1.91,-1.64 l -4.61,-15.09 c -0.03,-0.06 -0.17,-0.52 -0.17,-0.56 0,-0.41 1.08,-0.77 1.36,-0.77 0.25,0 0.28,0.08 0.52,0.59 z" /><path
             style="fill:#ff0000;fill-opacity:1;stroke:#000000;stroke-width:0.22435693;stroke-miterlimit:4;stroke-dasharray:none;stroke-opacity:1"
             inkscape:connector-curvature="0"
             id="path5879"
             d="m 493.98,407.61 3.54,0 c 0.66,0 1.11,0 1.11,0.76 0,0.49 -0.45,0.49 -1.03,0.49 l -3.31,0 1.28,5.15 c 0.03,0.17 0.11,0.35 0.11,0.49 0,0.64 -0.48,1.12 -1.19,1.12 -0.87,0 -1.39,-0.59 -1.64,-1.5 -0.23,-0.87 0.22,0.8 -1.33,-5.26 l -3.54,0 c -0.66,0 -1.11,0 -1.11,-0.77 0,-0.48 0.4,-0.48 1.04,-0.48 l 3.3,0 -2.05,-8.22 c -0.21,-0.88 -0.53,-2.13 -0.53,-2.58 0,-2.06 1.75,-3.31 3.74,-3.31 3.87,0 6.06,4.87 6.06,5.32 0,0.46 -0.45,0.46 -0.56,0.46 -0.41,0 -0.46,-0.08 -0.72,-0.66 -0.99,-2.2 -2.77,-4.16 -4.67,-4.16 -0.74,0 -1.22,0.46 -1.22,1.71 0,0.36 0.14,1.09 0.2,1.44 z" /><path
             style="fill:#ff0000;fill-opacity:1;stroke:#000000;stroke-width:0.22435693;stroke-miterlimit:4;stroke-dasharray:none;stroke-opacity:1"
             inkscape:connector-curvature="0"
             id="path5881"
             d="m 551.07,422.5 0.14,0 0.15,0 0.14,0 0.08,0.01 0.07,0 0.07,0.01 0.07,0.01 0.07,0.01 0.07,0.01 0.07,0.01 0.07,0.02 0.06,0.02 0.06,0.02 0.06,0.02 0.06,0.03 0.06,0.03 0.05,0.04 0.05,0.03 0.05,0.05 0.04,0.04 0.04,0.05 0.02,0.03 0.02,0.03 0.01,0.02 0.02,0.03 0.01,0.03 0.02,0.04 0.01,0.03 0.01,0.04 0.01,0.03 0.01,0.04 0.01,0.04 0,0.04 0.01,0.04 0,0.04 0,0.04 0,0.05 c 0,1 -0.95,1 -1.64,1 l -29.84,0 c -0.71,0 -1.64,0 -1.64,-1 0,-0.98 0.93,-0.98 1.68,-0.98 z" /><path
             style="fill:#ff0000;fill-opacity:1;stroke:#000000;stroke-width:0.22435693;stroke-miterlimit:4;stroke-dasharray:none;stroke-opacity:1"
             inkscape:connector-curvature="0"
             id="path5883"
             d="m 551.12,412.82 0.07,0 0.06,0 0.14,0.01 0.14,0 0.07,0 0.07,0.01 0.07,0.01 0.07,0 0.06,0.01 0.07,0.02 0.07,0.01 0.06,0.02 0.07,0.02 0.06,0.02 0.06,0.02 0.06,0.03 0.05,0.03 0.05,0.04 0.05,0.04 0.05,0.04 0.04,0.05 0.02,0.02 0.02,0.03 0.02,0.02 0.02,0.03 0.01,0.03 0.02,0.03 0.01,0.03 0.02,0.03 0.01,0.04 0.01,0.03 0.01,0.04 0.01,0.04 0.01,0.04 0,0.04 0.01,0.04 0,0.04 0,0.05 0,0.04 c 0,1 -0.95,1 -1.69,1 l -29.75,0 c -0.75,0 -1.68,0 -1.68,-1 0,-1 0.93,-1 1.64,-1 z" /><path
             style="fill:#ff0000;fill-opacity:1;stroke:#000000;stroke-width:0.22435693;stroke-miterlimit:4;stroke-dasharray:none;stroke-opacity:1"
             inkscape:connector-curvature="0"
             id="path5885"
             d="m 573.79,409.14 -0.02,-0.07 -0.01,-0.08 -0.02,-0.07 -0.02,-0.08 -0.03,-0.16 -0.04,-0.16 -0.04,-0.16 -0.03,-0.16 -0.04,-0.16 -0.04,-0.16 -0.01,-0.08 -0.02,-0.07 -0.02,-0.07 -0.01,-0.07 -0.02,-0.07 -0.01,-0.07 -0.01,-0.06 -0.02,-0.06 -0.01,-0.06 -0.01,-0.05 0,-0.05 -0.01,-0.04 -0.01,-0.04 0,-0.04 0,-0.03 0,-0.02 c 0,-0.89 0.7,-1.35 1.43,-1.35 0.61,0 1.5,0.39 1.85,1.39 0.06,0.11 0.65,2.44 0.95,3.69 l 1.09,4.48 c 0.3,1.1 0.6,2.19 0.85,3.35 0.2,0.84 0.61,2.28 0.65,2.48 0.75,1.55 3.39,6.08 8.11,6.08 2.25,0 2.71,-1.84 2.71,-3.48 0,-3.1 -2.46,-9.47 -3.25,-11.61 -0.44,-1.14 -0.49,-1.75 -0.49,-2.3 0,-2.33 1.74,-4.08 4.08,-4.08 4.69,0 6.53,7.27 6.53,7.67 0,0.5 -0.45,0.5 -0.61,0.5 -0.48,0 -0.48,-0.15 -0.73,-0.9 -1,-3.38 -2.64,-6.17 -5.1,-6.17 -0.84,0 -1.18,0.5 -1.18,1.64 0,1.25 0.45,2.45 0.89,3.54 0.95,2.64 3.04,8.11 3.04,10.96 0,3.34 -2.14,5.32 -5.73,5.32 -4.48,0 -6.92,-3.18 -7.77,-4.32 -0.25,2.79 -2.29,4.32 -4.59,4.32 -2.28,0 -3.23,-1.93 -3.73,-2.82 -0.8,-1.71 -1.5,-4.64 -1.5,-4.85 0,-0.5 0.5,-0.5 0.61,-0.5 0.5,0 0.54,0.07 0.84,1.16 0.84,3.53 1.84,5.92 3.64,5.92 0.98,0 1.55,-0.64 1.55,-2.28 0,-1.05 -0.16,-1.61 -0.8,-4.19 z" /><path
             style="fill:#ff0000;fill-opacity:1;stroke:#000000;stroke-width:0.22435693;stroke-miterlimit:4;stroke-dasharray:none;stroke-opacity:1"
             inkscape:connector-curvature="0"
             id="path5887"
             d="m 609.39,440.65 0.03,0.06 0.02,0.05 0.02,0.05 0.03,0.05 0.02,0.04 0.01,0.05 0.02,0.04 0.02,0.04 0.01,0.05 0.02,0.04 0.01,0.03 0.01,0.04 0.01,0.04 0.01,0.03 0.01,0.04 0.01,0.03 0.01,0.03 0.01,0.03 0,0.03 0.01,0.03 0,0.03 0.01,0.03 0,0.03 0,0.02 0.01,0.06 0,0.05 0,0.04 0,0.05 c 0,1.08 -0.98,1.92 -2.06,1.92 -1.33,0 -1.73,-1.09 -1.91,-1.64 l -4.61,-15.09 c -0.03,-0.06 -0.17,-0.52 -0.17,-0.56 0,-0.41 1.08,-0.77 1.36,-0.77 0.25,0 0.28,0.08 0.52,0.59 z" /><path
             style="fill:#ff0000;fill-opacity:1;stroke:#000000;stroke-width:0.22435693;stroke-miterlimit:4;stroke-dasharray:none;stroke-opacity:1"
             inkscape:connector-curvature="0"
             id="path5889"
             d="m 607.86,407.61 3.55,0 c 0.65,0 1.11,0 1.11,0.76 0,0.49 -0.46,0.49 -1.04,0.49 l -3.31,0 1.28,5.15 c 0.03,0.17 0.11,0.35 0.11,0.49 0,0.64 -0.48,1.12 -1.18,1.12 -0.88,0 -1.4,-0.59 -1.65,-1.5 -0.23,-0.87 0.22,0.8 -1.32,-5.26 l -3.55,0 c -0.66,0 -1.11,0 -1.11,-0.77 0,-0.48 0.41,-0.48 1.05,-0.48 l 3.29,0 -2.04,-8.22 c -0.22,-0.88 -0.53,-2.13 -0.53,-2.58 0,-2.06 1.75,-3.31 3.73,-3.31 3.87,0 6.06,4.87 6.06,5.32 0,0.46 -0.45,0.46 -0.56,0.46 -0.41,0 -0.45,-0.08 -0.72,-0.66 -0.98,-2.2 -2.76,-4.16 -4.67,-4.16 -0.74,0 -1.22,0.46 -1.22,1.71 0,0.36 0.14,1.09 0.2,1.44 z" /><path
             style="fill:#ff0000;fill-opacity:1;stroke:#000000;stroke-width:0.22435693;stroke-miterlimit:4;stroke-dasharray:none;stroke-opacity:1"
             inkscape:connector-curvature="0"
             id="path5891"
             d="m 626.16,403.69 0.01,0.06 0.02,0.05 0.01,0.06 0.02,0.05 0.01,0.04 0.02,0.05 0.01,0.04 0.02,0.05 0.02,0.04 0.02,0.03 0.02,0.04 0.02,0.03 0.02,0.03 0.02,0.03 0.02,0.03 0.03,0.03 0.02,0.02 0.03,0.03 0.03,0.02 0.03,0.02 0.03,0.02 0.04,0.02 0.03,0.02 0.04,0.01 0.04,0.02 0.04,0.01 0.04,0.01 0.05,0.01 0.05,0.01 0.05,0.01 0.05,0.01 0.06,0.01 c 0.7,0.09 1.2,0.09 1.87,0.09 0.75,0 1.08,0 1.08,0.7 0,0.27 -0.2,0.43 -0.48,0.43 -0.64,0 -1.35,-0.08 -1.99,-0.08 -0.7,0 -1.37,-0.02 -2.08,-0.02 -0.64,0 -1.28,0.02 -1.9,0.02 -0.58,0 -1.22,0.08 -1.78,0.08 -0.18,0 -0.61,0 -0.61,-0.71 0,-0.42 0.31,-0.42 0.92,-0.42 0.25,0 1.06,0 1.59,-0.14 0,-0.31 0,-0.36 -0.08,-0.62 l -3.26,-13.07 c -0.2,-0.75 -0.22,-0.93 -2.13,-0.93 -0.64,0 -1.03,0 -1.03,-0.71 0,-0.42 0.39,-0.42 0.82,-0.42 l 14.12,0 c 0.66,0 0.67,0.03 0.89,0.58 0.25,0.64 2.22,5.62 2.22,5.78 0,0.17 -0.13,0.42 -0.52,0.42 -0.37,0 -0.4,-0.08 -0.67,-0.73 -1.33,-3.19 -2.92,-4.92 -7.03,-4.92 l -3.45,0 c -0.2,0 -0.55,0 -0.8,0.04 0.02,0.21 0.02,0.25 0.06,0.46 z" /><path
             style="fill:#ff0000;fill-opacity:1;stroke:#000000;stroke-width:0.22435693;stroke-miterlimit:4;stroke-dasharray:none;stroke-opacity:1"
             inkscape:connector-curvature="0"
             id="path5893"
             d="m 674.61,417.65 13.91,0 c 0.69,0 1.64,0 1.64,1 0,1 -0.95,1 -1.64,1 l -13.91,0 0,13.96 c 0,0.68 0,1.64 -1,1.64 -0.98,0 -0.98,-0.96 -0.98,-1.64 l 0,-13.96 -13.95,0 c -0.71,0 -1.65,0 -1.65,-1 0,-1 0.94,-1 1.65,-1 l 13.95,0 0,-13.94 c 0,-0.7 0,-1.65 0.98,-1.65 1,0 1,0.95 1,1.65 z" /><path
             style="fill:#ff0000;fill-opacity:1;stroke:#000000;stroke-width:0.22435693;stroke-miterlimit:4;stroke-dasharray:none;stroke-opacity:1"
             inkscape:connector-curvature="0"
             id="path5895"
             d="m 708.43,409.14 -0.02,-0.07 -0.01,-0.08 -0.02,-0.07 -0.01,-0.08 -0.04,-0.16 -0.04,-0.16 -0.03,-0.16 -0.04,-0.16 -0.04,-0.16 -0.04,-0.16 -0.01,-0.08 -0.02,-0.07 -0.02,-0.07 -0.01,-0.07 -0.02,-0.07 -0.01,-0.07 -0.01,-0.06 -0.01,-0.06 -0.02,-0.06 0,-0.05 -0.01,-0.05 -0.01,-0.04 -0.01,-0.04 0,-0.04 0,-0.03 0,-0.02 c 0,-0.89 0.7,-1.35 1.43,-1.35 0.61,0 1.5,0.39 1.85,1.39 0.06,0.11 0.65,2.44 0.95,3.69 l 1.09,4.48 c 0.3,1.1 0.6,2.19 0.85,3.35 0.2,0.84 0.61,2.28 0.65,2.48 0.75,1.55 3.4,6.08 8.11,6.08 2.25,0 2.71,-1.84 2.71,-3.48 0,-3.1 -2.46,-9.47 -3.25,-11.61 -0.44,-1.14 -0.49,-1.75 -0.49,-2.3 0,-2.33 1.74,-4.08 4.08,-4.08 4.69,0 6.53,7.27 6.53,7.67 0,0.5 -0.45,0.5 -0.61,0.5 -0.48,0 -0.48,-0.15 -0.73,-0.9 -1,-3.38 -2.64,-6.17 -5.1,-6.17 -0.84,0 -1.18,0.5 -1.18,1.64 0,1.25 0.45,2.45 0.89,3.54 0.95,2.64 3.04,8.11 3.04,10.96 0,3.34 -2.14,5.32 -5.73,5.32 -4.48,0 -6.92,-3.18 -7.77,-4.32 -0.25,2.79 -2.29,4.32 -4.59,4.32 -2.28,0 -3.23,-1.93 -3.73,-2.82 -0.8,-1.71 -1.5,-4.64 -1.5,-4.85 0,-0.5 0.5,-0.5 0.61,-0.5 0.5,0 0.54,0.07 0.84,1.16 0.84,3.53 1.84,5.92 3.64,5.92 0.98,0 1.55,-0.64 1.55,-2.28 0,-1.05 -0.16,-1.61 -0.8,-4.19 z" /><path
             style="fill:#ff0000;fill-opacity:1;stroke:#000000;stroke-width:0.22435693;stroke-miterlimit:4;stroke-dasharray:none;stroke-opacity:1"
             inkscape:connector-curvature="0"
             id="path5897"
             d="m 744.03,440.65 0.03,0.06 0.02,0.05 0.02,0.05 0.03,0.05 0.02,0.04 0.01,0.05 0.02,0.04 0.02,0.04 0.01,0.05 0.02,0.04 0.01,0.03 0.01,0.04 0.02,0.04 0.01,0.03 0,0.04 0.01,0.03 0.01,0.03 0.01,0.03 0,0.03 0.01,0.03 0,0.03 0.01,0.03 0,0.03 0,0.02 0.01,0.06 0,0.05 0,0.04 0,0.05 c 0,1.08 -0.98,1.92 -2.06,1.92 -1.33,0 -1.73,-1.09 -1.9,-1.64 l -4.61,-15.09 c -0.04,-0.06 -0.18,-0.52 -0.18,-0.56 0,-0.41 1.08,-0.77 1.36,-0.77 0.25,0 0.28,0.08 0.52,0.59 z" /><path
             style="fill:#ff0000;fill-opacity:1;stroke:#000000;stroke-width:0.22435693;stroke-miterlimit:4;stroke-dasharray:none;stroke-opacity:1"
             inkscape:connector-curvature="0"
             id="path5899"
             d="m 742.5,407.61 3.55,0 c 0.65,0 1.11,0 1.11,0.76 0,0.49 -0.46,0.49 -1.04,0.49 l -3.31,0 1.28,5.15 c 0.03,0.17 0.11,0.35 0.11,0.49 0,0.64 -0.48,1.12 -1.18,1.12 -0.88,0 -1.4,-0.59 -1.64,-1.5 -0.24,-0.87 0.21,0.8 -1.33,-5.26 l -3.55,0 c -0.66,0 -1.11,0 -1.11,-0.77 0,-0.48 0.41,-0.48 1.05,-0.48 l 3.29,0 -2.04,-8.22 c -0.22,-0.88 -0.53,-2.13 -0.53,-2.58 0,-2.06 1.75,-3.31 3.73,-3.31 3.88,0 6.06,4.87 6.06,5.32 0,0.46 -0.45,0.46 -0.56,0.46 -0.41,0 -0.45,-0.08 -0.72,-0.66 -0.98,-2.2 -2.76,-4.16 -4.67,-4.16 -0.73,0 -1.22,0.46 -1.22,1.71 0,0.36 0.14,1.09 0.2,1.44 z" /><path
             style="fill:#ff0000;fill-opacity:1;stroke:#000000;stroke-width:0.22435693;stroke-miterlimit:4;stroke-dasharray:none;stroke-opacity:1"
             inkscape:connector-curvature="0"
             id="path5901"
             d="m 766.64,397.3 0.53,0.14 0.52,0.16 0.26,0.09 0.26,0.09 0.26,0.1 0.25,0.1 0.25,0.11 0.24,0.11 0.24,0.12 0.24,0.12 0.22,0.13 0.22,0.13 0.22,0.14 0.2,0.14 0.2,0.15 0.19,0.15 0.18,0.15 0.17,0.16 0.16,0.17 0.15,0.17 0.14,0.17 0.12,0.18 0.11,0.18 0.1,0.19 0.09,0.19 0.07,0.19 0.05,0.2 0.05,0.2 0.02,0.21 0.01,0.21 c 0,2.26 -3.06,3.97 -7,3.97 l -8.61,0 c -0.5,0 -0.87,0 -0.87,-0.71 0,-0.42 0.29,-0.42 0.92,-0.42 0.25,0 1.06,0 1.59,-0.14 0,-0.31 0,-0.36 -0.08,-0.62 l -3.26,-13.07 c -0.21,-0.75 -0.22,-0.93 -2.14,-0.93 -0.63,0 -1.02,0 -1.02,-0.71 0,-0.2 0.17,-0.42 0.44,-0.42 0.53,0 1.12,0.08 1.67,0.08 0.59,0 1.2,0.01 1.8,0.01 0.62,0 1.22,-0.01 1.84,-0.01 0.55,0 1.17,-0.08 1.69,-0.08 0.15,0 0.62,0 0.62,0.7 0,0.43 -0.34,0.43 -0.81,0.43 -0.06,0 -0.66,0 -1.08,0.04 -0.62,0.05 -0.64,0.08 -0.64,0.27 0,0.06 0,0.11 0.06,0.36 l 1.58,6.29 3.94,0 0.09,0.85 -3.82,0 1.53,6.14 c 0.2,0.76 0.2,0.81 1.25,0.81 l 2.84,0 c 2.78,0 4.66,-0.67 4.66,-2.64 0,-1.06 -0.6,-2.44 -1.82,-3.26 -0.23,-0.13 -1.65,-1.05 -4.64,-1.05 L 763,396.89 c 1.81,0 3.58,-0.64 3.58,-2.18 0,-0.3 -0.22,-1.14 -0.38,-1.72 -0.14,-0.63 -0.34,-1.42 -0.34,-1.89 0,-2.39 2.55,-2.85 4.09,-2.85 2.46,0 3.63,2.39 3.63,2.97 0,0.42 -0.38,0.42 -0.52,0.42 -0.37,0 -0.42,-0.15 -0.54,-0.48 -0.43,-1.27 -1.52,-2.06 -2.44,-2.06 -0.66,0 -1.36,0.2 -1.36,1.79 0,0.55 0.2,1.94 0.28,2.57 0.09,0.72 0.09,0.83 0.09,0.97 0,1.95 -1.68,2.59 -2.45,2.87 z" /></g>      </g>
      <g
         style="fill:#000088;fill-opacity:1;stroke:#000000;stroke-width:0.1291655;stroke-miterlimit:4;stroke-dasharray:none;stroke-opacity:1"
         transform="matrix(1.5484011,0,0,1.5484011,-662.75382,426.02502)"
         id="g6049">
        <g
           style="font-style:normal;font-variant:normal;font-weight:normal;font-stretch:normal;letter-spacing:normal;word-spacing:normal;text-anchor:start;fill:#000088;fill-opacity:1;fill-rule:evenodd;stroke:#000000;stroke-width:0.22435693;stroke-linecap:butt;stroke-linejoin:miter;stroke-miterlimit:4;stroke-dasharray:none;stroke-dashoffset:0;stroke-opacity:1"
           id="g6051"
           transform="matrix(0.57571429,0,0,-0.57571429,-100.75,323.25)"
           xml:space="preserve"
           stroke-miterlimit="10.433"
           font-style="normal"
           font-variant="normal"
           font-weight="normal"
           font-stretch="normal"
           font-size-adjust="none"
           letter-spacing="normal"
           word-spacing="normal"><path
             style="fill:#000088;fill-opacity:1;stroke:#000000;stroke-width:0.22435693;stroke-miterlimit:4;stroke-dasharray:none;stroke-opacity:1"
             inkscape:connector-curvature="0"
             d="m 459.91,409.14 -0.02,-0.07 -0.01,-0.08 -0.02,-0.07 -0.01,-0.08 -0.04,-0.16 -0.04,-0.16 -0.03,-0.16 -0.04,-0.16 -0.04,-0.16 -0.04,-0.16 -0.01,-0.08 -0.02,-0.07 -0.02,-0.07 -0.01,-0.07 -0.02,-0.07 -0.01,-0.07 -0.01,-0.06 -0.01,-0.06 -0.01,-0.06 -0.01,-0.05 -0.01,-0.05 -0.01,-0.04 -0.01,-0.04 0,-0.04 0,-0.03 0,-0.02 c 0,-0.89 0.7,-1.35 1.43,-1.35 0.61,0 1.5,0.39 1.85,1.39 0.06,0.11 0.65,2.44 0.95,3.69 l 1.1,4.48 c 0.29,1.1 0.59,2.19 0.84,3.35 0.2,0.84 0.61,2.28 0.66,2.48 0.75,1.55 3.39,6.08 8.1,6.08 2.25,0 2.71,-1.84 2.71,-3.48 0,-3.1 -2.46,-9.47 -3.25,-11.61 -0.44,-1.14 -0.49,-1.75 -0.49,-2.3 0,-2.33 1.74,-4.08 4.08,-4.08 4.69,0 6.53,7.27 6.53,7.67 0,0.5 -0.45,0.5 -0.61,0.5 -0.48,0 -0.48,-0.15 -0.73,-0.9 -1,-3.38 -2.64,-6.17 -5.09,-6.17 -0.85,0 -1.19,0.5 -1.19,1.64 0,1.25 0.45,2.45 0.89,3.54 0.95,2.64 3.05,8.11 3.05,10.96 0,3.34 -2.15,5.32 -5.74,5.32 -4.48,0 -6.92,-3.18 -7.76,-4.32 -0.25,2.79 -2.3,4.32 -4.6,4.32 -2.28,0 -3.23,-1.93 -3.73,-2.82 -0.8,-1.71 -1.5,-4.64 -1.5,-4.85 0,-0.5 0.5,-0.5 0.61,-0.5 0.5,0 0.54,0.07 0.84,1.16 0.84,3.53 1.84,5.92 3.64,5.92 0.99,0 1.55,-0.64 1.55,-2.28 0,-1.05 -0.16,-1.61 -0.8,-4.19 z"
             id="path6053" /><path
             style="fill:#000088;fill-opacity:1;stroke:#000000;stroke-width:0.22435693;stroke-miterlimit:4;stroke-dasharray:none;stroke-opacity:1"
             inkscape:connector-curvature="0"
             d="m 493.98,412.53 3.54,0 c 0.66,0 1.11,0 1.11,0.76 0,0.49 -0.45,0.49 -1.03,0.49 l -3.31,0 1.28,5.15 c 0.03,0.18 0.11,0.35 0.11,0.49 0,0.64 -0.48,1.12 -1.19,1.12 -0.87,0 -1.39,-0.59 -1.64,-1.5 -0.23,-0.87 0.22,0.8 -1.33,-5.26 l -3.54,0 c -0.66,0 -1.11,0 -1.11,-0.77 0,-0.48 0.4,-0.48 1.04,-0.48 l 3.3,0 -2.05,-8.22 c -0.21,-0.88 -0.53,-2.13 -0.53,-2.58 0,-2.06 1.75,-3.31 3.74,-3.31 3.87,0 6.06,4.87 6.06,5.33 0,0.45 -0.45,0.45 -0.56,0.45 -0.41,0 -0.46,-0.08 -0.72,-0.66 -0.99,-2.2 -2.77,-4.15 -4.67,-4.15 -0.74,0 -1.22,0.45 -1.22,1.7 0,0.36 0.14,1.09 0.2,1.44 z"
             id="path6055" /><path
             style="fill:#000088;fill-opacity:1;stroke:#000000;stroke-width:0.22435693;stroke-miterlimit:4;stroke-dasharray:none;stroke-opacity:1"
             inkscape:connector-curvature="0"
             d="m 551.07,422.5 0.14,0 0.15,0 0.14,0 0.08,0.01 0.07,0 0.07,0.01 0.07,0.01 0.07,0.01 0.07,0.01 0.07,0.01 0.07,0.02 0.06,0.02 0.06,0.02 0.06,0.02 0.06,0.03 0.06,0.03 0.05,0.04 0.05,0.03 0.05,0.05 0.04,0.04 0.04,0.05 0.02,0.03 0.02,0.03 0.01,0.02 0.02,0.03 0.01,0.03 0.02,0.04 0.01,0.03 0.01,0.04 0.01,0.03 0.01,0.04 0.01,0.04 0,0.04 0.01,0.04 0,0.04 0,0.04 0,0.05 c 0,1 -0.95,1 -1.64,1 l -29.84,0 c -0.71,0 -1.64,0 -1.64,-1 0,-0.98 0.93,-0.98 1.68,-0.98 z"
             id="path6057" /><path
             style="fill:#000088;fill-opacity:1;stroke:#000000;stroke-width:0.22435693;stroke-miterlimit:4;stroke-dasharray:none;stroke-opacity:1"
             inkscape:connector-curvature="0"
             d="m 551.12,412.82 0.07,0 0.06,0 0.14,0.01 0.14,0 0.07,0 0.07,0.01 0.07,0.01 0.07,0 0.06,0.01 0.07,0.02 0.07,0.01 0.06,0.02 0.07,0.02 0.06,0.02 0.06,0.02 0.06,0.03 0.05,0.03 0.05,0.04 0.05,0.04 0.05,0.04 0.04,0.05 0.02,0.02 0.02,0.03 0.02,0.02 0.02,0.03 0.01,0.03 0.02,0.03 0.01,0.03 0.02,0.03 0.01,0.04 0.01,0.03 0.01,0.04 0.01,0.04 0.01,0.04 0,0.04 0.01,0.04 0,0.04 0,0.05 0,0.04 c 0,1 -0.95,1 -1.69,1 l -29.75,0 c -0.75,0 -1.68,0 -1.68,-1 0,-1 0.93,-1 1.64,-1 z"
             id="path6059" /><path
             style="fill:#000088;fill-opacity:1;stroke:#000000;stroke-width:0.22435693;stroke-miterlimit:4;stroke-dasharray:none;stroke-opacity:1"
             inkscape:connector-curvature="0"
             d="m 573.79,409.14 -0.02,-0.07 -0.01,-0.08 -0.02,-0.07 -0.02,-0.08 -0.03,-0.16 -0.04,-0.16 -0.04,-0.16 -0.03,-0.16 -0.04,-0.16 -0.04,-0.16 -0.01,-0.08 -0.02,-0.07 -0.02,-0.07 -0.01,-0.07 -0.02,-0.07 -0.01,-0.07 -0.01,-0.06 -0.02,-0.06 -0.01,-0.06 -0.01,-0.05 0,-0.05 -0.01,-0.04 -0.01,-0.04 0,-0.04 0,-0.03 0,-0.02 c 0,-0.89 0.7,-1.35 1.43,-1.35 0.61,0 1.5,0.39 1.85,1.39 0.06,0.11 0.65,2.44 0.95,3.69 l 1.09,4.48 c 0.3,1.1 0.6,2.19 0.85,3.35 0.2,0.84 0.61,2.28 0.65,2.48 0.75,1.55 3.39,6.08 8.11,6.08 2.25,0 2.71,-1.84 2.71,-3.48 0,-3.1 -2.46,-9.47 -3.25,-11.61 -0.44,-1.14 -0.49,-1.75 -0.49,-2.3 0,-2.33 1.74,-4.08 4.08,-4.08 4.69,0 6.53,7.27 6.53,7.67 0,0.5 -0.45,0.5 -0.61,0.5 -0.48,0 -0.48,-0.15 -0.73,-0.9 -1,-3.38 -2.64,-6.17 -5.1,-6.17 -0.84,0 -1.18,0.5 -1.18,1.64 0,1.25 0.45,2.45 0.89,3.54 0.95,2.64 3.04,8.11 3.04,10.96 0,3.34 -2.14,5.32 -5.73,5.32 -4.48,0 -6.92,-3.18 -7.77,-4.32 -0.25,2.79 -2.29,4.32 -4.59,4.32 -2.28,0 -3.23,-1.93 -3.73,-2.82 -0.8,-1.71 -1.5,-4.64 -1.5,-4.85 0,-0.5 0.5,-0.5 0.61,-0.5 0.5,0 0.54,0.07 0.84,1.16 0.84,3.53 1.84,5.92 3.64,5.92 0.98,0 1.55,-0.64 1.55,-2.28 0,-1.05 -0.16,-1.61 -0.8,-4.19 z"
             id="path6061" /><path
             style="fill:#000088;fill-opacity:1;stroke:#000000;stroke-width:0.22435693;stroke-miterlimit:4;stroke-dasharray:none;stroke-opacity:1"
             inkscape:connector-curvature="0"
             d="m 607.86,412.53 3.55,0 c 0.65,0 1.11,0 1.11,0.76 0,0.49 -0.46,0.49 -1.04,0.49 l -3.31,0 1.28,5.15 c 0.03,0.18 0.11,0.35 0.11,0.49 0,0.64 -0.48,1.12 -1.18,1.12 -0.88,0 -1.4,-0.59 -1.65,-1.5 -0.23,-0.87 0.22,0.8 -1.32,-5.26 l -3.55,0 c -0.66,0 -1.11,0 -1.11,-0.77 0,-0.48 0.41,-0.48 1.05,-0.48 l 3.29,0 -2.04,-8.22 c -0.22,-0.88 -0.53,-2.13 -0.53,-2.58 0,-2.06 1.75,-3.31 3.73,-3.31 3.87,0 6.06,4.87 6.06,5.33 0,0.45 -0.45,0.45 -0.56,0.45 -0.41,0 -0.45,-0.08 -0.72,-0.66 -0.98,-2.2 -2.76,-4.15 -4.67,-4.15 -0.74,0 -1.22,0.45 -1.22,1.7 0,0.36 0.14,1.09 0.2,1.44 z"
             id="path6063" /><path
             style="fill:#000088;fill-opacity:1;stroke:#000000;stroke-width:0.22435693;stroke-miterlimit:4;stroke-dasharray:none;stroke-opacity:1"
             inkscape:connector-curvature="0"
             d="m 626.16,408.61 0.01,0.06 0.02,0.05 0.01,0.05 0.02,0.05 0.01,0.05 0.02,0.05 0.01,0.04 0.02,0.04 0.02,0.04 0.02,0.04 0.02,0.04 0.02,0.03 0.02,0.03 0.02,0.03 0.02,0.03 0.03,0.03 0.02,0.02 0.03,0.03 0.03,0.02 0.03,0.02 0.03,0.02 0.04,0.02 0.03,0.01 0.04,0.02 0.04,0.01 0.04,0.02 0.04,0.01 0.05,0.01 0.05,0.01 0.05,0.01 0.05,0.01 0.06,0.01 c 0.7,0.09 1.2,0.09 1.87,0.09 0.75,0 1.08,0 1.08,0.7 0,0.27 -0.2,0.42 -0.48,0.42 -0.64,0 -1.35,-0.07 -1.99,-0.07 -0.7,0 -1.37,-0.02 -2.08,-0.02 -0.64,0 -1.28,0.02 -1.9,0.02 -0.58,0 -1.22,0.07 -1.78,0.07 -0.18,0 -0.61,0 -0.61,-0.7 0,-0.42 0.31,-0.42 0.92,-0.42 0.25,0 1.06,0 1.59,-0.14 0,-0.31 0,-0.36 -0.08,-0.63 l -3.26,-13.06 c -0.2,-0.75 -0.22,-0.94 -2.13,-0.94 -0.64,0 -1.03,0 -1.03,-0.7 0,-0.42 0.39,-0.42 0.82,-0.42 l 14.12,0 c 0.66,0 0.67,0.03 0.89,0.58 0.25,0.64 2.22,5.62 2.22,5.78 0,0.17 -0.13,0.42 -0.52,0.42 -0.37,0 -0.4,-0.08 -0.67,-0.73 -1.33,-3.19 -2.92,-4.93 -7.03,-4.93 l -3.45,0 c -0.2,0 -0.55,0 -0.8,0.05 0.02,0.2 0.02,0.25 0.06,0.45 z"
             id="path6065" /><path
             style="fill:#000088;fill-opacity:1;stroke:#000000;stroke-width:0.22435693;stroke-miterlimit:4;stroke-dasharray:none;stroke-opacity:1"
             inkscape:connector-curvature="0"
             d="m 674.61,417.65 13.91,0 c 0.69,0 1.64,0 1.64,1 0,1 -0.95,1 -1.64,1 l -13.91,0 0,13.96 c 0,0.68 0,1.64 -1,1.64 -0.98,0 -0.98,-0.96 -0.98,-1.64 l 0,-13.96 -13.95,0 c -0.71,0 -1.65,0 -1.65,-1 0,-1 0.94,-1 1.65,-1 l 13.95,0 0,-13.94 c 0,-0.7 0,-1.65 0.98,-1.65 1,0 1,0.95 1,1.65 z"
             id="path6067" /><path
             style="fill:#000088;fill-opacity:1;stroke:#000000;stroke-width:0.22435693;stroke-miterlimit:4;stroke-dasharray:none;stroke-opacity:1"
             inkscape:connector-curvature="0"
             d="m 708.43,409.14 -0.02,-0.07 -0.01,-0.08 -0.02,-0.07 -0.01,-0.08 -0.04,-0.16 -0.04,-0.16 -0.03,-0.16 -0.04,-0.16 -0.04,-0.16 -0.04,-0.16 -0.01,-0.08 -0.02,-0.07 -0.02,-0.07 -0.01,-0.07 -0.02,-0.07 -0.01,-0.07 -0.01,-0.06 -0.01,-0.06 -0.02,-0.06 0,-0.05 -0.01,-0.05 -0.01,-0.04 -0.01,-0.04 0,-0.04 0,-0.03 0,-0.02 c 0,-0.89 0.7,-1.35 1.43,-1.35 0.61,0 1.5,0.39 1.85,1.39 0.06,0.11 0.65,2.44 0.95,3.69 l 1.09,4.48 c 0.3,1.1 0.6,2.19 0.85,3.35 0.2,0.84 0.61,2.28 0.65,2.48 0.75,1.55 3.4,6.08 8.11,6.08 2.25,0 2.71,-1.84 2.71,-3.48 0,-3.1 -2.46,-9.47 -3.25,-11.61 -0.44,-1.14 -0.49,-1.75 -0.49,-2.3 0,-2.33 1.74,-4.08 4.08,-4.08 4.69,0 6.53,7.27 6.53,7.67 0,0.5 -0.45,0.5 -0.61,0.5 -0.48,0 -0.48,-0.15 -0.73,-0.9 -1,-3.38 -2.64,-6.17 -5.1,-6.17 -0.84,0 -1.18,0.5 -1.18,1.64 0,1.25 0.45,2.45 0.89,3.54 0.95,2.64 3.04,8.11 3.04,10.96 0,3.34 -2.14,5.32 -5.73,5.32 -4.48,0 -6.92,-3.18 -7.77,-4.32 -0.25,2.79 -2.29,4.32 -4.59,4.32 -2.28,0 -3.23,-1.93 -3.73,-2.82 -0.8,-1.71 -1.5,-4.64 -1.5,-4.85 0,-0.5 0.5,-0.5 0.61,-0.5 0.5,0 0.54,0.07 0.84,1.16 0.84,3.53 1.84,5.92 3.64,5.92 0.98,0 1.55,-0.64 1.55,-2.28 0,-1.05 -0.16,-1.61 -0.8,-4.19 z"
             id="path6069" /><path
             style="fill:#000088;fill-opacity:1;stroke:#000000;stroke-width:0.22435693;stroke-miterlimit:4;stroke-dasharray:none;stroke-opacity:1"
             inkscape:connector-curvature="0"
             d="m 742.5,412.53 3.55,0 c 0.65,0 1.11,0 1.11,0.76 0,0.49 -0.46,0.49 -1.04,0.49 l -3.31,0 1.28,5.15 c 0.03,0.18 0.11,0.35 0.11,0.49 0,0.64 -0.48,1.12 -1.18,1.12 -0.88,0 -1.4,-0.59 -1.64,-1.5 -0.24,-0.87 0.21,0.8 -1.33,-5.26 l -3.55,0 c -0.66,0 -1.11,0 -1.11,-0.77 0,-0.48 0.41,-0.48 1.05,-0.48 l 3.29,0 -2.04,-8.22 c -0.22,-0.88 -0.53,-2.13 -0.53,-2.58 0,-2.06 1.75,-3.31 3.73,-3.31 3.88,0 6.06,4.87 6.06,5.33 0,0.45 -0.45,0.45 -0.56,0.45 -0.41,0 -0.45,-0.08 -0.72,-0.66 -0.98,-2.2 -2.76,-4.15 -4.67,-4.15 -0.73,0 -1.22,0.45 -1.22,1.7 0,0.36 0.14,1.09 0.2,1.44 z"
             id="path6071" /><path
             style="fill:#000088;fill-opacity:1;stroke:#000000;stroke-width:0.22435693;stroke-miterlimit:4;stroke-dasharray:none;stroke-opacity:1"
             inkscape:connector-curvature="0"
             d="m 766.64,402.22 0.53,0.14 0.52,0.16 0.26,0.09 0.26,0.09 0.26,0.1 0.25,0.1 0.25,0.11 0.24,0.11 0.24,0.12 0.24,0.12 0.22,0.13 0.22,0.13 0.22,0.14 0.2,0.14 0.2,0.15 0.19,0.15 0.18,0.15 0.17,0.16 0.16,0.17 0.15,0.17 0.14,0.17 0.12,0.18 0.11,0.18 0.1,0.18 0.09,0.19 0.07,0.2 0.05,0.2 0.05,0.2 0.02,0.21 0.01,0.21 c 0,2.26 -3.06,3.96 -7,3.96 l -8.61,0 c -0.5,0 -0.87,0 -0.87,-0.7 0,-0.42 0.29,-0.42 0.92,-0.42 0.25,0 1.06,0 1.59,-0.14 0,-0.31 0,-0.36 -0.08,-0.63 l -3.26,-13.06 c -0.21,-0.75 -0.22,-0.94 -2.14,-0.94 -0.63,0 -1.02,0 -1.02,-0.7 0,-0.2 0.17,-0.42 0.44,-0.42 0.53,0 1.12,0.08 1.67,0.08 0.59,0 1.2,0.01 1.8,0.01 0.62,0 1.22,-0.01 1.84,-0.01 0.55,0 1.17,-0.08 1.69,-0.08 0.15,0 0.62,0 0.62,0.7 0,0.42 -0.34,0.42 -0.81,0.42 -0.06,0 -0.66,0 -1.08,0.05 -0.62,0.05 -0.64,0.08 -0.64,0.27 0,0.06 0,0.11 0.06,0.36 l 1.58,6.29 3.94,0 0.09,0.85 -3.82,0 1.53,6.14 c 0.2,0.76 0.2,0.81 1.25,0.81 l 2.84,0 c 2.78,0 4.66,-0.67 4.66,-2.64 0,-1.06 -0.6,-2.44 -1.82,-3.27 -0.23,-0.12 -1.65,-1.04 -4.64,-1.04 L 763,401.81 c 1.81,0 3.58,-0.64 3.58,-2.19 0,-0.29 -0.22,-1.14 -0.38,-1.71 -0.14,-0.63 -0.34,-1.43 -0.34,-1.89 0,-2.4 2.55,-2.85 4.09,-2.85 2.46,0 3.63,2.39 3.63,2.97 0,0.42 -0.38,0.42 -0.52,0.42 -0.37,0 -0.42,-0.15 -0.54,-0.48 -0.43,-1.27 -1.52,-2.06 -2.44,-2.06 -0.66,0 -1.36,0.2 -1.36,1.79 0,0.55 0.2,1.94 0.28,2.57 0.09,0.71 0.09,0.82 0.09,0.96 0,1.96 -1.68,2.6 -2.45,2.88 z"
             id="path6073" /></g>      </g>
    </g>
  </g>
</svg>
